  0
SECTION
  2
HEADER
  9
$ACADVER
  1
AC1014
  9
$HANDSEED
  5
FFFF
  9
$MEASUREMENT
 70
     1
  0
ENDSEC
  0
SECTION
  2
TABLES
  0
TABLE
  2
VPORT
  5
8
330
0
100
AcDbSymbolTable
 70
     4
  0
VPORT
  5
2E
330
8
100
AcDbSymbolTableRecord
100
AcDbViewportTableRecord
  2
*ACTIVE
 70
     0
 10
0.0
 20
0.0
 11
1.0
 21
1.0
 12
210.0
 22
148.5
 13
0.0
 23
0.0
 14
10.0
 24
10.0
 15
10.0
 25
10.0
 16
0.0
 26
0.0
 36
1.0
 17
0.0
 27
0.0
 37
0.0
 40
341.0
 41
1.24
 42
50.0
 43
0.0
 44
0.0
 50
0.0
 51
0.0
 71
     0
 72
   100
 73
     1
 74
     3
 75
     0
 76
     0
 77
     0
 78
     0
  0
ENDTAB
  0
TABLE
  2
LTYPE
  5
5
330
0
100
AcDbSymbolTable
 70
     1
  0
LTYPE
  5
14
330
5
100
AcDbSymbolTableRecord
100
AcDbLinetypeTableRecord
  2
BYBLOCK
 70
     0
  3

 72
    65
 73
     0
 40
0.0
  0
LTYPE
  5
15
330
5
100
AcDbSymbolTableRecord
100
AcDbLinetypeTableRecord
  2
BYLAYER
 70
     0
  3

 72
    65
 73
     0
 40
0.0
  0
LTYPE
  5
16
330
5
100
AcDbSymbolTableRecord
100
AcDbLinetypeTableRecord
  2
CONTINUOUS
 70
     0
  3
Solid line
 72
    65
 73
     0
 40
0.0
  0
ENDTAB
  0
TABLE
  2
LAYER
  5
2
100
AcDbSymbolTable
 70
2
  0
LAYER
  5
50
100
AcDbSymbolTableRecord
100
AcDbLayerTableRecord
  2
0
 70
0
  6
CONTINUOUS
  0
LAYER
  5
51
100
AcDbSymbolTableRecord
100
AcDbLayerTableRecord
  2
Layer_1
 70
0
  6
CONTINUOUS
  0
ENDTAB
  0
TABLE
  2
STYLE
  5
3
330
0
100
AcDbSymbolTable
 70
     1
  0
STYLE
  5
11
330
3
100
AcDbSymbolTableRecord
100
AcDbTextStyleTableRecord
  2
STANDARD
 70
     0
 40
0.0
 41
1.0
 50
0.0
 71
     0
 42
2.5
  3
txt
  4

  0
ENDTAB
  0
TABLE
  2
VIEW
  5
6
330
0
100
AcDbSymbolTable
 70
     0
  0
ENDTAB
  0
TABLE
  2
UCS
  5
7
330
0
100
AcDbSymbolTable
 70
     0
  0
ENDTAB
  0
TABLE
  2
APPID
  5
9
330
0
100
AcDbSymbolTable
 70
     2
  0
APPID
  5
12
330
9
100
AcDbSymbolTableRecord
100
AcDbRegAppTableRecord
  2
ACAD
 70
     0
  0
ENDTAB
  0
TABLE
  2
DIMSTYLE
  5
A
330
0
100
AcDbSymbolTable
 70
     1
  0
DIMSTYLE
105
27
330
A
100
AcDbSymbolTableRecord
100
AcDbDimStyleTableRecord
  2
ISO-25
 70
     0
  3

  4

  5

  6

  7

 40
1.0
 41
2.5
 42
0.625
 43
3.75
 44
1.25
 45
0.0
 46
0.0
 47
0.0
 48
0.0
140
2.5
141
2.5
142
0.0
143
0.03937007874016
144
1.0
145
0.0
146
1.0
147
0.625
 71
     0
 72
     0
 73
     0
 74
     0
 75
     0
 76
     0
 77
     1
 78
     8
170
     0
171
     3
172
     1
173
     0
174
     0
175
     0
176
     0
177
     0
178
     0
270
     2
271
     2
272
     2
273
     2
274
     3
340
11
275
     0
280
     0
281
     0
282
     0
283
     0
284
     8
285
     0
286
     0
287
     3
288
     0
  0
ENDTAB
  0
TABLE
  2
BLOCK_RECORD
  5
1
330
0
100
AcDbSymbolTable
 70
     1
  0
BLOCK_RECORD
  5
1F
330
1
100
AcDbSymbolTableRecord
100
AcDbBlockTableRecord
  2
*MODEL_SPACE
  0
BLOCK_RECORD
  5
1B
330
1
100
AcDbSymbolTableRecord
100
AcDbBlockTableRecord
  2
*PAPER_SPACE
  0
ENDTAB
  0
ENDSEC
  0
SECTION
  2
BLOCKS
  0
BLOCK
  5
20
330
1F
100
AcDbEntity
  8
0
100
AcDbBlockBegin
  2
*MODEL_SPACE
 70
     0
 10
0.0
 20
0.0
 30
0.0
  3
*MODEL_SPACE
  1

  0
ENDBLK
  5
21
330
1F
100
AcDbEntity
  8
0
100
AcDbBlockEnd
  0
BLOCK
  5
1C
330
1B
100
AcDbEntity
 67
     1
  8
0
100
AcDbBlockBegin
  2
*PAPER_SPACE
  1

  0
ENDBLK
  5
1D
330
1B
100
AcDbEntity
 67
     1
  8
0
100
AcDbBlockEnd
  0
ENDSEC
  0
SECTION
  2
ENTITIES
  0
SPLINE
  5
100
100
AcDbEntity
  8
Layer_1
 62
7
100
AcDbSpline
 70
8
 71
3
 72
8
 73
4
 74
0
 40
0
 40
0
 40
0
 40
0
 40
1
 40
1
 40
1
 40
1
 10
65.054357
 20
263.447234
 30
0.0
 10
64.333483
 20
266.082539
 30
0.0
 10
63.034763
 20
268.062656
 30
0.0
 10
61.158198
 20
269.387586
 30
0.0
  0
SPLINE
  5
101
100
AcDbEntity
  8
Layer_1
 62
7
100
AcDbSpline
 70
8
 71
3
 72
8
 73
4
 74
0
 40
0
 40
0
 40
0
 40
0
 40
1
 40
1
 40
1
 40
1
 10
61.158198
 20
269.387586
 30
0.0
 10
59.293074
 20
270.712519
 30
0.0
 10
57.204823
 20
271.374986
 30
0.0
 10
54.893445
 20
271.374986
 30
0.0
  0
SPLINE
  5
102
100
AcDbEntity
  8
Layer_1
 62
7
100
AcDbSpline
 70
8
 71
3
 72
8
 73
4
 74
0
 40
0
 40
0
 40
0
 40
0
 40
1
 40
1
 40
1
 40
1
 10
54.893445
 20
271.374986
 30
0.0
 10
52.318890
 20
271.374986
 30
0.0
 10
49.875924
 20
270.661561
 30
0.0
 10
47.564545
 20
269.234712
 30
0.0
  0
SPLINE
  5
103
100
AcDbEntity
  8
Layer_1
 62
7
100
AcDbSpline
 70
8
 71
3
 72
8
 73
4
 74
0
 40
0
 40
0
 40
0
 40
0
 40
1
 40
1
 40
1
 40
1
 10
47.564545
 20
269.234712
 30
0.0
 10
45.264608
 20
267.822421
 30
0.0
 10
43.245011
 20
265.878702
 30
0.0
 10
41.505756
 20
263.403555
 30
0.0
  0
SPLINE
  5
104
100
AcDbEntity
  8
Layer_1
 62
7
100
AcDbSpline
 70
8
 71
3
 72
8
 73
4
 74
0
 40
0
 40
0
 40
0
 40
0
 40
1
 40
1
 40
1
 40
1
 10
41.505756
 20
263.403555
 30
0.0
 10
39.766501
 20
260.928408
 30
0.0
 10
38.896873
 20
258.780855
 30
0.0
 10
38.896873
 20
256.960895
 30
0.0
  0
SPLINE
  5
105
100
AcDbEntity
  8
Layer_1
 62
7
100
AcDbSpline
 70
8
 71
3
 72
8
 73
4
 74
0
 40
0
 40
0
 40
0
 40
0
 40
1
 40
1
 40
1
 40
1
 10
38.896873
 20
256.960895
 30
0.0
 10
38.896873
 20
255.781559
 30
0.0
 10
39.388899
 20
254.645903
 30
0.0
 10
40.372952
 20
253.553928
 30
0.0
  0
SPLINE
  5
106
100
AcDbEntity
  8
Layer_1
 62
7
100
AcDbSpline
 70
8
 71
3
 72
8
 73
4
 74
0
 40
0
 40
0
 40
0
 40
0
 40
1
 40
1
 40
1
 40
1
 10
40.372952
 20
253.553928
 30
0.0
 10
41.357004
 20
252.461950
 30
0.0
 10
42.701495
 20
251.915961
 30
0.0
 10
44.406424
 20
251.915961
 30
0.0
  0
SPLINE
  5
107
100
AcDbEntity
  8
Layer_1
 62
7
100
AcDbSpline
 70
8
 71
3
 72
8
 73
4
 74
0
 40
0
 40
0
 40
0
 40
0
 40
1
 40
1
 40
1
 40
1
 10
44.406424
 20
251.915961
 30
0.0
 10
47.575986
 20
251.915961
 30
0.0
 10
50.510979
 20
252.993378
 30
0.0
 10
53.211402
 20
255.148212
 30
0.0
  0
SPLINE
  5
108
100
AcDbEntity
  8
Layer_1
 62
7
100
AcDbSpline
 70
8
 71
3
 72
8
 73
4
 74
0
 40
0
 40
0
 40
0
 40
0
 40
1
 40
1
 40
1
 40
1
 10
53.211402
 20
255.148212
 30
0.0
 10
55.911824
 20
257.303046
 30
0.0
 10
57.262036
 20
259.537958
 30
0.0
 10
57.262036
 20
261.852950
 30
0.0
  0
SPLINE
  5
109
100
AcDbEntity
  8
Layer_1
 62
7
100
AcDbSpline
 70
8
 71
3
 72
8
 73
4
 74
0
 40
0
 40
0
 40
0
 40
0
 40
1
 40
1
 40
1
 40
1
 10
57.262036
 20
261.852950
 30
0.0
 10
57.262036
 20
262.653732
 30
0.0
 10
56.958811
 20
263.410835
 30
0.0
 10
56.352361
 20
264.124262
 30
0.0
  0
SPLINE
  5
10a
100
AcDbEntity
  8
Layer_1
 62
7
100
AcDbSpline
 70
8
 71
3
 72
8
 73
4
 74
0
 40
0
 40
0
 40
0
 40
0
 40
1
 40
1
 40
1
 40
1
 10
56.352361
 20
264.124262
 30
0.0
 10
55.745909
 20
264.837685
 30
0.0
 10
54.944936
 20
265.194396
 30
0.0
 10
53.949443
 20
265.194396
 30
0.0
  0
SPLINE
  5
10b
100
AcDbEntity
  8
Layer_1
 62
7
100
AcDbSpline
 70
8
 71
3
 72
8
 73
4
 74
0
 40
0
 40
0
 40
0
 40
0
 40
1
 40
1
 40
1
 40
1
 10
53.949443
 20
265.194396
 30
0.0
 10
51.992779
 20
265.194396
 30
0.0
 10
49.893086
 20
264.306255
 30
0.0
 10
47.650362
 20
262.529973
 30
0.0
  0
SPLINE
  5
10c
100
AcDbEntity
  8
Layer_1
 62
7
100
AcDbSpline
 70
8
 71
3
 72
8
 73
4
 74
0
 40
0
 40
0
 40
0
 40
0
 40
1
 40
1
 40
1
 40
1
 10
47.650362
 20
262.529973
 30
0.0
 10
45.419082
 20
260.753692
 30
0.0
 10
43.456699
 20
258.227587
 30
0.0
 10
41.763214
 20
254.951658
 30
0.0
  0
SPLINE
  5
10d
100
AcDbEntity
  8
Layer_1
 62
7
100
AcDbSpline
 70
8
 71
3
 72
8
 73
4
 74
0
 40
0
 40
0
 40
0
 40
0
 40
1
 40
1
 40
1
 40
1
 10
41.643066
 20
255.060854
 30
0.0
 10
43.187800
 20
258.089269
 30
0.0
 10
45.098693
 20
260.564416
 30
0.0
 10
47.375743
 20
262.486294
 30
0.0
  0
SPLINE
  5
10e
100
AcDbEntity
  8
Layer_1
 62
7
100
AcDbSpline
 70
8
 71
3
 72
8
 73
4
 74
0
 40
0
 40
0
 40
0
 40
0
 40
1
 40
1
 40
1
 40
1
 10
47.375743
 20
262.486294
 30
0.0
 10
49.664236
 20
264.408173
 30
0.0
 10
51.849748
 20
265.369113
 30
0.0
 10
53.932277
 20
265.369113
 30
0.0
  0
SPLINE
  5
10f
100
AcDbEntity
  8
Layer_1
 62
7
100
AcDbSpline
 70
8
 71
3
 72
8
 73
4
 74
0
 40
0
 40
0
 40
0
 40
0
 40
1
 40
1
 40
1
 40
1
 10
53.932277
 20
265.369113
 30
0.0
 10
55.019313
 20
265.369113
 30
0.0
 10
55.871778
 20
264.983282
 30
0.0
 10
56.489671
 20
264.211620
 30
0.0
  0
SPLINE
  5
110
100
AcDbEntity
  8
Layer_1
 62
7
100
AcDbSpline
 70
8
 71
3
 72
8
 73
4
 74
0
 40
0
 40
0
 40
0
 40
0
 40
1
 40
1
 40
1
 40
1
 10
56.489671
 20
264.211620
 30
0.0
 10
57.107564
 20
263.439955
 30
0.0
 10
57.416511
 20
262.653732
 30
0.0
 10
57.416511
 20
261.852950
 30
0.0
  0
SPLINE
  5
111
100
AcDbEntity
  8
Layer_1
 62
7
100
AcDbSpline
 70
8
 71
3
 72
8
 73
4
 74
0
 40
0
 40
0
 40
0
 40
0
 40
1
 40
1
 40
1
 40
1
 10
57.416511
 20
261.852950
 30
0.0
 10
57.416511
 20
259.494281
 30
0.0
 10
56.037693
 20
257.215689
 30
0.0
 10
53.280057
 20
255.017175
 30
0.0
  0
SPLINE
  5
112
100
AcDbEntity
  8
Layer_1
 62
7
100
AcDbSpline
 70
8
 71
3
 72
8
 73
4
 74
0
 40
0
 40
0
 40
0
 40
0
 40
1
 40
1
 40
1
 40
1
 10
53.280057
 20
255.017175
 30
0.0
 10
50.533864
 20
252.818663
 30
0.0
 10
47.575986
 20
251.719408
 30
0.0
 10
44.406424
 20
251.719408
 30
0.0
  0
SPLINE
  5
113
100
AcDbEntity
  8
Layer_1
 62
7
100
AcDbSpline
 70
8
 71
3
 72
8
 73
4
 74
0
 40
0
 40
0
 40
0
 40
0
 40
1
 40
1
 40
1
 40
1
 10
44.406424
 20
251.719408
 30
0.0
 10
42.575629
 20
251.719408
 30
0.0
 10
41.110993
 20
252.352753
 30
0.0
 10
40.012516
 20
253.619445
 30
0.0
  0
SPLINE
  5
114
100
AcDbEntity
  8
Layer_1
 62
7
100
AcDbSpline
 70
8
 71
3
 72
8
 73
4
 74
0
 40
0
 40
0
 40
0
 40
0
 40
1
 40
1
 40
1
 40
1
 10
40.012516
 20
253.619445
 30
0.0
 10
38.914039
 20
254.886139
 30
0.0
 10
38.364800
 20
256.378508
 30
0.0
 10
38.364800
 20
258.096551
 30
0.0
  0
SPLINE
  5
115
100
AcDbEntity
  8
Layer_1
 62
7
100
AcDbSpline
 70
8
 71
3
 72
8
 73
4
 74
0
 40
0
 40
0
 40
0
 40
0
 40
1
 40
1
 40
1
 40
1
 10
38.364800
 20
258.096551
 30
0.0
 10
38.364800
 20
260.557137
 30
0.0
 10
39.108561
 20
262.857567
 30
0.0
 10
40.596082
 20
264.997843
 30
0.0
  0
SPLINE
  5
116
100
AcDbEntity
  8
Layer_1
 62
7
100
AcDbSpline
 70
8
 71
3
 72
8
 73
4
 74
0
 40
0
 40
0
 40
0
 40
0
 40
1
 40
1
 40
1
 40
1
 10
40.596082
 20
264.997843
 30
0.0
 10
42.095044
 20
267.152677
 30
0.0
 10
44.143246
 20
268.790641
 30
0.0
 10
46.740687
 20
269.911735
 30
0.0
  0
SPLINE
  5
117
100
AcDbEntity
  8
Layer_1
 62
7
100
AcDbSpline
 70
8
 71
3
 72
8
 73
4
 74
0
 40
0
 40
0
 40
0
 40
0
 40
1
 40
1
 40
1
 40
1
 10
46.740687
 20
269.911735
 30
0.0
 10
49.338127
 20
271.047391
 30
0.0
 10
51.964173
 20
271.615218
 30
0.0
 10
54.618825
 20
271.615218
 30
0.0
  0
SPLINE
  5
118
100
AcDbEntity
  8
Layer_1
 62
7
100
AcDbSpline
 70
8
 71
3
 72
8
 73
4
 74
0
 40
0
 40
0
 40
0
 40
0
 40
1
 40
1
 40
1
 40
1
 10
54.618825
 20
271.615218
 30
0.0
 10
57.078957
 20
271.615218
 30
0.0
 10
59.253026
 20
270.967313
 30
0.0
 10
61.141033
 20
269.671503
 30
0.0
  0
SPLINE
  5
119
100
AcDbEntity
  8
Layer_1
 62
7
100
AcDbSpline
 70
8
 71
3
 72
8
 73
4
 74
0
 40
0
 40
0
 40
0
 40
0
 40
1
 40
1
 40
1
 40
1
 10
61.141033
 20
269.671503
 30
0.0
 10
63.040482
 20
268.375689
 30
0.0
 10
64.384973
 20
266.337333
 30
0.0
 10
65.174505
 20
263.556434
 30
0.0
  0
SPLINE
  5
11a
100
AcDbEntity
  8
Layer_1
 62
7
100
AcDbSpline
 70
8
 71
3
 72
8
 73
4
 74
0
 40
0
 40
0
 40
0
 40
0
 40
1
 40
1
 40
1
 40
1
 10
65.174505
 20
263.556434
 30
0.0
 10
65.540664
 20
263.876747
 30
0.0
 10
66.089902
 20
264.320817
 30
0.0
 10
66.822220
 20
264.888643
 30
0.0
  0
LWPOLYLINE
  5
11b
100
AcDbEntity
  8
Layer_1
 62
7
100
AcDbPolyline
 90
2
 70
0
 10
41.763214
 20
254.951658
 30
0.0
 10
41.643066
 20
255.060854
 30
0.0
  0
SPLINE
  5
11c
100
AcDbEntity
  8
Layer_1
 62
7
100
AcDbSpline
 70
8
 71
3
 72
8
 73
4
 74
0
 40
0
 40
0
 40
0
 40
0
 40
1
 40
1
 40
1
 40
1
 10
67.628912
 20
265.325433
 30
0.0
 10
67.319967
 20
265.092478
 30
0.0
 10
66.959530
 20
264.801285
 30
0.0
 10
66.547601
 20
264.451852
 30
0.0
  0
LWPOLYLINE
  5
11d
100
AcDbEntity
  8
Layer_1
 62
7
100
AcDbPolyline
 90
4
 70
0
 10
66.822220
 20
264.888643
 30
0.0
 10
68.778882
 20
266.417410
 30
0.0
 10
68.847537
 20
266.242694
 30
0.0
 10
67.628912
 20
265.325433
 30
0.0
  0
SPLINE
  5
11e
100
AcDbEntity
  8
Layer_1
 62
7
100
AcDbSpline
 70
8
 71
3
 72
8
 73
4
 74
0
 40
0
 40
0
 40
0
 40
0
 40
1
 40
1
 40
1
 40
1
 10
65.225994
 20
263.381718
 30
0.0
 10
65.477728
 20
262.449898
 30
0.0
 10
65.603595
 20
261.525357
 30
0.0
 10
65.603595
 20
260.608095
 30
0.0
  0
SPLINE
  5
11f
100
AcDbEntity
  8
Layer_1
 62
7
100
AcDbSpline
 70
8
 71
3
 72
8
 73
4
 74
0
 40
0
 40
0
 40
0
 40
0
 40
1
 40
1
 40
1
 40
1
 10
65.603595
 20
260.608095
 30
0.0
 10
65.603595
 20
257.856315
 30
0.0
 10
64.928490
 20
254.929818
 30
0.0
 10
63.578278
 20
251.828603
 30
0.0
  0
SPLINE
  5
120
100
AcDbEntity
  8
Layer_1
 62
7
100
AcDbSpline
 70
8
 71
3
 72
8
 73
4
 74
0
 40
0
 40
0
 40
0
 40
0
 40
1
 40
1
 40
1
 40
1
 10
63.578278
 20
251.828603
 30
0.0
 10
62.239511
 20
248.741949
 30
0.0
 10
60.334340
 20
246.215844
 30
0.0
 10
57.862767
 20
244.250288
 30
0.0
  0
SPLINE
  5
121
100
AcDbEntity
  8
Layer_1
 62
7
100
AcDbSpline
 70
8
 71
3
 72
8
 73
4
 74
0
 40
0
 40
0
 40
0
 40
0
 40
1
 40
1
 40
1
 40
1
 10
57.862767
 20
244.250288
 30
0.0
 10
55.402635
 20
242.284729
 30
0.0
 10
52.616393
 20
241.301949
 30
0.0
 10
49.504042
 20
241.301949
 30
0.0
  0
SPLINE
  5
122
100
AcDbEntity
  8
Layer_1
 62
7
100
AcDbSpline
 70
8
 71
3
 72
8
 73
4
 74
0
 40
0
 40
0
 40
0
 40
0
 40
1
 40
1
 40
1
 40
1
 10
49.504042
 20
241.301949
 30
0.0
 10
47.822000
 20
241.301949
 30
0.0
 10
46.334479
 20
241.600423
 30
0.0
 10
45.041479
 20
242.197372
 30
0.0
  0
SPLINE
  5
123
100
AcDbEntity
  8
Layer_1
 62
7
100
AcDbSpline
 70
8
 71
3
 72
8
 73
4
 74
0
 40
0
 40
0
 40
0
 40
0
 40
1
 40
1
 40
1
 40
1
 10
45.041479
 20
242.197372
 30
0.0
 10
43.450977
 20
241.702343
 30
0.0
 10
41.734607
 20
241.454828
 30
0.0
 10
39.892368
 20
241.454828
 30
0.0
  0
SPLINE
  5
124
100
AcDbEntity
  8
Layer_1
 62
7
100
AcDbSpline
 70
8
 71
3
 72
8
 73
4
 74
0
 40
0
 40
0
 40
0
 40
0
 40
1
 40
1
 40
1
 40
1
 10
39.892368
 20
241.454828
 30
0.0
 10
38.370521
 20
241.454828
 30
0.0
 10
37.254881
 20
241.622264
 30
0.0
 10
36.545448
 20
241.957135
 30
0.0
  0
SPLINE
  5
125
100
AcDbEntity
  8
Layer_1
 62
7
100
AcDbSpline
 70
8
 71
3
 72
8
 73
4
 74
0
 40
0
 40
0
 40
0
 40
0
 40
1
 40
1
 40
1
 40
1
 10
36.545448
 20
241.957135
 30
0.0
 10
35.836015
 20
242.306568
 30
0.0
 10
35.481298
 20
242.728798
 30
0.0
 10
35.481298
 20
243.223828
 30
0.0
  0
SPLINE
  5
126
100
AcDbEntity
  8
Layer_1
 62
7
100
AcDbSpline
 70
8
 71
3
 72
8
 73
4
 74
0
 40
0
 40
0
 40
0
 40
0
 40
1
 40
1
 40
1
 40
1
 10
35.481298
 20
243.223828
 30
0.0
 10
35.481298
 20
244.155648
 30
0.0
 10
36.396696
 20
244.621558
 30
0.0
 10
38.227491
 20
244.621558
 30
0.0
  0
SPLINE
  5
127
100
AcDbEntity
  8
Layer_1
 62
7
100
AcDbSpline
 70
8
 71
3
 72
8
 73
4
 74
0
 40
0
 40
0
 40
0
 40
0
 40
1
 40
1
 40
1
 40
1
 10
38.227491
 20
244.621558
 30
0.0
 10
39.589143
 20
244.621558
 30
0.0
 10
41.202531
 20
244.279406
 30
0.0
 10
43.067655
 20
243.595102
 30
0.0
  0
LWPOLYLINE
  5
128
100
AcDbEntity
  8
Layer_1
 62
7
100
AcDbPolyline
 90
2
 70
0
 10
66.547601
 20
264.451852
 30
0.0
 10
65.225994
 20
263.381718
 30
0.0
  0
SPLINE
  5
129
100
AcDbEntity
  8
Layer_1
 62
7
100
AcDbSpline
 70
8
 71
3
 72
8
 73
4
 74
0
 40
0
 40
0
 40
0
 40
0
 40
1
 40
1
 40
1
 40
1
 10
45.573556
 20
242.524963
 30
0.0
 10
45.630767
 20
242.495859
 30
0.0
 10
46.008368
 20
242.597777
 30
0.0
 10
46.706360
 20
242.830716
 30
0.0
  0
SPLINE
  5
12a
100
AcDbEntity
  8
Layer_1
 62
7
100
AcDbSpline
 70
8
 71
3
 72
8
 73
4
 74
0
 40
0
 40
0
 40
0
 40
0
 40
1
 40
1
 40
1
 40
1
 10
46.706360
 20
242.830716
 30
0.0
 10
47.415793
 20
243.063671
 30
0.0
 10
48.102341
 20
243.376705
 30
0.0
 10
48.766004
 20
243.769818
 30
0.0
  0
SPLINE
  5
12b
100
AcDbEntity
  8
Layer_1
 62
7
100
AcDbSpline
 70
8
 71
3
 72
8
 73
4
 74
0
 40
0
 40
0
 40
0
 40
0
 40
1
 40
1
 40
1
 40
1
 10
48.766004
 20
243.769818
 30
0.0
 10
49.441109
 20
244.162928
 30
0.0
 10
50.156263
 20
244.708916
 30
0.0
 10
50.911466
 20
245.407781
 30
0.0
  0
SPLINE
  5
12c
100
AcDbEntity
  8
Layer_1
 62
7
100
AcDbSpline
 70
8
 71
3
 72
8
 73
4
 74
0
 40
0
 40
0
 40
0
 40
0
 40
1
 40
1
 40
1
 40
1
 10
50.911466
 20
245.407781
 30
0.0
 10
51.666668
 20
246.121207
 30
0.0
 10
52.336053
 20
246.856472
 30
0.0
 10
52.919621
 20
247.613576
 30
0.0
  0
SPLINE
  5
12d
100
AcDbEntity
  8
Layer_1
 62
7
100
AcDbSpline
 70
8
 71
3
 72
8
 73
4
 74
0
 40
0
 40
0
 40
0
 40
0
 40
1
 40
1
 40
1
 40
1
 10
52.919621
 20
247.613576
 30
0.0
 10
53.514629
 20
248.385238
 30
0.0
 10
54.590221
 20
249.986803
 30
0.0
 10
56.146397
 20
252.418273
 30
0.0
  0
SPLINE
  5
12e
100
AcDbEntity
  8
Layer_1
 62
7
100
AcDbSpline
 70
8
 71
3
 72
8
 73
4
 74
0
 40
0
 40
0
 40
0
 40
0
 40
1
 40
1
 40
1
 40
1
 10
56.146397
 20
252.418273
 30
0.0
 10
59.476154
 20
257.674318
 30
0.0
 10
62.445474
 20
261.350639
 30
0.0
 10
65.054357
 20
263.447234
 30
0.0
  0
LWPOLYLINE
  5
12f
100
AcDbEntity
  8
Layer_1
 62
7
100
AcDbPolyline
 90
2
 70
0
 10
43.067655
 20
243.595102
 30
0.0
 10
45.573556
 20
242.524963
 30
0.0
  0
SPLINE
  5
130
100
AcDbEntity
  8
Layer_1
 62
7
100
AcDbSpline
 70
8
 71
3
 72
8
 73
4
 74
0
 40
0
 40
0
 40
0
 40
0
 40
1
 40
1
 40
1
 40
1
 10
45.968319
 20
242.372088
 30
0.0
 10
45.945446
 20
242.372088
 30
0.0
 10
46.139968
 20
242.306569
 30
0.0
 10
46.551885
 20
242.175530
 30
0.0
  0
LWPOLYLINE
  5
131
100
AcDbEntity
  8
Layer_1
 62
7
100
AcDbPolyline
 90
1
 70
1
 10
65.054357
 20
263.447234
 30
0.0
  0
SPLINE
  5
132
100
AcDbEntity
  8
Layer_1
 62
7
100
AcDbSpline
 70
8
 71
3
 72
8
 73
4
 74
0
 40
0
 40
0
 40
0
 40
0
 40
1
 40
1
 40
1
 40
1
 10
48.817494
 20
241.651382
 30
0.0
 10
48.989132
 20
241.636814
 30
0.0
 10
49.166491
 20
241.614975
 30
0.0
 10
49.349570
 20
241.585865
 30
0.0
  0
SPLINE
  5
133
100
AcDbEntity
  8
Layer_1
 62
7
100
AcDbSpline
 70
8
 71
3
 72
8
 73
4
 74
0
 40
0
 40
0
 40
0
 40
0
 40
1
 40
1
 40
1
 40
1
 10
49.349570
 20
241.585865
 30
0.0
 10
49.521206
 20
241.571298
 30
0.0
 10
49.692843
 20
241.564014
 30
0.0
 10
49.864481
 20
241.564014
 30
0.0
  0
SPLINE
  5
134
100
AcDbEntity
  8
Layer_1
 62
7
100
AcDbSpline
 70
8
 71
3
 72
8
 73
4
 74
0
 40
0
 40
0
 40
0
 40
0
 40
1
 40
1
 40
1
 40
1
 10
49.864481
 20
241.564014
 30
0.0
 10
50.036117
 20
241.549447
 30
0.0
 10
50.207754
 20
241.542163
 30
0.0
 10
50.379393
 20
241.542163
 30
0.0
  0
SPLINE
  5
135
100
AcDbEntity
  8
Layer_1
 62
7
100
AcDbSpline
 70
8
 71
3
 72
8
 73
4
 74
0
 40
0
 40
0
 40
0
 40
0
 40
1
 40
1
 40
1
 40
1
 10
50.379393
 20
241.542163
 30
0.0
 10
52.850966
 20
241.542163
 30
0.0
 10
55.288212
 20
242.473983
 30
0.0
 10
57.691130
 20
244.337623
 30
0.0
  0
SPLINE
  5
136
100
AcDbEntity
  8
Layer_1
 62
7
100
AcDbSpline
 70
8
 71
3
 72
8
 73
4
 74
0
 40
0
 40
0
 40
0
 40
0
 40
1
 40
1
 40
1
 40
1
 10
57.691130
 20
244.337623
 30
0.0
 10
60.105490
 20
246.201263
 30
0.0
 10
61.999218
 20
248.676410
 30
0.0
 10
63.372314
 20
251.763064
 30
0.0
  0
SPLINE
  5
137
100
AcDbEntity
  8
Layer_1
 62
7
100
AcDbSpline
 70
8
 71
3
 72
8
 73
4
 74
0
 40
0
 40
0
 40
0
 40
0
 40
1
 40
1
 40
1
 40
1
 10
63.372314
 20
251.763064
 30
0.0
 10
64.756854
 20
254.864276
 30
0.0
 10
65.449124
 20
257.819892
 30
0.0
 10
65.449124
 20
260.629913
 30
0.0
  0
SPLINE
  5
138
100
AcDbEntity
  8
Layer_1
 62
7
100
AcDbSpline
 70
8
 71
3
 72
8
 73
4
 74
0
 40
0
 40
0
 40
0
 40
0
 40
1
 40
1
 40
1
 40
1
 10
65.449124
 20
260.629913
 30
0.0
 10
65.449124
 20
261.474375
 30
0.0
 10
65.328977
 20
262.333397
 30
0.0
 10
65.088684
 20
263.206978
 30
0.0
  0
SPLINE
  5
139
100
AcDbEntity
  8
Layer_1
 62
7
100
AcDbSpline
 70
8
 71
3
 72
8
 73
4
 74
0
 40
0
 40
0
 40
0
 40
0
 40
1
 40
1
 40
1
 40
1
 10
65.088684
 20
263.206978
 30
0.0
 10
64.299155
 20
262.493552
 30
0.0
 10
63.561117
 20
261.700048
 30
0.0
 10
62.874568
 20
260.826467
 30
0.0
  0
SPLINE
  5
13a
100
AcDbEntity
  8
Layer_1
 62
7
100
AcDbSpline
 70
8
 71
3
 72
8
 73
4
 74
0
 40
0
 40
0
 40
0
 40
0
 40
1
 40
1
 40
1
 40
1
 10
62.874568
 20
260.826467
 30
0.0
 10
62.199462
 20
259.982005
 30
0.0
 10
61.484307
 20
258.933707
 30
0.0
 10
60.729104
 20
257.681574
 30
0.0
  0
SPLINE
  5
13b
100
AcDbEntity
  8
Layer_1
 62
7
100
AcDbSpline
 70
8
 71
3
 72
8
 73
4
 74
0
 40
0
 40
0
 40
0
 40
0
 40
1
 40
1
 40
1
 40
1
 10
60.729104
 20
257.681574
 30
0.0
 10
60.088325
 20
256.604157
 30
0.0
 10
59.207255
 20
254.973472
 30
0.0
 10
58.085893
 20
252.789519
 30
0.0
  0
SPLINE
  5
13c
100
AcDbEntity
  8
Layer_1
 62
7
100
AcDbSpline
 70
8
 71
3
 72
8
 73
4
 74
0
 40
0
 40
0
 40
0
 40
0
 40
1
 40
1
 40
1
 40
1
 10
58.085893
 20
252.789519
 30
0.0
 10
57.239151
 20
251.144276
 30
0.0
 10
56.564045
 20
249.950382
 30
0.0
 10
56.060576
 20
249.207836
 30
0.0
  0
SPLINE
  5
13d
100
AcDbEntity
  8
Layer_1
 62
7
100
AcDbSpline
 70
8
 71
3
 72
8
 73
4
 74
0
 40
0
 40
0
 40
0
 40
0
 40
1
 40
1
 40
1
 40
1
 10
56.060576
 20
249.207836
 30
0.0
 10
55.602878
 20
248.523532
 30
0.0
 10
55.065082
 20
247.868346
 30
0.0
 10
54.447188
 20
247.242278
 30
0.0
  0
SPLINE
  5
13e
100
AcDbEntity
  8
Layer_1
 62
7
100
AcDbSpline
 70
8
 71
3
 72
8
 73
4
 74
0
 40
0
 40
0
 40
0
 40
0
 40
1
 40
1
 40
1
 40
1
 10
54.447188
 20
247.242278
 30
0.0
 10
53.714870
 20
246.499736
 30
0.0
 10
52.953947
 20
245.844550
 30
0.0
 10
52.164418
 20
245.276721
 30
0.0
  0
SPLINE
  5
13f
100
AcDbEntity
  8
Layer_1
 62
7
100
AcDbSpline
 70
8
 71
3
 72
8
 73
4
 74
0
 40
0
 40
0
 40
0
 40
0
 40
1
 40
1
 40
1
 40
1
 10
52.164418
 20
245.276721
 30
0.0
 10
51.306231
 20
244.665214
 30
0.0
 10
50.442324
 20
244.148346
 30
0.0
 10
49.572697
 20
243.726116
 30
0.0
  0
SPLINE
  5
140
100
AcDbEntity
  8
Layer_1
 62
7
100
AcDbSpline
 70
8
 71
3
 72
8
 73
4
 74
0
 40
0
 40
0
 40
0
 40
0
 40
1
 40
1
 40
1
 40
1
 10
49.572697
 20
243.726116
 30
0.0
 10
47.707575
 20
242.823415
 30
0.0
 10
46.506116
 20
242.372065
 30
0.0
 10
45.968319
 20
242.372065
 30
0.0
  0
LWPOLYLINE
  5
141
100
AcDbEntity
  8
Layer_1
 62
7
100
AcDbPolyline
 90
3
 70
0
 10
46.551885
 20
242.175530
 30
0.0
 10
48.268255
 20
241.738740
 30
0.0
 10
48.817494
 20
241.651382
 30
0.0
  0
SPLINE
  5
142
100
AcDbEntity
  8
Layer_1
 62
7
100
AcDbSpline
 70
8
 71
3
 72
8
 73
4
 74
0
 40
0
 40
0
 40
0
 40
0
 40
1
 40
1
 40
1
 40
1
 10
44.698205
 20
242.350237
 30
0.0
 10
42.238075
 20
243.660609
 30
0.0
 10
39.938139
 20
244.315795
 30
0.0
 10
37.798396
 20
244.315795
 30
0.0
  0
SPLINE
  5
143
100
AcDbEntity
  8
Layer_1
 62
7
100
AcDbSpline
 70
8
 71
3
 72
8
 73
4
 74
0
 40
0
 40
0
 40
0
 40
0
 40
1
 40
1
 40
1
 40
1
 10
37.798396
 20
244.315795
 30
0.0
 10
36.390974
 20
244.315795
 30
0.0
 10
35.687263
 20
243.951803
 30
0.0
 10
35.687263
 20
243.223819
 30
0.0
  0
SPLINE
  5
144
100
AcDbEntity
  8
Layer_1
 62
7
100
AcDbSpline
 70
8
 71
3
 72
8
 73
4
 74
0
 40
0
 40
0
 40
0
 40
0
 40
1
 40
1
 40
1
 40
1
 10
35.687263
 20
243.223819
 30
0.0
 10
35.687263
 20
242.874386
 30
0.0
 10
36.007652
 20
242.524954
 30
0.0
 10
36.648430
 20
242.175521
 30
0.0
  0
SPLINE
  5
145
100
AcDbEntity
  8
Layer_1
 62
7
100
AcDbSpline
 70
8
 71
3
 72
8
 73
4
 74
0
 40
0
 40
0
 40
0
 40
0
 40
1
 40
1
 40
1
 40
1
 10
36.648430
 20
242.175521
 30
0.0
 10
37.300650
 20
241.826089
 30
0.0
 10
38.393405
 20
241.651372
 30
0.0
 10
39.926696
 20
241.651372
 30
0.0
  0
SPLINE
  5
146
100
AcDbEntity
  8
Layer_1
 62
7
100
AcDbSpline
 70
8
 71
3
 72
8
 73
4
 74
0
 40
0
 40
0
 40
0
 40
0
 40
1
 40
1
 40
1
 40
1
 10
39.926696
 20
241.651372
 30
0.0
 10
41.837589
 20
241.651372
 30
0.0
 10
43.428092
 20
241.884327
 30
0.0
 10
44.698205
 20
242.350237
 30
0.0
  0
LWPOLYLINE
  5
147
100
AcDbEntity
  8
Layer_1
 62
7
100
AcDbPolyline
 90
1
 70
1
 10
45.968319
 20
242.372065
 30
0.0
  0
LWPOLYLINE
  5
148
100
AcDbEntity
  8
Layer_1
 62
7
100
AcDbPolyline
 90
1
 70
1
 10
44.698205
 20
242.350237
 30
0.0
  0
SPLINE
  5
149
100
AcDbEntity
  8
Layer_1
 62
7
100
AcDbSpline
 70
8
 71
3
 72
8
 73
4
 74
0
 40
0
 40
0
 40
0
 40
0
 40
1
 40
1
 40
1
 40
1
 10
65.225994
 20
248.618194
 30
0.0
 10
65.637923
 20
249.040424
 30
0.0
 10
65.929706
 20
249.368016
 30
0.0
 10
66.101345
 20
249.600971
 30
0.0
  0
SPLINE
  5
14a
100
AcDbEntity
  8
Layer_1
 62
7
100
AcDbSpline
 70
8
 71
3
 72
8
 73
4
 74
0
 40
0
 40
0
 40
0
 40
0
 40
1
 40
1
 40
1
 40
1
 10
66.101345
 20
249.600971
 30
0.0
 10
65.735186
 20
249.877607
 30
0.0
 10
65.552106
 20
250.256158
 30
0.0
 10
65.552106
 20
250.736627
 30
0.0
  0
SPLINE
  5
14b
100
AcDbEntity
  8
Layer_1
 62
7
100
AcDbSpline
 70
8
 71
3
 72
8
 73
4
 74
0
 40
0
 40
0
 40
0
 40
0
 40
1
 40
1
 40
1
 40
1
 10
65.552106
 20
250.736627
 30
0.0
 10
65.552106
 20
251.042382
 30
0.0
 10
65.632203
 20
251.311737
 30
0.0
 10
65.792398
 20
251.544692
 30
0.0
  0
SPLINE
  5
14c
100
AcDbEntity
  8
Layer_1
 62
7
100
AcDbSpline
 70
8
 71
3
 72
8
 73
4
 74
0
 40
0
 40
0
 40
0
 40
0
 40
1
 40
1
 40
1
 40
1
 10
65.792398
 20
251.544692
 30
0.0
 10
65.964034
 20
251.777647
 30
0.0
 10
66.152834
 20
251.894124
 30
0.0
 10
66.358798
 20
251.894124
 30
0.0
  0
SPLINE
  5
14d
100
AcDbEntity
  8
Layer_1
 62
7
100
AcDbSpline
 70
8
 71
3
 72
8
 73
4
 74
0
 40
0
 40
0
 40
0
 40
0
 40
1
 40
1
 40
1
 40
1
 10
66.358798
 20
251.894124
 30
0.0
 10
66.507552
 20
251.894124
 30
0.0
 10
66.639141
 20
251.814045
 30
0.0
 10
66.753565
 20
251.653887
 30
0.0
  0
SPLINE
  5
14e
100
AcDbEntity
  8
Layer_1
 62
7
100
AcDbSpline
 70
8
 71
3
 72
8
 73
4
 74
0
 40
0
 40
0
 40
0
 40
0
 40
1
 40
1
 40
1
 40
1
 10
66.753565
 20
251.653887
 30
0.0
 10
66.879431
 20
251.493732
 30
0.0
 10
66.942364
 20
251.297177
 30
0.0
 10
66.942364
 20
251.064222
 30
0.0
  0
SPLINE
  5
14f
100
AcDbEntity
  8
Layer_1
 62
7
100
AcDbSpline
 70
8
 71
3
 72
8
 73
4
 74
0
 40
0
 40
0
 40
0
 40
0
 40
1
 40
1
 40
1
 40
1
 10
66.942364
 20
251.064222
 30
0.0
 10
66.942364
 20
250.831267
 30
0.0
 10
66.879431
 20
250.627431
 30
0.0
 10
66.753565
 20
250.452715
 30
0.0
  0
SPLINE
  5
150
100
AcDbEntity
  8
Layer_1
 62
7
100
AcDbSpline
 70
8
 71
3
 72
8
 73
4
 74
0
 40
0
 40
0
 40
0
 40
0
 40
1
 40
1
 40
1
 40
1
 10
66.753565
 20
250.452715
 30
0.0
 10
66.627697
 20
250.292557
 30
0.0
 10
66.473223
 20
250.212478
 30
0.0
 10
66.290144
 20
250.212478
 30
0.0
  0
SPLINE
  5
151
100
AcDbEntity
  8
Layer_1
 62
7
100
AcDbSpline
 70
8
 71
3
 72
8
 73
4
 74
0
 40
0
 40
0
 40
0
 40
0
 40
1
 40
1
 40
1
 40
1
 10
66.290144
 20
250.212478
 30
0.0
 10
66.164278
 20
250.212478
 30
0.0
 10
66.032690
 20
250.270717
 30
0.0
 10
65.895380
 20
250.387194
 30
0.0
  0
SPLINE
  5
152
100
AcDbEntity
  8
Layer_1
 62
7
100
AcDbSpline
 70
8
 71
3
 72
8
 73
4
 74
0
 40
0
 40
0
 40
0
 40
0
 40
1
 40
1
 40
1
 40
1
 10
65.895380
 20
250.387194
 30
0.0
 10
65.883932
 20
250.328955
 30
0.0
 10
65.878207
 20
250.292557
 30
0.0
 10
65.878207
 20
250.277999
 30
0.0
  0
SPLINE
  5
153
100
AcDbEntity
  8
Layer_1
 62
7
100
AcDbSpline
 70
8
 71
3
 72
8
 73
4
 74
0
 40
0
 40
0
 40
0
 40
0
 40
1
 40
1
 40
1
 40
1
 10
65.878207
 20
250.277999
 30
0.0
 10
65.878207
 20
250.146960
 30
0.0
 10
65.958305
 20
250.015923
 30
0.0
 10
66.118499
 20
249.884887
 30
0.0
  0
SPLINE
  5
154
100
AcDbEntity
  8
Layer_1
 62
7
100
AcDbSpline
 70
8
 71
3
 72
8
 73
4
 74
0
 40
0
 40
0
 40
0
 40
0
 40
1
 40
1
 40
1
 40
1
 10
66.118499
 20
249.884887
 30
0.0
 10
66.278694
 20
249.753848
 30
0.0
 10
66.513265
 20
249.688329
 30
0.0
 10
66.822213
 20
249.688329
 30
0.0
  0
SPLINE
  5
155
100
AcDbEntity
  8
Layer_1
 62
7
100
AcDbSpline
 70
8
 71
3
 72
8
 73
4
 74
0
 40
0
 40
0
 40
0
 40
0
 40
1
 40
1
 40
1
 40
1
 10
66.822213
 20
249.688329
 30
0.0
 10
67.268468
 20
249.688329
 30
0.0
 10
67.749052
 20
249.833926
 30
0.0
 10
68.263964
 20
250.125120
 30
0.0
  0
LWPOLYLINE
  5
156
100
AcDbEntity
  8
Layer_1
 62
7
100
AcDbPolyline
 90
3
 70
0
 10
62.737259
 20
245.735376
 30
0.0
 10
62.617111
 20
245.888251
 30
0.0
 10
65.225994
 20
248.618194
 30
0.0
  0
SPLINE
  5
157
100
AcDbEntity
  8
Layer_1
 62
7
100
AcDbSpline
 70
8
 71
3
 72
8
 73
4
 74
0
 40
0
 40
0
 40
0
 40
0
 40
1
 40
1
 40
1
 40
1
 10
69.173638
 20
248.836590
 30
0.0
 10
68.956233
 20
248.297880
 30
0.0
 10
68.504256
 20
247.628134
 30
0.0
 10
67.817708
 20
246.827353
 30
0.0
  0
SPLINE
  5
158
100
AcDbEntity
  8
Layer_1
 62
7
100
AcDbSpline
 70
8
 71
3
 72
8
 73
4
 74
0
 40
0
 40
0
 40
0
 40
0
 40
1
 40
1
 40
1
 40
1
 10
67.817708
 20
246.827353
 30
0.0
 10
67.142601
 20
246.041130
 30
0.0
 10
66.467495
 20
245.196668
 30
0.0
 10
65.792391
 20
244.293967
 30
0.0
  0
SPLINE
  5
159
100
AcDbEntity
  8
Layer_1
 62
7
100
AcDbSpline
 70
8
 71
3
 72
8
 73
4
 74
0
 40
0
 40
0
 40
0
 40
0
 40
1
 40
1
 40
1
 40
1
 10
65.792391
 20
244.293967
 30
0.0
 10
65.117284
 20
243.405825
 30
0.0
 10
64.733960
 20
242.874395
 30
0.0
 10
64.642421
 20
242.699679
 30
0.0
  0
SPLINE
  5
15a
100
AcDbEntity
  8
Layer_1
 62
7
100
AcDbSpline
 70
8
 71
3
 72
8
 73
4
 74
0
 40
0
 40
0
 40
0
 40
0
 40
1
 40
1
 40
1
 40
1
 10
64.642421
 20
242.699679
 30
0.0
 10
64.550881
 20
242.524963
 30
0.0
 10
64.505111
 20
242.357527
 30
0.0
 10
64.505111
 20
242.197372
 30
0.0
  0
SPLINE
  5
15b
100
AcDbEntity
  8
Layer_1
 62
7
100
AcDbSpline
 70
8
 71
3
 72
8
 73
4
 74
0
 40
0
 40
0
 40
0
 40
0
 40
1
 40
1
 40
1
 40
1
 10
64.505111
 20
242.197372
 30
0.0
 10
64.505111
 20
241.789701
 30
0.0
 10
64.688191
 20
241.585865
 30
0.0
 10
65.054350
 20
241.585865
 30
0.0
  0
SPLINE
  5
15c
100
AcDbEntity
  8
Layer_1
 62
7
100
AcDbSpline
 70
8
 71
3
 72
8
 73
4
 74
0
 40
0
 40
0
 40
0
 40
0
 40
1
 40
1
 40
1
 40
1
 10
65.054350
 20
241.585865
 30
0.0
 10
65.489163
 20
241.585865
 30
0.0
 10
66.164269
 20
241.906178
 30
0.0
 10
67.079667
 20
242.546805
 30
0.0
  0
SPLINE
  5
15d
100
AcDbEntity
  8
Layer_1
 62
7
100
AcDbSpline
 70
8
 71
3
 72
8
 73
4
 74
0
 40
0
 40
0
 40
0
 40
0
 40
1
 40
1
 40
1
 40
1
 10
67.079667
 20
242.546805
 30
0.0
 10
67.995064
 20
243.201989
 30
0.0
 10
69.162196
 20
244.315804
 30
0.0
 10
70.581062
 20
245.888251
 30
0.0
  0
LWPOLYLINE
  5
15e
100
AcDbEntity
  8
Layer_1
 62
7
100
AcDbPolyline
 90
2
 70
0
 10
68.263964
 20
250.125120
 30
0.0
 10
69.173638
 20
248.836590
 30
0.0
  0
SPLINE
  5
15f
100
AcDbEntity
  8
Layer_1
 62
7
100
AcDbSpline
 70
8
 71
3
 72
8
 73
4
 74
0
 40
0
 40
0
 40
0
 40
0
 40
1
 40
1
 40
1
 40
1
 10
70.701210
 20
245.735376
 30
0.0
 10
68.035113
 20
242.808878
 30
0.0
 10
66.141384
 20
241.345628
 30
0.0
 10
65.020022
 20
241.345628
 30
0.0
  0
SPLINE
  5
160
100
AcDbEntity
  8
Layer_1
 62
7
100
AcDbSpline
 70
8
 71
3
 72
8
 73
4
 74
0
 40
0
 40
0
 40
0
 40
0
 40
1
 40
1
 40
1
 40
1
 10
65.020022
 20
241.345628
 30
0.0
 10
64.688192
 20
241.345628
 30
0.0
 10
64.425015
 20
241.476665
 30
0.0
 10
64.230492
 20
241.738740
 30
0.0
  0
SPLINE
  5
161
100
AcDbEntity
  8
Layer_1
 62
7
100
AcDbSpline
 70
8
 71
3
 72
8
 73
4
 74
0
 40
0
 40
0
 40
0
 40
0
 40
1
 40
1
 40
1
 40
1
 10
64.230492
 20
241.738740
 30
0.0
 10
64.047412
 20
242.015375
 30
0.0
 10
63.955873
 20
242.372088
 30
0.0
 10
63.955873
 20
242.808879
 30
0.0
  0
SPLINE
  5
162
100
AcDbEntity
  8
Layer_1
 62
7
100
AcDbSpline
 70
8
 71
3
 72
8
 73
4
 74
0
 40
0
 40
0
 40
0
 40
0
 40
1
 40
1
 40
1
 40
1
 10
63.955873
 20
242.808879
 30
0.0
 10
63.955873
 20
243.362147
 30
0.0
 10
64.093182
 20
243.915415
 30
0.0
 10
64.367801
 20
244.468683
 30
0.0
  0
SPLINE
  5
163
100
AcDbEntity
  8
Layer_1
 62
7
100
AcDbSpline
 70
8
 71
3
 72
8
 73
4
 74
0
 40
0
 40
0
 40
0
 40
0
 40
1
 40
1
 40
1
 40
1
 10
64.367801
 20
244.468683
 30
0.0
 10
64.653864
 20
245.021952
 30
0.0
 10
65.260315
 20
245.873693
 30
0.0
 10
66.187154
 20
247.023906
 30
0.0
  0
SPLINE
  5
164
100
AcDbEntity
  8
Layer_1
 62
7
100
AcDbSpline
 70
8
 71
3
 72
8
 73
4
 74
0
 40
0
 40
0
 40
0
 40
0
 40
1
 40
1
 40
1
 40
1
 10
66.187154
 20
247.023906
 30
0.0
 10
67.113995
 20
248.174123
 30
0.0
 10
67.754773
 20
249.033145
 30
0.0
 10
68.109489
 20
249.600971
 30
0.0
  0
LWPOLYLINE
  5
165
100
AcDbEntity
  8
Layer_1
 62
7
100
AcDbPolyline
 90
2
 70
0
 10
70.581062
 20
245.888251
 30
0.0
 10
70.701210
 20
245.735376
 30
0.0
  0
SPLINE
  5
166
100
AcDbEntity
  8
Layer_1
 62
7
100
AcDbSpline
 70
8
 71
3
 72
8
 73
4
 74
0
 40
0
 40
0
 40
0
 40
0
 40
1
 40
1
 40
1
 40
1
 10
68.040834
 20
249.753850
 30
0.0
 10
67.560250
 20
249.535453
 30
0.0
 10
67.113994
 20
249.426255
 30
0.0
 10
66.702065
 20
249.426255
 30
0.0
  0
SPLINE
  5
167
100
AcDbEntity
  8
Layer_1
 62
7
100
AcDbSpline
 70
8
 71
3
 72
8
 73
4
 74
0
 40
0
 40
0
 40
0
 40
0
 40
1
 40
1
 40
1
 40
1
 10
66.702065
 20
249.426255
 30
0.0
 10
66.587640
 20
249.426255
 30
0.0
 10
66.467495
 20
249.448095
 30
0.0
 10
66.341629
 20
249.491776
 30
0.0
  0
LWPOLYLINE
  5
168
100
AcDbEntity
  8
Layer_1
 62
7
100
AcDbPolyline
 90
2
 70
0
 10
68.109489
 20
249.600971
 30
0.0
 10
68.040834
 20
249.753850
 30
0.0
  0
SPLINE
  5
169
100
AcDbEntity
  8
Layer_1
 62
7
100
AcDbSpline
 70
8
 71
3
 72
8
 73
4
 74
0
 40
0
 40
0
 40
0
 40
0
 40
1
 40
1
 40
1
 40
1
 10
72.177296
 20
242.765200
 30
0.0
 10
72.177296
 20
242.386648
 30
0.0
 10
72.051428
 20
242.066335
 30
0.0
 10
71.799694
 20
241.804261
 30
0.0
  0
SPLINE
  5
16a
100
AcDbEntity
  8
Layer_1
 62
7
100
AcDbSpline
 70
8
 71
3
 72
8
 73
4
 74
0
 40
0
 40
0
 40
0
 40
0
 40
1
 40
1
 40
1
 40
1
 10
71.799694
 20
241.804261
 30
0.0
 10
71.559401
 20
241.542186
 30
0.0
 10
71.301945
 20
241.411149
 30
0.0
 10
71.027326
 20
241.411149
 30
0.0
  0
SPLINE
  5
16b
100
AcDbEntity
  8
Layer_1
 62
7
100
AcDbSpline
 70
8
 71
3
 72
8
 73
4
 74
0
 40
0
 40
0
 40
0
 40
0
 40
1
 40
1
 40
1
 40
1
 10
71.027326
 20
241.411149
 30
0.0
 10
70.821361
 20
241.411149
 30
0.0
 10
70.649724
 20
241.498507
 30
0.0
 10
70.512414
 20
241.673223
 30
0.0
  0
SPLINE
  5
16c
100
AcDbEntity
  8
Layer_1
 62
7
100
AcDbSpline
 70
8
 71
3
 72
8
 73
4
 74
0
 40
0
 40
0
 40
0
 40
0
 40
1
 40
1
 40
1
 40
1
 10
70.512414
 20
241.673223
 30
0.0
 10
70.375105
 20
241.847940
 30
0.0
 10
70.306450
 20
242.066335
 30
0.0
 10
70.306450
 20
242.328409
 30
0.0
  0
SPLINE
  5
16d
100
AcDbEntity
  8
Layer_1
 62
7
100
AcDbSpline
 70
8
 71
3
 72
8
 73
4
 74
0
 40
0
 40
0
 40
0
 40
0
 40
1
 40
1
 40
1
 40
1
 10
70.306450
 20
242.328409
 30
0.0
 10
70.306450
 20
242.663281
 30
0.0
 10
70.420875
 20
242.976313
 30
0.0
 10
70.649724
 20
243.267507
 30
0.0
  0
SPLINE
  5
16e
100
AcDbEntity
  8
Layer_1
 62
7
100
AcDbSpline
 70
8
 71
3
 72
8
 73
4
 74
0
 40
0
 40
0
 40
0
 40
0
 40
1
 40
1
 40
1
 40
1
 10
70.649724
 20
243.267507
 30
0.0
 10
70.890017
 20
243.558701
 30
0.0
 10
71.153194
 20
243.704298
 30
0.0
 10
71.439254
 20
243.704298
 30
0.0
  0
SPLINE
  5
16f
100
AcDbEntity
  8
Layer_1
 62
7
100
AcDbSpline
 70
8
 71
3
 72
8
 73
4
 74
0
 40
0
 40
0
 40
0
 40
0
 40
1
 40
1
 40
1
 40
1
 10
71.439254
 20
243.704298
 30
0.0
 10
71.645219
 20
243.704298
 30
0.0
 10
71.816856
 20
243.609660
 30
0.0
 10
71.954166
 20
243.420386
 30
0.0
  0
SPLINE
  5
170
100
AcDbEntity
  8
Layer_1
 62
7
100
AcDbSpline
 70
8
 71
3
 72
8
 73
4
 74
0
 40
0
 40
0
 40
0
 40
0
 40
1
 40
1
 40
1
 40
1
 10
71.954166
 20
243.420386
 30
0.0
 10
72.102919
 20
243.245670
 30
0.0
 10
72.177296
 20
243.027274
 30
0.0
 10
72.177296
 20
242.765200
 30
0.0
  0
LWPOLYLINE
  5
171
100
AcDbEntity
  8
Layer_1
 62
7
100
AcDbPolyline
 90
2
 70
0
 10
66.341629
 20
249.491776
 30
0.0
 10
62.737259
 20
245.735376
 30
0.0
  0
SPLINE
  5
172
100
AcDbEntity
  8
Layer_1
 62
7
100
AcDbSpline
 70
8
 71
3
 72
8
 73
4
 74
0
 40
0
 40
0
 40
0
 40
0
 40
1
 40
1
 40
1
 40
1
 10
111.585158
 20
263.447234
 30
0.0
 10
110.864281
 20
266.082539
 30
0.0
 10
109.565560
 20
268.062656
 30
0.0
 10
107.688995
 20
269.387586
 30
0.0
  0
SPLINE
  5
173
100
AcDbEntity
  8
Layer_1
 62
7
100
AcDbSpline
 70
8
 71
3
 72
8
 73
4
 74
0
 40
0
 40
0
 40
0
 40
0
 40
1
 40
1
 40
1
 40
1
 10
107.688995
 20
269.387586
 30
0.0
 10
105.823874
 20
270.712519
 30
0.0
 10
103.735624
 20
271.374986
 30
0.0
 10
101.424246
 20
271.374986
 30
0.0
  0
SPLINE
  5
174
100
AcDbEntity
  8
Layer_1
 62
7
100
AcDbSpline
 70
8
 71
3
 72
8
 73
4
 74
0
 40
0
 40
0
 40
0
 40
0
 40
1
 40
1
 40
1
 40
1
 10
101.424246
 20
271.374986
 30
0.0
 10
98.849689
 20
271.374986
 30
0.0
 10
96.406721
 20
270.661561
 30
0.0
 10
94.095343
 20
269.234712
 30
0.0
  0
SPLINE
  5
175
100
AcDbEntity
  8
Layer_1
 62
7
100
AcDbSpline
 70
8
 71
3
 72
8
 73
4
 74
0
 40
0
 40
0
 40
0
 40
0
 40
1
 40
1
 40
1
 40
1
 10
94.095343
 20
269.234712
 30
0.0
 10
91.795408
 20
267.822421
 30
0.0
 10
89.775812
 20
265.878702
 30
0.0
 10
88.036557
 20
263.403555
 30
0.0
  0
SPLINE
  5
176
100
AcDbEntity
  8
Layer_1
 62
7
100
AcDbSpline
 70
8
 71
3
 72
8
 73
4
 74
0
 40
0
 40
0
 40
0
 40
0
 40
1
 40
1
 40
1
 40
1
 10
88.036557
 20
263.403555
 30
0.0
 10
86.297302
 20
260.928408
 30
0.0
 10
85.427674
 20
258.780855
 30
0.0
 10
85.427674
 20
256.960895
 30
0.0
  0
SPLINE
  5
177
100
AcDbEntity
  8
Layer_1
 62
7
100
AcDbSpline
 70
8
 71
3
 72
8
 73
4
 74
0
 40
0
 40
0
 40
0
 40
0
 40
1
 40
1
 40
1
 40
1
 10
85.427674
 20
256.960895
 30
0.0
 10
85.427674
 20
255.781559
 30
0.0
 10
85.919700
 20
254.645903
 30
0.0
 10
86.903753
 20
253.553928
 30
0.0
  0
SPLINE
  5
178
100
AcDbEntity
  8
Layer_1
 62
7
100
AcDbSpline
 70
8
 71
3
 72
8
 73
4
 74
0
 40
0
 40
0
 40
0
 40
0
 40
1
 40
1
 40
1
 40
1
 10
86.903753
 20
253.553928
 30
0.0
 10
87.887805
 20
252.461950
 30
0.0
 10
89.232295
 20
251.915961
 30
0.0
 10
90.937221
 20
251.915961
 30
0.0
  0
SPLINE
  5
179
100
AcDbEntity
  8
Layer_1
 62
7
100
AcDbSpline
 70
8
 71
3
 72
8
 73
4
 74
0
 40
0
 40
0
 40
0
 40
0
 40
1
 40
1
 40
1
 40
1
 10
90.937221
 20
251.915961
 30
0.0
 10
94.106786
 20
251.915961
 30
0.0
 10
97.041780
 20
252.993378
 30
0.0
 10
99.742203
 20
255.148212
 30
0.0
  0
SPLINE
  5
17a
100
AcDbEntity
  8
Layer_1
 62
7
100
AcDbSpline
 70
8
 71
3
 72
8
 73
4
 74
0
 40
0
 40
0
 40
0
 40
0
 40
1
 40
1
 40
1
 40
1
 10
99.742203
 20
255.148212
 30
0.0
 10
102.442625
 20
257.303046
 30
0.0
 10
103.792837
 20
259.537958
 30
0.0
 10
103.792837
 20
261.852950
 30
0.0
  0
SPLINE
  5
17b
100
AcDbEntity
  8
Layer_1
 62
7
100
AcDbSpline
 70
8
 71
3
 72
8
 73
4
 74
0
 40
0
 40
0
 40
0
 40
0
 40
1
 40
1
 40
1
 40
1
 10
103.792837
 20
261.852950
 30
0.0
 10
103.792837
 20
262.653732
 30
0.0
 10
103.489611
 20
263.410835
 30
0.0
 10
102.883159
 20
264.124262
 30
0.0
  0
SPLINE
  5
17c
100
AcDbEntity
  8
Layer_1
 62
7
100
AcDbSpline
 70
8
 71
3
 72
8
 73
4
 74
0
 40
0
 40
0
 40
0
 40
0
 40
1
 40
1
 40
1
 40
1
 10
102.883159
 20
264.124262
 30
0.0
 10
102.276709
 20
264.837685
 30
0.0
 10
101.475736
 20
265.194396
 30
0.0
 10
100.480240
 20
265.194396
 30
0.0
  0
SPLINE
  5
17d
100
AcDbEntity
  8
Layer_1
 62
7
100
AcDbSpline
 70
8
 71
3
 72
8
 73
4
 74
0
 40
0
 40
0
 40
0
 40
0
 40
1
 40
1
 40
1
 40
1
 10
100.480240
 20
265.194396
 30
0.0
 10
98.523579
 20
265.194396
 30
0.0
 10
96.423887
 20
264.306255
 30
0.0
 10
94.181163
 20
262.529973
 30
0.0
  0
SPLINE
  5
17e
100
AcDbEntity
  8
Layer_1
 62
7
100
AcDbSpline
 70
8
 71
3
 72
8
 73
4
 74
0
 40
0
 40
0
 40
0
 40
0
 40
1
 40
1
 40
1
 40
1
 10
94.181163
 20
262.529973
 30
0.0
 10
91.949880
 20
260.753692
 30
0.0
 10
89.987496
 20
258.227587
 30
0.0
 10
88.294011
 20
254.951658
 30
0.0
  0
LWPOLYLINE
  5
17f
100
AcDbEntity
  8
Layer_1
 62
7
100
AcDbPolyline
 90
1
 70
1
 10
72.177296
 20
242.765200
 30
0.0
  0
SPLINE
  5
180
100
AcDbEntity
  8
Layer_1
 62
7
100
AcDbSpline
 70
8
 71
3
 72
8
 73
4
 74
0
 40
0
 40
0
 40
0
 40
0
 40
1
 40
1
 40
1
 40
1
 10
88.173867
 20
255.060854
 30
0.0
 10
89.718599
 20
258.089269
 30
0.0
 10
91.629491
 20
260.564416
 30
0.0
 10
93.906544
 20
262.486294
 30
0.0
  0
SPLINE
  5
181
100
AcDbEntity
  8
Layer_1
 62
7
100
AcDbSpline
 70
8
 71
3
 72
8
 73
4
 74
0
 40
0
 40
0
 40
0
 40
0
 40
1
 40
1
 40
1
 40
1
 10
93.906544
 20
262.486294
 30
0.0
 10
96.195037
 20
264.408173
 30
0.0
 10
98.380549
 20
265.369113
 30
0.0
 10
100.463078
 20
265.369113
 30
0.0
  0
SPLINE
  5
182
100
AcDbEntity
  8
Layer_1
 62
7
100
AcDbSpline
 70
8
 71
3
 72
8
 73
4
 74
0
 40
0
 40
0
 40
0
 40
0
 40
1
 40
1
 40
1
 40
1
 10
100.463078
 20
265.369113
 30
0.0
 10
101.550112
 20
265.369113
 30
0.0
 10
102.402575
 20
264.983282
 30
0.0
 10
103.020468
 20
264.211620
 30
0.0
  0
SPLINE
  5
183
100
AcDbEntity
  8
Layer_1
 62
7
100
AcDbSpline
 70
8
 71
3
 72
8
 73
4
 74
0
 40
0
 40
0
 40
0
 40
0
 40
1
 40
1
 40
1
 40
1
 10
103.020468
 20
264.211620
 30
0.0
 10
103.638362
 20
263.439955
 30
0.0
 10
103.947308
 20
262.653732
 30
0.0
 10
103.947308
 20
261.852950
 30
0.0
  0
SPLINE
  5
184
100
AcDbEntity
  8
Layer_1
 62
7
100
AcDbSpline
 70
8
 71
3
 72
8
 73
4
 74
0
 40
0
 40
0
 40
0
 40
0
 40
1
 40
1
 40
1
 40
1
 10
103.947308
 20
261.852950
 30
0.0
 10
103.947308
 20
259.494281
 30
0.0
 10
102.568491
 20
257.215689
 30
0.0
 10
99.810858
 20
255.017175
 30
0.0
  0
SPLINE
  5
185
100
AcDbEntity
  8
Layer_1
 62
7
100
AcDbSpline
 70
8
 71
3
 72
8
 73
4
 74
0
 40
0
 40
0
 40
0
 40
0
 40
1
 40
1
 40
1
 40
1
 10
99.810858
 20
255.017175
 30
0.0
 10
97.064665
 20
252.818663
 30
0.0
 10
94.106786
 20
251.719408
 30
0.0
 10
90.937221
 20
251.719408
 30
0.0
  0
SPLINE
  5
186
100
AcDbEntity
  8
Layer_1
 62
7
100
AcDbSpline
 70
8
 71
3
 72
8
 73
4
 74
0
 40
0
 40
0
 40
0
 40
0
 40
1
 40
1
 40
1
 40
1
 10
90.937221
 20
251.719408
 30
0.0
 10
89.106426
 20
251.719408
 30
0.0
 10
87.641790
 20
252.352753
 30
0.0
 10
86.543313
 20
253.619445
 30
0.0
  0
SPLINE
  5
187
100
AcDbEntity
  8
Layer_1
 62
7
100
AcDbSpline
 70
8
 71
3
 72
8
 73
4
 74
0
 40
0
 40
0
 40
0
 40
0
 40
1
 40
1
 40
1
 40
1
 10
86.543313
 20
253.619445
 30
0.0
 10
85.444836
 20
254.886139
 30
0.0
 10
84.895598
 20
256.378508
 30
0.0
 10
84.895598
 20
258.096551
 30
0.0
  0
SPLINE
  5
188
100
AcDbEntity
  8
Layer_1
 62
7
100
AcDbSpline
 70
8
 71
3
 72
8
 73
4
 74
0
 40
0
 40
0
 40
0
 40
0
 40
1
 40
1
 40
1
 40
1
 10
84.895598
 20
258.096551
 30
0.0
 10
84.895598
 20
260.557137
 30
0.0
 10
85.639358
 20
262.857567
 30
0.0
 10
87.126879
 20
264.997843
 30
0.0
  0
SPLINE
  5
189
100
AcDbEntity
  8
Layer_1
 62
7
100
AcDbSpline
 70
8
 71
3
 72
8
 73
4
 74
0
 40
0
 40
0
 40
0
 40
0
 40
1
 40
1
 40
1
 40
1
 10
87.126879
 20
264.997843
 30
0.0
 10
88.625844
 20
267.152677
 30
0.0
 10
90.674046
 20
268.790641
 30
0.0
 10
93.271485
 20
269.911735
 30
0.0
  0
SPLINE
  5
18a
100
AcDbEntity
  8
Layer_1
 62
7
100
AcDbSpline
 70
8
 71
3
 72
8
 73
4
 74
0
 40
0
 40
0
 40
0
 40
0
 40
1
 40
1
 40
1
 40
1
 10
93.271485
 20
269.911735
 30
0.0
 10
95.868926
 20
271.047391
 30
0.0
 10
98.494974
 20
271.615218
 30
0.0
 10
101.149626
 20
271.615218
 30
0.0
  0
SPLINE
  5
18b
100
AcDbEntity
  8
Layer_1
 62
7
100
AcDbSpline
 70
8
 71
3
 72
8
 73
4
 74
0
 40
0
 40
0
 40
0
 40
0
 40
1
 40
1
 40
1
 40
1
 10
101.149626
 20
271.615218
 30
0.0
 10
103.609756
 20
271.615218
 30
0.0
 10
105.783825
 20
270.967313
 30
0.0
 10
107.671834
 20
269.671503
 30
0.0
  0
SPLINE
  5
18c
100
AcDbEntity
  8
Layer_1
 62
7
100
AcDbSpline
 70
8
 71
3
 72
8
 73
4
 74
0
 40
0
 40
0
 40
0
 40
0
 40
1
 40
1
 40
1
 40
1
 10
107.671834
 20
269.671503
 30
0.0
 10
109.571283
 20
268.375689
 30
0.0
 10
110.915773
 20
266.337333
 30
0.0
 10
111.705302
 20
263.556434
 30
0.0
  0
SPLINE
  5
18d
100
AcDbEntity
  8
Layer_1
 62
7
100
AcDbSpline
 70
8
 71
3
 72
8
 73
4
 74
0
 40
0
 40
0
 40
0
 40
0
 40
1
 40
1
 40
1
 40
1
 10
111.705302
 20
263.556434
 30
0.0
 10
112.071461
 20
263.876747
 30
0.0
 10
112.620699
 20
264.320817
 30
0.0
 10
113.353017
 20
264.888643
 30
0.0
  0
LWPOLYLINE
  5
18e
100
AcDbEntity
  8
Layer_1
 62
7
100
AcDbPolyline
 90
2
 70
0
 10
88.294011
 20
254.951658
 30
0.0
 10
88.173867
 20
255.060854
 30
0.0
  0
SPLINE
  5
18f
100
AcDbEntity
  8
Layer_1
 62
7
100
AcDbSpline
 70
8
 71
3
 72
8
 73
4
 74
0
 40
0
 40
0
 40
0
 40
0
 40
1
 40
1
 40
1
 40
1
 10
114.159713
 20
265.325433
 30
0.0
 10
113.850765
 20
265.092478
 30
0.0
 10
113.490327
 20
264.801285
 30
0.0
 10
113.078398
 20
264.451852
 30
0.0
  0
LWPOLYLINE
  5
190
100
AcDbEntity
  8
Layer_1
 62
7
100
AcDbPolyline
 90
4
 70
0
 10
113.353017
 20
264.888643
 30
0.0
 10
115.309680
 20
266.417410
 30
0.0
 10
115.378334
 20
266.242694
 30
0.0
 10
114.159713
 20
265.325433
 30
0.0
  0
SPLINE
  5
191
100
AcDbEntity
  8
Layer_1
 62
7
100
AcDbSpline
 70
8
 71
3
 72
8
 73
4
 74
0
 40
0
 40
0
 40
0
 40
0
 40
1
 40
1
 40
1
 40
1
 10
111.756795
 20
263.381718
 30
0.0
 10
112.008529
 20
262.449898
 30
0.0
 10
112.134396
 20
261.525357
 30
0.0
 10
112.134396
 20
260.608095
 30
0.0
  0
SPLINE
  5
192
100
AcDbEntity
  8
Layer_1
 62
7
100
AcDbSpline
 70
8
 71
3
 72
8
 73
4
 74
0
 40
0
 40
0
 40
0
 40
0
 40
1
 40
1
 40
1
 40
1
 10
112.134396
 20
260.608095
 30
0.0
 10
112.134396
 20
257.856315
 30
0.0
 10
111.459291
 20
254.929818
 30
0.0
 10
110.109079
 20
251.828603
 30
0.0
  0
SPLINE
  5
193
100
AcDbEntity
  8
Layer_1
 62
7
100
AcDbSpline
 70
8
 71
3
 72
8
 73
4
 74
0
 40
0
 40
0
 40
0
 40
0
 40
1
 40
1
 40
1
 40
1
 10
110.109079
 20
251.828603
 30
0.0
 10
108.770309
 20
248.741949
 30
0.0
 10
106.865138
 20
246.215844
 30
0.0
 10
104.393564
 20
244.250288
 30
0.0
  0
SPLINE
  5
194
100
AcDbEntity
  8
Layer_1
 62
7
100
AcDbSpline
 70
8
 71
3
 72
8
 73
4
 74
0
 40
0
 40
0
 40
0
 40
0
 40
1
 40
1
 40
1
 40
1
 10
104.393564
 20
244.250288
 30
0.0
 10
101.933435
 20
242.284729
 30
0.0
 10
99.147194
 20
241.301949
 30
0.0
 10
96.034843
 20
241.301949
 30
0.0
  0
SPLINE
  5
195
100
AcDbEntity
  8
Layer_1
 62
7
100
AcDbSpline
 70
8
 71
3
 72
8
 73
4
 74
0
 40
0
 40
0
 40
0
 40
0
 40
1
 40
1
 40
1
 40
1
 10
96.034843
 20
241.301949
 30
0.0
 10
94.352799
 20
241.301949
 30
0.0
 10
92.865278
 20
241.600423
 30
0.0
 10
91.572280
 20
242.197372
 30
0.0
  0
SPLINE
  5
196
100
AcDbEntity
  8
Layer_1
 62
7
100
AcDbSpline
 70
8
 71
3
 72
8
 73
4
 74
0
 40
0
 40
0
 40
0
 40
0
 40
1
 40
1
 40
1
 40
1
 10
91.572280
 20
242.197372
 30
0.0
 10
89.981776
 20
241.702343
 30
0.0
 10
88.265405
 20
241.454828
 30
0.0
 10
86.423169
 20
241.454828
 30
0.0
  0
SPLINE
  5
197
100
AcDbEntity
  8
Layer_1
 62
7
100
AcDbSpline
 70
8
 71
3
 72
8
 73
4
 74
0
 40
0
 40
0
 40
0
 40
0
 40
1
 40
1
 40
1
 40
1
 10
86.423169
 20
241.454828
 30
0.0
 10
84.901320
 20
241.454828
 30
0.0
 10
83.785678
 20
241.622264
 30
0.0
 10
83.076245
 20
241.957135
 30
0.0
  0
SPLINE
  5
198
100
AcDbEntity
  8
Layer_1
 62
7
100
AcDbSpline
 70
8
 71
3
 72
8
 73
4
 74
0
 40
0
 40
0
 40
0
 40
0
 40
1
 40
1
 40
1
 40
1
 10
83.076245
 20
241.957135
 30
0.0
 10
82.366812
 20
242.306568
 30
0.0
 10
82.012096
 20
242.728798
 30
0.0
 10
82.012096
 20
243.223828
 30
0.0
  0
SPLINE
  5
199
100
AcDbEntity
  8
Layer_1
 62
7
100
AcDbSpline
 70
8
 71
3
 72
8
 73
4
 74
0
 40
0
 40
0
 40
0
 40
0
 40
1
 40
1
 40
1
 40
1
 10
82.012096
 20
243.223828
 30
0.0
 10
82.012096
 20
244.155648
 30
0.0
 10
82.927493
 20
244.621558
 30
0.0
 10
84.758288
 20
244.621558
 30
0.0
  0
SPLINE
  5
19a
100
AcDbEntity
  8
Layer_1
 62
7
100
AcDbSpline
 70
8
 71
3
 72
8
 73
4
 74
0
 40
0
 40
0
 40
0
 40
0
 40
1
 40
1
 40
1
 40
1
 10
84.758288
 20
244.621558
 30
0.0
 10
86.119943
 20
244.621558
 30
0.0
 10
87.733331
 20
244.279406
 30
0.0
 10
89.598452
 20
243.595102
 30
0.0
  0
LWPOLYLINE
  5
19b
100
AcDbEntity
  8
Layer_1
 62
7
100
AcDbPolyline
 90
2
 70
0
 10
113.078398
 20
264.451852
 30
0.0
 10
111.756795
 20
263.381718
 30
0.0
  0
SPLINE
  5
19c
100
AcDbEntity
  8
Layer_1
 62
7
100
AcDbSpline
 70
8
 71
3
 72
8
 73
4
 74
0
 40
0
 40
0
 40
0
 40
0
 40
1
 40
1
 40
1
 40
1
 10
92.104353
 20
242.524963
 30
0.0
 10
92.161567
 20
242.495859
 30
0.0
 10
92.539168
 20
242.597777
 30
0.0
 10
93.237157
 20
242.830716
 30
0.0
  0
SPLINE
  5
19d
100
AcDbEntity
  8
Layer_1
 62
7
100
AcDbSpline
 70
8
 71
3
 72
8
 73
4
 74
0
 40
0
 40
0
 40
0
 40
0
 40
1
 40
1
 40
1
 40
1
 10
93.237157
 20
242.830716
 30
0.0
 10
93.946590
 20
243.063671
 30
0.0
 10
94.633139
 20
243.376705
 30
0.0
 10
95.296802
 20
243.769818
 30
0.0
  0
SPLINE
  5
19e
100
AcDbEntity
  8
Layer_1
 62
7
100
AcDbSpline
 70
8
 71
3
 72
8
 73
4
 74
0
 40
0
 40
0
 40
0
 40
0
 40
1
 40
1
 40
1
 40
1
 10
95.296802
 20
243.769818
 30
0.0
 10
95.971909
 20
244.162928
 30
0.0
 10
96.687064
 20
244.708916
 30
0.0
 10
97.442267
 20
245.407781
 30
0.0
  0
SPLINE
  5
19f
100
AcDbEntity
  8
Layer_1
 62
7
100
AcDbSpline
 70
8
 71
3
 72
8
 73
4
 74
0
 40
0
 40
0
 40
0
 40
0
 40
1
 40
1
 40
1
 40
1
 10
97.442267
 20
245.407781
 30
0.0
 10
98.197469
 20
246.121207
 30
0.0
 10
98.866853
 20
246.856472
 30
0.0
 10
99.450418
 20
247.613576
 30
0.0
  0
SPLINE
  5
1a0
100
AcDbEntity
  8
Layer_1
 62
7
100
AcDbSpline
 70
8
 71
3
 72
8
 73
4
 74
0
 40
0
 40
0
 40
0
 40
0
 40
1
 40
1
 40
1
 40
1
 10
99.450418
 20
247.613576
 30
0.0
 10
100.045426
 20
248.385238
 30
0.0
 10
101.121018
 20
249.986803
 30
0.0
 10
102.677194
 20
252.418273
 30
0.0
  0
SPLINE
  5
1a1
100
AcDbEntity
  8
Layer_1
 62
7
100
AcDbSpline
 70
8
 71
3
 72
8
 73
4
 74
0
 40
0
 40
0
 40
0
 40
0
 40
1
 40
1
 40
1
 40
1
 10
102.677194
 20
252.418273
 30
0.0
 10
106.006954
 20
257.674318
 30
0.0
 10
108.976275
 20
261.350639
 30
0.0
 10
111.585158
 20
263.447234
 30
0.0
  0
LWPOLYLINE
  5
1a2
100
AcDbEntity
  8
Layer_1
 62
7
100
AcDbPolyline
 90
2
 70
0
 10
89.598452
 20
243.595102
 30
0.0
 10
92.104353
 20
242.524963
 30
0.0
  0
SPLINE
  5
1a3
100
AcDbEntity
  8
Layer_1
 62
7
100
AcDbSpline
 70
8
 71
3
 72
8
 73
4
 74
0
 40
0
 40
0
 40
0
 40
0
 40
1
 40
1
 40
1
 40
1
 10
92.499120
 20
242.372088
 30
0.0
 10
92.476247
 20
242.372088
 30
0.0
 10
92.670769
 20
242.306569
 30
0.0
 10
93.082686
 20
242.175530
 30
0.0
  0
LWPOLYLINE
  5
1a4
100
AcDbEntity
  8
Layer_1
 62
7
100
AcDbPolyline
 90
1
 70
1
 10
111.585158
 20
263.447234
 30
0.0
  0
SPLINE
  5
1a5
100
AcDbEntity
  8
Layer_1
 62
7
100
AcDbSpline
 70
8
 71
3
 72
8
 73
4
 74
0
 40
0
 40
0
 40
0
 40
0
 40
1
 40
1
 40
1
 40
1
 10
95.348295
 20
241.651382
 30
0.0
 10
95.519931
 20
241.636814
 30
0.0
 10
95.697288
 20
241.614975
 30
0.0
 10
95.880368
 20
241.585865
 30
0.0
  0
SPLINE
  5
1a6
100
AcDbEntity
  8
Layer_1
 62
7
100
AcDbSpline
 70
8
 71
3
 72
8
 73
4
 74
0
 40
0
 40
0
 40
0
 40
0
 40
1
 40
1
 40
1
 40
1
 10
95.880368
 20
241.585865
 30
0.0
 10
96.052006
 20
241.571298
 30
0.0
 10
96.223643
 20
241.564014
 30
0.0
 10
96.395279
 20
241.564014
 30
0.0
  0
SPLINE
  5
1a7
100
AcDbEntity
  8
Layer_1
 62
7
100
AcDbSpline
 70
8
 71
3
 72
8
 73
4
 74
0
 40
0
 40
0
 40
0
 40
0
 40
1
 40
1
 40
1
 40
1
 10
96.395279
 20
241.564014
 30
0.0
 10
96.566917
 20
241.549447
 30
0.0
 10
96.738554
 20
241.542163
 30
0.0
 10
96.910190
 20
241.542163
 30
0.0
  0
SPLINE
  5
1a8
100
AcDbEntity
  8
Layer_1
 62
7
100
AcDbSpline
 70
8
 71
3
 72
8
 73
4
 74
0
 40
0
 40
0
 40
0
 40
0
 40
1
 40
1
 40
1
 40
1
 10
96.910190
 20
241.542163
 30
0.0
 10
99.381763
 20
241.542163
 30
0.0
 10
101.819009
 20
242.473983
 30
0.0
 10
104.221927
 20
244.337623
 30
0.0
  0
SPLINE
  5
1a9
100
AcDbEntity
  8
Layer_1
 62
7
100
AcDbSpline
 70
8
 71
3
 72
8
 73
4
 74
0
 40
0
 40
0
 40
0
 40
0
 40
1
 40
1
 40
1
 40
1
 10
104.221927
 20
244.337623
 30
0.0
 10
106.636290
 20
246.201263
 30
0.0
 10
108.530019
 20
248.676410
 30
0.0
 10
109.903115
 20
251.763064
 30
0.0
  0
SPLINE
  5
1aa
100
AcDbEntity
  8
Layer_1
 62
7
100
AcDbSpline
 70
8
 71
3
 72
8
 73
4
 74
0
 40
0
 40
0
 40
0
 40
0
 40
1
 40
1
 40
1
 40
1
 10
109.903115
 20
251.763064
 30
0.0
 10
111.287652
 20
254.864276
 30
0.0
 10
111.979921
 20
257.819892
 30
0.0
 10
111.979921
 20
260.629913
 30
0.0
  0
SPLINE
  5
1ab
100
AcDbEntity
  8
Layer_1
 62
7
100
AcDbSpline
 70
8
 71
3
 72
8
 73
4
 74
0
 40
0
 40
0
 40
0
 40
0
 40
1
 40
1
 40
1
 40
1
 10
111.979921
 20
260.629913
 30
0.0
 10
111.979921
 20
261.474375
 30
0.0
 10
111.859776
 20
262.333397
 30
0.0
 10
111.619485
 20
263.206978
 30
0.0
  0
SPLINE
  5
1ac
100
AcDbEntity
  8
Layer_1
 62
7
100
AcDbSpline
 70
8
 71
3
 72
8
 73
4
 74
0
 40
0
 40
0
 40
0
 40
0
 40
1
 40
1
 40
1
 40
1
 10
111.619485
 20
263.206978
 30
0.0
 10
110.829954
 20
262.493552
 30
0.0
 10
110.091914
 20
261.700048
 30
0.0
 10
109.405366
 20
260.826467
 30
0.0
  0
SPLINE
  5
1ad
100
AcDbEntity
  8
Layer_1
 62
7
100
AcDbSpline
 70
8
 71
3
 72
8
 73
4
 74
0
 40
0
 40
0
 40
0
 40
0
 40
1
 40
1
 40
1
 40
1
 10
109.405366
 20
260.826467
 30
0.0
 10
108.730261
 20
259.982005
 30
0.0
 10
108.015108
 20
258.933707
 30
0.0
 10
107.259905
 20
257.681574
 30
0.0
  0
SPLINE
  5
1ae
100
AcDbEntity
  8
Layer_1
 62
7
100
AcDbSpline
 70
8
 71
3
 72
8
 73
4
 74
0
 40
0
 40
0
 40
0
 40
0
 40
1
 40
1
 40
1
 40
1
 10
107.259905
 20
257.681574
 30
0.0
 10
106.619126
 20
256.604157
 30
0.0
 10
105.738056
 20
254.973472
 30
0.0
 10
104.616694
 20
252.789519
 30
0.0
  0
SPLINE
  5
1af
100
AcDbEntity
  8
Layer_1
 62
7
100
AcDbSpline
 70
8
 71
3
 72
8
 73
4
 74
0
 40
0
 40
0
 40
0
 40
0
 40
1
 40
1
 40
1
 40
1
 10
104.616694
 20
252.789519
 30
0.0
 10
103.769952
 20
251.144276
 30
0.0
 10
103.094846
 20
249.950382
 30
0.0
 10
102.591377
 20
249.207836
 30
0.0
  0
SPLINE
  5
1b0
100
AcDbEntity
  8
Layer_1
 62
7
100
AcDbSpline
 70
8
 71
3
 72
8
 73
4
 74
0
 40
0
 40
0
 40
0
 40
0
 40
1
 40
1
 40
1
 40
1
 10
102.591377
 20
249.207836
 30
0.0
 10
102.133679
 20
248.523532
 30
0.0
 10
101.595883
 20
247.868346
 30
0.0
 10
100.977989
 20
247.242278
 30
0.0
  0
SPLINE
  5
1b1
100
AcDbEntity
  8
Layer_1
 62
7
100
AcDbSpline
 70
8
 71
3
 72
8
 73
4
 74
0
 40
0
 40
0
 40
0
 40
0
 40
1
 40
1
 40
1
 40
1
 10
100.977989
 20
247.242278
 30
0.0
 10
100.245671
 20
246.499736
 30
0.0
 10
99.484747
 20
245.844550
 30
0.0
 10
98.695215
 20
245.276721
 30
0.0
  0
SPLINE
  5
1b2
100
AcDbEntity
  8
Layer_1
 62
7
100
AcDbSpline
 70
8
 71
3
 72
8
 73
4
 74
0
 40
0
 40
0
 40
0
 40
0
 40
1
 40
1
 40
1
 40
1
 10
98.695215
 20
245.276721
 30
0.0
 10
97.837031
 20
244.665214
 30
0.0
 10
96.973125
 20
244.148346
 30
0.0
 10
96.103498
 20
243.726116
 30
0.0
  0
SPLINE
  5
1b3
100
AcDbEntity
  8
Layer_1
 62
7
100
AcDbSpline
 70
8
 71
3
 72
8
 73
4
 74
0
 40
0
 40
0
 40
0
 40
0
 40
1
 40
1
 40
1
 40
1
 10
96.103498
 20
243.726116
 30
0.0
 10
94.238374
 20
242.823415
 30
0.0
 10
93.036915
 20
242.372065
 30
0.0
 10
92.499120
 20
242.372065
 30
0.0
  0
LWPOLYLINE
  5
1b4
100
AcDbEntity
  8
Layer_1
 62
7
100
AcDbPolyline
 90
3
 70
0
 10
93.082686
 20
242.175530
 30
0.0
 10
94.799056
 20
241.738740
 30
0.0
 10
95.348295
 20
241.651382
 30
0.0
  0
SPLINE
  5
1b5
100
AcDbEntity
  8
Layer_1
 62
7
100
AcDbSpline
 70
8
 71
3
 72
8
 73
4
 74
0
 40
0
 40
0
 40
0
 40
0
 40
1
 40
1
 40
1
 40
1
 10
91.229006
 20
242.350237
 30
0.0
 10
88.768874
 20
243.660609
 30
0.0
 10
86.468938
 20
244.315795
 30
0.0
 10
84.329197
 20
244.315795
 30
0.0
  0
SPLINE
  5
1b6
100
AcDbEntity
  8
Layer_1
 62
7
100
AcDbSpline
 70
8
 71
3
 72
8
 73
4
 74
0
 40
0
 40
0
 40
0
 40
0
 40
1
 40
1
 40
1
 40
1
 10
84.329197
 20
244.315795
 30
0.0
 10
82.921772
 20
244.315795
 30
0.0
 10
82.218060
 20
243.951803
 30
0.0
 10
82.218060
 20
243.223819
 30
0.0
  0
SPLINE
  5
1b7
100
AcDbEntity
  8
Layer_1
 62
7
100
AcDbSpline
 70
8
 71
3
 72
8
 73
4
 74
0
 40
0
 40
0
 40
0
 40
0
 40
1
 40
1
 40
1
 40
1
 10
82.218060
 20
243.223819
 30
0.0
 10
82.218060
 20
242.874386
 30
0.0
 10
82.538449
 20
242.524954
 30
0.0
 10
83.179227
 20
242.175521
 30
0.0
  0
SPLINE
  5
1b8
100
AcDbEntity
  8
Layer_1
 62
7
100
AcDbSpline
 70
8
 71
3
 72
8
 73
4
 74
0
 40
0
 40
0
 40
0
 40
0
 40
1
 40
1
 40
1
 40
1
 10
83.179227
 20
242.175521
 30
0.0
 10
83.831449
 20
241.826089
 30
0.0
 10
84.924206
 20
241.651372
 30
0.0
 10
86.457497
 20
241.651372
 30
0.0
  0
SPLINE
  5
1b9
100
AcDbEntity
  8
Layer_1
 62
7
100
AcDbSpline
 70
8
 71
3
 72
8
 73
4
 74
0
 40
0
 40
0
 40
0
 40
0
 40
1
 40
1
 40
1
 40
1
 10
86.457497
 20
241.651372
 30
0.0
 10
88.368388
 20
241.651372
 30
0.0
 10
89.958891
 20
241.884327
 30
0.0
 10
91.229006
 20
242.350237
 30
0.0
  0
LWPOLYLINE
  5
1ba
100
AcDbEntity
  8
Layer_1
 62
7
100
AcDbPolyline
 90
1
 70
1
 10
92.499120
 20
242.372065
 30
0.0
  0
LWPOLYLINE
  5
1bb
100
AcDbEntity
  8
Layer_1
 62
7
100
AcDbPolyline
 90
1
 70
1
 10
91.229006
 20
242.350237
 30
0.0
  0
SPLINE
  5
1bc
100
AcDbEntity
  8
Layer_1
 62
7
100
AcDbSpline
 70
8
 71
3
 72
8
 73
4
 74
0
 40
0
 40
0
 40
0
 40
0
 40
1
 40
1
 40
1
 40
1
 10
116.219358
 20
245.735376
 30
0.0
 10
114.846261
 20
244.192049
 30
0.0
 10
113.593311
 20
243.070953
 30
0.0
 10
112.460505
 20
242.372088
 30
0.0
  0
SPLINE
  5
1bd
100
AcDbEntity
  8
Layer_1
 62
7
100
AcDbSpline
 70
8
 71
3
 72
8
 73
4
 74
0
 40
0
 40
0
 40
0
 40
0
 40
1
 40
1
 40
1
 40
1
 10
112.460505
 20
242.372088
 30
0.0
 10
111.327702
 20
241.687782
 30
0.0
 10
110.423747
 20
241.345628
 30
0.0
 10
109.748640
 20
241.345628
 30
0.0
  0
SPLINE
  5
1be
100
AcDbEntity
  8
Layer_1
 62
7
100
AcDbSpline
 70
8
 71
3
 72
8
 73
4
 74
0
 40
0
 40
0
 40
0
 40
0
 40
1
 40
1
 40
1
 40
1
 10
109.748640
 20
241.345628
 30
0.0
 10
108.810357
 20
241.345628
 30
0.0
 10
108.341216
 20
241.957135
 30
0.0
 10
108.341216
 20
243.180149
 30
0.0
  0
SPLINE
  5
1bf
100
AcDbEntity
  8
Layer_1
 62
7
100
AcDbSpline
 70
8
 71
3
 72
8
 73
4
 74
0
 40
0
 40
0
 40
0
 40
0
 40
1
 40
1
 40
1
 40
1
 10
108.341216
 20
243.180149
 30
0.0
 10
108.341216
 20
244.825395
 30
0.0
 10
109.222286
 20
246.376003
 30
0.0
 10
110.984426
 20
247.831971
 30
0.0
  0
SPLINE
  5
1c0
100
AcDbEntity
  8
Layer_1
 62
7
100
AcDbSpline
 70
8
 71
3
 72
8
 73
4
 74
0
 40
0
 40
0
 40
0
 40
0
 40
1
 40
1
 40
1
 40
1
 10
110.984426
 20
247.831971
 30
0.0
 10
112.758010
 20
249.287940
 30
0.0
 10
114.142549
 20
250.015924
 30
0.0
 10
115.138043
 20
250.015924
 30
0.0
  0
SPLINE
  5
1c1
100
AcDbEntity
  8
Layer_1
 62
7
100
AcDbSpline
 70
8
 71
3
 72
8
 73
4
 74
0
 40
0
 40
0
 40
0
 40
0
 40
1
 40
1
 40
1
 40
1
 10
115.138043
 20
250.015924
 30
0.0
 10
115.321122
 20
250.015924
 30
0.0
 10
115.475596
 20
249.950405
 30
0.0
 10
115.601464
 20
249.819366
 30
0.0
  0
SPLINE
  5
1c2
100
AcDbEntity
  8
Layer_1
 62
7
100
AcDbSpline
 70
8
 71
3
 72
8
 73
4
 74
0
 40
0
 40
0
 40
0
 40
0
 40
1
 40
1
 40
1
 40
1
 10
115.601464
 20
249.819366
 30
0.0
 10
115.738774
 20
249.688331
 30
0.0
 10
115.807429
 20
249.528174
 30
0.0
 10
115.807429
 20
249.338897
 30
0.0
  0
SPLINE
  5
1c3
100
AcDbEntity
  8
Layer_1
 62
7
100
AcDbSpline
 70
8
 71
3
 72
8
 73
4
 74
0
 40
0
 40
0
 40
0
 40
0
 40
1
 40
1
 40
1
 40
1
 10
115.807429
 20
249.338897
 30
0.0
 10
115.807429
 20
248.625473
 30
0.0
 10
115.252469
 20
247.875650
 30
0.0
 10
114.142548
 20
247.089427
 30
0.0
  0
SPLINE
  5
1c4
100
AcDbEntity
  8
Layer_1
 62
7
100
AcDbSpline
 70
8
 71
3
 72
8
 73
4
 74
0
 40
0
 40
0
 40
0
 40
0
 40
1
 40
1
 40
1
 40
1
 10
114.142548
 20
247.089427
 30
0.0
 10
113.032630
 20
246.303204
 30
0.0
 10
111.802565
 20
245.815454
 30
0.0
 10
110.452353
 20
245.626176
 30
0.0
  0
SPLINE
  5
1c5
100
AcDbEntity
  8
Layer_1
 62
7
100
AcDbSpline
 70
8
 71
3
 72
8
 73
4
 74
0
 40
0
 40
0
 40
0
 40
0
 40
1
 40
1
 40
1
 40
1
 10
110.452353
 20
245.626176
 30
0.0
 10
109.285222
 20
244.141088
 30
0.0
 10
108.701656
 20
243.121910
 30
0.0
 10
108.701656
 20
242.568642
 30
0.0
  0
SPLINE
  5
1c6
100
AcDbEntity
  8
Layer_1
 62
7
100
AcDbSpline
 70
8
 71
3
 72
8
 73
4
 74
0
 40
0
 40
0
 40
0
 40
0
 40
1
 40
1
 40
1
 40
1
 10
108.701656
 20
242.568642
 30
0.0
 10
108.701656
 20
242.306568
 30
0.0
 10
108.804638
 20
242.059053
 30
0.0
 10
109.010602
 20
241.826098
 30
0.0
  0
SPLINE
  5
1c7
100
AcDbEntity
  8
Layer_1
 62
7
100
AcDbSpline
 70
8
 71
3
 72
8
 73
4
 74
0
 40
0
 40
0
 40
0
 40
0
 40
1
 40
1
 40
1
 40
1
 10
109.010602
 20
241.826098
 30
0.0
 10
109.216567
 20
241.607704
 30
0.0
 10
109.456859
 20
241.498507
 30
0.0
 10
109.731478
 20
241.498507
 30
0.0
  0
SPLINE
  5
1c8
100
AcDbEntity
  8
Layer_1
 62
7
100
AcDbSpline
 70
8
 71
3
 72
8
 73
4
 74
0
 40
0
 40
0
 40
0
 40
0
 40
1
 40
1
 40
1
 40
1
 10
109.731478
 20
241.498507
 30
0.0
 10
110.326486
 20
241.498507
 30
0.0
 10
111.167507
 20
241.826099
 30
0.0
 10
112.254540
 20
242.481284
 30
0.0
  0
SPLINE
  5
1c9
100
AcDbEntity
  8
Layer_1
 62
7
100
AcDbSpline
 70
8
 71
3
 72
8
 73
4
 74
0
 40
0
 40
0
 40
0
 40
0
 40
1
 40
1
 40
1
 40
1
 10
112.254540
 20
242.481284
 30
0.0
 10
113.353017
 20
243.151029
 30
0.0
 10
114.634574
 20
244.286685
 30
0.0
 10
116.099210
 20
245.888251
 30
0.0
  0
LWPOLYLINE
  5
1ca
100
AcDbEntity
  8
Layer_1
 62
7
100
AcDbPolyline
 90
2
 70
0
 10
116.099210
 20
245.888251
 30
0.0
 10
116.219358
 20
245.735376
 30
0.0
  0
SPLINE
  5
1cb
100
AcDbEntity
  8
Layer_1
 62
7
100
AcDbSpline
 70
8
 71
3
 72
8
 73
4
 74
0
 40
0
 40
0
 40
0
 40
0
 40
1
 40
1
 40
1
 40
1
 10
110.709807
 20
245.888251
 30
0.0
 10
111.053081
 20
245.888251
 30
0.0
 10
111.659532
 20
246.077527
 30
0.0
 10
112.529160
 20
246.456078
 30
0.0
  0
SPLINE
  5
1cc
100
AcDbEntity
  8
Layer_1
 62
7
100
AcDbSpline
 70
8
 71
3
 72
8
 73
4
 74
0
 40
0
 40
0
 40
0
 40
0
 40
1
 40
1
 40
1
 40
1
 10
112.529160
 20
246.456078
 30
0.0
 10
113.398787
 20
246.834630
 30
0.0
 10
114.119663
 20
247.322381
 30
0.0
 10
114.691786
 20
247.919329
 30
0.0
  0
SPLINE
  5
1cd
100
AcDbEntity
  8
Layer_1
 62
7
100
AcDbSpline
 70
8
 71
3
 72
8
 73
4
 74
0
 40
0
 40
0
 40
0
 40
0
 40
1
 40
1
 40
1
 40
1
 10
114.691786
 20
247.919329
 30
0.0
 10
115.275353
 20
248.516275
 30
0.0
 10
115.567137
 20
249.011304
 30
0.0
 10
115.567137
 20
249.404418
 30
0.0
  0
SPLINE
  5
1ce
100
AcDbEntity
  8
Layer_1
 62
7
100
AcDbSpline
 70
8
 71
3
 72
8
 73
4
 74
0
 40
0
 40
0
 40
0
 40
0
 40
1
 40
1
 40
1
 40
1
 10
115.567137
 20
249.404418
 30
0.0
 10
115.567137
 20
249.681050
 30
0.0
 10
115.441270
 20
249.819366
 30
0.0
 10
115.189536
 20
249.819366
 30
0.0
  0
SPLINE
  5
1cf
100
AcDbEntity
  8
Layer_1
 62
7
100
AcDbSpline
 70
8
 71
3
 72
8
 73
4
 74
0
 40
0
 40
0
 40
0
 40
0
 40
1
 40
1
 40
1
 40
1
 10
115.189536
 20
249.819366
 30
0.0
 10
114.892031
 20
249.819366
 30
0.0
 10
114.560200
 20
249.702889
 30
0.0
 10
114.194041
 20
249.469934
 30
0.0
  0
SPLINE
  5
1d0
100
AcDbEntity
  8
Layer_1
 62
7
100
AcDbSpline
 70
8
 71
3
 72
8
 73
4
 74
0
 40
0
 40
0
 40
0
 40
0
 40
1
 40
1
 40
1
 40
1
 10
114.194041
 20
249.469934
 30
0.0
 10
113.839323
 20
249.236979
 30
0.0
 10
113.295805
 20
248.756509
 30
0.0
 10
112.563487
 20
248.028525
 30
0.0
  0
SPLINE
  5
1d1
100
AcDbEntity
  8
Layer_1
 62
7
100
AcDbSpline
 70
8
 71
3
 72
8
 73
4
 74
0
 40
0
 40
0
 40
0
 40
0
 40
1
 40
1
 40
1
 40
1
 10
112.563487
 20
248.028525
 30
0.0
 10
111.831169
 20
247.315102
 30
0.0
 10
111.213276
 20
246.601677
 30
0.0
 10
110.709807
 20
245.888251
 30
0.0
  0
LWPOLYLINE
  5
1d2
100
AcDbEntity
  8
Layer_1
 62
7
100
AcDbPolyline
 90
1
 70
1
 10
116.099210
 20
245.888251
 30
0.0
  0
LWPOLYLINE
  5
1d3
100
AcDbEntity
  8
Layer_1
 62
7
100
AcDbPolyline
 90
1
 70
1
 10
110.709807
 20
245.888251
 30
0.0
  0
SPLINE
  5
1d4
100
AcDbEntity
  8
Layer_1
 62
7
100
AcDbSpline
 70
8
 71
3
 72
8
 73
4
 74
0
 40
0
 40
0
 40
0
 40
0
 40
1
 40
1
 40
1
 40
1
 10
116.082048
 20
245.888251
 30
0.0
 10
118.599391
 20
248.625472
 30
0.0
 10
120.069748
 20
250.190639
 30
0.0
 10
120.493118
 20
250.583752
 30
0.0
  0
SPLINE
  5
1d5
100
AcDbEntity
  8
Layer_1
 62
7
100
AcDbSpline
 70
8
 71
3
 72
8
 73
4
 74
0
 40
0
 40
0
 40
0
 40
0
 40
1
 40
1
 40
1
 40
1
 10
120.493118
 20
250.583752
 30
0.0
 10
120.927932
 20
250.976862
 30
0.0
 10
121.265485
 20
251.246216
 30
0.0
 10
121.505778
 20
251.391813
 30
0.0
  0
SPLINE
  5
1d6
100
AcDbEntity
  8
Layer_1
 62
7
100
AcDbSpline
 70
8
 71
3
 72
8
 73
4
 74
0
 40
0
 40
0
 40
0
 40
0
 40
1
 40
1
 40
1
 40
1
 10
121.505778
 20
251.391813
 30
0.0
 10
121.757513
 20
251.537409
 30
0.0
 10
121.969198
 20
251.719406
 30
0.0
 10
122.140833
 20
251.937803
 30
0.0
  0
SPLINE
  5
1d7
100
AcDbEntity
  8
Layer_1
 62
7
100
AcDbSpline
 70
8
 71
3
 72
8
 73
4
 74
0
 40
0
 40
0
 40
0
 40
0
 40
1
 40
1
 40
1
 40
1
 10
122.140833
 20
251.937803
 30
0.0
 10
124.086053
 20
254.587666
 30
0.0
 10
125.951176
 20
256.946336
 30
0.0
 10
127.736201
 20
259.013811
 30
0.0
  0
SPLINE
  5
1d8
100
AcDbEntity
  8
Layer_1
 62
7
100
AcDbSpline
 70
8
 71
3
 72
8
 73
4
 74
0
 40
0
 40
0
 40
0
 40
0
 40
1
 40
1
 40
1
 40
1
 10
127.736201
 20
259.013811
 30
0.0
 10
129.521226
 20
261.081287
 30
0.0
 10
131.043074
 20
262.682853
 30
0.0
 10
132.301746
 20
263.818508
 30
0.0
  0
SPLINE
  5
1d9
100
AcDbEntity
  8
Layer_1
 62
7
100
AcDbSpline
 70
8
 71
3
 72
8
 73
4
 74
0
 40
0
 40
0
 40
0
 40
0
 40
1
 40
1
 40
1
 40
1
 10
132.301746
 20
263.818508
 30
0.0
 10
133.571861
 20
264.968722
 30
0.0
 10
134.630290
 20
265.543829
 30
0.0
 10
135.477033
 20
265.543829
 30
0.0
  0
SPLINE
  5
1da
100
AcDbEntity
  8
Layer_1
 62
7
100
AcDbSpline
 70
8
 71
3
 72
8
 73
4
 74
0
 40
0
 40
0
 40
0
 40
0
 40
1
 40
1
 40
1
 40
1
 10
135.477033
 20
265.543829
 30
0.0
 10
135.785978
 20
265.543829
 30
0.0
 10
136.043433
 20
265.420072
 30
0.0
 10
136.249397
 20
265.172559
 30
0.0
  0
SPLINE
  5
1db
100
AcDbEntity
  8
Layer_1
 62
7
100
AcDbSpline
 70
8
 71
3
 72
8
 73
4
 74
0
 40
0
 40
0
 40
0
 40
0
 40
1
 40
1
 40
1
 40
1
 10
136.249397
 20
265.172559
 30
0.0
 10
136.466806
 20
264.939604
 30
0.0
 10
136.575510
 20
264.677530
 30
0.0
 10
136.575510
 20
264.386336
 30
0.0
  0
SPLINE
  5
1dc
100
AcDbEntity
  8
Layer_1
 62
7
100
AcDbSpline
 70
8
 71
3
 72
8
 73
4
 74
0
 40
0
 40
0
 40
0
 40
0
 40
1
 40
1
 40
1
 40
1
 10
136.575510
 20
264.386336
 30
0.0
 10
136.575510
 20
263.541874
 30
0.0
 10
135.843192
 20
262.282460
 30
0.0
 10
134.378556
 20
260.608095
 30
0.0
  0
SPLINE
  5
1dd
100
AcDbEntity
  8
Layer_1
 62
7
100
AcDbSpline
 70
8
 71
3
 72
8
 73
4
 74
0
 40
0
 40
0
 40
0
 40
0
 40
1
 40
1
 40
1
 40
1
 10
134.378556
 20
260.608095
 30
0.0
 10
132.913920
 20
258.948290
 30
0.0
 10
131.100288
 20
257.288486
 30
0.0
 10
128.937660
 20
255.628682
 30
0.0
  0
SPLINE
  5
1de
100
AcDbEntity
  8
Layer_1
 62
7
100
AcDbSpline
 70
8
 71
3
 72
8
 73
4
 74
0
 40
0
 40
0
 40
0
 40
0
 40
1
 40
1
 40
1
 40
1
 10
128.937660
 20
255.628682
 30
0.0
 10
126.775035
 20
253.968877
 30
0.0
 10
125.115877
 20
252.927860
 30
0.0
 10
123.960186
 20
252.505631
 30
0.0
  0
SPLINE
  5
1df
100
AcDbEntity
  8
Layer_1
 62
7
100
AcDbSpline
 70
8
 71
3
 72
8
 73
4
 74
0
 40
0
 40
0
 40
0
 40
0
 40
1
 40
1
 40
1
 40
1
 10
123.960186
 20
252.505631
 30
0.0
 10
123.697010
 20
252.112518
 30
0.0
 10
123.210706
 20
251.428213
 30
0.0
 10
122.501273
 20
250.452715
 30
0.0
  0
LWPOLYLINE
  5
1e0
100
AcDbEntity
  8
Layer_1
 62
7
100
AcDbPolyline
 90
2
 70
0
 10
116.202192
 20
245.735376
 30
0.0
 10
116.082048
 20
245.888251
 30
0.0
  0
SPLINE
  5
1e1
100
AcDbEntity
  8
Layer_1
 62
7
100
AcDbSpline
 70
8
 71
3
 72
8
 73
4
 74
0
 40
0
 40
0
 40
0
 40
0
 40
1
 40
1
 40
1
 40
1
 10
119.394641
 20
245.910093
 30
0.0
 10
118.193183
 20
244.090130
 30
0.0
 10
117.552405
 20
242.932634
 30
0.0
 10
117.472306
 20
242.437605
 30
0.0
  0
LWPOLYLINE
  5
1e2
100
AcDbEntity
  8
Layer_1
 62
7
100
AcDbPolyline
 90
3
 70
0
 10
122.501273
 20
250.452715
 30
0.0
 10
121.128177
 20
248.530836
 30
0.0
 10
119.394641
 20
245.910093
 30
0.0
  0
SPLINE
  5
1e3
100
AcDbEntity
  8
Layer_1
 62
7
100
AcDbSpline
 70
8
 71
3
 72
8
 73
4
 74
0
 40
0
 40
0
 40
0
 40
0
 40
1
 40
1
 40
1
 40
1
 10
117.472306
 20
242.241051
 30
0.0
 10
117.472306
 20
241.760580
 30
0.0
 10
117.683993
 20
241.520344
 30
0.0
 10
118.107365
 20
241.520344
 30
0.0
  0
SPLINE
  5
1e4
100
AcDbEntity
  8
Layer_1
 62
7
100
AcDbSpline
 70
8
 71
3
 72
8
 73
4
 74
0
 40
0
 40
0
 40
0
 40
0
 40
1
 40
1
 40
1
 40
1
 10
118.107365
 20
241.520344
 30
0.0
 10
119.091417
 20
241.520344
 30
0.0
 10
120.870721
 20
242.976313
 30
0.0
 10
123.445275
 20
245.888251
 30
0.0
  0
LWPOLYLINE
  5
1e5
100
AcDbEntity
  8
Layer_1
 62
7
100
AcDbPolyline
 90
2
 70
0
 10
117.472306
 20
242.437605
 30
0.0
 10
117.472306
 20
242.241051
 30
0.0
  0
SPLINE
  5
1e6
100
AcDbEntity
  8
Layer_1
 62
7
100
AcDbSpline
 70
8
 71
3
 72
8
 73
4
 74
0
 40
0
 40
0
 40
0
 40
0
 40
1
 40
1
 40
1
 40
1
 10
122.518435
 20
244.599721
 30
0.0
 10
120.435906
 20
242.342968
 30
0.0
 10
118.925500
 20
241.214591
 30
0.0
 10
117.987217
 20
241.214591
 30
0.0
  0
SPLINE
  5
1e7
100
AcDbEntity
  8
Layer_1
 62
7
100
AcDbSpline
 70
8
 71
3
 72
8
 73
4
 74
0
 40
0
 40
0
 40
0
 40
0
 40
1
 40
1
 40
1
 40
1
 10
117.987217
 20
241.214591
 30
0.0
 10
117.701157
 20
241.214591
 30
0.0
 10
117.449423
 20
241.360188
 30
0.0
 10
117.232014
 20
241.651382
 30
0.0
  0
SPLINE
  5
1e8
100
AcDbEntity
  8
Layer_1
 62
7
100
AcDbSpline
 70
8
 71
3
 72
8
 73
4
 74
0
 40
0
 40
0
 40
0
 40
0
 40
1
 40
1
 40
1
 40
1
 10
117.232014
 20
241.651382
 30
0.0
 10
117.026050
 20
241.928017
 30
0.0
 10
116.923068
 20
242.262890
 30
0.0
 10
116.923068
 20
242.656000
 30
0.0
  0
SPLINE
  5
1e9
100
AcDbEntity
  8
Layer_1
 62
7
100
AcDbSpline
 70
8
 71
3
 72
8
 73
4
 74
0
 40
0
 40
0
 40
0
 40
0
 40
1
 40
1
 40
1
 40
1
 10
116.923068
 20
242.656000
 30
0.0
 10
116.923068
 20
243.733417
 30
0.0
 10
117.581010
 20
245.291303
 30
0.0
 10
118.896895
 20
247.329660
 30
0.0
  0
SPLINE
  5
1ea
100
AcDbEntity
  8
Layer_1
 62
7
100
AcDbSpline
 70
8
 71
3
 72
8
 73
4
 74
0
 40
0
 40
0
 40
0
 40
0
 40
1
 40
1
 40
1
 40
1
 10
118.896895
 20
247.329660
 30
0.0
 10
120.212778
 20
249.368016
 30
0.0
 10
121.059521
 20
250.547351
 30
0.0
 10
121.437123
 20
250.867664
 30
0.0
  0
LWPOLYLINE
  5
1eb
100
AcDbEntity
  8
Layer_1
 62
7
100
AcDbPolyline
 90
3
 70
0
 10
123.445275
 20
245.888251
 30
0.0
 10
123.565423
 20
245.735376
 30
0.0
 10
122.518435
 20
244.599721
 30
0.0
  0
SPLINE
  5
1ec
100
AcDbEntity
  8
Layer_1
 62
7
100
AcDbSpline
 70
8
 71
3
 72
8
 73
4
 74
0
 40
0
 40
0
 40
0
 40
0
 40
1
 40
1
 40
1
 40
1
 10
121.419951
 20
250.998701
 30
0.0
 10
121.008022
 20
250.765746
 30
0.0
 10
120.401571
 20
250.205199
 30
0.0
 10
119.600598
 20
249.317059
 30
0.0
  0
LWPOLYLINE
  5
1ed
100
AcDbEntity
  8
Layer_1
 62
7
100
AcDbPolyline
 90
2
 70
0
 10
121.437123
 20
250.867664
 30
0.0
 10
121.419951
 20
250.998701
 30
0.0
  0
SPLINE
  5
1ee
100
AcDbEntity
  8
Layer_1
 62
7
100
AcDbSpline
 70
8
 71
3
 72
8
 73
4
 74
0
 40
0
 40
0
 40
0
 40
0
 40
1
 40
1
 40
1
 40
1
 10
124.200478
 20
252.833222
 30
0.0
 10
125.115875
 20
253.211773
 30
0.0
 10
126.666330
 20
254.216392
 30
0.0
 10
128.851843
 20
255.847077
 30
0.0
  0
SPLINE
  5
1ef
100
AcDbEntity
  8
Layer_1
 62
7
100
AcDbSpline
 70
8
 71
3
 72
8
 73
4
 74
0
 40
0
 40
0
 40
0
 40
0
 40
1
 40
1
 40
1
 40
1
 10
128.851843
 20
255.847077
 30
0.0
 10
131.048797
 20
257.492323
 30
0.0
 10
132.845265
 20
259.130289
 30
0.0
 10
134.241246
 20
260.760974
 30
0.0
  0
SPLINE
  5
1f0
100
AcDbEntity
  8
Layer_1
 62
7
100
AcDbSpline
 70
8
 71
3
 72
8
 73
4
 74
0
 40
0
 40
0
 40
0
 40
0
 40
1
 40
1
 40
1
 40
1
 10
134.241246
 20
260.760974
 30
0.0
 10
135.637227
 20
262.406217
 30
0.0
 10
136.335218
 20
263.614671
 30
0.0
 10
136.335218
 20
264.386336
 30
0.0
  0
SPLINE
  5
1f1
100
AcDbEntity
  8
Layer_1
 62
7
100
AcDbSpline
 70
8
 71
3
 72
8
 73
4
 74
0
 40
0
 40
0
 40
0
 40
0
 40
1
 40
1
 40
1
 40
1
 10
136.335218
 20
264.386336
 30
0.0
 10
136.335218
 20
264.619291
 30
0.0
 10
136.249399
 20
264.823127
 30
0.0
 10
136.077760
 20
264.997843
 30
0.0
  0
SPLINE
  5
1f2
100
AcDbEntity
  8
Layer_1
 62
7
100
AcDbSpline
 70
8
 71
3
 72
8
 73
4
 74
0
 40
0
 40
0
 40
0
 40
0
 40
1
 40
1
 40
1
 40
1
 10
136.077760
 20
264.997843
 30
0.0
 10
135.906125
 20
265.187117
 30
0.0
 10
135.688718
 20
265.281754
 30
0.0
 10
135.425540
 20
265.281754
 30
0.0
  0
SPLINE
  5
1f3
100
AcDbEntity
  8
Layer_1
 62
7
100
AcDbSpline
 70
8
 71
3
 72
8
 73
4
 74
0
 40
0
 40
0
 40
0
 40
0
 40
1
 40
1
 40
1
 40
1
 10
135.425540
 20
265.281754
 30
0.0
 10
134.738992
 20
265.281754
 30
0.0
 10
133.903691
 20
264.859523
 30
0.0
 10
132.919639
 20
264.015062
 30
0.0
  0
SPLINE
  5
1f4
100
AcDbEntity
  8
Layer_1
 62
7
100
AcDbSpline
 70
8
 71
3
 72
8
 73
4
 74
0
 40
0
 40
0
 40
0
 40
0
 40
1
 40
1
 40
1
 40
1
 10
132.919639
 20
264.015062
 30
0.0
 10
131.947030
 20
263.185161
 30
0.0
 10
130.448067
 20
261.437998
 30
0.0
 10
128.422749
 20
258.773574
 30
0.0
  0
SPLINE
  5
1f5
100
AcDbEntity
  8
Layer_1
 62
7
100
AcDbSpline
 70
8
 71
3
 72
8
 73
4
 74
0
 40
0
 40
0
 40
0
 40
0
 40
1
 40
1
 40
1
 40
1
 10
128.422749
 20
258.773574
 30
0.0
 10
126.408874
 20
256.109153
 30
0.0
 10
125.001451
 20
254.129035
 30
0.0
 10
124.200478
 20
252.833222
 30
0.0
  0
LWPOLYLINE
  5
1f6
100
AcDbEntity
  8
Layer_1
 62
7
100
AcDbPolyline
 90
2
 70
0
 10
119.600598
 20
249.317059
 30
0.0
 10
116.202192
 20
245.735376
 30
0.0
  0
LWPOLYLINE
  5
1f7
100
AcDbEntity
  8
Layer_1
 62
7
100
AcDbPolyline
 90
1
 70
1
 10
124.200478
 20
252.833222
 30
0.0
  0
SPLINE
  5
1f8
100
AcDbEntity
  8
Layer_1
 62
7
100
AcDbSpline
 70
8
 71
3
 72
8
 73
4
 74
0
 40
0
 40
0
 40
0
 40
0
 40
1
 40
1
 40
1
 40
1
 10
126.054158
 20
248.618194
 30
0.0
 10
126.466087
 20
249.040424
 30
0.0
 10
126.757870
 20
249.368016
 30
0.0
 10
126.929508
 20
249.600971
 30
0.0
  0
SPLINE
  5
1f9
100
AcDbEntity
  8
Layer_1
 62
7
100
AcDbSpline
 70
8
 71
3
 72
8
 73
4
 74
0
 40
0
 40
0
 40
0
 40
0
 40
1
 40
1
 40
1
 40
1
 10
126.929508
 20
249.600971
 30
0.0
 10
126.563349
 20
249.877607
 30
0.0
 10
126.380270
 20
250.256158
 30
0.0
 10
126.380270
 20
250.736627
 30
0.0
  0
SPLINE
  5
1fa
100
AcDbEntity
  8
Layer_1
 62
7
100
AcDbSpline
 70
8
 71
3
 72
8
 73
4
 74
0
 40
0
 40
0
 40
0
 40
0
 40
1
 40
1
 40
1
 40
1
 10
126.380270
 20
250.736627
 30
0.0
 10
126.380270
 20
251.042382
 30
0.0
 10
126.460367
 20
251.311737
 30
0.0
 10
126.620562
 20
251.544692
 30
0.0
  0
SPLINE
  5
1fb
100
AcDbEntity
  8
Layer_1
 62
7
100
AcDbSpline
 70
8
 71
3
 72
8
 73
4
 74
0
 40
0
 40
0
 40
0
 40
0
 40
1
 40
1
 40
1
 40
1
 10
126.620562
 20
251.544692
 30
0.0
 10
126.792198
 20
251.777647
 30
0.0
 10
126.980998
 20
251.894124
 30
0.0
 10
127.186962
 20
251.894124
 30
0.0
  0
SPLINE
  5
1fc
100
AcDbEntity
  8
Layer_1
 62
7
100
AcDbSpline
 70
8
 71
3
 72
8
 73
4
 74
0
 40
0
 40
0
 40
0
 40
0
 40
1
 40
1
 40
1
 40
1
 10
127.186962
 20
251.894124
 30
0.0
 10
127.335716
 20
251.894124
 30
0.0
 10
127.467305
 20
251.814045
 30
0.0
 10
127.581729
 20
251.653887
 30
0.0
  0
SPLINE
  5
1fd
100
AcDbEntity
  8
Layer_1
 62
7
100
AcDbSpline
 70
8
 71
3
 72
8
 73
4
 74
0
 40
0
 40
0
 40
0
 40
0
 40
1
 40
1
 40
1
 40
1
 10
127.581729
 20
251.653887
 30
0.0
 10
127.707595
 20
251.493732
 30
0.0
 10
127.770528
 20
251.297177
 30
0.0
 10
127.770528
 20
251.064222
 30
0.0
  0
SPLINE
  5
1fe
100
AcDbEntity
  8
Layer_1
 62
7
100
AcDbSpline
 70
8
 71
3
 72
8
 73
4
 74
0
 40
0
 40
0
 40
0
 40
0
 40
1
 40
1
 40
1
 40
1
 10
127.770528
 20
251.064222
 30
0.0
 10
127.770528
 20
250.831267
 30
0.0
 10
127.707595
 20
250.627431
 30
0.0
 10
127.581729
 20
250.452715
 30
0.0
  0
SPLINE
  5
1ff
100
AcDbEntity
  8
Layer_1
 62
7
100
AcDbSpline
 70
8
 71
3
 72
8
 73
4
 74
0
 40
0
 40
0
 40
0
 40
0
 40
1
 40
1
 40
1
 40
1
 10
127.581729
 20
250.452715
 30
0.0
 10
127.455861
 20
250.292557
 30
0.0
 10
127.301387
 20
250.212478
 30
0.0
 10
127.118307
 20
250.212478
 30
0.0
  0
SPLINE
  5
200
100
AcDbEntity
  8
Layer_1
 62
7
100
AcDbSpline
 70
8
 71
3
 72
8
 73
4
 74
0
 40
0
 40
0
 40
0
 40
0
 40
1
 40
1
 40
1
 40
1
 10
127.118307
 20
250.212478
 30
0.0
 10
126.992441
 20
250.212478
 30
0.0
 10
126.860854
 20
250.270717
 30
0.0
 10
126.723544
 20
250.387194
 30
0.0
  0
SPLINE
  5
201
100
AcDbEntity
  8
Layer_1
 62
7
100
AcDbSpline
 70
8
 71
3
 72
8
 73
4
 74
0
 40
0
 40
0
 40
0
 40
0
 40
1
 40
1
 40
1
 40
1
 10
126.723544
 20
250.387194
 30
0.0
 10
126.712095
 20
250.328955
 30
0.0
 10
126.706371
 20
250.292557
 30
0.0
 10
126.706371
 20
250.277999
 30
0.0
  0
SPLINE
  5
202
100
AcDbEntity
  8
Layer_1
 62
7
100
AcDbSpline
 70
8
 71
3
 72
8
 73
4
 74
0
 40
0
 40
0
 40
0
 40
0
 40
1
 40
1
 40
1
 40
1
 10
126.706371
 20
250.277999
 30
0.0
 10
126.706371
 20
250.146960
 30
0.0
 10
126.786468
 20
250.015923
 30
0.0
 10
126.946663
 20
249.884887
 30
0.0
  0
SPLINE
  5
203
100
AcDbEntity
  8
Layer_1
 62
7
100
AcDbSpline
 70
8
 71
3
 72
8
 73
4
 74
0
 40
0
 40
0
 40
0
 40
0
 40
1
 40
1
 40
1
 40
1
 10
126.946663
 20
249.884887
 30
0.0
 10
127.106858
 20
249.753848
 30
0.0
 10
127.341429
 20
249.688329
 30
0.0
 10
127.650377
 20
249.688329
 30
0.0
  0
SPLINE
  5
204
100
AcDbEntity
  8
Layer_1
 62
7
100
AcDbSpline
 70
8
 71
3
 72
8
 73
4
 74
0
 40
0
 40
0
 40
0
 40
0
 40
1
 40
1
 40
1
 40
1
 10
127.650377
 20
249.688329
 30
0.0
 10
128.096632
 20
249.688329
 30
0.0
 10
128.577215
 20
249.833926
 30
0.0
 10
129.092128
 20
250.125120
 30
0.0
  0
LWPOLYLINE
  5
205
100
AcDbEntity
  8
Layer_1
 62
7
100
AcDbPolyline
 90
3
 70
0
 10
123.565423
 20
245.735376
 30
0.0
 10
123.445275
 20
245.888251
 30
0.0
 10
126.054158
 20
248.618194
 30
0.0
  0
SPLINE
  5
206
100
AcDbEntity
  8
Layer_1
 62
7
100
AcDbSpline
 70
8
 71
3
 72
8
 73
4
 74
0
 40
0
 40
0
 40
0
 40
0
 40
1
 40
1
 40
1
 40
1
 10
130.001802
 20
248.836590
 30
0.0
 10
129.784397
 20
248.297880
 30
0.0
 10
129.332420
 20
247.628134
 30
0.0
 10
128.645871
 20
246.827353
 30
0.0
  0
SPLINE
  5
207
100
AcDbEntity
  8
Layer_1
 62
7
100
AcDbSpline
 70
8
 71
3
 72
8
 73
4
 74
0
 40
0
 40
0
 40
0
 40
0
 40
1
 40
1
 40
1
 40
1
 10
128.645871
 20
246.827353
 30
0.0
 10
127.970765
 20
246.041130
 30
0.0
 10
127.295659
 20
245.196668
 30
0.0
 10
126.620555
 20
244.293967
 30
0.0
  0
SPLINE
  5
208
100
AcDbEntity
  8
Layer_1
 62
7
100
AcDbSpline
 70
8
 71
3
 72
8
 73
4
 74
0
 40
0
 40
0
 40
0
 40
0
 40
1
 40
1
 40
1
 40
1
 10
126.620555
 20
244.293967
 30
0.0
 10
125.945448
 20
243.405825
 30
0.0
 10
125.562124
 20
242.874395
 30
0.0
 10
125.470585
 20
242.699679
 30
0.0
  0
SPLINE
  5
209
100
AcDbEntity
  8
Layer_1
 62
7
100
AcDbSpline
 70
8
 71
3
 72
8
 73
4
 74
0
 40
0
 40
0
 40
0
 40
0
 40
1
 40
1
 40
1
 40
1
 10
125.470585
 20
242.699679
 30
0.0
 10
125.379045
 20
242.524963
 30
0.0
 10
125.333275
 20
242.357527
 30
0.0
 10
125.333275
 20
242.197372
 30
0.0
  0
SPLINE
  5
20a
100
AcDbEntity
  8
Layer_1
 62
7
100
AcDbSpline
 70
8
 71
3
 72
8
 73
4
 74
0
 40
0
 40
0
 40
0
 40
0
 40
1
 40
1
 40
1
 40
1
 10
125.333275
 20
242.197372
 30
0.0
 10
125.333275
 20
241.789701
 30
0.0
 10
125.516354
 20
241.585865
 30
0.0
 10
125.882513
 20
241.585865
 30
0.0
  0
SPLINE
  5
20b
100
AcDbEntity
  8
Layer_1
 62
7
100
AcDbSpline
 70
8
 71
3
 72
8
 73
4
 74
0
 40
0
 40
0
 40
0
 40
0
 40
1
 40
1
 40
1
 40
1
 10
125.882513
 20
241.585865
 30
0.0
 10
126.317327
 20
241.585865
 30
0.0
 10
126.992433
 20
241.906178
 30
0.0
 10
127.907830
 20
242.546805
 30
0.0
  0
SPLINE
  5
20c
100
AcDbEntity
  8
Layer_1
 62
7
100
AcDbSpline
 70
8
 71
3
 72
8
 73
4
 74
0
 40
0
 40
0
 40
0
 40
0
 40
1
 40
1
 40
1
 40
1
 10
127.907830
 20
242.546805
 30
0.0
 10
128.823228
 20
243.201989
 30
0.0
 10
129.990360
 20
244.315804
 30
0.0
 10
131.409226
 20
245.888251
 30
0.0
  0
LWPOLYLINE
  5
20d
100
AcDbEntity
  8
Layer_1
 62
7
100
AcDbPolyline
 90
2
 70
0
 10
129.092128
 20
250.125120
 30
0.0
 10
130.001802
 20
248.836590
 30
0.0
  0
SPLINE
  5
20e
100
AcDbEntity
  8
Layer_1
 62
7
100
AcDbSpline
 70
8
 71
3
 72
8
 73
4
 74
0
 40
0
 40
0
 40
0
 40
0
 40
1
 40
1
 40
1
 40
1
 10
131.529374
 20
245.735376
 30
0.0
 10
128.863277
 20
242.808878
 30
0.0
 10
126.969548
 20
241.345628
 30
0.0
 10
125.848186
 20
241.345628
 30
0.0
  0
SPLINE
  5
20f
100
AcDbEntity
  8
Layer_1
 62
7
100
AcDbSpline
 70
8
 71
3
 72
8
 73
4
 74
0
 40
0
 40
0
 40
0
 40
0
 40
1
 40
1
 40
1
 40
1
 10
125.848186
 20
241.345628
 30
0.0
 10
125.516356
 20
241.345628
 30
0.0
 10
125.253179
 20
241.476665
 30
0.0
 10
125.058656
 20
241.738740
 30
0.0
  0
SPLINE
  5
210
100
AcDbEntity
  8
Layer_1
 62
7
100
AcDbSpline
 70
8
 71
3
 72
8
 73
4
 74
0
 40
0
 40
0
 40
0
 40
0
 40
1
 40
1
 40
1
 40
1
 10
125.058656
 20
241.738740
 30
0.0
 10
124.875576
 20
242.015375
 30
0.0
 10
124.784036
 20
242.372088
 30
0.0
 10
124.784036
 20
242.808879
 30
0.0
  0
SPLINE
  5
211
100
AcDbEntity
  8
Layer_1
 62
7
100
AcDbSpline
 70
8
 71
3
 72
8
 73
4
 74
0
 40
0
 40
0
 40
0
 40
0
 40
1
 40
1
 40
1
 40
1
 10
124.784036
 20
242.808879
 30
0.0
 10
124.784036
 20
243.362147
 30
0.0
 10
124.921346
 20
243.915415
 30
0.0
 10
125.195965
 20
244.468683
 30
0.0
  0
SPLINE
  5
212
100
AcDbEntity
  8
Layer_1
 62
7
100
AcDbSpline
 70
8
 71
3
 72
8
 73
4
 74
0
 40
0
 40
0
 40
0
 40
0
 40
1
 40
1
 40
1
 40
1
 10
125.195965
 20
244.468683
 30
0.0
 10
125.482028
 20
245.021952
 30
0.0
 10
126.088479
 20
245.873693
 30
0.0
 10
127.015318
 20
247.023906
 30
0.0
  0
SPLINE
  5
213
100
AcDbEntity
  8
Layer_1
 62
7
100
AcDbSpline
 70
8
 71
3
 72
8
 73
4
 74
0
 40
0
 40
0
 40
0
 40
0
 40
1
 40
1
 40
1
 40
1
 10
127.015318
 20
247.023906
 30
0.0
 10
127.942159
 20
248.174123
 30
0.0
 10
128.582937
 20
249.033145
 30
0.0
 10
128.937653
 20
249.600971
 30
0.0
  0
LWPOLYLINE
  5
214
100
AcDbEntity
  8
Layer_1
 62
7
100
AcDbPolyline
 90
2
 70
0
 10
131.409226
 20
245.888251
 30
0.0
 10
131.529374
 20
245.735376
 30
0.0
  0
SPLINE
  5
215
100
AcDbEntity
  8
Layer_1
 62
7
100
AcDbSpline
 70
8
 71
3
 72
8
 73
4
 74
0
 40
0
 40
0
 40
0
 40
0
 40
1
 40
1
 40
1
 40
1
 10
128.868998
 20
249.753850
 30
0.0
 10
128.388414
 20
249.535453
 30
0.0
 10
127.942158
 20
249.426255
 30
0.0
 10
127.530229
 20
249.426255
 30
0.0
  0
SPLINE
  5
216
100
AcDbEntity
  8
Layer_1
 62
7
100
AcDbSpline
 70
8
 71
3
 72
8
 73
4
 74
0
 40
0
 40
0
 40
0
 40
0
 40
1
 40
1
 40
1
 40
1
 10
127.530229
 20
249.426255
 30
0.0
 10
127.415804
 20
249.426255
 30
0.0
 10
127.295659
 20
249.448095
 30
0.0
 10
127.169793
 20
249.491776
 30
0.0
  0
LWPOLYLINE
  5
217
100
AcDbEntity
  8
Layer_1
 62
7
100
AcDbPolyline
 90
2
 70
0
 10
128.937653
 20
249.600971
 30
0.0
 10
128.868998
 20
249.753850
 30
0.0
  0
LWPOLYLINE
  5
218
100
AcDbEntity
  8
Layer_1
 62
7
100
AcDbPolyline
 90
2
 70
0
 10
127.169793
 20
249.491776
 30
0.0
 10
123.565423
 20
245.735376
 30
0.0
  0
SPLINE
  5
219
100
AcDbEntity
  8
Layer_1
 62
7
100
AcDbSpline
 70
8
 71
3
 72
8
 73
4
 74
0
 40
0
 40
0
 40
0
 40
0
 40
1
 40
1
 40
1
 40
1
 10
139.132900
 20
245.735376
 30
0.0
 10
138.709529
 20
245.225786
 30
0.0
 10
138.274716
 20
244.970990
 30
0.0
 10
137.828458
 20
244.970990
 30
0.0
  0
SPLINE
  5
21a
100
AcDbEntity
  8
Layer_1
 62
7
100
AcDbSpline
 70
8
 71
3
 72
8
 73
4
 74
0
 40
0
 40
0
 40
0
 40
0
 40
1
 40
1
 40
1
 40
1
 10
137.828458
 20
244.970990
 30
0.0
 10
137.462299
 20
244.970990
 30
0.0
 10
137.153352
 20
245.138428
 30
0.0
 10
136.901618
 20
245.473302
 30
0.0
  0
SPLINE
  5
21b
100
AcDbEntity
  8
Layer_1
 62
7
100
AcDbSpline
 70
8
 71
3
 72
8
 73
4
 74
0
 40
0
 40
0
 40
0
 40
0
 40
1
 40
1
 40
1
 40
1
 10
136.901618
 20
245.473302
 30
0.0
 10
136.054875
 20
244.337646
 30
0.0
 10
135.150920
 20
243.383986
 30
0.0
 10
134.189753
 20
242.612321
 30
0.0
  0
SPLINE
  5
21c
100
AcDbEntity
  8
Layer_1
 62
7
100
AcDbSpline
 70
8
 71
3
 72
8
 73
4
 74
0
 40
0
 40
0
 40
0
 40
0
 40
1
 40
1
 40
1
 40
1
 10
134.189753
 20
242.612321
 30
0.0
 10
133.228586
 20
241.840659
 30
0.0
 10
132.427613
 20
241.454828
 30
0.0
 10
131.786835
 20
241.454828
 30
0.0
  0
SPLINE
  5
21d
100
AcDbEntity
  8
Layer_1
 62
7
100
AcDbSpline
 70
8
 71
3
 72
8
 73
4
 74
0
 40
0
 40
0
 40
0
 40
0
 40
1
 40
1
 40
1
 40
1
 10
131.786835
 20
241.454828
 30
0.0
 10
131.455004
 20
241.454828
 30
0.0
 10
131.174664
 20
241.607704
 30
0.0
 10
130.945815
 20
241.913456
 30
0.0
  0
SPLINE
  5
21e
100
AcDbEntity
  8
Layer_1
 62
7
100
AcDbSpline
 70
8
 71
3
 72
8
 73
4
 74
0
 40
0
 40
0
 40
0
 40
0
 40
1
 40
1
 40
1
 40
1
 10
130.945815
 20
241.913456
 30
0.0
 10
130.716966
 20
242.219211
 30
0.0
 10
130.602541
 20
242.641442
 30
0.0
 10
130.602541
 20
243.180149
 30
0.0
  0
SPLINE
  5
21f
100
AcDbEntity
  8
Layer_1
 62
7
100
AcDbSpline
 70
8
 71
3
 72
8
 73
4
 74
0
 40
0
 40
0
 40
0
 40
0
 40
1
 40
1
 40
1
 40
1
 10
130.602541
 20
243.180149
 30
0.0
 10
130.602541
 20
244.417724
 30
0.0
 10
131.037355
 20
245.604339
 30
0.0
 10
131.906982
 20
246.739995
 30
0.0
  0
SPLINE
  5
220
100
AcDbEntity
  8
Layer_1
 62
7
100
AcDbSpline
 70
8
 71
3
 72
8
 73
4
 74
0
 40
0
 40
0
 40
0
 40
0
 40
1
 40
1
 40
1
 40
1
 10
131.906982
 20
246.739995
 30
0.0
 10
132.776610
 20
247.890208
 30
0.0
 10
133.772105
 20
248.778349
 30
0.0
 10
134.893467
 20
249.404418
 30
0.0
  0
SPLINE
  5
221
100
AcDbEntity
  8
Layer_1
 62
7
100
AcDbSpline
 70
8
 71
3
 72
8
 73
4
 74
0
 40
0
 40
0
 40
0
 40
0
 40
1
 40
1
 40
1
 40
1
 10
134.893467
 20
249.404418
 30
0.0
 10
136.026270
 20
250.045044
 30
0.0
 10
136.924503
 20
250.365357
 30
0.0
 10
137.588166
 20
250.365357
 30
0.0
  0
SPLINE
  5
222
100
AcDbEntity
  8
Layer_1
 62
7
100
AcDbSpline
 70
8
 71
3
 72
8
 73
4
 74
0
 40
0
 40
0
 40
0
 40
0
 40
1
 40
1
 40
1
 40
1
 10
137.588166
 20
250.365357
 30
0.0
 10
138.240388
 20
250.365357
 30
0.0
 10
138.566499
 20
249.972245
 30
0.0
 10
138.566499
 20
249.186022
 30
0.0
  0
SPLINE
  5
223
100
AcDbEntity
  8
Layer_1
 62
7
100
AcDbSpline
 70
8
 71
3
 72
8
 73
4
 74
0
 40
0
 40
0
 40
0
 40
0
 40
1
 40
1
 40
1
 40
1
 10
138.566499
 20
249.186022
 30
0.0
 10
138.566499
 20
248.370680
 30
0.0
 10
138.051588
 20
247.198624
 30
0.0
 10
137.021766
 20
245.669855
 30
0.0
  0
SPLINE
  5
224
100
AcDbEntity
  8
Layer_1
 62
7
100
AcDbSpline
 70
8
 71
3
 72
8
 73
4
 74
0
 40
0
 40
0
 40
0
 40
0
 40
1
 40
1
 40
1
 40
1
 10
137.021766
 20
245.669855
 30
0.0
 10
137.227730
 20
245.349542
 30
0.0
 10
137.502350
 20
245.189386
 30
0.0
 10
137.845624
 20
245.189386
 30
0.0
  0
SPLINE
  5
225
100
AcDbEntity
  8
Layer_1
 62
7
100
AcDbSpline
 70
8
 71
3
 72
8
 73
4
 74
0
 40
0
 40
0
 40
0
 40
0
 40
1
 40
1
 40
1
 40
1
 10
137.845624
 20
245.189386
 30
0.0
 10
138.234668
 20
245.189386
 30
0.0
 10
138.623712
 20
245.422341
 30
0.0
 10
139.012755
 20
245.888251
 30
0.0
  0
LWPOLYLINE
  5
226
100
AcDbEntity
  8
Layer_1
 62
7
100
AcDbPolyline
 90
2
 70
0
 10
139.012755
 20
245.888251
 30
0.0
 10
139.132900
 20
245.735376
 30
0.0
  0
SPLINE
  5
227
100
AcDbEntity
  8
Layer_1
 62
7
100
AcDbSpline
 70
8
 71
3
 72
8
 73
4
 74
0
 40
0
 40
0
 40
0
 40
0
 40
1
 40
1
 40
1
 40
1
 10
138.412024
 20
249.251538
 30
0.0
 10
138.412024
 20
249.528174
 30
0.0
 10
138.326206
 20
249.753850
 30
0.0
 10
138.154570
 20
249.928566
 30
0.0
  0
SPLINE
  5
228
100
AcDbEntity
  8
Layer_1
 62
7
100
AcDbSpline
 70
8
 71
3
 72
8
 73
4
 74
0
 40
0
 40
0
 40
0
 40
0
 40
1
 40
1
 40
1
 40
1
 10
138.154570
 20
249.928566
 30
0.0
 10
137.994376
 20
250.103283
 30
0.0
 10
137.811296
 20
250.190641
 30
0.0
 10
137.605332
 20
250.190641
 30
0.0
  0
SPLINE
  5
229
100
AcDbEntity
  8
Layer_1
 62
7
100
AcDbSpline
 70
8
 71
3
 72
8
 73
4
 74
0
 40
0
 40
0
 40
0
 40
0
 40
1
 40
1
 40
1
 40
1
 10
137.605332
 20
250.190641
 30
0.0
 10
136.735704
 20
250.190641
 30
0.0
 10
135.419820
 20
249.084104
 30
0.0
 10
133.657680
 20
246.871032
 30
0.0
  0
SPLINE
  5
22a
100
AcDbEntity
  8
Layer_1
 62
7
100
AcDbSpline
 70
8
 71
3
 72
8
 73
4
 74
0
 40
0
 40
0
 40
0
 40
0
 40
1
 40
1
 40
1
 40
1
 10
133.657680
 20
246.871032
 30
0.0
 10
131.906981
 20
244.657959
 30
0.0
 10
131.031632
 20
243.194710
 30
0.0
 10
131.031632
 20
242.481284
 30
0.0
  0
SPLINE
  5
22b
100
AcDbEntity
  8
Layer_1
 62
7
100
AcDbSpline
 70
8
 71
3
 72
8
 73
4
 74
0
 40
0
 40
0
 40
0
 40
0
 40
1
 40
1
 40
1
 40
1
 10
131.031632
 20
242.481284
 30
0.0
 10
131.031632
 20
242.277448
 30
0.0
 10
131.111729
 20
242.088172
 30
0.0
 10
131.271924
 20
241.913456
 30
0.0
  0
SPLINE
  5
22c
100
AcDbEntity
  8
Layer_1
 62
7
100
AcDbSpline
 70
8
 71
3
 72
8
 73
4
 74
0
 40
0
 40
0
 40
0
 40
0
 40
1
 40
1
 40
1
 40
1
 10
131.271924
 20
241.913456
 30
0.0
 10
131.432118
 20
241.753301
 30
0.0
 10
131.615198
 20
241.673223
 30
0.0
 10
131.821162
 20
241.673223
 30
0.0
  0
SPLINE
  5
22d
100
AcDbEntity
  8
Layer_1
 62
7
100
AcDbSpline
 70
8
 71
3
 72
8
 73
4
 74
0
 40
0
 40
0
 40
0
 40
0
 40
1
 40
1
 40
1
 40
1
 10
131.821162
 20
241.673223
 30
0.0
 10
132.301746
 20
241.673223
 30
0.0
 10
132.988294
 20
241.986256
 30
0.0
 10
133.880806
 20
242.612321
 30
0.0
  0
SPLINE
  5
22e
100
AcDbEntity
  8
Layer_1
 62
7
100
AcDbSpline
 70
8
 71
3
 72
8
 73
4
 74
0
 40
0
 40
0
 40
0
 40
0
 40
1
 40
1
 40
1
 40
1
 10
133.880806
 20
242.612321
 30
0.0
 10
134.784763
 20
243.252947
 30
0.0
 10
135.574293
 20
244.024611
 30
0.0
 10
136.249397
 20
244.927311
 30
0.0
  0
SPLINE
  5
22f
100
AcDbEntity
  8
Layer_1
 62
7
100
AcDbSpline
 70
8
 71
3
 72
8
 73
4
 74
0
 40
0
 40
0
 40
0
 40
0
 40
1
 40
1
 40
1
 40
1
 10
136.249397
 20
244.927311
 30
0.0
 10
136.935946
 20
245.844573
 30
0.0
 10
137.468021
 20
246.659916
 30
0.0
 10
137.845624
 20
247.373339
 30
0.0
  0
SPLINE
  5
230
100
AcDbEntity
  8
Layer_1
 62
7
100
AcDbSpline
 70
8
 71
3
 72
8
 73
4
 74
0
 40
0
 40
0
 40
0
 40
0
 40
1
 40
1
 40
1
 40
1
 10
137.845624
 20
247.373339
 30
0.0
 10
138.223224
 20
248.101323
 30
0.0
 10
138.412024
 20
248.727390
 30
0.0
 10
138.412024
 20
249.251538
 30
0.0
  0
LWPOLYLINE
  5
231
100
AcDbEntity
  8
Layer_1
 62
7
100
AcDbPolyline
 90
1
 70
1
 10
139.012755
 20
245.888251
 30
0.0
  0
LWPOLYLINE
  5
232
100
AcDbEntity
  8
Layer_1
 62
7
100
AcDbPolyline
 90
1
 70
1
 10
138.412024
 20
249.251538
 30
0.0
  0
SPLINE
  5
233
100
AcDbEntity
  8
Layer_1
 62
7
100
AcDbSpline
 70
8
 71
3
 72
8
 73
4
 74
0
 40
0
 40
0
 40
0
 40
0
 40
1
 40
1
 40
1
 40
1
 10
143.097717
 20
250.212478
 30
0.0
 10
143.612627
 20
250.765746
 30
0.0
 10
144.173308
 20
251.246216
 30
0.0
 10
144.779760
 20
251.653887
 30
0.0
  0
LWPOLYLINE
  5
234
100
AcDbEntity
  8
Layer_1
 62
7
100
AcDbPolyline
 90
3
 70
0
 10
139.132900
 20
245.735376
 30
0.0
 10
139.012755
 20
245.888251
 30
0.0
 10
143.097717
 20
250.212478
 30
0.0
  0
SPLINE
  5
235
100
AcDbEntity
  8
Layer_1
 62
7
100
AcDbSpline
 70
8
 71
3
 72
8
 73
4
 74
0
 40
0
 40
0
 40
0
 40
0
 40
1
 40
1
 40
1
 40
1
 10
149.413960
 20
257.594239
 30
0.0
 10
150.958692
 20
259.574357
 30
0.0
 10
152.652177
 20
261.474397
 30
0.0
 10
154.494416
 20
263.294359
 30
0.0
  0
SPLINE
  5
236
100
AcDbEntity
  8
Layer_1
 62
7
100
AcDbSpline
 70
8
 71
3
 72
8
 73
4
 74
0
 40
0
 40
0
 40
0
 40
0
 40
1
 40
1
 40
1
 40
1
 10
154.494416
 20
263.294359
 30
0.0
 10
156.336652
 20
265.114319
 30
0.0
 10
157.658256
 20
266.024298
 30
0.0
 10
158.459229
 20
266.024298
 30
0.0
  0
SPLINE
  5
237
100
AcDbEntity
  8
Layer_1
 62
7
100
AcDbSpline
 70
8
 71
3
 72
8
 73
4
 74
0
 40
0
 40
0
 40
0
 40
0
 40
1
 40
1
 40
1
 40
1
 10
158.459229
 20
266.024298
 30
0.0
 10
159.157221
 20
266.024298
 30
0.0
 10
159.506217
 20
265.638468
 30
0.0
 10
159.506217
 20
264.866806
 30
0.0
  0
SPLINE
  5
238
100
AcDbEntity
  8
Layer_1
 62
7
100
AcDbSpline
 70
8
 71
3
 72
8
 73
4
 74
0
 40
0
 40
0
 40
0
 40
0
 40
1
 40
1
 40
1
 40
1
 10
159.506217
 20
264.866806
 30
0.0
 10
159.506217
 20
263.833066
 30
0.0
 10
158.928372
 20
262.566373
 30
0.0
 10
157.772681
 20
261.066727
 30
0.0
  0
SPLINE
  5
239
100
AcDbEntity
  8
Layer_1
 62
7
100
AcDbSpline
 70
8
 71
3
 72
8
 73
4
 74
0
 40
0
 40
0
 40
0
 40
0
 40
1
 40
1
 40
1
 40
1
 10
157.772681
 20
261.066727
 30
0.0
 10
156.616993
 20
259.581639
 30
0.0
 10
155.049375
 20
258.052872
 30
0.0
 10
153.069827
 20
256.480426
 30
0.0
  0
SPLINE
  5
23a
100
AcDbEntity
  8
Layer_1
 62
7
100
AcDbSpline
 70
8
 71
3
 72
8
 73
4
 74
0
 40
0
 40
0
 40
0
 40
0
 40
1
 40
1
 40
1
 40
1
 10
153.069827
 20
256.480426
 30
0.0
 10
151.101722
 20
254.922538
 30
0.0
 10
149.562710
 20
253.837840
 30
0.0
 10
148.452792
 20
253.226333
 30
0.0
  0
SPLINE
  5
23b
100
AcDbEntity
  8
Layer_1
 62
7
100
AcDbSpline
 70
8
 71
3
 72
8
 73
4
 74
0
 40
0
 40
0
 40
0
 40
0
 40
1
 40
1
 40
1
 40
1
 10
148.452792
 20
253.226333
 30
0.0
 10
147.342872
 20
252.614826
 30
0.0
 10
146.667766
 20
252.141637
 30
0.0
 10
146.427475
 20
251.806766
 30
0.0
  0
LWPOLYLINE
  5
23c
100
AcDbEntity
  8
Layer_1
 62
7
100
AcDbPolyline
 90
2
 70
0
 10
144.779760
 20
251.653887
 30
0.0
 10
149.413960
 20
257.594239
 30
0.0
  0
SPLINE
  5
23d
100
AcDbEntity
  8
Layer_1
 62
7
100
AcDbSpline
 70
8
 71
3
 72
8
 73
4
 74
0
 40
0
 40
0
 40
0
 40
0
 40
1
 40
1
 40
1
 40
1
 10
142.737277
 20
246.674474
 30
0.0
 10
141.192545
 20
244.519640
 30
0.0
 10
140.420179
 20
243.100071
 30
0.0
 10
140.420179
 20
242.415768
 30
0.0
  0
SPLINE
  5
23e
100
AcDbEntity
  8
Layer_1
 62
7
100
AcDbSpline
 70
8
 71
3
 72
8
 73
4
 74
0
 40
0
 40
0
 40
0
 40
0
 40
1
 40
1
 40
1
 40
1
 10
140.420179
 20
242.415768
 30
0.0
 10
140.420179
 20
242.153693
 30
0.0
 10
140.505997
 20
241.935298
 30
0.0
 10
140.677633
 20
241.760582
 30
0.0
  0
SPLINE
  5
23f
100
AcDbEntity
  8
Layer_1
 62
7
100
AcDbSpline
 70
8
 71
3
 72
8
 73
4
 74
0
 40
0
 40
0
 40
0
 40
0
 40
1
 40
1
 40
1
 40
1
 10
140.677633
 20
241.760582
 30
0.0
 10
140.860712
 20
241.585865
 30
0.0
 10
141.060956
 20
241.498507
 30
0.0
 10
141.278364
 20
241.498507
 30
0.0
  0
SPLINE
  5
240
100
AcDbEntity
  8
Layer_1
 62
7
100
AcDbSpline
 70
8
 71
3
 72
8
 73
4
 74
0
 40
0
 40
0
 40
0
 40
0
 40
1
 40
1
 40
1
 40
1
 10
141.278364
 20
241.498507
 30
0.0
 10
141.907699
 20
241.498507
 30
0.0
 10
142.811654
 20
241.957137
 30
0.0
 10
143.990229
 20
242.874395
 30
0.0
  0
SPLINE
  5
241
100
AcDbEntity
  8
Layer_1
 62
7
100
AcDbSpline
 70
8
 71
3
 72
8
 73
4
 74
0
 40
0
 40
0
 40
0
 40
0
 40
1
 40
1
 40
1
 40
1
 10
143.990229
 20
242.874395
 30
0.0
 10
145.168802
 20
243.806215
 30
0.0
 10
146.118527
 20
244.730756
 30
0.0
 10
146.839404
 20
245.648018
 30
0.0
  0
SPLINE
  5
242
100
AcDbEntity
  8
Layer_1
 62
7
100
AcDbSpline
 70
8
 71
3
 72
8
 73
4
 74
0
 40
0
 40
0
 40
0
 40
0
 40
1
 40
1
 40
1
 40
1
 10
146.839404
 20
245.648018
 30
0.0
 10
147.125465
 20
246.638077
 30
0.0
 10
147.548836
 20
247.620855
 30
0.0
 10
148.109518
 20
248.596353
 30
0.0
  0
SPLINE
  5
243
100
AcDbEntity
  8
Layer_1
 62
7
100
AcDbSpline
 70
8
 71
3
 72
8
 73
4
 74
0
 40
0
 40
0
 40
0
 40
0
 40
1
 40
1
 40
1
 40
1
 10
148.109518
 20
248.596353
 30
0.0
 10
148.681642
 20
249.586411
 30
0.0
 10
149.087849
 20
250.081441
 30
0.0
 10
149.328139
 20
250.081441
 30
0.0
  0
SPLINE
  5
244
100
AcDbEntity
  8
Layer_1
 62
7
100
AcDbSpline
 70
8
 71
3
 72
8
 73
4
 74
0
 40
0
 40
0
 40
0
 40
0
 40
1
 40
1
 40
1
 40
1
 10
149.328139
 20
250.081441
 30
0.0
 10
149.499777
 20
250.081441
 30
0.0
 10
149.585597
 20
249.950403
 30
0.0
 10
149.585597
 20
249.688329
 30
0.0
  0
SPLINE
  5
245
100
AcDbEntity
  8
Layer_1
 62
7
100
AcDbSpline
 70
8
 71
3
 72
8
 73
4
 74
0
 40
0
 40
0
 40
0
 40
0
 40
1
 40
1
 40
1
 40
1
 10
149.585597
 20
249.688329
 30
0.0
 10
149.585597
 20
249.309777
 30
0.0
 10
149.236601
 20
248.574514
 30
0.0
 10
148.538609
 20
247.482539
 30
0.0
  0
SPLINE
  5
246
100
AcDbEntity
  8
Layer_1
 62
7
100
AcDbSpline
 70
8
 71
3
 72
8
 73
4
 74
0
 40
0
 40
0
 40
0
 40
0
 40
1
 40
1
 40
1
 40
1
 10
148.538609
 20
247.482539
 30
0.0
 10
147.852061
 20
246.405122
 30
0.0
 10
147.314265
 20
245.698976
 30
0.0
 10
146.925221
 20
245.364102
 30
0.0
  0
SPLINE
  5
247
100
AcDbEntity
  8
Layer_1
 62
7
100
AcDbSpline
 70
8
 71
3
 72
8
 73
4
 74
0
 40
0
 40
0
 40
0
 40
0
 40
1
 40
1
 40
1
 40
1
 10
146.925221
 20
245.364102
 30
0.0
 10
146.879451
 20
245.160266
 30
0.0
 10
146.856566
 20
244.985550
 30
0.0
 10
146.856566
 20
244.839953
 30
0.0
  0
SPLINE
  5
248
100
AcDbEntity
  8
Layer_1
 62
7
100
AcDbSpline
 70
8
 71
3
 72
8
 73
4
 74
0
 40
0
 40
0
 40
0
 40
0
 40
1
 40
1
 40
1
 40
1
 10
146.856566
 20
244.839953
 30
0.0
 10
146.856566
 20
244.621559
 30
0.0
 10
146.925221
 20
244.432283
 30
0.0
 10
147.062530
 20
244.272125
 30
0.0
  0
SPLINE
  5
249
100
AcDbEntity
  8
Layer_1
 62
7
100
AcDbSpline
 70
8
 71
3
 72
8
 73
4
 74
0
 40
0
 40
0
 40
0
 40
0
 40
1
 40
1
 40
1
 40
1
 10
147.062530
 20
244.272125
 30
0.0
 10
147.199840
 20
244.126528
 30
0.0
 10
147.354314
 20
244.053730
 30
0.0
 10
147.525952
 20
244.053730
 30
0.0
  0
SPLINE
  5
24a
100
AcDbEntity
  8
Layer_1
 62
7
100
AcDbSpline
 70
8
 71
3
 72
8
 73
4
 74
0
 40
0
 40
0
 40
0
 40
0
 40
1
 40
1
 40
1
 40
1
 10
147.525952
 20
244.053730
 30
0.0
 10
147.743358
 20
244.053730
 30
0.0
 10
147.972207
 20
244.141088
 30
0.0
 10
148.212500
 20
244.315804
 30
0.0
  0
SPLINE
  5
24b
100
AcDbEntity
  8
Layer_1
 62
7
100
AcDbSpline
 70
8
 71
3
 72
8
 73
4
 74
0
 40
0
 40
0
 40
0
 40
0
 40
1
 40
1
 40
1
 40
1
 10
148.212500
 20
244.315804
 30
0.0
 10
148.464235
 20
244.490521
 30
0.0
 10
148.990588
 20
245.014669
 30
0.0
 10
149.791561
 20
245.888251
 30
0.0
  0
LWPOLYLINE
  5
24c
100
AcDbEntity
  8
Layer_1
 62
7
100
AcDbPolyline
 90
2
 70
0
 10
146.427475
 20
251.806766
 30
0.0
 10
142.737277
 20
246.674474
 30
0.0
  0
SPLINE
  5
24d
100
AcDbEntity
  8
Layer_1
 62
7
100
AcDbSpline
 70
8
 71
3
 72
8
 73
4
 74
0
 40
0
 40
0
 40
0
 40
0
 40
1
 40
1
 40
1
 40
1
 10
148.864721
 20
244.621558
 30
0.0
 10
148.384137
 20
244.097409
 30
0.0
 10
147.920717
 20
243.835335
 30
0.0
 10
147.474459
 20
243.835335
 30
0.0
  0
SPLINE
  5
24e
100
AcDbEntity
  8
Layer_1
 62
7
100
AcDbSpline
 70
8
 71
3
 72
8
 73
4
 74
0
 40
0
 40
0
 40
0
 40
0
 40
1
 40
1
 40
1
 40
1
 10
147.474459
 20
243.835335
 30
0.0
 10
147.268495
 20
243.835335
 30
0.0
 10
147.073973
 20
243.922693
 30
0.0
 10
146.890893
 20
244.097409
 30
0.0
  0
SPLINE
  5
24f
100
AcDbEntity
  8
Layer_1
 62
7
100
AcDbSpline
 70
8
 71
3
 72
8
 73
4
 74
0
 40
0
 40
0
 40
0
 40
0
 40
1
 40
1
 40
1
 40
1
 10
146.890893
 20
244.097409
 30
0.0
 10
146.719258
 20
244.286687
 30
0.0
 10
146.627718
 20
244.577880
 30
0.0
 10
146.616274
 20
244.970990
 30
0.0
  0
SPLINE
  5
250
100
AcDbEntity
  8
Layer_1
 62
7
100
AcDbSpline
 70
8
 71
3
 72
8
 73
4
 74
0
 40
0
 40
0
 40
0
 40
0
 40
1
 40
1
 40
1
 40
1
 10
146.616274
 20
244.970990
 30
0.0
 10
144.053161
 20
242.466724
 30
0.0
 10
142.291021
 20
241.214591
 30
0.0
 10
141.329854
 20
241.214591
 30
0.0
  0
SPLINE
  5
251
100
AcDbEntity
  8
Layer_1
 62
7
100
AcDbSpline
 70
8
 71
3
 72
8
 73
4
 74
0
 40
0
 40
0
 40
0
 40
0
 40
1
 40
1
 40
1
 40
1
 10
141.329854
 20
241.214591
 30
0.0
 10
140.975138
 20
241.214591
 30
0.0
 10
140.671913
 20
241.374748
 30
0.0
 10
140.420179
 20
241.695061
 30
0.0
  0
SPLINE
  5
252
100
AcDbEntity
  8
Layer_1
 62
7
100
AcDbSpline
 70
8
 71
3
 72
8
 73
4
 74
0
 40
0
 40
0
 40
0
 40
0
 40
1
 40
1
 40
1
 40
1
 10
140.420179
 20
241.695061
 30
0.0
 10
140.168445
 20
242.029935
 30
0.0
 10
140.042578
 20
242.452166
 30
0.0
 10
140.042578
 20
242.961753
 30
0.0
  0
SPLINE
  5
253
100
AcDbEntity
  8
Layer_1
 62
7
100
AcDbSpline
 70
8
 71
3
 72
8
 73
4
 74
0
 40
0
 40
0
 40
0
 40
0
 40
1
 40
1
 40
1
 40
1
 10
140.042578
 20
242.961753
 30
0.0
 10
140.042578
 20
244.184767
 30
0.0
 10
140.505997
 20
245.495139
 30
0.0
 10
141.432836
 20
246.892869
 30
0.0
  0
LWPOLYLINE
  5
254
100
AcDbEntity
  8
Layer_1
 62
7
100
AcDbPolyline
 90
3
 70
0
 10
149.791561
 20
245.888251
 30
0.0
 10
149.894543
 20
245.735376
 30
0.0
 10
148.864721
 20
244.621558
 30
0.0
  0
SPLINE
  5
255
100
AcDbEntity
  8
Layer_1
 62
7
100
AcDbSpline
 70
8
 71
3
 72
8
 73
4
 74
0
 40
0
 40
0
 40
0
 40
0
 40
1
 40
1
 40
1
 40
1
 10
144.230521
 20
250.802148
 30
0.0
 10
144.241970
 20
250.816715
 30
0.0
 10
144.287740
 20
250.853113
 30
0.0
 10
144.367831
 20
250.911343
 30
0.0
  0
LWPOLYLINE
  5
256
100
AcDbEntity
  8
Layer_1
 62
7
100
AcDbPolyline
 90
2
 70
0
 10
141.432836
 20
246.892869
 30
0.0
 10
144.230521
 20
250.802148
 30
0.0
  0
SPLINE
  5
257
100
AcDbEntity
  8
Layer_1
 62
7
100
AcDbSpline
 70
8
 71
3
 72
8
 73
4
 74
0
 40
0
 40
0
 40
0
 40
0
 40
1
 40
1
 40
1
 40
1
 10
144.316338
 20
251.042380
 30
0.0
 10
143.824313
 20
250.707509
 30
0.0
 10
143.418106
 20
250.343517
 30
0.0
 10
143.097717
 20
249.950403
 30
0.0
  0
SPLINE
  5
258
100
AcDbEntity
  8
Layer_1
 62
7
100
AcDbSpline
 70
8
 71
3
 72
8
 73
4
 74
0
 40
0
 40
0
 40
0
 40
0
 40
1
 40
1
 40
1
 40
1
 10
143.097717
 20
249.950403
 30
0.0
 10
142.777328
 20
249.571852
 30
0.0
 10
142.067895
 20
248.814748
 30
0.0
 10
140.969418
 20
247.679092
 30
0.0
  0
LWPOLYLINE
  5
259
100
AcDbEntity
  8
Layer_1
 62
7
100
AcDbPolyline
 90
2
 70
0
 10
144.367831
 20
250.911343
 30
0.0
 10
144.316338
 20
251.042380
 30
0.0
  0
SPLINE
  5
25a
100
AcDbEntity
  8
Layer_1
 62
7
100
AcDbSpline
 70
8
 71
3
 72
8
 73
4
 74
0
 40
0
 40
0
 40
0
 40
0
 40
1
 40
1
 40
1
 40
1
 10
147.199840
 20
252.833222
 30
0.0
 10
147.131185
 20
252.731305
 30
0.0
 10
147.628933
 20
253.000660
 30
0.0
 10
148.693084
 20
253.641287
 30
0.0
  0
SPLINE
  5
25b
100
AcDbEntity
  8
Layer_1
 62
7
100
AcDbSpline
 70
8
 71
3
 72
8
 73
4
 74
0
 40
0
 40
0
 40
0
 40
0
 40
1
 40
1
 40
1
 40
1
 10
148.693084
 20
253.641287
 30
0.0
 10
149.368188
 20
254.034397
 30
0.0
 10
150.163439
 20
254.558545
 30
0.0
 10
151.078837
 20
255.213733
 30
0.0
  0
SPLINE
  5
25c
100
AcDbEntity
  8
Layer_1
 62
7
100
AcDbSpline
 70
8
 71
3
 72
8
 73
4
 74
0
 40
0
 40
0
 40
0
 40
0
 40
1
 40
1
 40
1
 40
1
 10
151.078837
 20
255.213733
 30
0.0
 10
152.383278
 20
256.145553
 30
0.0
 10
153.476035
 20
257.004574
 30
0.0
 10
154.357106
 20
257.790798
 30
0.0
  0
SPLINE
  5
25d
100
AcDbEntity
  8
Layer_1
 62
7
100
AcDbSpline
 70
8
 71
3
 72
8
 73
4
 74
0
 40
0
 40
0
 40
0
 40
0
 40
1
 40
1
 40
1
 40
1
 10
154.357106
 20
257.790798
 30
0.0
 10
155.238175
 20
258.577021
 30
0.0
 10
156.062033
 20
259.443321
 30
0.0
 10
156.828679
 20
260.389699
 30
0.0
  0
SPLINE
  5
25e
100
AcDbEntity
  8
Layer_1
 62
7
100
AcDbSpline
 70
8
 71
3
 72
8
 73
4
 74
0
 40
0
 40
0
 40
0
 40
0
 40
1
 40
1
 40
1
 40
1
 10
156.828679
 20
260.389699
 30
0.0
 10
157.595324
 20
261.336081
 30
0.0
 10
158.144562
 20
262.115025
 30
0.0
 10
158.476395
 20
262.726532
 30
0.0
  0
SPLINE
  5
25f
100
AcDbEntity
  8
Layer_1
 62
7
100
AcDbSpline
 70
8
 71
3
 72
8
 73
4
 74
0
 40
0
 40
0
 40
0
 40
0
 40
1
 40
1
 40
1
 40
1
 10
158.476395
 20
262.726532
 30
0.0
 10
158.819669
 20
263.352597
 30
0.0
 10
159.037076
 20
263.811226
 30
0.0
 10
159.128616
 20
264.102420
 30
0.0
  0
SPLINE
  5
260
100
AcDbEntity
  8
Layer_1
 62
7
100
AcDbSpline
 70
8
 71
3
 72
8
 73
4
 74
0
 40
0
 40
0
 40
0
 40
0
 40
1
 40
1
 40
1
 40
1
 10
159.128616
 20
264.102420
 30
0.0
 10
159.231597
 20
264.408175
 30
0.0
 10
159.283087
 20
264.677530
 30
0.0
 10
159.283087
 20
264.910485
 30
0.0
  0
SPLINE
  5
261
100
AcDbEntity
  8
Layer_1
 62
7
100
AcDbSpline
 70
8
 71
3
 72
8
 73
4
 74
0
 40
0
 40
0
 40
0
 40
0
 40
1
 40
1
 40
1
 40
1
 10
159.283087
 20
264.910485
 30
0.0
 10
159.283087
 20
265.492872
 30
0.0
 10
159.019910
 20
265.784066
 30
0.0
 10
158.493557
 20
265.784066
 30
0.0
  0
SPLINE
  5
262
100
AcDbEntity
  8
Layer_1
 62
7
100
AcDbSpline
 70
8
 71
3
 72
8
 73
4
 74
0
 40
0
 40
0
 40
0
 40
0
 40
1
 40
1
 40
1
 40
1
 10
158.493557
 20
265.784066
 30
0.0
 10
157.772682
 20
265.784066
 30
0.0
 10
156.679927
 20
264.990562
 30
0.0
 10
155.215291
 20
263.403555
 30
0.0
  0
SPLINE
  5
263
100
AcDbEntity
  8
Layer_1
 62
7
100
AcDbSpline
 70
8
 71
3
 72
8
 73
4
 74
0
 40
0
 40
0
 40
0
 40
0
 40
1
 40
1
 40
1
 40
1
 10
155.215291
 20
263.403555
 30
0.0
 10
153.762096
 20
261.831108
 30
0.0
 10
152.217363
 20
259.909230
 30
0.0
 10
150.581091
 20
257.637918
 30
0.0
  0
LWPOLYLINE
  5
264
100
AcDbEntity
  8
Layer_1
 62
7
100
AcDbPolyline
 90
2
 70
0
 10
140.969418
 20
247.679092
 30
0.0
 10
139.132900
 20
245.735376
 30
0.0
  0
LWPOLYLINE
  5
265
100
AcDbEntity
  8
Layer_1
 62
7
100
AcDbPolyline
 90
2
 70
0
 10
150.581091
 20
257.637918
 30
0.0
 10
147.199840
 20
252.833222
 30
0.0
  0
SPLINE
  5
266
100
AcDbEntity
  8
Layer_1
 62
7
100
AcDbSpline
 70
8
 71
3
 72
8
 73
4
 74
0
 40
0
 40
0
 40
0
 40
0
 40
1
 40
1
 40
1
 40
1
 10
155.301108
 20
243.769818
 30
0.0
 10
154.831968
 20
243.143750
 30
0.0
 10
154.597398
 20
242.641440
 30
0.0
 10
154.597398
 20
242.262888
 30
0.0
  0
SPLINE
  5
267
100
AcDbEntity
  8
Layer_1
 62
7
100
AcDbSpline
 70
8
 71
3
 72
8
 73
4
 74
0
 40
0
 40
0
 40
0
 40
0
 40
1
 40
1
 40
1
 40
1
 10
154.597398
 20
242.262888
 30
0.0
 10
154.597398
 20
242.015375
 30
0.0
 10
154.660331
 20
241.826099
 30
0.0
 10
154.786197
 20
241.695061
 30
0.0
  0
SPLINE
  5
268
100
AcDbEntity
  8
Layer_1
 62
7
100
AcDbSpline
 70
8
 71
3
 72
8
 73
4
 74
0
 40
0
 40
0
 40
0
 40
0
 40
1
 40
1
 40
1
 40
1
 10
154.786197
 20
241.695061
 30
0.0
 10
154.923506
 20
241.578583
 30
0.0
 10
155.060816
 20
241.520344
 30
0.0
 10
155.198126
 20
241.520344
 30
0.0
  0
SPLINE
  5
269
100
AcDbEntity
  8
Layer_1
 62
7
100
AcDbSpline
 70
8
 71
3
 72
8
 73
4
 74
0
 40
0
 40
0
 40
0
 40
0
 40
1
 40
1
 40
1
 40
1
 10
155.198126
 20
241.520344
 30
0.0
 10
155.472745
 20
241.520344
 30
0.0
 10
155.913281
 20
241.775140
 30
0.0
 10
156.519733
 20
242.284730
 30
0.0
  0
SPLINE
  5
26a
100
AcDbEntity
  8
Layer_1
 62
7
100
AcDbSpline
 70
8
 71
3
 72
8
 73
4
 74
0
 40
0
 40
0
 40
0
 40
0
 40
1
 40
1
 40
1
 40
1
 10
156.519733
 20
242.284730
 30
0.0
 10
157.126182
 20
242.808879
 30
0.0
 10
158.293314
 20
244.010053
 30
0.0
 10
160.021128
 20
245.888251
 30
0.0
  0
LWPOLYLINE
  5
26b
100
AcDbEntity
  8
Layer_1
 62
7
100
AcDbPolyline
 90
3
 70
0
 10
158.596539
 20
250.168799
 30
0.0
 10
160.124110
 20
250.168799
 30
0.0
 10
155.301108
 20
243.769818
 30
0.0
  0
SPLINE
  5
26c
100
AcDbEntity
  8
Layer_1
 62
7
100
AcDbSpline
 70
8
 71
3
 72
8
 73
4
 74
0
 40
0
 40
0
 40
0
 40
0
 40
1
 40
1
 40
1
 40
1
 10
160.141272
 20
245.735376
 30
0.0
 10
158.299036
 20
243.755259
 30
0.0
 10
157.074692
 20
242.524964
 30
0.0
 10
156.468240
 20
242.044493
 30
0.0
  0
SPLINE
  5
26d
100
AcDbEntity
  8
Layer_1
 62
7
100
AcDbSpline
 70
8
 71
3
 72
8
 73
4
 74
0
 40
0
 40
0
 40
0
 40
0
 40
1
 40
1
 40
1
 40
1
 10
156.468240
 20
242.044493
 30
0.0
 10
155.873231
 20
241.578583
 30
0.0
 10
155.421254
 20
241.345628
 30
0.0
 10
155.112309
 20
241.345628
 30
0.0
  0
SPLINE
  5
26e
100
AcDbEntity
  8
Layer_1
 62
7
100
AcDbSpline
 70
8
 71
3
 72
8
 73
4
 74
0
 40
0
 40
0
 40
0
 40
0
 40
1
 40
1
 40
1
 40
1
 10
155.112309
 20
241.345628
 30
0.0
 10
154.837690
 20
241.345628
 30
0.0
 10
154.620283
 20
241.469386
 30
0.0
 10
154.460088
 20
241.716903
 30
0.0
  0
SPLINE
  5
26f
100
AcDbEntity
  8
Layer_1
 62
7
100
AcDbSpline
 70
8
 71
3
 72
8
 73
4
 74
0
 40
0
 40
0
 40
0
 40
0
 40
1
 40
1
 40
1
 40
1
 10
154.460088
 20
241.716903
 30
0.0
 10
154.311335
 20
241.978977
 30
0.0
 10
154.236958
 20
242.284730
 30
0.0
 10
154.236958
 20
242.634163
 30
0.0
  0
SPLINE
  5
270
100
AcDbEntity
  8
Layer_1
 62
7
100
AcDbSpline
 70
8
 71
3
 72
8
 73
4
 74
0
 40
0
 40
0
 40
0
 40
0
 40
1
 40
1
 40
1
 40
1
 10
154.236958
 20
242.634163
 30
0.0
 10
154.236958
 20
243.245670
 30
0.0
 10
154.471530
 20
244.010053
 30
0.0
 10
154.940672
 20
244.927311
 30
0.0
  0
LWPOLYLINE
  5
271
100
AcDbEntity
  8
Layer_1
 62
7
100
AcDbPolyline
 90
2
 70
0
 10
160.021128
 20
245.888251
 30
0.0
 10
160.141272
 20
245.735376
 30
0.0
  0
SPLINE
  5
272
100
AcDbEntity
  8
Layer_1
 62
7
100
AcDbSpline
 70
8
 71
3
 72
8
 73
4
 74
0
 40
0
 40
0
 40
0
 40
0
 40
1
 40
1
 40
1
 40
1
 10
154.872017
 20
244.992832
 30
0.0
 10
152.549195
 20
242.561363
 30
0.0
 10
150.964412
 20
241.345628
 30
0.0
 10
150.117670
 20
241.345628
 30
0.0
  0
SPLINE
  5
273
100
AcDbEntity
  8
Layer_1
 62
7
100
AcDbSpline
 70
8
 71
3
 72
8
 73
4
 74
0
 40
0
 40
0
 40
0
 40
0
 40
1
 40
1
 40
1
 40
1
 10
150.117670
 20
241.345628
 30
0.0
 10
149.762954
 20
241.345628
 30
0.0
 10
149.482614
 20
241.527625
 30
0.0
 10
149.276650
 20
241.891619
 30
0.0
  0
SPLINE
  5
274
100
AcDbEntity
  8
Layer_1
 62
7
100
AcDbSpline
 70
8
 71
3
 72
8
 73
4
 74
0
 40
0
 40
0
 40
0
 40
0
 40
1
 40
1
 40
1
 40
1
 10
149.276650
 20
241.891619
 30
0.0
 10
149.082127
 20
242.270171
 30
0.0
 10
148.984865
 20
242.757919
 30
0.0
 10
148.984865
 20
243.354865
 30
0.0
  0
SPLINE
  5
275
100
AcDbEntity
  8
Layer_1
 62
7
100
AcDbSpline
 70
8
 71
3
 72
8
 73
4
 74
0
 40
0
 40
0
 40
0
 40
0
 40
1
 40
1
 40
1
 40
1
 10
148.984865
 20
243.354865
 30
0.0
 10
148.984865
 20
245.014669
 30
0.0
 10
149.900263
 20
246.557996
 30
0.0
 10
151.731058
 20
247.984846
 30
0.0
  0
SPLINE
  5
276
100
AcDbEntity
  8
Layer_1
 62
7
100
AcDbSpline
 70
8
 71
3
 72
8
 73
4
 74
0
 40
0
 40
0
 40
0
 40
0
 40
1
 40
1
 40
1
 40
1
 10
151.731058
 20
247.984846
 30
0.0
 10
153.573296
 20
249.426256
 30
0.0
 10
155.123751
 20
250.146962
 30
0.0
 10
156.382423
 20
250.146962
 30
0.0
  0
SPLINE
  5
277
100
AcDbEntity
  8
Layer_1
 62
7
100
AcDbSpline
 70
8
 71
3
 72
8
 73
4
 74
0
 40
0
 40
0
 40
0
 40
0
 40
1
 40
1
 40
1
 40
1
 10
156.382423
 20
250.146962
 30
0.0
 10
157.034643
 20
250.146962
 30
0.0
 10
157.360752
 20
249.797529
 30
0.0
 10
157.360752
 20
249.098664
 30
0.0
  0
SPLINE
  5
278
100
AcDbEntity
  8
Layer_1
 62
7
100
AcDbSpline
 70
8
 71
3
 72
8
 73
4
 74
0
 40
0
 40
0
 40
0
 40
0
 40
1
 40
1
 40
1
 40
1
 10
157.360752
 20
249.098664
 30
0.0
 10
157.360752
 20
248.938506
 30
0.0
 10
157.349316
 20
248.734670
 30
0.0
 10
157.326443
 20
248.487157
 30
0.0
  0
LWPOLYLINE
  5
279
100
AcDbEntity
  8
Layer_1
 62
7
100
AcDbPolyline
 90
2
 70
0
 10
154.940672
 20
244.927311
 30
0.0
 10
154.872017
 20
244.992832
 30
0.0
  0
SPLINE
  5
27a
100
AcDbEntity
  8
Layer_1
 62
7
100
AcDbSpline
 70
8
 71
3
 72
8
 73
4
 74
0
 40
0
 40
0
 40
0
 40
0
 40
1
 40
1
 40
1
 40
1
 10
157.137626
 20
249.142343
 30
0.0
 10
157.137626
 20
249.666492
 30
0.0
 10
156.874449
 20
249.928566
 30
0.0
 10
156.348096
 20
249.928566
 30
0.0
  0
SPLINE
  5
27b
100
AcDbEntity
  8
Layer_1
 62
7
100
AcDbSpline
 70
8
 71
3
 72
8
 73
4
 74
0
 40
0
 40
0
 40
0
 40
0
 40
1
 40
1
 40
1
 40
1
 10
156.348096
 20
249.928566
 30
0.0
 10
155.398370
 20
249.928566
 30
0.0
 10
154.002388
 20
248.872988
 30
0.0
 10
152.160152
 20
246.761832
 30
0.0
  0
SPLINE
  5
27c
100
AcDbEntity
  8
Layer_1
 62
7
100
AcDbSpline
 70
8
 71
3
 72
8
 73
4
 74
0
 40
0
 40
0
 40
0
 40
0
 40
1
 40
1
 40
1
 40
1
 10
152.160152
 20
246.761832
 30
0.0
 10
150.329357
 20
244.665237
 30
0.0
 10
149.413960
 20
243.187429
 30
0.0
 10
149.413960
 20
242.328409
 30
0.0
  0
SPLINE
  5
27d
100
AcDbEntity
  8
Layer_1
 62
7
100
AcDbSpline
 70
8
 71
3
 72
8
 73
4
 74
0
 40
0
 40
0
 40
0
 40
0
 40
1
 40
1
 40
1
 40
1
 10
149.413960
 20
242.328409
 30
0.0
 10
149.413960
 20
242.139132
 30
0.0
 10
149.476893
 20
241.957135
 30
0.0
 10
149.602758
 20
241.782419
 30
0.0
  0
SPLINE
  5
27e
100
AcDbEntity
  8
Layer_1
 62
7
100
AcDbSpline
 70
8
 71
3
 72
8
 73
4
 74
0
 40
0
 40
0
 40
0
 40
0
 40
1
 40
1
 40
1
 40
1
 10
149.602758
 20
241.782419
 30
0.0
 10
149.728627
 20
241.622264
 30
0.0
 10
149.905986
 20
241.542186
 30
0.0
 10
150.134835
 20
241.542186
 30
0.0
  0
SPLINE
  5
27f
100
AcDbEntity
  8
Layer_1
 62
7
100
AcDbSpline
 70
8
 71
3
 72
8
 73
4
 74
0
 40
0
 40
0
 40
0
 40
0
 40
1
 40
1
 40
1
 40
1
 10
150.134835
 20
241.542186
 30
0.0
 10
150.466665
 20
241.542186
 30
0.0
 10
151.010182
 20
241.811540
 30
0.0
 10
151.765385
 20
242.350247
 30
0.0
  0
SPLINE
  5
280
100
AcDbEntity
  8
Layer_1
 62
7
100
AcDbSpline
 70
8
 71
3
 72
8
 73
4
 74
0
 40
0
 40
0
 40
0
 40
0
 40
1
 40
1
 40
1
 40
1
 10
151.765385
 20
242.350247
 30
0.0
 10
152.532032
 20
242.888957
 30
0.0
 10
153.470314
 20
243.762538
 30
0.0
 10
154.580232
 20
244.970990
 30
0.0
  0
SPLINE
  5
281
100
AcDbEntity
  8
Layer_1
 62
7
100
AcDbSpline
 70
8
 71
3
 72
8
 73
4
 74
0
 40
0
 40
0
 40
0
 40
0
 40
1
 40
1
 40
1
 40
1
 10
154.580232
 20
244.970990
 30
0.0
 10
155.690153
 20
246.179446
 30
0.0
 10
156.393866
 20
247.053027
 30
0.0
 10
156.691370
 20
247.591734
 30
0.0
  0
SPLINE
  5
282
100
AcDbEntity
  8
Layer_1
 62
7
100
AcDbSpline
 70
8
 71
3
 72
8
 73
4
 74
0
 40
0
 40
0
 40
0
 40
0
 40
1
 40
1
 40
1
 40
1
 10
156.691370
 20
247.591734
 30
0.0
 10
156.988874
 20
248.145002
 30
0.0
 10
157.137626
 20
248.661872
 30
0.0
 10
157.137626
 20
249.142343
 30
0.0
  0
LWPOLYLINE
  5
283
100
AcDbEntity
  8
Layer_1
 62
7
100
AcDbPolyline
 90
2
 70
0
 10
157.326443
 20
248.487157
 30
0.0
 10
158.596539
 20
250.168799
 30
0.0
  0
LWPOLYLINE
  5
284
100
AcDbEntity
  8
Layer_1
 62
7
100
AcDbPolyline
 90
1
 70
1
 10
157.137626
 20
249.142343
 30
0.0
  0
SPLINE
  5
285
100
AcDbEntity
  8
Layer_1
 62
7
100
AcDbSpline
 70
8
 71
3
 72
8
 73
4
 74
0
 40
0
 40
0
 40
0
 40
0
 40
1
 40
1
 40
1
 40
1
 10
167.075408
 20
245.735376
 30
0.0
 10
165.702312
 20
244.192049
 30
0.0
 10
164.449362
 20
243.070953
 30
0.0
 10
163.316559
 20
242.372088
 30
0.0
  0
SPLINE
  5
286
100
AcDbEntity
  8
Layer_1
 62
7
100
AcDbSpline
 70
8
 71
3
 72
8
 73
4
 74
0
 40
0
 40
0
 40
0
 40
0
 40
1
 40
1
 40
1
 40
1
 10
163.316559
 20
242.372088
 30
0.0
 10
162.183753
 20
241.687782
 30
0.0
 10
161.279798
 20
241.345628
 30
0.0
 10
160.604694
 20
241.345628
 30
0.0
  0
SPLINE
  5
287
100
AcDbEntity
  8
Layer_1
 62
7
100
AcDbSpline
 70
8
 71
3
 72
8
 73
4
 74
0
 40
0
 40
0
 40
0
 40
0
 40
1
 40
1
 40
1
 40
1
 10
160.604694
 20
241.345628
 30
0.0
 10
159.666412
 20
241.345628
 30
0.0
 10
159.197270
 20
241.957135
 30
0.0
 10
159.197270
 20
243.180149
 30
0.0
  0
SPLINE
  5
288
100
AcDbEntity
  8
Layer_1
 62
7
100
AcDbSpline
 70
8
 71
3
 72
8
 73
4
 74
0
 40
0
 40
0
 40
0
 40
0
 40
1
 40
1
 40
1
 40
1
 10
159.197270
 20
243.180149
 30
0.0
 10
159.197270
 20
244.825395
 30
0.0
 10
160.078340
 20
246.376003
 30
0.0
 10
161.840481
 20
247.831971
 30
0.0
  0
SPLINE
  5
289
100
AcDbEntity
  8
Layer_1
 62
7
100
AcDbSpline
 70
8
 71
3
 72
8
 73
4
 74
0
 40
0
 40
0
 40
0
 40
0
 40
1
 40
1
 40
1
 40
1
 10
161.840481
 20
247.831971
 30
0.0
 10
163.614062
 20
249.287940
 30
0.0
 10
164.998601
 20
250.015924
 30
0.0
 10
165.994097
 20
250.015924
 30
0.0
  0
SPLINE
  5
28a
100
AcDbEntity
  8
Layer_1
 62
7
100
AcDbSpline
 70
8
 71
3
 72
8
 73
4
 74
0
 40
0
 40
0
 40
0
 40
0
 40
1
 40
1
 40
1
 40
1
 10
165.994097
 20
250.015924
 30
0.0
 10
166.177176
 20
250.015924
 30
0.0
 10
166.331649
 20
249.950405
 30
0.0
 10
166.457515
 20
249.819366
 30
0.0
  0
SPLINE
  5
28b
100
AcDbEntity
  8
Layer_1
 62
7
100
AcDbSpline
 70
8
 71
3
 72
8
 73
4
 74
0
 40
0
 40
0
 40
0
 40
0
 40
1
 40
1
 40
1
 40
1
 10
166.457515
 20
249.819366
 30
0.0
 10
166.594825
 20
249.688331
 30
0.0
 10
166.663479
 20
249.528174
 30
0.0
 10
166.663479
 20
249.338897
 30
0.0
  0
SPLINE
  5
28c
100
AcDbEntity
  8
Layer_1
 62
7
100
AcDbSpline
 70
8
 71
3
 72
8
 73
4
 74
0
 40
0
 40
0
 40
0
 40
0
 40
1
 40
1
 40
1
 40
1
 10
166.663479
 20
249.338897
 30
0.0
 10
166.663479
 20
248.625473
 30
0.0
 10
166.108520
 20
247.875650
 30
0.0
 10
164.998602
 20
247.089427
 30
0.0
  0
SPLINE
  5
28d
100
AcDbEntity
  8
Layer_1
 62
7
100
AcDbSpline
 70
8
 71
3
 72
8
 73
4
 74
0
 40
0
 40
0
 40
0
 40
0
 40
1
 40
1
 40
1
 40
1
 10
164.998602
 20
247.089427
 30
0.0
 10
163.888681
 20
246.303204
 30
0.0
 10
162.658615
 20
245.815454
 30
0.0
 10
161.308404
 20
245.626176
 30
0.0
  0
SPLINE
  5
28e
100
AcDbEntity
  8
Layer_1
 62
7
100
AcDbSpline
 70
8
 71
3
 72
8
 73
4
 74
0
 40
0
 40
0
 40
0
 40
0
 40
1
 40
1
 40
1
 40
1
 10
161.308404
 20
245.626176
 30
0.0
 10
160.141272
 20
244.141088
 30
0.0
 10
159.557706
 20
243.121910
 30
0.0
 10
159.557706
 20
242.568642
 30
0.0
  0
SPLINE
  5
28f
100
AcDbEntity
  8
Layer_1
 62
7
100
AcDbSpline
 70
8
 71
3
 72
8
 73
4
 74
0
 40
0
 40
0
 40
0
 40
0
 40
1
 40
1
 40
1
 40
1
 10
159.557706
 20
242.568642
 30
0.0
 10
159.557706
 20
242.306568
 30
0.0
 10
159.660689
 20
242.059053
 30
0.0
 10
159.866653
 20
241.826098
 30
0.0
  0
SPLINE
  5
290
100
AcDbEntity
  8
Layer_1
 62
7
100
AcDbSpline
 70
8
 71
3
 72
8
 73
4
 74
0
 40
0
 40
0
 40
0
 40
0
 40
1
 40
1
 40
1
 40
1
 10
159.866653
 20
241.826098
 30
0.0
 10
160.072617
 20
241.607704
 30
0.0
 10
160.312909
 20
241.498507
 30
0.0
 10
160.587528
 20
241.498507
 30
0.0
  0
SPLINE
  5
291
100
AcDbEntity
  8
Layer_1
 62
7
100
AcDbSpline
 70
8
 71
3
 72
8
 73
4
 74
0
 40
0
 40
0
 40
0
 40
0
 40
1
 40
1
 40
1
 40
1
 10
160.587528
 20
241.498507
 30
0.0
 10
161.182537
 20
241.498507
 30
0.0
 10
162.023559
 20
241.826099
 30
0.0
 10
163.110595
 20
242.481284
 30
0.0
  0
SPLINE
  5
292
100
AcDbEntity
  8
Layer_1
 62
7
100
AcDbSpline
 70
8
 71
3
 72
8
 73
4
 74
0
 40
0
 40
0
 40
0
 40
0
 40
1
 40
1
 40
1
 40
1
 10
163.110595
 20
242.481284
 30
0.0
 10
164.209072
 20
243.151029
 30
0.0
 10
165.490628
 20
244.286685
 30
0.0
 10
166.955264
 20
245.888251
 30
0.0
  0
LWPOLYLINE
  5
293
100
AcDbEntity
  8
Layer_1
 62
7
100
AcDbPolyline
 90
2
 70
0
 10
166.955264
 20
245.888251
 30
0.0
 10
167.075408
 20
245.735376
 30
0.0
  0
SPLINE
  5
294
100
AcDbEntity
  8
Layer_1
 62
7
100
AcDbSpline
 70
8
 71
3
 72
8
 73
4
 74
0
 40
0
 40
0
 40
0
 40
0
 40
1
 40
1
 40
1
 40
1
 10
161.565861
 20
245.888251
 30
0.0
 10
161.909135
 20
245.888251
 30
0.0
 10
162.515586
 20
246.077527
 30
0.0
 10
163.385214
 20
246.456078
 30
0.0
  0
SPLINE
  5
295
100
AcDbEntity
  8
Layer_1
 62
7
100
AcDbSpline
 70
8
 71
3
 72
8
 73
4
 74
0
 40
0
 40
0
 40
0
 40
0
 40
1
 40
1
 40
1
 40
1
 10
163.385214
 20
246.456078
 30
0.0
 10
164.254842
 20
246.834630
 30
0.0
 10
164.975717
 20
247.322381
 30
0.0
 10
165.547841
 20
247.919329
 30
0.0
  0
SPLINE
  5
296
100
AcDbEntity
  8
Layer_1
 62
7
100
AcDbSpline
 70
8
 71
3
 72
8
 73
4
 74
0
 40
0
 40
0
 40
0
 40
0
 40
1
 40
1
 40
1
 40
1
 10
165.547841
 20
247.919329
 30
0.0
 10
166.131405
 20
248.516275
 30
0.0
 10
166.423188
 20
249.011304
 30
0.0
 10
166.423188
 20
249.404418
 30
0.0
  0
SPLINE
  5
297
100
AcDbEntity
  8
Layer_1
 62
7
100
AcDbSpline
 70
8
 71
3
 72
8
 73
4
 74
0
 40
0
 40
0
 40
0
 40
0
 40
1
 40
1
 40
1
 40
1
 10
166.423188
 20
249.404418
 30
0.0
 10
166.423188
 20
249.681050
 30
0.0
 10
166.297320
 20
249.819366
 30
0.0
 10
166.045586
 20
249.819366
 30
0.0
  0
SPLINE
  5
298
100
AcDbEntity
  8
Layer_1
 62
7
100
AcDbSpline
 70
8
 71
3
 72
8
 73
4
 74
0
 40
0
 40
0
 40
0
 40
0
 40
1
 40
1
 40
1
 40
1
 10
166.045586
 20
249.819366
 30
0.0
 10
165.748082
 20
249.819366
 30
0.0
 10
165.416250
 20
249.702889
 30
0.0
 10
165.050091
 20
249.469934
 30
0.0
  0
SPLINE
  5
299
100
AcDbEntity
  8
Layer_1
 62
7
100
AcDbSpline
 70
8
 71
3
 72
8
 73
4
 74
0
 40
0
 40
0
 40
0
 40
0
 40
1
 40
1
 40
1
 40
1
 10
165.050091
 20
249.469934
 30
0.0
 10
164.695376
 20
249.236979
 30
0.0
 10
164.151859
 20
248.756509
 30
0.0
 10
163.419541
 20
248.028525
 30
0.0
  0
SPLINE
  5
29a
100
AcDbEntity
  8
Layer_1
 62
7
100
AcDbSpline
 70
8
 71
3
 72
8
 73
4
 74
0
 40
0
 40
0
 40
0
 40
0
 40
1
 40
1
 40
1
 40
1
 10
163.419541
 20
248.028525
 30
0.0
 10
162.687223
 20
247.315102
 30
0.0
 10
162.069330
 20
246.601677
 30
0.0
 10
161.565861
 20
245.888251
 30
0.0
  0
LWPOLYLINE
  5
29b
100
AcDbEntity
  8
Layer_1
 62
7
100
AcDbPolyline
 90
1
 70
1
 10
166.955264
 20
245.888251
 30
0.0
  0
SPLINE
  5
29c
100
AcDbEntity
  8
Layer_1
 62
7
100
AcDbSpline
 70
8
 71
3
 72
8
 73
4
 74
0
 40
0
 40
0
 40
0
 40
0
 40
1
 40
1
 40
1
 40
1
 10
175.485623
 20
254.471189
 30
0.0
 10
175.485623
 20
254.150876
 30
0.0
 10
175.382641
 20
253.881521
 30
0.0
 10
175.176676
 20
253.663124
 30
0.0
  0
SPLINE
  5
29d
100
AcDbEntity
  8
Layer_1
 62
7
100
AcDbSpline
 70
8
 71
3
 72
8
 73
4
 74
0
 40
0
 40
0
 40
0
 40
0
 40
1
 40
1
 40
1
 40
1
 10
175.176676
 20
253.663124
 30
0.0
 10
174.970712
 20
253.444730
 30
0.0
 10
174.753305
 20
253.335533
 30
0.0
 10
174.524455
 20
253.335533
 30
0.0
  0
SPLINE
  5
29e
100
AcDbEntity
  8
Layer_1
 62
7
100
AcDbSpline
 70
8
 71
3
 72
8
 73
4
 74
0
 40
0
 40
0
 40
0
 40
0
 40
1
 40
1
 40
1
 40
1
 10
174.524455
 20
253.335533
 30
0.0
 10
174.364261
 20
253.335533
 30
0.0
 10
174.226951
 20
253.408332
 30
0.0
 10
174.112527
 20
253.553928
 30
0.0
  0
SPLINE
  5
29f
100
AcDbEntity
  8
Layer_1
 62
7
100
AcDbSpline
 70
8
 71
3
 72
8
 73
4
 74
0
 40
0
 40
0
 40
0
 40
0
 40
1
 40
1
 40
1
 40
1
 10
174.112527
 20
253.553928
 30
0.0
 10
173.998102
 20
253.714083
 30
0.0
 10
173.940890
 20
253.903359
 30
0.0
 10
173.940890
 20
254.121756
 30
0.0
  0
SPLINE
  5
2a0
100
AcDbEntity
  8
Layer_1
 62
7
100
AcDbSpline
 70
8
 71
3
 72
8
 73
4
 74
0
 40
0
 40
0
 40
0
 40
0
 40
1
 40
1
 40
1
 40
1
 10
173.940890
 20
254.121756
 30
0.0
 10
173.940890
 20
254.398389
 30
0.0
 10
174.038151
 20
254.660463
 30
0.0
 10
174.232674
 20
254.907979
 30
0.0
  0
SPLINE
  5
2a1
100
AcDbEntity
  8
Layer_1
 62
7
100
AcDbSpline
 70
8
 71
3
 72
8
 73
4
 74
0
 40
0
 40
0
 40
0
 40
0
 40
1
 40
1
 40
1
 40
1
 10
174.232674
 20
254.907979
 30
0.0
 10
174.427195
 20
255.155493
 30
0.0
 10
174.644602
 20
255.279249
 30
0.0
 10
174.884895
 20
255.279249
 30
0.0
  0
SPLINE
  5
2a2
100
AcDbEntity
  8
Layer_1
 62
7
100
AcDbSpline
 70
8
 71
3
 72
8
 73
4
 74
0
 40
0
 40
0
 40
0
 40
0
 40
1
 40
1
 40
1
 40
1
 10
174.884895
 20
255.279249
 30
0.0
 10
175.056531
 20
255.279249
 30
0.0
 10
175.199561
 20
255.199172
 30
0.0
 10
175.313986
 20
255.039017
 30
0.0
  0
SPLINE
  5
2a3
100
AcDbEntity
  8
Layer_1
 62
7
100
AcDbSpline
 70
8
 71
3
 72
8
 73
4
 74
0
 40
0
 40
0
 40
0
 40
0
 40
1
 40
1
 40
1
 40
1
 10
175.313986
 20
255.039017
 30
0.0
 10
175.428410
 20
254.878858
 30
0.0
 10
175.485623
 20
254.689583
 30
0.0
 10
175.485623
 20
254.471189
 30
0.0
  0
LWPOLYLINE
  5
2a4
100
AcDbEntity
  8
Layer_1
 62
7
100
AcDbPolyline
 90
1
 70
1
 10
161.565861
 20
245.888251
 30
0.0
  0
LWPOLYLINE
  5
2a5
100
AcDbEntity
  8
Layer_1
 62
7
100
AcDbPolyline
 90
1
 70
1
 10
175.485623
 20
254.471189
 30
0.0
  0
SPLINE
  5
2a6
100
AcDbEntity
  8
Layer_1
 62
7
100
AcDbSpline
 70
8
 71
3
 72
8
 73
4
 74
0
 40
0
 40
0
 40
0
 40
0
 40
1
 40
1
 40
1
 40
1
 10
166.938099
 20
245.888251
 30
0.0
 10
167.498781
 20
246.499758
 30
0.0
 10
168.911926
 20
247.926607
 30
0.0
 10
171.177535
 20
250.168799
 30
0.0
  0
LWPOLYLINE
  5
2a7
100
AcDbEntity
  8
Layer_1
 62
7
100
AcDbPolyline
 90
2
 70
0
 10
167.058246
 20
245.735376
 30
0.0
 10
166.938099
 20
245.888251
 30
0.0
  0
SPLINE
  5
2a8
100
AcDbEntity
  8
Layer_1
 62
7
100
AcDbSpline
 70
8
 71
3
 72
8
 73
4
 74
0
 40
0
 40
0
 40
0
 40
0
 40
1
 40
1
 40
1
 40
1
 10
167.401520
 20
243.354865
 30
0.0
 10
167.195556
 20
243.092791
 30
0.0
 10
167.058246
 20
242.830716
 30
0.0
 10
166.989592
 20
242.568642
 30
0.0
  0
LWPOLYLINE
  5
2a9
100
AcDbEntity
  8
Layer_1
 62
7
100
AcDbPolyline
 90
3
 70
0
 10
171.177535
 20
250.168799
 30
0.0
 10
172.842413
 20
250.168799
 30
0.0
 10
167.401520
 20
243.354865
 30
0.0
  0
SPLINE
  5
2aa
100
AcDbEntity
  8
Layer_1
 62
7
100
AcDbSpline
 70
8
 71
3
 72
8
 73
4
 74
0
 40
0
 40
0
 40
0
 40
0
 40
1
 40
1
 40
1
 40
1
 10
166.989592
 20
242.415768
 30
0.0
 10
166.989592
 20
242.226490
 30
0.0
 10
167.046804
 20
242.059053
 30
0.0
 10
167.161229
 20
241.913456
 30
0.0
  0
SPLINE
  5
2ab
100
AcDbEntity
  8
Layer_1
 62
7
100
AcDbSpline
 70
8
 71
3
 72
8
 73
4
 74
0
 40
0
 40
0
 40
0
 40
0
 40
1
 40
1
 40
1
 40
1
 10
167.161229
 20
241.913456
 30
0.0
 10
167.275653
 20
241.767859
 30
0.0
 10
167.418684
 20
241.695061
 30
0.0
 10
167.590319
 20
241.695061
 30
0.0
  0
SPLINE
  5
2ac
100
AcDbEntity
  8
Layer_1
 62
7
100
AcDbSpline
 70
8
 71
3
 72
8
 73
4
 74
0
 40
0
 40
0
 40
0
 40
0
 40
1
 40
1
 40
1
 40
1
 10
167.590319
 20
241.695061
 30
0.0
 10
167.956478
 20
241.695061
 30
0.0
 10
168.471389
 20
241.928016
 30
0.0
 10
169.135053
 20
242.393926
 30
0.0
  0
SPLINE
  5
2ad
100
AcDbEntity
  8
Layer_1
 62
7
100
AcDbSpline
 70
8
 71
3
 72
8
 73
4
 74
0
 40
0
 40
0
 40
0
 40
0
 40
1
 40
1
 40
1
 40
1
 10
169.135053
 20
242.393926
 30
0.0
 10
169.810160
 20
242.874397
 30
0.0
 10
170.983013
 20
244.039172
 30
0.0
 10
172.653614
 20
245.888251
 30
0.0
  0
LWPOLYLINE
  5
2ae
100
AcDbEntity
  8
Layer_1
 62
7
100
AcDbPolyline
 90
2
 70
0
 10
166.989592
 20
242.568642
 30
0.0
 10
166.989592
 20
242.415768
 30
0.0
  0
SPLINE
  5
2af
100
AcDbEntity
  8
Layer_1
 62
7
100
AcDbSpline
 70
8
 71
3
 72
8
 73
4
 74
0
 40
0
 40
0
 40
0
 40
0
 40
1
 40
1
 40
1
 40
1
 10
172.773758
 20
245.735376
 30
0.0
 10
170.222088
 20
242.896236
 30
0.0
 10
168.499997
 20
241.476665
 30
0.0
 10
167.607485
 20
241.476665
 30
0.0
  0
SPLINE
  5
2b0
100
AcDbEntity
  8
Layer_1
 62
7
100
AcDbSpline
 70
8
 71
3
 72
8
 73
4
 74
0
 40
0
 40
0
 40
0
 40
0
 40
1
 40
1
 40
1
 40
1
 10
167.607485
 20
241.476665
 30
0.0
 10
167.321422
 20
241.476665
 30
0.0
 10
167.086851
 20
241.593143
 30
0.0
 10
166.903771
 20
241.826098
 30
0.0
  0
SPLINE
  5
2b1
100
AcDbEntity
  8
Layer_1
 62
7
100
AcDbSpline
 70
8
 71
3
 72
8
 73
4
 74
0
 40
0
 40
0
 40
0
 40
0
 40
1
 40
1
 40
1
 40
1
 10
166.903771
 20
241.826098
 30
0.0
 10
166.732135
 20
242.059053
 30
0.0
 10
166.646318
 20
242.372087
 30
0.0
 10
166.646318
 20
242.765200
 30
0.0
  0
SPLINE
  5
2b2
100
AcDbEntity
  8
Layer_1
 62
7
100
AcDbSpline
 70
8
 71
3
 72
8
 73
4
 74
0
 40
0
 40
0
 40
0
 40
0
 40
1
 40
1
 40
1
 40
1
 10
166.646318
 20
242.765200
 30
0.0
 10
166.646318
 20
243.318468
 30
0.0
 10
166.789348
 20
243.900856
 30
0.0
 10
167.075408
 20
244.512363
 30
0.0
  0
SPLINE
  5
2b3
100
AcDbEntity
  8
Layer_1
 62
7
100
AcDbSpline
 70
8
 71
3
 72
8
 73
4
 74
0
 40
0
 40
0
 40
0
 40
0
 40
1
 40
1
 40
1
 40
1
 10
167.075408
 20
244.512363
 30
0.0
 10
167.372912
 20
245.138428
 30
0.0
 10
168.471389
 20
246.616235
 30
0.0
 10
170.370839
 20
248.945785
 30
0.0
  0
LWPOLYLINE
  5
2b4
100
AcDbEntity
  8
Layer_1
 62
7
100
AcDbPolyline
 90
2
 70
0
 10
172.653614
 20
245.888251
 30
0.0
 10
172.773758
 20
245.735376
 30
0.0
  0
LWPOLYLINE
  5
2b5
100
AcDbEntity
  8
Layer_1
 62
7
100
AcDbPolyline
 90
4
 70
0
 10
170.370839
 20
248.945785
 30
0.0
 10
170.336530
 20
249.054985
 30
0.0
 10
168.757469
 20
247.526218
 30
0.0
 10
167.058246
 20
245.735376
 30
0.0
  0
ENDSEC
  0
SECTION
  2
OBJECTS
  0
DICTIONARY
  5
C
330
0
100
AcDbDictionary
  3
ACAD_GROUP
350
D
  3
ACAD_MLINESTYLE
350
17
  0
DICTIONARY
  5
D
330
C
100
AcDbDictionary
  0
DICTIONARY
  5
1A
330
C
100
AcDbDictionary
  0
DICTIONARY
  5
17
330
C
100
AcDbDictionary
  3
STANDARD
350
18
  0
DICTIONARY
  5
19
330
C
100
AcDbDictionary
  0
ENDSEC
  0
EOF
