  0
SECTION
  2
HEADER
  9
$ACADVER
  1
AC1014
  9
$HANDSEED
  5
FFFF
  9
$INSUNITS
 70
     4
  9
$MEASUREMENT
 70
     1
  0
ENDSEC
  0
SECTION
  2
TABLES
  0
TABLE
  2
VPORT
  5
8
330
0
100
AcDbSymbolTable
 70
     4
  0
VPORT
  5
2E
330
8
100
AcDbSymbolTableRecord
100
AcDbViewportTableRecord
  2
*ACTIVE
 70
     0
 10
0.0
 20
0.0
 11
1.0
 21
1.0
 12
210.0
 22
148.5
 13
0.0
 23
0.0
 14
10.0
 24
10.0
 15
10.0
 25
10.0
 16
0.0
 26
0.0
 36
1.0
 17
0.0
 27
0.0
 37
0.0
 40
341.0
 41
1.24
 42
50.0
 43
0.0
 44
0.0
 50
0.0
 51
0.0
 71
     0
 72
   100
 73
     1
 74
     3
 75
     0
 76
     0
 77
     0
 78
     0
  0
ENDTAB
  0
TABLE
  2
LTYPE
  5
5
330
0
100
AcDbSymbolTable
 70
     1
  0
LTYPE
  5
14
330
5
100
AcDbSymbolTableRecord
100
AcDbLinetypeTableRecord
  2
BYBLOCK
 70
     0
  3

 72
    65
 73
     0
 40
0.0
  0
LTYPE
  5
15
330
5
100
AcDbSymbolTableRecord
100
AcDbLinetypeTableRecord
  2
BYLAYER
 70
     0
  3

 72
    65
 73
     0
 40
0.0
  0
LTYPE
  5
16
330
5
100
AcDbSymbolTableRecord
100
AcDbLinetypeTableRecord
  2
CONTINUOUS
 70
     0
  3
Solid line
 72
    65
 73
     0
 40
0.0
  0
ENDTAB
  0
TABLE
  2
LAYER
  5
2
100
AcDbSymbolTable
 70
2
  0
LAYER
  5
50
100
AcDbSymbolTableRecord
100
AcDbLayerTableRecord
  2
0
 70
0
  6
CONTINUOUS
  0
LAYER
  5
51
100
AcDbSymbolTableRecord
100
AcDbLayerTableRecord
  2
Layer_1
 70
0
  6
CONTINUOUS
  0
ENDTAB
  0
TABLE
  2
STYLE
  5
3
330
0
100
AcDbSymbolTable
 70
     1
  0
STYLE
  5
11
330
3
100
AcDbSymbolTableRecord
100
AcDbTextStyleTableRecord
  2
STANDARD
 70
     0
 40
0.0
 41
1.0
 50
0.0
 71
     0
 42
2.5
  3
txt
  4

  0
ENDTAB
  0
TABLE
  2
VIEW
  5
6
330
0
100
AcDbSymbolTable
 70
     0
  0
ENDTAB
  0
TABLE
  2
UCS
  5
7
330
0
100
AcDbSymbolTable
 70
     0
  0
ENDTAB
  0
TABLE
  2
APPID
  5
9
330
0
100
AcDbSymbolTable
 70
     2
  0
APPID
  5
12
330
9
100
AcDbSymbolTableRecord
100
AcDbRegAppTableRecord
  2
ACAD
 70
     0
  0
ENDTAB
  0
TABLE
  2
DIMSTYLE
  5
A
330
0
100
AcDbSymbolTable
 70
     1
  0
DIMSTYLE
105
27
330
A
100
AcDbSymbolTableRecord
100
AcDbDimStyleTableRecord
  2
ISO-25
 70
     0
  3

  4

  5

  6

  7

 40
1.0
 41
2.5
 42
0.625
 43
3.75
 44
1.25
 45
0.0
 46
0.0
 47
0.0
 48
0.0
140
2.5
141
2.5
142
0.0
143
0.03937007874016
144
1.0
145
0.0
146
1.0
147
0.625
 71
     0
 72
     0
 73
     0
 74
     0
 75
     0
 76
     0
 77
     1
 78
     8
170
     0
171
     3
172
     1
173
     0
174
     0
175
     0
176
     0
177
     0
178
     0
270
     2
271
     2
272
     2
273
     2
274
     3
340
11
275
     0
280
     0
281
     0
282
     0
283
     0
284
     8
285
     0
286
     0
287
     3
288
     0
  0
ENDTAB
  0
TABLE
  2
BLOCK_RECORD
  5
1
330
0
100
AcDbSymbolTable
 70
     1
  0
BLOCK_RECORD
  5
1F
330
1
100
AcDbSymbolTableRecord
100
AcDbBlockTableRecord
  2
*MODEL_SPACE
  0
BLOCK_RECORD
  5
1B
330
1
100
AcDbSymbolTableRecord
100
AcDbBlockTableRecord
  2
*PAPER_SPACE
  0
ENDTAB
  0
ENDSEC
  0
SECTION
  2
BLOCKS
  0
BLOCK
  5
20
330
1F
100
AcDbEntity
  8
0
100
AcDbBlockBegin
  2
*MODEL_SPACE
 70
     0
 10
0.0
 20
0.0
 30
0.0
  3
*MODEL_SPACE
  1

  0
ENDBLK
  5
21
330
1F
100
AcDbEntity
  8
0
100
AcDbBlockEnd
  0
BLOCK
  5
1C
330
1B
100
AcDbEntity
 67
     1
  8
0
100
AcDbBlockBegin
  2
*PAPER_SPACE
  1

  0
ENDBLK
  5
1D
330
1B
100
AcDbEntity
 67
     1
  8
0
100
AcDbBlockEnd
  0
ENDSEC
  0
SECTION
  2
ENTITIES
  0
SPLINE
  5
100
100
AcDbEntity
  8
Layer_1
 62
7
100
AcDbSpline
 70
8
 71
3
 72
8
 73
4
 74
0
 40
0
 40
0
 40
0
 40
0
 40
1
 40
1
 40
1
 40
1
 10
50.316043
 20
194.650540
 30
0.0
 10
50.214443
 20
194.650540
 30
0.0
 10
50.163643
 20
194.701340
 30
0.0
 10
50.163643
 20
194.802940
 30
0.0
  0
SPLINE
  5
101
100
AcDbEntity
  8
Layer_1
 62
7
100
AcDbSpline
 70
8
 71
3
 72
8
 73
4
 74
0
 40
0
 40
0
 40
0
 40
0
 40
1
 40
1
 40
1
 40
1
 10
50.163643
 20
194.802940
 30
0.0
 10
50.163643
 20
194.904540
 30
0.0
 10
50.214443
 20
194.955340
 30
0.0
 10
50.316043
 20
194.955340
 30
0.0
  0
SPLINE
  5
102
100
AcDbEntity
  8
Layer_1
 62
7
100
AcDbSpline
 70
8
 71
3
 72
8
 73
4
 74
0
 40
0
 40
0
 40
0
 40
0
 40
1
 40
1
 40
1
 40
1
 10
50.316043
 20
194.955340
 30
0.0
 10
50.824043
 20
194.955340
 30
0.0
 10
51.230443
 20
194.853740
 30
0.0
 10
51.535243
 20
194.650540
 30
0.0
  0
SPLINE
  5
103
100
AcDbEntity
  8
Layer_1
 62
7
100
AcDbSpline
 70
8
 71
3
 72
8
 73
4
 74
0
 40
0
 40
0
 40
0
 40
0
 40
1
 40
1
 40
1
 40
1
 10
51.535243
 20
194.650540
 30
0.0
 10
51.856976
 20
194.447340
 30
0.0
 10
52.077110
 20
194.184873
 30
0.0
 10
52.195643
 20
193.863140
 30
0.0
  0
SPLINE
  5
104
100
AcDbEntity
  8
Layer_1
 62
7
100
AcDbSpline
 70
8
 71
3
 72
8
 73
4
 74
0
 40
0
 40
0
 40
0
 40
0
 40
1
 40
1
 40
1
 40
1
 10
52.195643
 20
193.863140
 30
0.0
 10
52.331110
 20
193.541407
 30
0.0
 10
52.373443
 20
193.185807
 30
0.0
 10
52.322643
 20
192.796340
 30
0.0
  0
SPLINE
  5
105
100
AcDbEntity
  8
Layer_1
 62
7
100
AcDbSpline
 70
8
 71
3
 72
8
 73
4
 74
0
 40
0
 40
0
 40
0
 40
0
 40
1
 40
1
 40
1
 40
1
 10
52.322643
 20
192.796340
 30
0.0
 10
52.271843
 20
192.423807
 30
0.0
 10
52.127910
 20
192.051273
 30
0.0
 10
51.890843
 20
191.678740
 30
0.0
  0
SPLINE
  5
106
100
AcDbEntity
  8
Layer_1
 62
7
100
AcDbSpline
 70
8
 71
3
 72
8
 73
4
 74
0
 40
0
 40
0
 40
0
 40
0
 40
1
 40
1
 40
1
 40
1
 10
51.890843
 20
191.678740
 30
0.0
 10
51.636843
 20
191.272340
 30
0.0
 10
51.315110
 20
190.959073
 30
0.0
 10
50.925643
 20
190.738940
 30
0.0
  0
SPLINE
  5
107
100
AcDbEntity
  8
Layer_1
 62
7
100
AcDbSpline
 70
8
 71
3
 72
8
 73
4
 74
0
 40
0
 40
0
 40
0
 40
0
 40
1
 40
1
 40
1
 40
1
 10
50.925643
 20
190.738940
 30
0.0
 10
50.553110
 20
190.518807
 30
0.0
 10
50.155176
 20
190.374873
 30
0.0
 10
49.731843
 20
190.307140
 30
0.0
  0
SPLINE
  5
108
100
AcDbEntity
  8
Layer_1
 62
7
100
AcDbSpline
 70
8
 71
3
 72
8
 73
4
 74
0
 40
0
 40
0
 40
0
 40
0
 40
1
 40
1
 40
1
 40
1
 10
49.731843
 20
190.307140
 30
0.0
 10
49.325443
 20
190.256340
 30
0.0
 10
48.910576
 20
190.281740
 30
0.0
 10
48.487243
 20
190.383340
 30
0.0
  0
SPLINE
  5
109
100
AcDbEntity
  8
Layer_1
 62
7
100
AcDbSpline
 70
8
 71
3
 72
8
 73
4
 74
0
 40
0
 40
0
 40
0
 40
0
 40
1
 40
1
 40
1
 40
1
 10
48.487243
 20
190.383340
 30
0.0
 10
48.080843
 20
190.484940
 30
0.0
 10
47.716776
 20
190.662740
 30
0.0
 10
47.395043
 20
190.916740
 30
0.0
  0
SPLINE
  5
10a
100
AcDbEntity
  8
Layer_1
 62
7
100
AcDbSpline
 70
8
 71
3
 72
8
 73
4
 74
0
 40
0
 40
0
 40
0
 40
0
 40
1
 40
1
 40
1
 40
1
 10
47.395043
 20
190.916740
 30
0.0
 10
47.073310
 20
191.170740
 30
0.0
 10
46.810843
 20
191.492473
 30
0.0
 10
46.607643
 20
191.881940
 30
0.0
  0
SPLINE
  5
10b
100
AcDbEntity
  8
Layer_1
 62
7
100
AcDbSpline
 70
8
 71
3
 72
8
 73
4
 74
0
 40
0
 40
0
 40
0
 40
0
 40
1
 40
1
 40
1
 40
1
 10
46.607643
 20
191.881940
 30
0.0
 10
46.421376
 20
192.288340
 30
0.0
 10
46.345176
 20
192.754007
 30
0.0
 10
46.379043
 20
193.278940
 30
0.0
  0
SPLINE
  5
10c
100
AcDbEntity
  8
Layer_1
 62
7
100
AcDbSpline
 70
8
 71
3
 72
8
 73
4
 74
0
 40
0
 40
0
 40
0
 40
0
 40
1
 40
1
 40
1
 40
1
 10
46.379043
 20
193.278940
 30
0.0
 10
46.412910
 20
194.007073
 30
0.0
 10
46.599176
 20
194.692873
 30
0.0
 10
46.937843
 20
195.336340
 30
0.0
  0
SPLINE
  5
10d
100
AcDbEntity
  8
Layer_1
 62
7
100
AcDbSpline
 70
8
 71
3
 72
8
 73
4
 74
0
 40
0
 40
0
 40
0
 40
0
 40
1
 40
1
 40
1
 40
1
 10
46.937843
 20
195.336340
 30
0.0
 10
47.293443
 20
195.979807
 30
0.0
 10
47.725243
 20
196.572472
 30
0.0
 10
48.233243
 20
197.114337
 30
0.0
  0
SPLINE
  5
10e
100
AcDbEntity
  8
Layer_1
 62
7
100
AcDbSpline
 70
8
 71
3
 72
8
 73
4
 74
0
 40
0
 40
0
 40
0
 40
0
 40
1
 40
1
 40
1
 40
1
 10
48.233243
 20
197.114337
 30
0.0
 10
48.758176
 20
197.656204
 30
0.0
 10
49.333910
 20
198.138804
 30
0.0
 10
49.960443
 20
198.562137
 30
0.0
  0
SPLINE
  5
10f
100
AcDbEntity
  8
Layer_1
 62
7
100
AcDbSpline
 70
8
 71
3
 72
8
 73
4
 74
0
 40
0
 40
0
 40
0
 40
0
 40
1
 40
1
 40
1
 40
1
 10
49.960443
 20
198.562137
 30
0.0
 10
50.586976
 20
198.985470
 30
0.0
 10
51.205043
 20
199.324137
 30
0.0
 10
51.814643
 20
199.578137
 30
0.0
  0
SPLINE
  5
110
100
AcDbEntity
  8
Layer_1
 62
7
100
AcDbSpline
 70
8
 71
3
 72
8
 73
4
 74
0
 40
0
 40
0
 40
0
 40
0
 40
1
 40
1
 40
1
 40
1
 10
51.814643
 20
199.578137
 30
0.0
 10
52.204110
 20
199.747470
 30
0.0
 10
52.652843
 20
199.899870
 30
0.0
 10
53.160843
 20
200.035337
 30
0.0
  0
SPLINE
  5
111
100
AcDbEntity
  8
Layer_1
 62
7
100
AcDbSpline
 70
8
 71
3
 72
8
 73
4
 74
0
 40
0
 40
0
 40
0
 40
0
 40
1
 40
1
 40
1
 40
1
 10
53.160843
 20
200.035337
 30
0.0
 10
53.668843
 20
200.170804
 30
0.0
 10
54.168376
 20
200.247004
 30
0.0
 10
54.659443
 20
200.263937
 30
0.0
  0
SPLINE
  5
112
100
AcDbEntity
  8
Layer_1
 62
7
100
AcDbSpline
 70
8
 71
3
 72
8
 73
4
 74
0
 40
0
 40
0
 40
0
 40
0
 40
1
 40
1
 40
1
 40
1
 10
54.659443
 20
200.263937
 30
0.0
 10
55.624643
 20
200.280870
 30
0.0
 10
56.276576
 20
200.094604
 30
0.0
 10
56.615243
 20
199.705137
 30
0.0
  0
SPLINE
  5
113
100
AcDbEntity
  8
Layer_1
 62
7
100
AcDbSpline
 70
8
 71
3
 72
8
 73
4
 74
0
 40
0
 40
0
 40
0
 40
0
 40
1
 40
1
 40
1
 40
1
 10
56.615243
 20
199.705137
 30
0.0
 10
56.953909
 20
199.332604
 30
0.0
 10
57.097842
 20
198.858470
 30
0.0
 10
57.047042
 20
198.282737
 30
0.0
  0
SPLINE
  5
114
100
AcDbEntity
  8
Layer_1
 62
7
100
AcDbSpline
 70
8
 71
3
 72
8
 73
4
 74
0
 40
0
 40
0
 40
0
 40
0
 40
1
 40
1
 40
1
 40
1
 10
57.047042
 20
198.282737
 30
0.0
 10
57.013175
 20
197.707004
 30
0.0
 10
56.860776
 20
197.080471
 30
0.0
 10
56.589843
 20
196.403140
 30
0.0
  0
SPLINE
  5
115
100
AcDbEntity
  8
Layer_1
 62
7
100
AcDbSpline
 70
8
 71
3
 72
8
 73
4
 74
0
 40
0
 40
0
 40
0
 40
0
 40
1
 40
1
 40
1
 40
1
 10
56.589843
 20
196.403140
 30
0.0
 10
56.335843
 20
195.725807
 30
0.0
 10
56.098776
 20
195.107740
 30
0.0
 10
55.878643
 20
194.548940
 30
0.0
  0
SPLINE
  5
116
100
AcDbEntity
  8
Layer_1
 62
7
100
AcDbSpline
 70
8
 71
3
 72
8
 73
4
 74
0
 40
0
 40
0
 40
0
 40
0
 40
1
 40
1
 40
1
 40
1
 10
55.878643
 20
194.548940
 30
0.0
 10
54.964243
 20
192.212140
 30
0.0
 10
54.041376
 20
189.858407
 30
0.0
 10
53.110043
 20
187.487740
 30
0.0
  0
SPLINE
  5
117
100
AcDbEntity
  8
Layer_1
 62
7
100
AcDbSpline
 70
8
 71
3
 72
8
 73
4
 74
0
 40
0
 40
0
 40
0
 40
0
 40
1
 40
1
 40
1
 40
1
 10
53.110043
 20
187.487740
 30
0.0
 10
52.195643
 20
185.134007
 30
0.0
 10
51.332043
 20
182.771807
 30
0.0
 10
50.519243
 20
180.401140
 30
0.0
  0
SPLINE
  5
118
100
AcDbEntity
  8
Layer_1
 62
7
100
AcDbSpline
 70
8
 71
3
 72
8
 73
4
 74
0
 40
0
 40
0
 40
0
 40
0
 40
1
 40
1
 40
1
 40
1
 10
50.519243
 20
180.401140
 30
0.0
 10
50.654710
 20
180.468873
 30
0.0
 10
50.807110
 20
180.663607
 30
0.0
 10
50.976443
 20
180.985340
 30
0.0
  0
SPLINE
  5
119
100
AcDbEntity
  8
Layer_1
 62
7
100
AcDbSpline
 70
8
 71
3
 72
8
 73
4
 74
0
 40
0
 40
0
 40
0
 40
0
 40
1
 40
1
 40
1
 40
1
 10
50.976443
 20
180.985340
 30
0.0
 10
51.162710
 20
181.324007
 30
0.0
 10
51.374376
 20
181.755807
 30
0.0
 10
51.611443
 20
182.280740
 30
0.0
  0
SPLINE
  5
11a
100
AcDbEntity
  8
Layer_1
 62
7
100
AcDbSpline
 70
8
 71
3
 72
8
 73
4
 74
0
 40
0
 40
0
 40
0
 40
0
 40
1
 40
1
 40
1
 40
1
 10
51.611443
 20
182.280740
 30
0.0
 10
52.051710
 20
183.262873
 30
0.0
 10
52.483510
 20
184.338140
 30
0.0
 10
52.906843
 20
185.506540
 30
0.0
  0
SPLINE
  5
11b
100
AcDbEntity
  8
Layer_1
 62
7
100
AcDbSpline
 70
8
 71
3
 72
8
 73
4
 74
0
 40
0
 40
0
 40
0
 40
0
 40
1
 40
1
 40
1
 40
1
 10
52.906843
 20
185.506540
 30
0.0
 10
53.347110
 20
186.691873
 30
0.0
 10
53.804310
 20
187.894140
 30
0.0
 10
54.278443
 20
189.113340
 30
0.0
  0
SPLINE
  5
11c
100
AcDbEntity
  8
Layer_1
 62
7
100
AcDbSpline
 70
8
 71
3
 72
8
 73
4
 74
0
 40
0
 40
0
 40
0
 40
0
 40
1
 40
1
 40
1
 40
1
 10
54.278443
 20
189.113340
 30
0.0
 10
54.752576
 20
190.349473
 30
0.0
 10
55.260576
 20
191.568673
 30
0.0
 10
55.802443
 20
192.770940
 30
0.0
  0
SPLINE
  5
11d
100
AcDbEntity
  8
Layer_1
 62
7
100
AcDbSpline
 70
8
 71
3
 72
8
 73
4
 74
0
 40
0
 40
0
 40
0
 40
0
 40
1
 40
1
 40
1
 40
1
 10
55.802443
 20
192.770940
 30
0.0
 10
56.361242
 20
193.973207
 30
0.0
 10
56.979309
 20
195.090807
 30
0.0
 10
57.656642
 20
196.123740
 30
0.0
  0
SPLINE
  5
11e
100
AcDbEntity
  8
Layer_1
 62
7
100
AcDbSpline
 70
8
 71
3
 72
8
 73
4
 74
0
 40
0
 40
0
 40
0
 40
0
 40
1
 40
1
 40
1
 40
1
 10
57.656642
 20
196.123740
 30
0.0
 10
58.333975
 20
197.156671
 30
0.0
 10
59.095975
 20
198.071070
 30
0.0
 10
59.942642
 20
198.866937
 30
0.0
  0
SPLINE
  5
11f
100
AcDbEntity
  8
Layer_1
 62
7
100
AcDbSpline
 70
8
 71
3
 72
8
 73
4
 74
0
 40
0
 40
0
 40
0
 40
0
 40
1
 40
1
 40
1
 40
1
 10
59.942642
 20
198.866937
 30
0.0
 10
60.789309
 20
199.662804
 30
0.0
 10
61.737575
 20
200.272404
 30
0.0
 10
62.787442
 20
200.695737
 30
0.0
  0
SPLINE
  5
120
100
AcDbEntity
  8
Layer_1
 62
7
100
AcDbSpline
 70
8
 71
3
 72
8
 73
4
 74
0
 40
0
 40
0
 40
0
 40
0
 40
1
 40
1
 40
1
 40
1
 10
62.787442
 20
200.695737
 30
0.0
 10
64.023575
 20
201.186804
 30
0.0
 10
65.073442
 20
201.381537
 30
0.0
 10
65.937042
 20
201.279937
 30
0.0
  0
SPLINE
  5
121
100
AcDbEntity
  8
Layer_1
 62
7
100
AcDbSpline
 70
8
 71
3
 72
8
 73
4
 74
0
 40
0
 40
0
 40
0
 40
0
 40
1
 40
1
 40
1
 40
1
 10
65.937042
 20
201.279937
 30
0.0
 10
66.800642
 20
201.178337
 30
0.0
 10
67.503375
 20
200.856604
 30
0.0
 10
68.045242
 20
200.314737
 30
0.0
  0
SPLINE
  5
122
100
AcDbEntity
  8
Layer_1
 62
7
100
AcDbSpline
 70
8
 71
3
 72
8
 73
4
 74
0
 40
0
 40
0
 40
0
 40
0
 40
1
 40
1
 40
1
 40
1
 10
68.045242
 20
200.314737
 30
0.0
 10
68.587109
 20
199.772870
 30
0.0
 10
68.976575
 20
199.053204
 30
0.0
 10
69.213642
 20
198.155737
 30
0.0
  0
SPLINE
  5
123
100
AcDbEntity
  8
Layer_1
 62
7
100
AcDbSpline
 70
8
 71
3
 72
8
 73
4
 74
0
 40
0
 40
0
 40
0
 40
0
 40
1
 40
1
 40
1
 40
1
 10
69.213642
 20
198.155737
 30
0.0
 10
69.467642
 20
197.275206
 30
0.0
 10
69.586175
 20
196.284607
 30
0.0
 10
69.569242
 20
195.183940
 30
0.0
  0
SPLINE
  5
124
100
AcDbEntity
  8
Layer_1
 62
7
100
AcDbSpline
 70
8
 71
3
 72
8
 73
4
 74
0
 40
0
 40
0
 40
0
 40
0
 40
1
 40
1
 40
1
 40
1
 10
69.569242
 20
195.183940
 30
0.0
 10
69.552309
 20
194.100207
 30
0.0
 10
69.416842
 20
192.948740
 30
0.0
 10
69.162842
 20
191.729540
 30
0.0
  0
SPLINE
  5
125
100
AcDbEntity
  8
Layer_1
 62
7
100
AcDbSpline
 70
8
 71
3
 72
8
 73
4
 74
0
 40
0
 40
0
 40
0
 40
0
 40
1
 40
1
 40
1
 40
1
 10
69.162842
 20
191.729540
 30
0.0
 10
68.908842
 20
190.527273
 30
0.0
 10
68.561709
 20
189.333473
 30
0.0
 10
68.121442
 20
188.148140
 30
0.0
  0
SPLINE
  5
126
100
AcDbEntity
  8
Layer_1
 62
7
100
AcDbSpline
 70
8
 71
3
 72
8
 73
4
 74
0
 40
0
 40
0
 40
0
 40
0
 40
1
 40
1
 40
1
 40
1
 10
68.121442
 20
188.148140
 30
0.0
 10
67.698109
 20
186.979740
 30
0.0
 10
67.181642
 20
185.870607
 30
0.0
 10
66.572042
 20
184.820740
 30
0.0
  0
SPLINE
  5
127
100
AcDbEntity
  8
Layer_1
 62
7
100
AcDbSpline
 70
8
 71
3
 72
8
 73
4
 74
0
 40
0
 40
0
 40
0
 40
0
 40
1
 40
1
 40
1
 40
1
 10
66.572042
 20
184.820740
 30
0.0
 10
65.979375
 20
183.770873
 30
0.0
 10
65.327442
 20
182.856473
 30
0.0
 10
64.616242
 20
182.077540
 30
0.0
  0
SPLINE
  5
128
100
AcDbEntity
  8
Layer_1
 62
7
100
AcDbSpline
 70
8
 71
3
 72
8
 73
4
 74
0
 40
0
 40
0
 40
0
 40
0
 40
1
 40
1
 40
1
 40
1
 10
64.616242
 20
182.077540
 30
0.0
 10
65.310509
 20
182.314607
 30
0.0
 10
65.979375
 20
182.602473
 30
0.0
 10
66.622842
 20
182.941140
 30
0.0
  0
SPLINE
  5
129
100
AcDbEntity
  8
Layer_1
 62
7
100
AcDbSpline
 70
8
 71
3
 72
8
 73
4
 74
0
 40
0
 40
0
 40
0
 40
0
 40
1
 40
1
 40
1
 40
1
 10
66.622842
 20
182.941140
 30
0.0
 10
67.283242
 20
183.279807
 30
0.0
 10
67.901309
 20
183.686207
 30
0.0
 10
68.477042
 20
184.160340
 30
0.0
  0
SPLINE
  5
12a
100
AcDbEntity
  8
Layer_1
 62
7
100
AcDbSpline
 70
8
 71
3
 72
8
 73
4
 74
0
 40
0
 40
0
 40
0
 40
0
 40
1
 40
1
 40
1
 40
1
 10
68.477042
 20
184.160340
 30
0.0
 10
69.069709
 20
184.634473
 30
0.0
 10
69.620042
 20
185.176340
 30
0.0
 10
70.128042
 20
185.785940
 30
0.0
  0
SPLINE
  5
12b
100
AcDbEntity
  8
Layer_1
 62
7
100
AcDbSpline
 70
8
 71
3
 72
8
 73
4
 74
0
 40
0
 40
0
 40
0
 40
0
 40
1
 40
1
 40
1
 40
1
 10
70.128042
 20
185.785940
 30
0.0
 10
70.636042
 20
186.412473
 30
0.0
 10
71.084775
 20
187.132140
 30
0.0
 10
71.474242
 20
187.944940
 30
0.0
  0
SPLINE
  5
12c
100
AcDbEntity
  8
Layer_1
 62
7
100
AcDbSpline
 70
8
 71
3
 72
8
 73
4
 74
0
 40
0
 40
0
 40
0
 40
0
 40
1
 40
1
 40
1
 40
1
 10
71.474242
 20
187.944940
 30
0.0
 10
71.525042
 20
188.029607
 30
0.0
 10
71.592775
 20
188.063473
 30
0.0
 10
71.677442
 20
188.046540
 30
0.0
  0
SPLINE
  5
12d
100
AcDbEntity
  8
Layer_1
 62
7
100
AcDbSpline
 70
8
 71
3
 72
8
 73
4
 74
0
 40
0
 40
0
 40
0
 40
0
 40
1
 40
1
 40
1
 40
1
 10
71.677442
 20
188.046540
 30
0.0
 10
71.762109
 20
188.012673
 30
0.0
 10
71.787509
 20
187.953407
 30
0.0
 10
71.753642
 20
187.868740
 30
0.0
  0
SPLINE
  5
12e
100
AcDbEntity
  8
Layer_1
 62
7
100
AcDbSpline
 70
8
 71
3
 72
8
 73
4
 74
0
 40
0
 40
0
 40
0
 40
0
 40
1
 40
1
 40
1
 40
1
 10
71.753642
 20
187.868740
 30
0.0
 10
71.313375
 20
186.954340
 30
0.0
 10
70.813842
 20
186.158473
 30
0.0
 10
70.255042
 20
185.481140
 30
0.0
  0
SPLINE
  5
12f
100
AcDbEntity
  8
Layer_1
 62
7
100
AcDbSpline
 70
8
 71
3
 72
8
 73
4
 74
0
 40
0
 40
0
 40
0
 40
0
 40
1
 40
1
 40
1
 40
1
 10
70.255042
 20
185.481140
 30
0.0
 10
69.713175
 20
184.803807
 30
0.0
 10
69.112042
 20
184.211140
 30
0.0
 10
68.451642
 20
183.703140
 30
0.0
  0
SPLINE
  5
130
100
AcDbEntity
  8
Layer_1
 62
7
100
AcDbSpline
 70
8
 71
3
 72
8
 73
4
 74
0
 40
0
 40
0
 40
0
 40
0
 40
1
 40
1
 40
1
 40
1
 10
68.451642
 20
183.703140
 30
0.0
 10
67.808175
 20
183.212073
 30
0.0
 10
67.122375
 20
182.797207
 30
0.0
 10
66.394242
 20
182.458540
 30
0.0
  0
SPLINE
  5
131
100
AcDbEntity
  8
Layer_1
 62
7
100
AcDbSpline
 70
8
 71
3
 72
8
 73
4
 74
0
 40
0
 40
0
 40
0
 40
0
 40
1
 40
1
 40
1
 40
1
 10
66.394242
 20
182.458540
 30
0.0
 10
65.683042
 20
182.119873
 30
0.0
 10
64.937975
 20
181.832007
 30
0.0
 10
64.159042
 20
181.594940
 30
0.0
  0
SPLINE
  5
132
100
AcDbEntity
  8
Layer_1
 62
7
100
AcDbSpline
 70
8
 71
3
 72
8
 73
4
 74
0
 40
0
 40
0
 40
0
 40
0
 40
1
 40
1
 40
1
 40
1
 10
64.159042
 20
181.594940
 30
0.0
 10
63.193842
 20
180.612807
 30
0.0
 10
62.228642
 20
179.859273
 30
0.0
 10
61.263442
 20
179.334340
 30
0.0
  0
SPLINE
  5
133
100
AcDbEntity
  8
Layer_1
 62
7
100
AcDbSpline
 70
8
 71
3
 72
8
 73
4
 74
0
 40
0
 40
0
 40
0
 40
0
 40
1
 40
1
 40
1
 40
1
 10
61.263442
 20
179.334340
 30
0.0
 10
60.298242
 20
178.792473
 30
0.0
 10
59.383842
 20
178.419940
 30
0.0
 10
58.520242
 20
178.216740
 30
0.0
  0
SPLINE
  5
134
100
AcDbEntity
  8
Layer_1
 62
7
100
AcDbSpline
 70
8
 71
3
 72
8
 73
4
 74
0
 40
0
 40
0
 40
0
 40
0
 40
1
 40
1
 40
1
 40
1
 10
58.520242
 20
178.216740
 30
0.0
 10
57.927575
 20
178.064340
 30
0.0
 10
57.309509
 20
177.979673
 30
0.0
 10
56.666042
 20
177.962740
 30
0.0
  0
SPLINE
  5
135
100
AcDbEntity
  8
Layer_1
 62
7
100
AcDbSpline
 70
8
 71
3
 72
8
 73
4
 74
0
 40
0
 40
0
 40
0
 40
0
 40
1
 40
1
 40
1
 40
1
 10
56.666042
 20
177.962740
 30
0.0
 10
56.022576
 20
177.945807
 30
0.0
 10
55.412976
 20
178.064340
 30
0.0
 10
54.837243
 20
178.318340
 30
0.0
  0
SPLINE
  5
136
100
AcDbEntity
  8
Layer_1
 62
7
100
AcDbSpline
 70
8
 71
3
 72
8
 73
4
 74
0
 40
0
 40
0
 40
0
 40
0
 40
1
 40
1
 40
1
 40
1
 10
54.837243
 20
178.318340
 30
0.0
 10
54.650976
 20
178.403007
 30
0.0
 10
54.481643
 20
178.504607
 30
0.0
 10
54.329243
 20
178.623140
 30
0.0
  0
SPLINE
  5
137
100
AcDbEntity
  8
Layer_1
 62
7
100
AcDbSpline
 70
8
 71
3
 72
8
 73
4
 74
0
 40
0
 40
0
 40
0
 40
0
 40
1
 40
1
 40
1
 40
1
 10
54.329243
 20
178.623140
 30
0.0
 10
54.176843
 20
178.741673
 30
0.0
 10
54.066776
 20
178.868673
 30
0.0
 10
53.999043
 20
179.004140
 30
0.0
  0
SPLINE
  5
138
100
AcDbEntity
  8
Layer_1
 62
7
100
AcDbSpline
 70
8
 71
3
 72
8
 73
4
 74
0
 40
0
 40
0
 40
0
 40
0
 40
1
 40
1
 40
1
 40
1
 10
53.999043
 20
179.004140
 30
0.0
 10
53.948243
 20
179.122673
 30
0.0
 10
53.948243
 20
179.258140
 30
0.0
 10
53.999043
 20
179.410540
 30
0.0
  0
SPLINE
  5
139
100
AcDbEntity
  8
Layer_1
 62
7
100
AcDbSpline
 70
8
 71
3
 72
8
 73
4
 74
0
 40
0
 40
0
 40
0
 40
0
 40
1
 40
1
 40
1
 40
1
 10
53.999043
 20
179.410540
 30
0.0
 10
54.066776
 20
179.562940
 30
0.0
 10
54.219176
 20
179.723807
 30
0.0
 10
54.456243
 20
179.893140
 30
0.0
  0
SPLINE
  5
13a
100
AcDbEntity
  8
Layer_1
 62
7
100
AcDbSpline
 70
8
 71
3
 72
8
 73
4
 74
0
 40
0
 40
0
 40
0
 40
0
 40
1
 40
1
 40
1
 40
1
 10
54.456243
 20
179.893140
 30
0.0
 10
54.608643
 20
179.994740
 30
0.0
 10
54.871110
 20
180.096340
 30
0.0
 10
55.243643
 20
180.197940
 30
0.0
  0
SPLINE
  5
13b
100
AcDbEntity
  8
Layer_1
 62
7
100
AcDbSpline
 70
8
 71
3
 72
8
 73
4
 74
0
 40
0
 40
0
 40
0
 40
0
 40
1
 40
1
 40
1
 40
1
 10
55.243643
 20
180.197940
 30
0.0
 10
55.633110
 20
180.316473
 30
0.0
 10
56.081843
 20
180.418073
 30
0.0
 10
56.589843
 20
180.502740
 30
0.0
  0
SPLINE
  5
13c
100
AcDbEntity
  8
Layer_1
 62
7
100
AcDbSpline
 70
8
 71
3
 72
8
 73
4
 74
0
 40
0
 40
0
 40
0
 40
0
 40
1
 40
1
 40
1
 40
1
 10
56.589843
 20
180.502740
 30
0.0
 10
57.097842
 20
180.604340
 30
0.0
 10
57.639709
 20
180.697473
 30
0.0
 10
58.215442
 20
180.782140
 30
0.0
  0
SPLINE
  5
13d
100
AcDbEntity
  8
Layer_1
 62
7
100
AcDbSpline
 70
8
 71
3
 72
8
 73
4
 74
0
 40
0
 40
0
 40
0
 40
0
 40
1
 40
1
 40
1
 40
1
 10
58.215442
 20
180.782140
 30
0.0
 10
58.808109
 20
180.866807
 30
0.0
 10
59.375375
 20
180.951473
 30
0.0
 10
59.917242
 20
181.036140
 30
0.0
  0
SPLINE
  5
13e
100
AcDbEntity
  8
Layer_1
 62
7
100
AcDbSpline
 70
8
 71
3
 72
8
 73
4
 74
0
 40
0
 40
0
 40
0
 40
0
 40
1
 40
1
 40
1
 40
1
 10
59.917242
 20
181.036140
 30
0.0
 10
60.476042
 20
181.120807
 30
0.0
 10
60.984042
 20
181.197007
 30
0.0
 10
61.441242
 20
181.264740
 30
0.0
  0
SPLINE
  5
13f
100
AcDbEntity
  8
Layer_1
 62
7
100
AcDbSpline
 70
8
 71
3
 72
8
 73
4
 74
0
 40
0
 40
0
 40
0
 40
0
 40
1
 40
1
 40
1
 40
1
 10
61.441242
 20
181.264740
 30
0.0
 10
61.915375
 20
181.349407
 30
0.0
 10
62.287909
 20
181.425607
 30
0.0
 10
62.558842
 20
181.493340
 30
0.0
  0
SPLINE
  5
140
100
AcDbEntity
  8
Layer_1
 62
7
100
AcDbSpline
 70
8
 71
3
 72
8
 73
4
 74
0
 40
0
 40
0
 40
0
 40
0
 40
1
 40
1
 40
1
 40
1
 10
62.558842
 20
181.493340
 30
0.0
 10
63.303909
 20
182.221473
 30
0.0
 10
63.989709
 20
183.085073
 30
0.0
 10
64.616242
 20
184.084140
 30
0.0
  0
SPLINE
  5
141
100
AcDbEntity
  8
Layer_1
 62
7
100
AcDbSpline
 70
8
 71
3
 72
8
 73
4
 74
0
 40
0
 40
0
 40
0
 40
0
 40
1
 40
1
 40
1
 40
1
 10
64.616242
 20
184.084140
 30
0.0
 10
65.259709
 20
185.100140
 30
0.0
 10
65.818509
 20
186.175407
 30
0.0
 10
66.292642
 20
187.309940
 30
0.0
  0
SPLINE
  5
142
100
AcDbEntity
  8
Layer_1
 62
7
100
AcDbSpline
 70
8
 71
3
 72
8
 73
4
 74
0
 40
0
 40
0
 40
0
 40
0
 40
1
 40
1
 40
1
 40
1
 10
66.292642
 20
187.309940
 30
0.0
 10
66.783709
 20
188.461407
 30
0.0
 10
67.181642
 20
189.629807
 30
0.0
 10
67.486442
 20
190.815140
 30
0.0
  0
SPLINE
  5
143
100
AcDbEntity
  8
Layer_1
 62
7
100
AcDbSpline
 70
8
 71
3
 72
8
 73
4
 74
0
 40
0
 40
0
 40
0
 40
0
 40
1
 40
1
 40
1
 40
1
 10
67.486442
 20
190.815140
 30
0.0
 10
67.791242
 20
192.017407
 30
0.0
 10
67.985975
 20
193.160407
 30
0.0
 10
68.070642
 20
194.244140
 30
0.0
  0
SPLINE
  5
144
100
AcDbEntity
  8
Layer_1
 62
7
100
AcDbSpline
 70
8
 71
3
 72
8
 73
4
 74
0
 40
0
 40
0
 40
0
 40
0
 40
1
 40
1
 40
1
 40
1
 10
68.070642
 20
194.244140
 30
0.0
 10
68.172242
 20
195.344807
 30
0.0
 10
68.146842
 20
196.352339
 30
0.0
 10
67.994442
 20
197.266737
 30
0.0
  0
SPLINE
  5
145
100
AcDbEntity
  8
Layer_1
 62
7
100
AcDbSpline
 70
8
 71
3
 72
8
 73
4
 74
0
 40
0
 40
0
 40
0
 40
0
 40
1
 40
1
 40
1
 40
1
 10
67.994442
 20
197.266737
 30
0.0
 10
67.858975
 20
198.198070
 30
0.0
 10
67.588042
 20
198.960070
 30
0.0
 10
67.181642
 20
199.552737
 30
0.0
  0
SPLINE
  5
146
100
AcDbEntity
  8
Layer_1
 62
7
100
AcDbSpline
 70
8
 71
3
 72
8
 73
4
 74
0
 40
0
 40
0
 40
0
 40
0
 40
1
 40
1
 40
1
 40
1
 10
67.181642
 20
199.552737
 30
0.0
 10
66.775242
 20
200.145404
 30
0.0
 10
66.216442
 20
200.534870
 30
0.0
 10
65.505242
 20
200.721137
 30
0.0
  0
SPLINE
  5
147
100
AcDbEntity
  8
Layer_1
 62
7
100
AcDbSpline
 70
8
 71
3
 72
8
 73
4
 74
0
 40
0
 40
0
 40
0
 40
0
 40
1
 40
1
 40
1
 40
1
 10
65.505242
 20
200.721137
 30
0.0
 10
64.810975
 20
200.924337
 30
0.0
 10
63.947375
 20
200.839670
 30
0.0
 10
62.914442
 20
200.467137
 30
0.0
  0
SPLINE
  5
148
100
AcDbEntity
  8
Layer_1
 62
7
100
AcDbSpline
 70
8
 71
3
 72
8
 73
4
 74
0
 40
0
 40
0
 40
0
 40
0
 40
1
 40
1
 40
1
 40
1
 10
62.914442
 20
200.467137
 30
0.0
 10
61.915375
 20
200.111537
 30
0.0
 10
61.009442
 20
199.535804
 30
0.0
 10
60.196642
 20
198.739937
 30
0.0
  0
SPLINE
  5
149
100
AcDbEntity
  8
Layer_1
 62
7
100
AcDbSpline
 70
8
 71
3
 72
8
 73
4
 74
0
 40
0
 40
0
 40
0
 40
0
 40
1
 40
1
 40
1
 40
1
 10
60.196642
 20
198.739937
 30
0.0
 10
59.383842
 20
197.961004
 30
0.0
 10
58.638775
 20
197.046605
 30
0.0
 10
57.961442
 20
195.996740
 30
0.0
  0
SPLINE
  5
14a
100
AcDbEntity
  8
Layer_1
 62
7
100
AcDbSpline
 70
8
 71
3
 72
8
 73
4
 74
0
 40
0
 40
0
 40
0
 40
0
 40
1
 40
1
 40
1
 40
1
 10
57.961442
 20
195.996740
 30
0.0
 10
57.284109
 20
194.963807
 30
0.0
 10
56.666042
 20
193.829273
 30
0.0
 10
56.107243
 20
192.593140
 30
0.0
  0
SPLINE
  5
14b
100
AcDbEntity
  8
Layer_1
 62
7
100
AcDbSpline
 70
8
 71
3
 72
8
 73
4
 74
0
 40
0
 40
0
 40
0
 40
0
 40
1
 40
1
 40
1
 40
1
 10
56.107243
 20
192.593140
 30
0.0
 10
55.548443
 20
191.373940
 30
0.0
 10
55.023510
 20
190.146273
 30
0.0
 10
54.532443
 20
188.910140
 30
0.0
  0
SPLINE
  5
14c
100
AcDbEntity
  8
Layer_1
 62
7
100
AcDbSpline
 70
8
 71
3
 72
8
 73
4
 74
0
 40
0
 40
0
 40
0
 40
0
 40
1
 40
1
 40
1
 40
1
 10
54.532443
 20
188.910140
 30
0.0
 10
54.058310
 20
187.674007
 30
0.0
 10
53.601110
 20
186.471740
 30
0.0
 10
53.160843
 20
185.303340
 30
0.0
  0
SPLINE
  5
14d
100
AcDbEntity
  8
Layer_1
 62
7
100
AcDbSpline
 70
8
 71
3
 72
8
 73
4
 74
0
 40
0
 40
0
 40
0
 40
0
 40
1
 40
1
 40
1
 40
1
 10
53.160843
 20
185.303340
 30
0.0
 10
52.737510
 20
184.134940
 30
0.0
 10
52.314176
 20
183.085073
 30
0.0
 10
51.890843
 20
182.153740
 30
0.0
  0
SPLINE
  5
14e
100
AcDbEntity
  8
Layer_1
 62
7
100
AcDbSpline
 70
8
 71
3
 72
8
 73
4
 74
0
 40
0
 40
0
 40
0
 40
0
 40
1
 40
1
 40
1
 40
1
 10
51.890843
 20
182.153740
 30
0.0
 10
51.806176
 20
181.950540
 30
0.0
 10
51.704576
 20
181.721940
 30
0.0
 10
51.586043
 20
181.467940
 30
0.0
  0
SPLINE
  5
14f
100
AcDbEntity
  8
Layer_1
 62
7
100
AcDbSpline
 70
8
 71
3
 72
8
 73
4
 74
0
 40
0
 40
0
 40
0
 40
0
 40
1
 40
1
 40
1
 40
1
 10
51.586043
 20
181.467940
 30
0.0
 10
51.467510
 20
181.213940
 30
0.0
 10
51.332043
 20
180.968407
 30
0.0
 10
51.179643
 20
180.731340
 30
0.0
  0
SPLINE
  5
150
100
AcDbEntity
  8
Layer_1
 62
7
100
AcDbSpline
 70
8
 71
3
 72
8
 73
4
 74
0
 40
0
 40
0
 40
0
 40
0
 40
1
 40
1
 40
1
 40
1
 10
51.179643
 20
180.731340
 30
0.0
 10
51.027243
 20
180.511207
 30
0.0
 10
50.849443
 20
180.324940
 30
0.0
 10
50.646243
 20
180.172540
 30
0.0
  0
SPLINE
  5
151
100
AcDbEntity
  8
Layer_1
 62
7
100
AcDbSpline
 70
8
 71
3
 72
8
 73
4
 74
0
 40
0
 40
0
 40
0
 40
0
 40
1
 40
1
 40
1
 40
1
 10
50.646243
 20
180.172540
 30
0.0
 10
50.459976
 20
180.020140
 30
0.0
 10
50.239843
 20
179.943940
 30
0.0
 10
49.985843
 20
179.943940
 30
0.0
  0
SPLINE
  5
152
100
AcDbEntity
  8
Layer_1
 62
7
100
AcDbSpline
 70
8
 71
3
 72
8
 73
4
 74
0
 40
0
 40
0
 40
0
 40
0
 40
1
 40
1
 40
1
 40
1
 10
49.985843
 20
179.943940
 30
0.0
 10
49.799576
 20
179.943940
 30
0.0
 10
49.604843
 20
179.969340
 30
0.0
 10
49.401643
 20
180.020140
 30
0.0
  0
SPLINE
  5
153
100
AcDbEntity
  8
Layer_1
 62
7
100
AcDbSpline
 70
8
 71
3
 72
8
 73
4
 74
0
 40
0
 40
0
 40
0
 40
0
 40
1
 40
1
 40
1
 40
1
 10
49.401643
 20
180.020140
 30
0.0
 10
49.215376
 20
180.054007
 30
0.0
 10
49.105310
 20
180.113273
 30
0.0
 10
49.071443
 20
180.197940
 30
0.0
  0
SPLINE
  5
154
100
AcDbEntity
  8
Layer_1
 62
7
100
AcDbSpline
 70
8
 71
3
 72
8
 73
4
 74
0
 40
0
 40
0
 40
0
 40
0
 40
1
 40
1
 40
1
 40
1
 10
49.071443
 20
180.197940
 30
0.0
 10
49.054510
 20
180.248740
 30
0.0
 10
49.054510
 20
180.282607
 30
0.0
 10
49.071443
 20
180.299540
 30
0.0
  0
SPLINE
  5
155
100
AcDbEntity
  8
Layer_1
 62
7
100
AcDbSpline
 70
8
 71
3
 72
8
 73
4
 74
0
 40
0
 40
0
 40
0
 40
0
 40
1
 40
1
 40
1
 40
1
 10
49.071443
 20
180.299540
 30
0.0
 10
49.156110
 20
180.553540
 30
0.0
 10
49.291576
 20
180.951473
 30
0.0
 10
49.477843
 20
181.493340
 30
0.0
  0
SPLINE
  5
156
100
AcDbEntity
  8
Layer_1
 62
7
100
AcDbSpline
 70
8
 71
3
 72
8
 73
4
 74
0
 40
0
 40
0
 40
0
 40
0
 40
1
 40
1
 40
1
 40
1
 10
50.189043
 20
183.449140
 30
0.0
 10
50.476910
 20
184.211140
 30
0.0
 10
50.790176
 20
185.040873
 30
0.0
 10
51.128843
 20
185.938340
 30
0.0
  0
SPLINE
  5
157
100
AcDbEntity
  8
Layer_1
 62
7
100
AcDbSpline
 70
8
 71
3
 72
8
 73
4
 74
0
 40
0
 40
0
 40
0
 40
0
 40
1
 40
1
 40
1
 40
1
 10
51.128843
 20
185.938340
 30
0.0
 10
51.484443
 20
186.835807
 30
0.0
 10
51.840043
 20
187.758673
 30
0.0
 10
52.195643
 20
188.706940
 30
0.0
  0
SPLINE
  5
158
100
AcDbEntity
  8
Layer_1
 62
7
100
AcDbSpline
 70
8
 71
3
 72
8
 73
4
 74
0
 40
0
 40
0
 40
0
 40
0
 40
1
 40
1
 40
1
 40
1
 10
52.195643
 20
188.706940
 30
0.0
 10
52.500443
 20
189.519740
 30
0.0
 10
52.805243
 20
190.324073
 30
0.0
 10
53.110043
 20
191.119940
 30
0.0
  0
SPLINE
  5
159
100
AcDbEntity
  8
Layer_1
 62
7
100
AcDbSpline
 70
8
 71
3
 72
8
 73
4
 74
0
 40
0
 40
0
 40
0
 40
0
 40
1
 40
1
 40
1
 40
1
 10
53.110043
 20
191.119940
 30
0.0
 10
53.431776
 20
191.932740
 30
0.0
 10
53.736576
 20
192.711673
 30
0.0
 10
54.024443
 20
193.456740
 30
0.0
  0
SPLINE
  5
15a
100
AcDbEntity
  8
Layer_1
 62
7
100
AcDbSpline
 70
8
 71
3
 72
8
 73
4
 74
0
 40
0
 40
0
 40
0
 40
0
 40
1
 40
1
 40
1
 40
1
 10
54.024443
 20
193.456740
 30
0.0
 10
54.312310
 20
194.218740
 30
0.0
 10
54.583243
 20
194.921473
 30
0.0
 10
54.837243
 20
195.564940
 30
0.0
  0
SPLINE
  5
15b
100
AcDbEntity
  8
Layer_1
 62
7
100
AcDbSpline
 70
8
 71
3
 72
8
 73
4
 74
0
 40
0
 40
0
 40
0
 40
0
 40
1
 40
1
 40
1
 40
1
 10
54.837243
 20
195.564940
 30
0.0
 10
55.108176
 20
196.225340
 30
0.0
 10
55.345243
 20
196.801072
 30
0.0
 10
55.548443
 20
197.292137
 30
0.0
  0
SPLINE
  5
15c
100
AcDbEntity
  8
Layer_1
 62
7
100
AcDbSpline
 70
8
 71
3
 72
8
 73
4
 74
0
 40
0
 40
0
 40
0
 40
0
 40
1
 40
1
 40
1
 40
1
 10
55.548443
 20
197.292137
 30
0.0
 10
55.751643
 20
197.800137
 30
0.0
 10
55.853243
 20
198.223470
 30
0.0
 10
55.853243
 20
198.562137
 30
0.0
  0
SPLINE
  5
15d
100
AcDbEntity
  8
Layer_1
 62
7
100
AcDbSpline
 70
8
 71
3
 72
8
 73
4
 74
0
 40
0
 40
0
 40
0
 40
0
 40
1
 40
1
 40
1
 40
1
 10
55.853243
 20
198.562137
 30
0.0
 10
55.853243
 20
198.900804
 30
0.0
 10
55.768576
 20
199.171737
 30
0.0
 10
55.599243
 20
199.374937
 30
0.0
  0
SPLINE
  5
15e
100
AcDbEntity
  8
Layer_1
 62
7
100
AcDbSpline
 70
8
 71
3
 72
8
 73
4
 74
0
 40
0
 40
0
 40
0
 40
0
 40
1
 40
1
 40
1
 40
1
 10
55.599243
 20
199.374937
 30
0.0
 10
55.412976
 20
199.612004
 30
0.0
 10
55.150510
 20
199.755937
 30
0.0
 10
54.811843
 20
199.806737
 30
0.0
  0
SPLINE
  5
15f
100
AcDbEntity
  8
Layer_1
 62
7
100
AcDbSpline
 70
8
 71
3
 72
8
 73
4
 74
0
 40
0
 40
0
 40
0
 40
0
 40
1
 40
1
 40
1
 40
1
 10
54.811843
 20
199.806737
 30
0.0
 10
54.490110
 20
199.874470
 30
0.0
 10
54.142976
 20
199.882937
 30
0.0
 10
53.770443
 20
199.832137
 30
0.0
  0
SPLINE
  5
160
100
AcDbEntity
  8
Layer_1
 62
7
100
AcDbSpline
 70
8
 71
3
 72
8
 73
4
 74
0
 40
0
 40
0
 40
0
 40
0
 40
1
 40
1
 40
1
 40
1
 10
53.770443
 20
199.832137
 30
0.0
 10
53.414843
 20
199.781337
 30
0.0
 10
53.067710
 20
199.696670
 30
0.0
 10
52.729043
 20
199.578137
 30
0.0
  0
SPLINE
  5
161
100
AcDbEntity
  8
Layer_1
 62
7
100
AcDbSpline
 70
8
 71
3
 72
8
 73
4
 74
0
 40
0
 40
0
 40
0
 40
0
 40
1
 40
1
 40
1
 40
1
 10
52.729043
 20
199.578137
 30
0.0
 10
52.407310
 20
199.476537
 30
0.0
 10
52.144843
 20
199.383404
 30
0.0
 10
51.941643
 20
199.298737
 30
0.0
  0
SPLINE
  5
162
100
AcDbEntity
  8
Layer_1
 62
7
100
AcDbSpline
 70
8
 71
3
 72
8
 73
4
 74
0
 40
0
 40
0
 40
0
 40
0
 40
1
 40
1
 40
1
 40
1
 10
51.941643
 20
199.298737
 30
0.0
 10
51.348976
 20
199.044737
 30
0.0
 10
50.756310
 20
198.714537
 30
0.0
 10
50.163643
 20
198.308137
 30
0.0
  0
SPLINE
  5
163
100
AcDbEntity
  8
Layer_1
 62
7
100
AcDbSpline
 70
8
 71
3
 72
8
 73
4
 74
0
 40
0
 40
0
 40
0
 40
0
 40
1
 40
1
 40
1
 40
1
 10
50.163643
 20
198.308137
 30
0.0
 10
49.587910
 20
197.918670
 30
0.0
 10
49.062976
 20
197.461471
 30
0.0
 10
48.588843
 20
196.936540
 30
0.0
  0
SPLINE
  5
164
100
AcDbEntity
  8
Layer_1
 62
7
100
AcDbSpline
 70
8
 71
3
 72
8
 73
4
 74
0
 40
0
 40
0
 40
0
 40
0
 40
1
 40
1
 40
1
 40
1
 10
48.588843
 20
196.936540
 30
0.0
 10
48.114710
 20
196.411607
 30
0.0
 10
47.725243
 20
195.835873
 30
0.0
 10
47.420443
 20
195.209340
 30
0.0
  0
SPLINE
  5
165
100
AcDbEntity
  8
Layer_1
 62
7
100
AcDbSpline
 70
8
 71
3
 72
8
 73
4
 74
0
 40
0
 40
0
 40
0
 40
0
 40
1
 40
1
 40
1
 40
1
 10
47.420443
 20
195.209340
 30
0.0
 10
47.115643
 20
194.599740
 30
0.0
 10
46.946310
 20
193.947807
 30
0.0
 10
46.912443
 20
193.253540
 30
0.0
  0
SPLINE
  5
166
100
AcDbEntity
  8
Layer_1
 62
7
100
AcDbSpline
 70
8
 71
3
 72
8
 73
4
 74
0
 40
0
 40
0
 40
0
 40
0
 40
1
 40
1
 40
1
 40
1
 10
46.912443
 20
193.253540
 30
0.0
 10
46.878576
 20
192.542340
 30
0.0
 10
47.039443
 20
191.966607
 30
0.0
 10
47.395043
 20
191.526340
 30
0.0
  0
SPLINE
  5
167
100
AcDbEntity
  8
Layer_1
 62
7
100
AcDbSpline
 70
8
 71
3
 72
8
 73
4
 74
0
 40
0
 40
0
 40
0
 40
0
 40
1
 40
1
 40
1
 40
1
 10
47.395043
 20
191.526340
 30
0.0
 10
47.767576
 20
191.086073
 30
0.0
 10
48.207843
 20
190.798207
 30
0.0
 10
48.715843
 20
190.662740
 30
0.0
  0
SPLINE
  5
168
100
AcDbEntity
  8
Layer_1
 62
7
100
AcDbSpline
 70
8
 71
3
 72
8
 73
4
 74
0
 40
0
 40
0
 40
0
 40
0
 40
1
 40
1
 40
1
 40
1
 10
48.715843
 20
190.662740
 30
0.0
 10
49.240776
 20
190.527273
 30
0.0
 10
49.774176
 20
190.552673
 30
0.0
 10
50.316043
 20
190.738940
 30
0.0
  0
SPLINE
  5
169
100
AcDbEntity
  8
Layer_1
 62
7
100
AcDbSpline
 70
8
 71
3
 72
8
 73
4
 74
0
 40
0
 40
0
 40
0
 40
0
 40
1
 40
1
 40
1
 40
1
 10
50.316043
 20
190.738940
 30
0.0
 10
50.857910
 20
190.925207
 30
0.0
 10
51.298176
 20
191.289273
 30
0.0
 10
51.636843
 20
191.831140
 30
0.0
  0
SPLINE
  5
16a
100
AcDbEntity
  8
Layer_1
 62
7
100
AcDbSpline
 70
8
 71
3
 72
8
 73
4
 74
0
 40
0
 40
0
 40
0
 40
0
 40
1
 40
1
 40
1
 40
1
 10
51.636843
 20
191.831140
 30
0.0
 10
51.840043
 20
192.152873
 30
0.0
 10
51.967043
 20
192.474607
 30
0.0
 10
52.017843
 20
192.796340
 30
0.0
  0
SPLINE
  5
16b
100
AcDbEntity
  8
Layer_1
 62
7
100
AcDbSpline
 70
8
 71
3
 72
8
 73
4
 74
0
 40
0
 40
0
 40
0
 40
0
 40
1
 40
1
 40
1
 40
1
 10
52.017843
 20
192.796340
 30
0.0
 10
52.068643
 20
193.135007
 30
0.0
 10
52.043243
 20
193.439807
 30
0.0
 10
51.941643
 20
193.710740
 30
0.0
  0
SPLINE
  5
16c
100
AcDbEntity
  8
Layer_1
 62
7
100
AcDbSpline
 70
8
 71
3
 72
8
 73
4
 74
0
 40
0
 40
0
 40
0
 40
0
 40
1
 40
1
 40
1
 40
1
 10
51.941643
 20
193.710740
 30
0.0
 10
51.840043
 20
193.981673
 30
0.0
 10
51.653776
 20
194.201807
 30
0.0
 10
51.382843
 20
194.371140
 30
0.0
  0
SPLINE
  5
16d
100
AcDbEntity
  8
Layer_1
 62
7
100
AcDbSpline
 70
8
 71
3
 72
8
 73
4
 74
0
 40
0
 40
0
 40
0
 40
0
 40
1
 40
1
 40
1
 40
1
 10
51.382843
 20
194.371140
 30
0.0
 10
51.111910
 20
194.557407
 30
0.0
 10
50.756310
 20
194.650540
 30
0.0
 10
50.316043
 20
194.650540
 30
0.0
  0
LWPOLYLINE
  5
16e
100
AcDbEntity
  8
Layer_1
 62
7
100
AcDbPolyline
 90
2
 70
0
 10
49.477843
 20
181.493340
 30
0.0
 10
50.189043
 20
183.449140
 30
0.0
  0
SPLINE
  5
16f
100
AcDbEntity
  8
Layer_1
 62
7
100
AcDbSpline
 70
8
 71
3
 72
8
 73
4
 74
0
 40
0
 40
0
 40
0
 40
0
 40
1
 40
1
 40
1
 40
1
 10
58.342442
 20
178.750140
 30
0.0
 10
58.630309
 20
178.851740
 30
0.0
 10
58.892775
 20
178.961807
 30
0.0
 10
59.129842
 20
179.080340
 30
0.0
  0
SPLINE
  5
170
100
AcDbEntity
  8
Layer_1
 62
7
100
AcDbSpline
 70
8
 71
3
 72
8
 73
4
 74
0
 40
0
 40
0
 40
0
 40
0
 40
1
 40
1
 40
1
 40
1
 10
59.129842
 20
179.080340
 30
0.0
 10
59.383842
 20
179.198873
 30
0.0
 10
59.620909
 20
179.317407
 30
0.0
 10
59.841042
 20
179.435940
 30
0.0
  0
SPLINE
  5
171
100
AcDbEntity
  8
Layer_1
 62
7
100
AcDbSpline
 70
8
 71
3
 72
8
 73
4
 74
0
 40
0
 40
0
 40
0
 40
0
 40
1
 40
1
 40
1
 40
1
 10
59.841042
 20
179.435940
 30
0.0
 10
60.213575
 20
179.656073
 30
0.0
 10
60.586109
 20
179.901607
 30
0.0
 10
60.958642
 20
180.172540
 30
0.0
  0
SPLINE
  5
172
100
AcDbEntity
  8
Layer_1
 62
7
100
AcDbSpline
 70
8
 71
3
 72
8
 73
4
 74
0
 40
0
 40
0
 40
0
 40
0
 40
1
 40
1
 40
1
 40
1
 10
60.958642
 20
180.172540
 30
0.0
 10
61.331175
 20
180.426540
 30
0.0
 10
61.712175
 20
180.722873
 30
0.0
 10
62.101642
 20
181.061540
 30
0.0
  0
SPLINE
  5
173
100
AcDbEntity
  8
Layer_1
 62
7
100
AcDbSpline
 70
8
 71
3
 72
8
 73
4
 74
0
 40
0
 40
0
 40
0
 40
0
 40
1
 40
1
 40
1
 40
1
 10
62.101642
 20
181.061540
 30
0.0
 10
61.847642
 20
181.010740
 30
0.0
 10
61.508975
 20
180.951473
 30
0.0
 10
61.085642
 20
180.883740
 30
0.0
  0
SPLINE
  5
174
100
AcDbEntity
  8
Layer_1
 62
7
100
AcDbSpline
 70
8
 71
3
 72
8
 73
4
 74
0
 40
0
 40
0
 40
0
 40
0
 40
1
 40
1
 40
1
 40
1
 10
61.085642
 20
180.883740
 30
0.0
 10
60.662309
 20
180.832940
 30
0.0
 10
60.196642
 20
180.765207
 30
0.0
 10
59.688642
 20
180.680540
 30
0.0
  0
SPLINE
  5
175
100
AcDbEntity
  8
Layer_1
 62
7
100
AcDbSpline
 70
8
 71
3
 72
8
 73
4
 74
0
 40
0
 40
0
 40
0
 40
0
 40
1
 40
1
 40
1
 40
1
 10
59.688642
 20
180.680540
 30
0.0
 10
59.180642
 20
180.612807
 30
0.0
 10
58.655709
 20
180.536607
 30
0.0
 10
58.113842
 20
180.451940
 30
0.0
  0
SPLINE
  5
176
100
AcDbEntity
  8
Layer_1
 62
7
100
AcDbSpline
 70
8
 71
3
 72
8
 73
4
 74
0
 40
0
 40
0
 40
0
 40
0
 40
1
 40
1
 40
1
 40
1
 10
58.113842
 20
180.451940
 30
0.0
 10
57.571975
 20
180.367273
 30
0.0
 10
57.063976
 20
180.282607
 30
0.0
 10
56.589843
 20
180.197940
 30
0.0
  0
SPLINE
  5
177
100
AcDbEntity
  8
Layer_1
 62
7
100
AcDbSpline
 70
8
 71
3
 72
8
 73
4
 74
0
 40
0
 40
0
 40
0
 40
0
 40
1
 40
1
 40
1
 40
1
 10
56.589843
 20
180.197940
 30
0.0
 10
56.132643
 20
180.113273
 30
0.0
 10
55.726243
 20
180.028607
 30
0.0
 10
55.370643
 20
179.943940
 30
0.0
  0
SPLINE
  5
178
100
AcDbEntity
  8
Layer_1
 62
7
100
AcDbSpline
 70
8
 71
3
 72
8
 73
4
 74
0
 40
0
 40
0
 40
0
 40
0
 40
1
 40
1
 40
1
 40
1
 10
55.370643
 20
179.943940
 30
0.0
 10
55.015043
 20
179.842340
 30
0.0
 10
54.769510
 20
179.740740
 30
0.0
 10
54.634043
 20
179.639140
 30
0.0
  0
SPLINE
  5
179
100
AcDbEntity
  8
Layer_1
 62
7
100
AcDbSpline
 70
8
 71
3
 72
8
 73
4
 74
0
 40
0
 40
0
 40
0
 40
0
 40
1
 40
1
 40
1
 40
1
 10
54.634043
 20
179.639140
 30
0.0
 10
54.464710
 20
179.520607
 30
0.0
 10
54.363110
 20
179.410540
 30
0.0
 10
54.329243
 20
179.308940
 30
0.0
  0
SPLINE
  5
17a
100
AcDbEntity
  8
Layer_1
 62
7
100
AcDbSpline
 70
8
 71
3
 72
8
 73
4
 74
0
 40
0
 40
0
 40
0
 40
0
 40
1
 40
1
 40
1
 40
1
 10
54.329243
 20
179.308940
 30
0.0
 10
54.295376
 20
179.207340
 30
0.0
 10
54.303843
 20
179.114207
 30
0.0
 10
54.354643
 20
179.029540
 30
0.0
  0
SPLINE
  5
17b
100
AcDbEntity
  8
Layer_1
 62
7
100
AcDbSpline
 70
8
 71
3
 72
8
 73
4
 74
0
 40
0
 40
0
 40
0
 40
0
 40
1
 40
1
 40
1
 40
1
 10
54.354643
 20
179.029540
 30
0.0
 10
54.405443
 20
178.927940
 30
0.0
 10
54.481643
 20
178.843273
 30
0.0
 10
54.583243
 20
178.775540
 30
0.0
  0
SPLINE
  5
17c
100
AcDbEntity
  8
Layer_1
 62
7
100
AcDbSpline
 70
8
 71
3
 72
8
 73
4
 74
0
 40
0
 40
0
 40
0
 40
0
 40
1
 40
1
 40
1
 40
1
 10
54.583243
 20
178.775540
 30
0.0
 10
54.701776
 20
178.690873
 30
0.0
 10
54.837243
 20
178.623140
 30
0.0
 10
54.989643
 20
178.572340
 30
0.0
  0
SPLINE
  5
17d
100
AcDbEntity
  8
Layer_1
 62
7
100
AcDbSpline
 70
8
 71
3
 72
8
 73
4
 74
0
 40
0
 40
0
 40
0
 40
0
 40
1
 40
1
 40
1
 40
1
 10
54.989643
 20
178.572340
 30
0.0
 10
55.582310
 20
178.335273
 30
0.0
 10
56.141109
 20
178.250607
 30
0.0
 10
56.666042
 20
178.318340
 30
0.0
  0
SPLINE
  5
17e
100
AcDbEntity
  8
Layer_1
 62
7
100
AcDbSpline
 70
8
 71
3
 72
8
 73
4
 74
0
 40
0
 40
0
 40
0
 40
0
 40
1
 40
1
 40
1
 40
1
 10
56.666042
 20
178.318340
 30
0.0
 10
57.190975
 20
178.369140
 30
0.0
 10
57.749775
 20
178.513073
 30
0.0
 10
58.342442
 20
178.750140
 30
0.0
  0
LWPOLYLINE
  5
17f
100
AcDbEntity
  8
Layer_1
 62
7
100
AcDbPolyline
 90
1
 70
1
 10
50.316043
 20
194.650540
 30
0.0
  0
SPLINE
  5
180
100
AcDbEntity
  8
Layer_1
 62
7
100
AcDbSpline
 70
8
 71
3
 72
8
 73
4
 74
0
 40
0
 40
0
 40
0
 40
0
 40
1
 40
1
 40
1
 40
1
 10
73.557067
 20
184.414340
 30
0.0
 10
73.506267
 20
184.905407
 30
0.0
 10
73.523200
 20
185.447273
 30
0.0
 10
73.607867
 20
186.039940
 30
0.0
  0
SPLINE
  5
181
100
AcDbEntity
  8
Layer_1
 62
7
100
AcDbSpline
 70
8
 71
3
 72
8
 73
4
 74
0
 40
0
 40
0
 40
0
 40
0
 40
1
 40
1
 40
1
 40
1
 10
73.607867
 20
186.039940
 30
0.0
 10
73.692534
 20
186.632607
 30
0.0
 10
73.811067
 20
187.208340
 30
0.0
 10
73.963467
 20
187.767140
 30
0.0
  0
SPLINE
  5
182
100
AcDbEntity
  8
Layer_1
 62
7
100
AcDbSpline
 70
8
 71
3
 72
8
 73
4
 74
0
 40
0
 40
0
 40
0
 40
0
 40
1
 40
1
 40
1
 40
1
 10
73.963467
 20
187.767140
 30
0.0
 10
74.115867
 20
188.325940
 30
0.0
 10
74.276734
 20
188.842407
 30
0.0
 10
74.446067
 20
189.316540
 30
0.0
  0
SPLINE
  5
183
100
AcDbEntity
  8
Layer_1
 62
7
100
AcDbSpline
 70
8
 71
3
 72
8
 73
4
 74
0
 40
0
 40
0
 40
0
 40
0
 40
1
 40
1
 40
1
 40
1
 10
74.446067
 20
189.316540
 30
0.0
 10
74.615400
 20
189.790673
 30
0.0
 10
74.750867
 20
190.154740
 30
0.0
 10
74.852467
 20
190.408740
 30
0.0
  0
SPLINE
  5
184
100
AcDbEntity
  8
Layer_1
 62
7
100
AcDbSpline
 70
8
 71
3
 72
8
 73
4
 74
0
 40
0
 40
0
 40
0
 40
0
 40
1
 40
1
 40
1
 40
1
 10
74.852467
 20
190.408740
 30
0.0
 10
74.971000
 20
190.679673
 30
0.0
 10
75.047200
 20
190.908273
 30
0.0
 10
75.081067
 20
191.094540
 30
0.0
  0
SPLINE
  5
185
100
AcDbEntity
  8
Layer_1
 62
7
100
AcDbSpline
 70
8
 71
3
 72
8
 73
4
 74
0
 40
0
 40
0
 40
0
 40
0
 40
1
 40
1
 40
1
 40
1
 10
75.081067
 20
191.094540
 30
0.0
 10
75.131867
 20
191.297740
 30
0.0
 10
75.123400
 20
191.492473
 30
0.0
 10
75.055667
 20
191.678740
 30
0.0
  0
SPLINE
  5
186
100
AcDbEntity
  8
Layer_1
 62
7
100
AcDbSpline
 70
8
 71
3
 72
8
 73
4
 74
0
 40
0
 40
0
 40
0
 40
0
 40
1
 40
1
 40
1
 40
1
 10
75.055667
 20
191.678740
 30
0.0
 10
75.004867
 20
191.881940
 30
0.0
 10
74.886334
 20
192.085140
 30
0.0
 10
74.700067
 20
192.288340
 30
0.0
  0
SPLINE
  5
187
100
AcDbEntity
  8
Layer_1
 62
7
100
AcDbSpline
 70
8
 71
3
 72
8
 73
4
 74
0
 40
0
 40
0
 40
0
 40
0
 40
1
 40
1
 40
1
 40
1
 10
74.700067
 20
192.288340
 30
0.0
 10
74.513800
 20
192.508473
 30
0.0
 10
74.259800
 20
192.762473
 30
0.0
 10
73.938067
 20
193.050340
 30
0.0
  0
SPLINE
  5
188
100
AcDbEntity
  8
Layer_1
 62
7
100
AcDbSpline
 70
8
 71
3
 72
8
 73
4
 74
0
 40
0
 40
0
 40
0
 40
0
 40
1
 40
1
 40
1
 40
1
 10
73.938067
 20
193.050340
 30
0.0
 10
73.819534
 20
192.627007
 30
0.0
 10
73.684067
 20
192.203673
 30
0.0
 10
73.531667
 20
191.780340
 30
0.0
  0
SPLINE
  5
189
100
AcDbEntity
  8
Layer_1
 62
7
100
AcDbSpline
 70
8
 71
3
 72
8
 73
4
 74
0
 40
0
 40
0
 40
0
 40
0
 40
1
 40
1
 40
1
 40
1
 10
73.531667
 20
191.780340
 30
0.0
 10
73.396200
 20
191.373940
 30
0.0
 10
73.235334
 20
190.959073
 30
0.0
 10
73.049067
 20
190.535740
 30
0.0
  0
SPLINE
  5
18a
100
AcDbEntity
  8
Layer_1
 62
7
100
AcDbSpline
 70
8
 71
3
 72
8
 73
4
 74
0
 40
0
 40
0
 40
0
 40
0
 40
1
 40
1
 40
1
 40
1
 10
73.049067
 20
190.535740
 30
0.0
 10
72.862800
 20
190.095473
 30
0.0
 10
72.642667
 20
189.629807
 30
0.0
 10
72.388667
 20
189.138740
 30
0.0
  0
SPLINE
  5
18b
100
AcDbEntity
  8
Layer_1
 62
7
100
AcDbSpline
 70
8
 71
3
 72
8
 73
4
 74
0
 40
0
 40
0
 40
0
 40
0
 40
1
 40
1
 40
1
 40
1
 10
72.388667
 20
189.138740
 30
0.0
 10
72.151600
 20
188.647673
 30
0.0
 10
71.914534
 20
188.173540
 30
0.0
 10
71.677467
 20
187.716340
 30
0.0
  0
LWPOLYLINE
  5
18c
100
AcDbEntity
  8
Layer_1
 62
7
100
AcDbPolyline
 90
1
 70
1
 10
58.342442
 20
178.750140
 30
0.0
  0
SPLINE
  5
18d
100
AcDbEntity
  8
Layer_1
 62
7
100
AcDbSpline
 70
8
 71
3
 72
8
 73
4
 74
0
 40
0
 40
0
 40
0
 40
0
 40
1
 40
1
 40
1
 40
1
 10
71.601267
 20
187.563940
 30
0.0
 10
71.567400
 20
187.496207
 30
0.0
 10
71.508134
 20
187.479273
 30
0.0
 10
71.423467
 20
187.513140
 30
0.0
  0
SPLINE
  5
18e
100
AcDbEntity
  8
Layer_1
 62
7
100
AcDbSpline
 70
8
 71
3
 72
8
 73
4
 74
0
 40
0
 40
0
 40
0
 40
0
 40
1
 40
1
 40
1
 40
1
 10
71.423467
 20
187.513140
 30
0.0
 10
71.338800
 20
187.563940
 30
0.0
 10
71.313400
 20
187.631673
 30
0.0
 10
71.347267
 20
187.716340
 30
0.0
  0
SPLINE
  5
18f
100
AcDbEntity
  8
Layer_1
 62
7
100
AcDbSpline
 70
8
 71
3
 72
8
 73
4
 74
0
 40
0
 40
0
 40
0
 40
0
 40
1
 40
1
 40
1
 40
1
 10
71.347267
 20
187.716340
 30
0.0
 10
71.601267
 20
188.207407
 30
0.0
 10
71.846800
 20
188.698473
 30
0.0
 10
72.083867
 20
189.189540
 30
0.0
  0
SPLINE
  5
190
100
AcDbEntity
  8
Layer_1
 62
7
100
AcDbSpline
 70
8
 71
3
 72
8
 73
4
 74
0
 40
0
 40
0
 40
0
 40
0
 40
1
 40
1
 40
1
 40
1
 10
72.083867
 20
189.189540
 30
0.0
 10
72.337867
 20
189.697540
 30
0.0
 10
72.566467
 20
190.197073
 30
0.0
 10
72.769667
 20
190.688140
 30
0.0
  0
SPLINE
  5
191
100
AcDbEntity
  8
Layer_1
 62
7
100
AcDbSpline
 70
8
 71
3
 72
8
 73
4
 74
0
 40
0
 40
0
 40
0
 40
0
 40
1
 40
1
 40
1
 40
1
 10
72.769667
 20
190.688140
 30
0.0
 10
72.955934
 20
191.111473
 30
0.0
 10
73.125267
 20
191.543273
 30
0.0
 10
73.277667
 20
191.983540
 30
0.0
  0
SPLINE
  5
192
100
AcDbEntity
  8
Layer_1
 62
7
100
AcDbSpline
 70
8
 71
3
 72
8
 73
4
 74
0
 40
0
 40
0
 40
0
 40
0
 40
1
 40
1
 40
1
 40
1
 10
73.277667
 20
191.983540
 30
0.0
 10
73.447000
 20
192.440740
 30
0.0
 10
73.582467
 20
192.872540
 30
0.0
 10
73.684067
 20
193.278940
 30
0.0
  0
SPLINE
  5
193
100
AcDbEntity
  8
Layer_1
 62
7
100
AcDbSpline
 70
8
 71
3
 72
8
 73
4
 74
0
 40
0
 40
0
 40
0
 40
0
 40
1
 40
1
 40
1
 40
1
 10
73.684067
 20
193.278940
 30
0.0
 10
73.430067
 20
193.549873
 30
0.0
 10
73.209934
 20
193.871607
 30
0.0
 10
73.023667
 20
194.244140
 30
0.0
  0
SPLINE
  5
194
100
AcDbEntity
  8
Layer_1
 62
7
100
AcDbSpline
 70
8
 71
3
 72
8
 73
4
 74
0
 40
0
 40
0
 40
0
 40
0
 40
1
 40
1
 40
1
 40
1
 10
73.023667
 20
194.244140
 30
0.0
 10
72.837400
 20
194.633607
 30
0.0
 10
72.812000
 20
195.014607
 30
0.0
 10
72.947467
 20
195.387140
 30
0.0
  0
SPLINE
  5
195
100
AcDbEntity
  8
Layer_1
 62
7
100
AcDbSpline
 70
8
 71
3
 72
8
 73
4
 74
0
 40
0
 40
0
 40
0
 40
0
 40
1
 40
1
 40
1
 40
1
 10
72.947467
 20
195.387140
 30
0.0
 10
73.032134
 20
195.658073
 30
0.0
 10
73.184534
 20
195.827407
 30
0.0
 10
73.404667
 20
195.895140
 30
0.0
  0
SPLINE
  5
196
100
AcDbEntity
  8
Layer_1
 62
7
100
AcDbSpline
 70
8
 71
3
 72
8
 73
4
 74
0
 40
0
 40
0
 40
0
 40
0
 40
1
 40
1
 40
1
 40
1
 10
73.404667
 20
195.895140
 30
0.0
 10
73.641734
 20
195.962873
 30
0.0
 10
73.853400
 20
195.878207
 30
0.0
 10
74.039667
 20
195.641140
 30
0.0
  0
SPLINE
  5
197
100
AcDbEntity
  8
Layer_1
 62
7
100
AcDbSpline
 70
8
 71
3
 72
8
 73
4
 74
0
 40
0
 40
0
 40
0
 40
0
 40
1
 40
1
 40
1
 40
1
 10
74.039667
 20
195.641140
 30
0.0
 10
74.158200
 20
195.505673
 30
0.0
 10
74.225934
 20
195.302473
 30
0.0
 10
74.242867
 20
195.031540
 30
0.0
  0
SPLINE
  5
198
100
AcDbEntity
  8
Layer_1
 62
7
100
AcDbSpline
 70
8
 71
3
 72
8
 73
4
 74
0
 40
0
 40
0
 40
0
 40
0
 40
1
 40
1
 40
1
 40
1
 10
74.242867
 20
195.031540
 30
0.0
 10
74.259800
 20
194.777540
 30
0.0
 10
74.242867
 20
194.481207
 30
0.0
 10
74.192067
 20
194.142540
 30
0.0
  0
SPLINE
  5
199
100
AcDbEntity
  8
Layer_1
 62
7
100
AcDbSpline
 70
8
 71
3
 72
8
 73
4
 74
0
 40
0
 40
0
 40
0
 40
0
 40
1
 40
1
 40
1
 40
1
 10
74.192067
 20
194.142540
 30
0.0
 10
74.446067
 20
193.905473
 30
0.0
 10
74.725467
 20
193.685340
 30
0.0
 10
75.030267
 20
193.482140
 30
0.0
  0
SPLINE
  5
19a
100
AcDbEntity
  8
Layer_1
 62
7
100
AcDbSpline
 70
8
 71
3
 72
8
 73
4
 74
0
 40
0
 40
0
 40
0
 40
0
 40
1
 40
1
 40
1
 40
1
 10
75.030267
 20
193.482140
 30
0.0
 10
75.335067
 20
193.278940
 30
0.0
 10
75.606000
 20
193.058807
 30
0.0
 10
75.843067
 20
192.821740
 30
0.0
  0
SPLINE
  5
19b
100
AcDbEntity
  8
Layer_1
 62
7
100
AcDbSpline
 70
8
 71
3
 72
8
 73
4
 74
0
 40
0
 40
0
 40
0
 40
0
 40
1
 40
1
 40
1
 40
1
 10
75.843067
 20
192.821740
 30
0.0
 10
76.097067
 20
192.584673
 30
0.0
 10
76.283334
 20
192.313740
 30
0.0
 10
76.401867
 20
192.008940
 30
0.0
  0
SPLINE
  5
19c
100
AcDbEntity
  8
Layer_1
 62
7
100
AcDbSpline
 70
8
 71
3
 72
8
 73
4
 74
0
 40
0
 40
0
 40
0
 40
0
 40
1
 40
1
 40
1
 40
1
 10
76.401867
 20
192.008940
 30
0.0
 10
76.537334
 20
191.721073
 30
0.0
 10
76.554267
 20
191.365473
 30
0.0
 10
76.452667
 20
190.942140
 30
0.0
  0
SPLINE
  5
19d
100
AcDbEntity
  8
Layer_1
 62
7
100
AcDbSpline
 70
8
 71
3
 72
8
 73
4
 74
0
 40
0
 40
0
 40
0
 40
0
 40
1
 40
1
 40
1
 40
1
 10
76.452667
 20
190.942140
 30
0.0
 10
76.317200
 20
190.349473
 30
0.0
 10
76.114000
 20
189.689073
 30
0.0
 10
75.843067
 20
188.960940
 30
0.0
  0
SPLINE
  5
19e
100
AcDbEntity
  8
Layer_1
 62
7
100
AcDbSpline
 70
8
 71
3
 72
8
 73
4
 74
0
 40
0
 40
0
 40
0
 40
0
 40
1
 40
1
 40
1
 40
1
 10
75.843067
 20
188.960940
 30
0.0
 10
75.589067
 20
188.232807
 30
0.0
 10
75.377400
 20
187.487740
 30
0.0
 10
75.208067
 20
186.725740
 30
0.0
  0
SPLINE
  5
19f
100
AcDbEntity
  8
Layer_1
 62
7
100
AcDbSpline
 70
8
 71
3
 72
8
 73
4
 74
0
 40
0
 40
0
 40
0
 40
0
 40
1
 40
1
 40
1
 40
1
 10
75.208067
 20
186.725740
 30
0.0
 10
75.157267
 20
186.471740
 30
0.0
 10
75.106467
 20
186.082273
 30
0.0
 10
75.055667
 20
185.557340
 30
0.0
  0
SPLINE
  5
1a0
100
AcDbEntity
  8
Layer_1
 62
7
100
AcDbSpline
 70
8
 71
3
 72
8
 73
4
 74
0
 40
0
 40
0
 40
0
 40
0
 40
1
 40
1
 40
1
 40
1
 10
75.055667
 20
185.557340
 30
0.0
 10
75.021800
 20
185.049340
 30
0.0
 10
75.038734
 20
184.575207
 30
0.0
 10
75.106467
 20
184.134940
 30
0.0
  0
SPLINE
  5
1a1
100
AcDbEntity
  8
Layer_1
 62
7
100
AcDbSpline
 70
8
 71
3
 72
8
 73
4
 74
0
 40
0
 40
0
 40
0
 40
0
 40
1
 40
1
 40
1
 40
1
 10
75.106467
 20
184.134940
 30
0.0
 10
75.191134
 20
183.694673
 30
0.0
 10
75.343534
 20
183.381407
 30
0.0
 10
75.563667
 20
183.195140
 30
0.0
  0
SPLINE
  5
1a2
100
AcDbEntity
  8
Layer_1
 62
7
100
AcDbSpline
 70
8
 71
3
 72
8
 73
4
 74
0
 40
0
 40
0
 40
0
 40
0
 40
1
 40
1
 40
1
 40
1
 10
75.563667
 20
183.195140
 30
0.0
 10
75.800734
 20
183.025807
 30
0.0
 10
76.164800
 20
183.152807
 30
0.0
 10
76.655867
 20
183.576140
 30
0.0
  0
SPLINE
  5
1a3
100
AcDbEntity
  8
Layer_1
 62
7
100
AcDbSpline
 70
8
 71
3
 72
8
 73
4
 74
0
 40
0
 40
0
 40
0
 40
0
 40
1
 40
1
 40
1
 40
1
 10
76.655867
 20
183.576140
 30
0.0
 10
77.180800
 20
184.033340
 30
0.0
 10
77.638000
 20
184.549807
 30
0.0
 10
78.027467
 20
185.125540
 30
0.0
  0
SPLINE
  5
1a4
100
AcDbEntity
  8
Layer_1
 62
7
100
AcDbSpline
 70
8
 71
3
 72
8
 73
4
 74
0
 40
0
 40
0
 40
0
 40
0
 40
1
 40
1
 40
1
 40
1
 10
78.027467
 20
185.125540
 30
0.0
 10
78.433867
 20
185.701273
 30
0.0
 10
78.814867
 20
186.293940
 30
0.0
 10
79.170467
 20
186.903540
 30
0.0
  0
LWPOLYLINE
  5
1a5
100
AcDbEntity
  8
Layer_1
 62
7
100
AcDbPolyline
 90
2
 70
0
 10
71.677467
 20
187.716340
 30
0.0
 10
71.601267
 20
187.563940
 30
0.0
  0
SPLINE
  5
1a6
100
AcDbEntity
  8
Layer_1
 62
7
100
AcDbSpline
 70
8
 71
3
 72
8
 73
4
 74
0
 40
0
 40
0
 40
0
 40
0
 40
1
 40
1
 40
1
 40
1
 10
79.729267
 20
187.944940
 30
0.0
 10
79.746200
 20
187.995740
 30
0.0
 10
79.813934
 20
188.021140
 30
0.0
 10
79.932467
 20
188.021140
 30
0.0
  0
SPLINE
  5
1a7
100
AcDbEntity
  8
Layer_1
 62
7
100
AcDbSpline
 70
8
 71
3
 72
8
 73
4
 74
0
 40
0
 40
0
 40
0
 40
0
 40
1
 40
1
 40
1
 40
1
 10
79.932467
 20
188.021140
 30
0.0
 10
80.051000
 20
188.038073
 30
0.0
 10
80.076400
 20
187.970340
 30
0.0
 10
80.008667
 20
187.817940
 30
0.0
  0
LWPOLYLINE
  5
1a8
100
AcDbEntity
  8
Layer_1
 62
7
100
AcDbPolyline
 90
3
 70
0
 10
79.170467
 20
186.903540
 30
0.0
 10
79.653067
 20
187.817940
 30
0.0
 10
79.729267
 20
187.944940
 30
0.0
  0
SPLINE
  5
1a9
100
AcDbEntity
  8
Layer_1
 62
7
100
AcDbSpline
 70
8
 71
3
 72
8
 73
4
 74
0
 40
0
 40
0
 40
0
 40
0
 40
1
 40
1
 40
1
 40
1
 10
79.399067
 20
186.700340
 30
0.0
 10
79.060400
 20
186.090740
 30
0.0
 10
78.687867
 20
185.489607
 30
0.0
 10
78.281467
 20
184.896940
 30
0.0
  0
SPLINE
  5
1aa
100
AcDbEntity
  8
Layer_1
 62
7
100
AcDbSpline
 70
8
 71
3
 72
8
 73
4
 74
0
 40
0
 40
0
 40
0
 40
0
 40
1
 40
1
 40
1
 40
1
 10
78.281467
 20
184.896940
 30
0.0
 10
77.875067
 20
184.321207
 30
0.0
 10
77.400934
 20
183.804740
 30
0.0
 10
76.859067
 20
183.347540
 30
0.0
  0
SPLINE
  5
1ab
100
AcDbEntity
  8
Layer_1
 62
7
100
AcDbSpline
 70
8
 71
3
 72
8
 73
4
 74
0
 40
0
 40
0
 40
0
 40
0
 40
1
 40
1
 40
1
 40
1
 10
76.859067
 20
183.347540
 30
0.0
 10
76.469600
 20
183.008873
 30
0.0
 10
76.088600
 20
182.771807
 30
0.0
 10
75.716067
 20
182.636340
 30
0.0
  0
SPLINE
  5
1ac
100
AcDbEntity
  8
Layer_1
 62
7
100
AcDbSpline
 70
8
 71
3
 72
8
 73
4
 74
0
 40
0
 40
0
 40
0
 40
0
 40
1
 40
1
 40
1
 40
1
 10
75.716067
 20
182.636340
 30
0.0
 10
75.343534
 20
182.517807
 30
0.0
 10
75.004867
 20
182.500873
 30
0.0
 10
74.700067
 20
182.585540
 30
0.0
  0
SPLINE
  5
1ad
100
AcDbEntity
  8
Layer_1
 62
7
100
AcDbSpline
 70
8
 71
3
 72
8
 73
4
 74
0
 40
0
 40
0
 40
0
 40
0
 40
1
 40
1
 40
1
 40
1
 10
74.700067
 20
182.585540
 30
0.0
 10
74.412200
 20
182.687140
 30
0.0
 10
74.158200
 20
182.890340
 30
0.0
 10
73.938067
 20
183.195140
 30
0.0
  0
SPLINE
  5
1ae
100
AcDbEntity
  8
Layer_1
 62
7
100
AcDbSpline
 70
8
 71
3
 72
8
 73
4
 74
0
 40
0
 40
0
 40
0
 40
0
 40
1
 40
1
 40
1
 40
1
 10
73.938067
 20
183.195140
 30
0.0
 10
73.734867
 20
183.499940
 30
0.0
 10
73.607867
 20
183.906340
 30
0.0
 10
73.557067
 20
184.414340
 30
0.0
  0
LWPOLYLINE
  5
1af
100
AcDbEntity
  8
Layer_1
 62
7
100
AcDbPolyline
 90
2
 70
0
 10
80.008667
 20
187.817940
 30
0.0
 10
79.399067
 20
186.700340
 30
0.0
  0
SPLINE
  5
1b0
100
AcDbEntity
  8
Layer_1
 62
7
100
AcDbSpline
 70
8
 71
3
 72
8
 73
4
 74
0
 40
0
 40
0
 40
0
 40
0
 40
1
 40
1
 40
1
 40
1
 10
73.455467
 20
195.336340
 30
0.0
 10
73.540134
 20
194.980740
 30
0.0
 10
73.701000
 20
194.667473
 30
0.0
 10
73.938067
 20
194.396540
 30
0.0
  0
SPLINE
  5
1b1
100
AcDbEntity
  8
Layer_1
 62
7
100
AcDbSpline
 70
8
 71
3
 72
8
 73
4
 74
0
 40
0
 40
0
 40
0
 40
0
 40
1
 40
1
 40
1
 40
1
 10
73.938067
 20
194.396540
 30
0.0
 10
73.971934
 20
194.684407
 30
0.0
 10
73.955000
 20
194.921473
 30
0.0
 10
73.887267
 20
195.107740
 30
0.0
  0
SPLINE
  5
1b2
100
AcDbEntity
  8
Layer_1
 62
7
100
AcDbSpline
 70
8
 71
3
 72
8
 73
4
 74
0
 40
0
 40
0
 40
0
 40
0
 40
1
 40
1
 40
1
 40
1
 10
73.887267
 20
195.107740
 30
0.0
 10
73.836467
 20
195.310940
 30
0.0
 10
73.768734
 20
195.454873
 30
0.0
 10
73.684067
 20
195.539540
 30
0.0
  0
SPLINE
  5
1b3
100
AcDbEntity
  8
Layer_1
 62
7
100
AcDbSpline
 70
8
 71
3
 72
8
 73
4
 74
0
 40
0
 40
0
 40
0
 40
0
 40
1
 40
1
 40
1
 40
1
 10
73.684067
 20
195.539540
 30
0.0
 10
73.616334
 20
195.624207
 30
0.0
 10
73.548600
 20
195.649607
 30
0.0
 10
73.480867
 20
195.615740
 30
0.0
  0
SPLINE
  5
1b4
100
AcDbEntity
  8
Layer_1
 62
7
100
AcDbSpline
 70
8
 71
3
 72
8
 73
4
 74
0
 40
0
 40
0
 40
0
 40
0
 40
1
 40
1
 40
1
 40
1
 10
73.480867
 20
195.615740
 30
0.0
 10
73.430067
 20
195.581873
 30
0.0
 10
73.421600
 20
195.488740
 30
0.0
 10
73.455467
 20
195.336340
 30
0.0
  0
LWPOLYLINE
  5
1b5
100
AcDbEntity
  8
Layer_1
 62
7
100
AcDbPolyline
 90
1
 70
1
 10
73.557067
 20
184.414340
 30
0.0
  0
SPLINE
  5
1b6
100
AcDbEntity
  8
Layer_1
 62
7
100
AcDbSpline
 70
8
 71
3
 72
8
 73
4
 74
0
 40
0
 40
0
 40
0
 40
0
 40
1
 40
1
 40
1
 40
1
 10
99.693704
 20
193.786940
 30
0.0
 10
99.744504
 20
193.854673
 30
0.0
 10
99.812237
 20
193.871607
 30
0.0
 10
99.896904
 20
193.837740
 30
0.0
  0
SPLINE
  5
1b7
100
AcDbEntity
  8
Layer_1
 62
7
100
AcDbSpline
 70
8
 71
3
 72
8
 73
4
 74
0
 40
0
 40
0
 40
0
 40
0
 40
1
 40
1
 40
1
 40
1
 10
99.896904
 20
193.837740
 30
0.0
 10
99.981568
 20
193.786940
 30
0.0
 10
100.006968
 20
193.710740
 30
0.0
 10
99.973104
 20
193.609140
 30
0.0
  0
SPLINE
  5
1b8
100
AcDbEntity
  8
Layer_1
 62
7
100
AcDbSpline
 70
8
 71
3
 72
8
 73
4
 74
0
 40
0
 40
0
 40
0
 40
0
 40
1
 40
1
 40
1
 40
1
 10
99.973104
 20
193.609140
 30
0.0
 10
99.465104
 20
192.643940
 30
0.0
 10
98.880904
 20
191.992007
 30
0.0
 10
98.220505
 20
191.653340
 30
0.0
  0
SPLINE
  5
1b9
100
AcDbEntity
  8
Layer_1
 62
7
100
AcDbSpline
 70
8
 71
3
 72
8
 73
4
 74
0
 40
0
 40
0
 40
0
 40
0
 40
1
 40
1
 40
1
 40
1
 10
98.220505
 20
191.653340
 30
0.0
 10
97.560105
 20
191.314673
 30
0.0
 10
96.891238
 20
191.213073
 30
0.0
 10
96.213905
 20
191.348540
 30
0.0
  0
SPLINE
  5
1ba
100
AcDbEntity
  8
Layer_1
 62
7
100
AcDbSpline
 70
8
 71
3
 72
8
 73
4
 74
0
 40
0
 40
0
 40
0
 40
0
 40
1
 40
1
 40
1
 40
1
 10
96.213905
 20
191.348540
 30
0.0
 10
95.536572
 20
191.484007
 30
0.0
 10
94.876172
 20
191.805740
 30
0.0
 10
94.232705
 20
192.313740
 30
0.0
  0
SPLINE
  5
1bb
100
AcDbEntity
  8
Layer_1
 62
7
100
AcDbSpline
 70
8
 71
3
 72
8
 73
4
 74
0
 40
0
 40
0
 40
0
 40
0
 40
1
 40
1
 40
1
 40
1
 10
94.232705
 20
192.313740
 30
0.0
 10
93.606172
 20
192.821740
 30
0.0
 10
93.055838
 20
193.431340
 30
0.0
 10
92.581705
 20
194.142540
 30
0.0
  0
SPLINE
  5
1bc
100
AcDbEntity
  8
Layer_1
 62
7
100
AcDbSpline
 70
8
 71
3
 72
8
 73
4
 74
0
 40
0
 40
0
 40
0
 40
0
 40
1
 40
1
 40
1
 40
1
 10
92.581705
 20
194.142540
 30
0.0
 10
92.124505
 20
194.870673
 30
0.0
 10
91.768905
 20
195.649607
 30
0.0
 10
91.514905
 20
196.479340
 30
0.0
  0
SPLINE
  5
1bd
100
AcDbEntity
  8
Layer_1
 62
7
100
AcDbSpline
 70
8
 71
3
 72
8
 73
4
 74
0
 40
0
 40
0
 40
0
 40
0
 40
1
 40
1
 40
1
 40
1
 10
91.514905
 20
196.479340
 30
0.0
 10
91.277838
 20
197.326005
 30
0.0
 10
91.218572
 20
198.138804
 30
0.0
 10
91.337105
 20
198.917737
 30
0.0
  0
SPLINE
  5
1be
100
AcDbEntity
  8
Layer_1
 62
7
100
AcDbSpline
 70
8
 71
3
 72
8
 73
4
 74
0
 40
0
 40
0
 40
0
 40
0
 40
1
 40
1
 40
1
 40
1
 10
91.337105
 20
198.917737
 30
0.0
 10
91.455638
 20
199.696670
 30
0.0
 10
91.768905
 20
200.407870
 30
0.0
 10
92.276905
 20
201.051337
 30
0.0
  0
SPLINE
  5
1bf
100
AcDbEntity
  8
Layer_1
 62
7
100
AcDbSpline
 70
8
 71
3
 72
8
 73
4
 74
0
 40
0
 40
0
 40
0
 40
0
 40
1
 40
1
 40
1
 40
1
 10
92.276905
 20
201.051337
 30
0.0
 10
92.801838
 20
201.694804
 30
0.0
 10
93.597705
 20
202.177404
 30
0.0
 10
94.664505
 20
202.499137
 30
0.0
  0
SPLINE
  5
1c0
100
AcDbEntity
  8
Layer_1
 62
7
100
AcDbSpline
 70
8
 71
3
 72
8
 73
4
 74
0
 40
0
 40
0
 40
0
 40
0
 40
1
 40
1
 40
1
 40
1
 10
94.664505
 20
202.499137
 30
0.0
 10
95.426505
 20
202.736204
 30
0.0
 10
96.281638
 20
202.803937
 30
0.0
 10
97.229905
 20
202.702337
 30
0.0
  0
SPLINE
  5
1c1
100
AcDbEntity
  8
Layer_1
 62
7
100
AcDbSpline
 70
8
 71
3
 72
8
 73
4
 74
0
 40
0
 40
0
 40
0
 40
0
 40
1
 40
1
 40
1
 40
1
 10
97.229905
 20
202.702337
 30
0.0
 10
98.195104
 20
202.617670
 30
0.0
 10
99.177236
 20
202.448337
 30
0.0
 10
100.176300
 20
202.194337
 30
0.0
  0
SPLINE
  5
1c2
100
AcDbEntity
  8
Layer_1
 62
7
100
AcDbSpline
 70
8
 71
3
 72
8
 73
4
 74
0
 40
0
 40
0
 40
0
 40
0
 40
1
 40
1
 40
1
 40
1
 10
100.176300
 20
202.194337
 30
0.0
 10
101.175367
 20
201.957270
 30
0.0
 10
102.157500
 20
201.677870
 30
0.0
 10
103.122700
 20
201.356137
 30
0.0
  0
SPLINE
  5
1c3
100
AcDbEntity
  8
Layer_1
 62
7
100
AcDbSpline
 70
8
 71
3
 72
8
 73
4
 74
0
 40
0
 40
0
 40
0
 40
0
 40
1
 40
1
 40
1
 40
1
 10
103.122700
 20
201.356137
 30
0.0
 10
104.104833
 20
201.034404
 30
0.0
 10
105.002300
 20
200.763470
 30
0.0
 10
105.815100
 20
200.543337
 30
0.0
  0
SPLINE
  5
1c4
100
AcDbEntity
  8
Layer_1
 62
7
100
AcDbSpline
 70
8
 71
3
 72
8
 73
4
 74
0
 40
0
 40
0
 40
0
 40
0
 40
1
 40
1
 40
1
 40
1
 10
105.815100
 20
200.543337
 30
0.0
 10
106.170700
 20
200.932804
 30
0.0
 10
106.551700
 20
201.263004
 30
0.0
 10
106.958100
 20
201.533937
 30
0.0
  0
SPLINE
  5
1c5
100
AcDbEntity
  8
Layer_1
 62
7
100
AcDbSpline
 70
8
 71
3
 72
8
 73
4
 74
0
 40
0
 40
0
 40
0
 40
0
 40
1
 40
1
 40
1
 40
1
 10
106.958100
 20
201.533937
 30
0.0
 10
107.381433
 20
201.821804
 30
0.0
 10
107.838633
 20
202.058870
 30
0.0
 10
108.329700
 20
202.245137
 30
0.0
  0
SPLINE
  5
1c6
100
AcDbEntity
  8
Layer_1
 62
7
100
AcDbSpline
 70
8
 71
3
 72
8
 73
4
 74
0
 40
0
 40
0
 40
0
 40
0
 40
1
 40
1
 40
1
 40
1
 10
108.329700
 20
202.245137
 30
0.0
 10
109.142500
 20
202.533004
 30
0.0
 10
109.853700
 20
202.643070
 30
0.0
 10
110.463300
 20
202.575337
 30
0.0
  0
SPLINE
  5
1c7
100
AcDbEntity
  8
Layer_1
 62
7
100
AcDbSpline
 70
8
 71
3
 72
8
 73
4
 74
0
 40
0
 40
0
 40
0
 40
0
 40
1
 40
1
 40
1
 40
1
 10
110.463300
 20
202.575337
 30
0.0
 10
111.072900
 20
202.507604
 30
0.0
 10
111.572433
 20
202.346737
 30
0.0
 10
111.961900
 20
202.092737
 30
0.0
  0
SPLINE
  5
1c8
100
AcDbEntity
  8
Layer_1
 62
7
100
AcDbSpline
 70
8
 71
3
 72
8
 73
4
 74
0
 40
0
 40
0
 40
0
 40
0
 40
1
 40
1
 40
1
 40
1
 10
111.961900
 20
202.092737
 30
0.0
 10
112.266700
 20
201.872604
 30
0.0
 10
112.486833
 20
201.593204
 30
0.0
 10
112.622300
 20
201.254537
 30
0.0
  0
SPLINE
  5
1c9
100
AcDbEntity
  8
Layer_1
 62
7
100
AcDbSpline
 70
8
 71
3
 72
8
 73
4
 74
0
 40
0
 40
0
 40
0
 40
0
 40
1
 40
1
 40
1
 40
1
 10
112.622300
 20
201.254537
 30
0.0
 10
112.757767
 20
200.932804
 30
0.0
 10
112.715433
 20
200.611070
 30
0.0
 10
112.495300
 20
200.289337
 30
0.0
  0
SPLINE
  5
1ca
100
AcDbEntity
  8
Layer_1
 62
7
100
AcDbSpline
 70
8
 71
3
 72
8
 73
4
 74
0
 40
0
 40
0
 40
0
 40
0
 40
1
 40
1
 40
1
 40
1
 10
112.495300
 20
200.289337
 30
0.0
 10
112.258233
 20
199.899870
 30
0.0
 10
111.902633
 20
199.645870
 30
0.0
 10
111.428500
 20
199.527337
 30
0.0
  0
SPLINE
  5
1cb
100
AcDbEntity
  8
Layer_1
 62
7
100
AcDbSpline
 70
8
 71
3
 72
8
 73
4
 74
0
 40
0
 40
0
 40
0
 40
0
 40
1
 40
1
 40
1
 40
1
 10
111.428500
 20
199.527337
 30
0.0
 10
110.954367
 20
199.408804
 30
0.0
 10
110.437900
 20
199.366470
 30
0.0
 10
109.879100
 20
199.400337
 30
0.0
  0
SPLINE
  5
1cc
100
AcDbEntity
  8
Layer_1
 62
7
100
AcDbSpline
 70
8
 71
3
 72
8
 73
4
 74
0
 40
0
 40
0
 40
0
 40
0
 40
1
 40
1
 40
1
 40
1
 10
109.879100
 20
199.400337
 30
0.0
 10
109.320300
 20
199.434204
 30
0.0
 10
108.761500
 20
199.510404
 30
0.0
 10
108.202700
 20
199.628937
 30
0.0
  0
SPLINE
  5
1cd
100
AcDbEntity
  8
Layer_1
 62
7
100
AcDbSpline
 70
8
 71
3
 72
8
 73
4
 74
0
 40
0
 40
0
 40
0
 40
0
 40
1
 40
1
 40
1
 40
1
 10
108.202700
 20
199.628937
 30
0.0
 10
107.643900
 20
199.747470
 30
0.0
 10
107.169767
 20
199.857537
 30
0.0
 10
106.780300
 20
199.959137
 30
0.0
  0
SPLINE
  5
1ce
100
AcDbEntity
  8
Layer_1
 62
7
100
AcDbSpline
 70
8
 71
3
 72
8
 73
4
 74
0
 40
0
 40
0
 40
0
 40
0
 40
1
 40
1
 40
1
 40
1
 10
106.780300
 20
199.959137
 30
0.0
 10
106.035233
 20
199.027804
 30
0.0
 10
105.434100
 20
197.969471
 30
0.0
 10
104.976900
 20
196.784140
 30
0.0
  0
SPLINE
  5
1cf
100
AcDbEntity
  8
Layer_1
 62
7
100
AcDbSpline
 70
8
 71
3
 72
8
 73
4
 74
0
 40
0
 40
0
 40
0
 40
0
 40
1
 40
1
 40
1
 40
1
 10
104.976900
 20
196.784140
 30
0.0
 10
104.519700
 20
195.598807
 30
0.0
 10
104.104833
 20
194.371140
 30
0.0
 10
103.732300
 20
193.101140
 30
0.0
  0
SPLINE
  5
1d0
100
AcDbEntity
  8
Layer_1
 62
7
100
AcDbSpline
 70
8
 71
3
 72
8
 73
4
 74
0
 40
0
 40
0
 40
0
 40
0
 40
1
 40
1
 40
1
 40
1
 10
103.732300
 20
193.101140
 30
0.0
 10
103.376700
 20
191.831140
 30
0.0
 10
103.012633
 20
190.561140
 30
0.0
 10
102.640100
 20
189.291140
 30
0.0
  0
SPLINE
  5
1d1
100
AcDbEntity
  8
Layer_1
 62
7
100
AcDbSpline
 70
8
 71
3
 72
8
 73
4
 74
0
 40
0
 40
0
 40
0
 40
0
 40
1
 40
1
 40
1
 40
1
 10
102.640100
 20
189.291140
 30
0.0
 10
102.267567
 20
188.038073
 30
0.0
 10
101.793433
 20
186.878140
 30
0.0
 10
101.217700
 20
185.811340
 30
0.0
  0
SPLINE
  5
1d2
100
AcDbEntity
  8
Layer_1
 62
7
100
AcDbSpline
 70
8
 71
3
 72
8
 73
4
 74
0
 40
0
 40
0
 40
0
 40
0
 40
1
 40
1
 40
1
 40
1
 10
101.217700
 20
185.811340
 30
0.0
 10
100.658900
 20
184.744540
 30
0.0
 10
99.947701
 20
183.821673
 30
0.0
 10
99.084104
 20
183.042740
 30
0.0
  0
SPLINE
  5
1d3
100
AcDbEntity
  8
Layer_1
 62
7
100
AcDbSpline
 70
8
 71
3
 72
8
 73
4
 74
0
 40
0
 40
0
 40
0
 40
0
 40
1
 40
1
 40
1
 40
1
 10
99.084104
 20
183.042740
 30
0.0
 10
98.220505
 20
182.263807
 30
0.0
 10
97.111372
 20
181.713473
 30
0.0
 10
95.756705
 20
181.391740
 30
0.0
  0
SPLINE
  5
1d4
100
AcDbEntity
  8
Layer_1
 62
7
100
AcDbSpline
 70
8
 71
3
 72
8
 73
4
 74
0
 40
0
 40
0
 40
0
 40
0
 40
1
 40
1
 40
1
 40
1
 10
95.756705
 20
181.391740
 30
0.0
 10
94.842305
 20
181.171607
 30
0.0
 10
93.902505
 20
181.120807
 30
0.0
 10
92.937305
 20
181.239340
 30
0.0
  0
SPLINE
  5
1d5
100
AcDbEntity
  8
Layer_1
 62
7
100
AcDbSpline
 70
8
 71
3
 72
8
 73
4
 74
0
 40
0
 40
0
 40
0
 40
0
 40
1
 40
1
 40
1
 40
1
 10
92.937305
 20
181.239340
 30
0.0
 10
91.989038
 20
181.357873
 30
0.0
 10
91.040772
 20
181.662673
 30
0.0
 10
90.092505
 20
182.153740
 30
0.0
  0
SPLINE
  5
1d6
100
AcDbEntity
  8
Layer_1
 62
7
100
AcDbSpline
 70
8
 71
3
 72
8
 73
4
 74
0
 40
0
 40
0
 40
0
 40
0
 40
1
 40
1
 40
1
 40
1
 10
90.092505
 20
182.153740
 30
0.0
 10
89.262772
 20
182.594007
 30
0.0
 10
88.576972
 20
183.135873
 30
0.0
 10
88.035105
 20
183.779340
 30
0.0
  0
SPLINE
  5
1d7
100
AcDbEntity
  8
Layer_1
 62
7
100
AcDbSpline
 70
8
 71
3
 72
8
 73
4
 74
0
 40
0
 40
0
 40
0
 40
0
 40
1
 40
1
 40
1
 40
1
 10
88.035105
 20
183.779340
 30
0.0
 10
87.493238
 20
184.422807
 30
0.0
 10
87.086838
 20
185.100140
 30
0.0
 10
86.815905
 20
185.811340
 30
0.0
  0
SPLINE
  5
1d8
100
AcDbEntity
  8
Layer_1
 62
7
100
AcDbSpline
 70
8
 71
3
 72
8
 73
4
 74
0
 40
0
 40
0
 40
0
 40
0
 40
1
 40
1
 40
1
 40
1
 10
86.815905
 20
185.811340
 30
0.0
 10
86.561905
 20
186.539473
 30
0.0
 10
86.426438
 20
187.259140
 30
0.0
 10
86.409505
 20
187.970340
 30
0.0
  0
SPLINE
  5
1d9
100
AcDbEntity
  8
Layer_1
 62
7
100
AcDbSpline
 70
8
 71
3
 72
8
 73
4
 74
0
 40
0
 40
0
 40
0
 40
0
 40
1
 40
1
 40
1
 40
1
 10
86.409505
 20
187.970340
 30
0.0
 10
86.409505
 20
188.698473
 30
0.0
 10
86.528038
 20
189.367340
 30
0.0
 10
86.765105
 20
189.976940
 30
0.0
  0
SPLINE
  5
1da
100
AcDbEntity
  8
Layer_1
 62
7
100
AcDbSpline
 70
8
 71
3
 72
8
 73
4
 74
0
 40
0
 40
0
 40
0
 40
0
 40
1
 40
1
 40
1
 40
1
 10
86.765105
 20
189.976940
 30
0.0
 10
87.019105
 20
190.586540
 30
0.0
 10
87.383172
 20
191.103007
 30
0.0
 10
87.857305
 20
191.526340
 30
0.0
  0
SPLINE
  5
1db
100
AcDbEntity
  8
Layer_1
 62
7
100
AcDbSpline
 70
8
 71
3
 72
8
 73
4
 74
0
 40
0
 40
0
 40
0
 40
0
 40
1
 40
1
 40
1
 40
1
 10
87.857305
 20
191.526340
 30
0.0
 10
88.348372
 20
191.949673
 30
0.0
 10
88.949505
 20
192.212140
 30
0.0
 10
89.660705
 20
192.313740
 30
0.0
  0
SPLINE
  5
1dc
100
AcDbEntity
  8
Layer_1
 62
7
100
AcDbSpline
 70
8
 71
3
 72
8
 73
4
 74
0
 40
0
 40
0
 40
0
 40
0
 40
1
 40
1
 40
1
 40
1
 10
89.660705
 20
192.313740
 30
0.0
 10
90.219505
 20
192.398407
 30
0.0
 10
90.778305
 20
192.373007
 30
0.0
 10
91.337105
 20
192.237540
 30
0.0
  0
SPLINE
  5
1dd
100
AcDbEntity
  8
Layer_1
 62
7
100
AcDbSpline
 70
8
 71
3
 72
8
 73
4
 74
0
 40
0
 40
0
 40
0
 40
0
 40
1
 40
1
 40
1
 40
1
 10
91.337105
 20
192.237540
 30
0.0
 10
91.912838
 20
192.102073
 30
0.0
 10
92.437772
 20
191.873473
 30
0.0
 10
92.911905
 20
191.551740
 30
0.0
  0
SPLINE
  5
1de
100
AcDbEntity
  8
Layer_1
 62
7
100
AcDbSpline
 70
8
 71
3
 72
8
 73
4
 74
0
 40
0
 40
0
 40
0
 40
0
 40
1
 40
1
 40
1
 40
1
 10
92.911905
 20
191.551740
 30
0.0
 10
93.402972
 20
191.246940
 30
0.0
 10
93.826305
 20
190.857473
 30
0.0
 10
94.181905
 20
190.383340
 30
0.0
  0
SPLINE
  5
1df
100
AcDbEntity
  8
Layer_1
 62
7
100
AcDbSpline
 70
8
 71
3
 72
8
 73
4
 74
0
 40
0
 40
0
 40
0
 40
0
 40
1
 40
1
 40
1
 40
1
 10
94.181905
 20
190.383340
 30
0.0
 10
94.554438
 20
189.909207
 30
0.0
 10
94.816905
 20
189.375807
 30
0.0
 10
94.969305
 20
188.783140
 30
0.0
  0
SPLINE
  5
1e0
100
AcDbEntity
  8
Layer_1
 62
7
100
AcDbSpline
 70
8
 71
3
 72
8
 73
4
 74
0
 40
0
 40
0
 40
0
 40
0
 40
1
 40
1
 40
1
 40
1
 10
94.969305
 20
188.783140
 30
0.0
 10
95.003172
 20
188.681540
 30
0.0
 10
94.960838
 20
188.630740
 30
0.0
 10
94.842305
 20
188.630740
 30
0.0
  0
SPLINE
  5
1e1
100
AcDbEntity
  8
Layer_1
 62
7
100
AcDbSpline
 70
8
 71
3
 72
8
 73
4
 74
0
 40
0
 40
0
 40
0
 40
0
 40
1
 40
1
 40
1
 40
1
 10
94.842305
 20
188.630740
 30
0.0
 10
94.757638
 20
188.596873
 30
0.0
 10
94.698372
 20
188.639207
 30
0.0
 10
94.664505
 20
188.757740
 30
0.0
  0
SPLINE
  5
1e2
100
AcDbEntity
  8
Layer_1
 62
7
100
AcDbSpline
 70
8
 71
3
 72
8
 73
4
 74
0
 40
0
 40
0
 40
0
 40
0
 40
1
 40
1
 40
1
 40
1
 10
94.664505
 20
188.757740
 30
0.0
 10
94.529038
 20
189.299607
 30
0.0
 10
94.291972
 20
189.773740
 30
0.0
 10
93.953305
 20
190.180140
 30
0.0
  0
SPLINE
  5
1e3
100
AcDbEntity
  8
Layer_1
 62
7
100
AcDbSpline
 70
8
 71
3
 72
8
 73
4
 74
0
 40
0
 40
0
 40
0
 40
0
 40
1
 40
1
 40
1
 40
1
 10
93.953305
 20
190.180140
 30
0.0
 10
93.614638
 20
190.586540
 30
0.0
 10
93.225172
 20
190.916740
 30
0.0
 10
92.784905
 20
191.170740
 30
0.0
  0
SPLINE
  5
1e4
100
AcDbEntity
  8
Layer_1
 62
7
100
AcDbSpline
 70
8
 71
3
 72
8
 73
4
 74
0
 40
0
 40
0
 40
0
 40
0
 40
1
 40
1
 40
1
 40
1
 10
92.784905
 20
191.170740
 30
0.0
 10
92.344638
 20
191.441673
 30
0.0
 10
91.862038
 20
191.627940
 30
0.0
 10
91.337105
 20
191.729540
 30
0.0
  0
SPLINE
  5
1e5
100
AcDbEntity
  8
Layer_1
 62
7
100
AcDbSpline
 70
8
 71
3
 72
8
 73
4
 74
0
 40
0
 40
0
 40
0
 40
0
 40
1
 40
1
 40
1
 40
1
 10
91.337105
 20
191.729540
 30
0.0
 10
90.812172
 20
191.831140
 30
0.0
 10
90.287238
 20
191.839607
 30
0.0
 10
89.762305
 20
191.754940
 30
0.0
  0
SPLINE
  5
1e6
100
AcDbEntity
  8
Layer_1
 62
7
100
AcDbSpline
 70
8
 71
3
 72
8
 73
4
 74
0
 40
0
 40
0
 40
0
 40
0
 40
1
 40
1
 40
1
 40
1
 10
89.762305
 20
191.754940
 30
0.0
 10
89.084972
 20
191.653340
 30
0.0
 10
88.517705
 20
191.407807
 30
0.0
 10
88.060505
 20
191.018340
 30
0.0
  0
SPLINE
  5
1e7
100
AcDbEntity
  8
Layer_1
 62
7
100
AcDbSpline
 70
8
 71
3
 72
8
 73
4
 74
0
 40
0
 40
0
 40
0
 40
0
 40
1
 40
1
 40
1
 40
1
 10
88.060505
 20
191.018340
 30
0.0
 10
87.620238
 20
190.628873
 30
0.0
 10
87.281572
 20
190.154740
 30
0.0
 10
87.044505
 20
189.595940
 30
0.0
  0
SPLINE
  5
1e8
100
AcDbEntity
  8
Layer_1
 62
7
100
AcDbSpline
 70
8
 71
3
 72
8
 73
4
 74
0
 40
0
 40
0
 40
0
 40
0
 40
1
 40
1
 40
1
 40
1
 10
87.044505
 20
189.595940
 30
0.0
 10
86.824372
 20
189.054073
 30
0.0
 10
86.714305
 20
188.452940
 30
0.0
 10
86.714305
 20
187.792540
 30
0.0
  0
SPLINE
  5
1e9
100
AcDbEntity
  8
Layer_1
 62
7
100
AcDbSpline
 70
8
 71
3
 72
8
 73
4
 74
0
 40
0
 40
0
 40
0
 40
0
 40
1
 40
1
 40
1
 40
1
 10
86.714305
 20
187.792540
 30
0.0
 10
86.731238
 20
187.132140
 30
0.0
 10
86.866705
 20
186.471740
 30
0.0
 10
87.120705
 20
185.811340
 30
0.0
  0
SPLINE
  5
1ea
100
AcDbEntity
  8
Layer_1
 62
7
100
AcDbSpline
 70
8
 71
3
 72
8
 73
4
 74
0
 40
0
 40
0
 40
0
 40
0
 40
1
 40
1
 40
1
 40
1
 10
87.120705
 20
185.811340
 30
0.0
 10
87.374705
 20
185.167873
 30
0.0
 10
87.755705
 20
184.549807
 30
0.0
 10
88.263705
 20
183.957140
 30
0.0
  0
SPLINE
  5
1eb
100
AcDbEntity
  8
Layer_1
 62
7
100
AcDbSpline
 70
8
 71
3
 72
8
 73
4
 74
0
 40
0
 40
0
 40
0
 40
0
 40
1
 40
1
 40
1
 40
1
 10
88.263705
 20
183.957140
 30
0.0
 10
88.788638
 20
183.364473
 30
0.0
 10
89.440572
 20
182.856473
 30
0.0
 10
90.219505
 20
182.433140
 30
0.0
  0
SPLINE
  5
1ec
100
AcDbEntity
  8
Layer_1
 62
7
100
AcDbSpline
 70
8
 71
3
 72
8
 73
4
 74
0
 40
0
 40
0
 40
0
 40
0
 40
1
 40
1
 40
1
 40
1
 10
90.219505
 20
182.433140
 30
0.0
 10
91.608038
 20
181.688073
 30
0.0
 10
92.878038
 20
181.383273
 30
0.0
 10
94.029505
 20
181.518740
 30
0.0
  0
SPLINE
  5
1ed
100
AcDbEntity
  8
Layer_1
 62
7
100
AcDbSpline
 70
8
 71
3
 72
8
 73
4
 74
0
 40
0
 40
0
 40
0
 40
0
 40
1
 40
1
 40
1
 40
1
 10
94.029505
 20
181.518740
 30
0.0
 10
95.180972
 20
181.654207
 30
0.0
 10
96.323972
 20
182.153740
 30
0.0
 10
97.458505
 20
183.017340
 30
0.0
  0
SPLINE
  5
1ee
100
AcDbEntity
  8
Layer_1
 62
7
100
AcDbSpline
 70
8
 71
3
 72
8
 73
4
 74
0
 40
0
 40
0
 40
0
 40
0
 40
1
 40
1
 40
1
 40
1
 10
97.458505
 20
183.017340
 30
0.0
 10
98.254371
 20
183.610007
 30
0.0
 10
98.914771
 20
184.338140
 30
0.0
 10
99.439704
 20
185.201740
 30
0.0
  0
SPLINE
  5
1ef
100
AcDbEntity
  8
Layer_1
 62
7
100
AcDbSpline
 70
8
 71
3
 72
8
 73
4
 74
0
 40
0
 40
0
 40
0
 40
0
 40
1
 40
1
 40
1
 40
1
 10
99.439704
 20
185.201740
 30
0.0
 10
99.964635
 20
186.082273
 30
0.0
 10
100.413367
 20
187.030540
 30
0.0
 10
100.785900
 20
188.046540
 30
0.0
  0
SPLINE
  5
1f0
100
AcDbEntity
  8
Layer_1
 62
7
100
AcDbSpline
 70
8
 71
3
 72
8
 73
4
 74
0
 40
0
 40
0
 40
0
 40
0
 40
1
 40
1
 40
1
 40
1
 10
100.785900
 20
188.046540
 30
0.0
 10
101.158433
 20
189.062540
 30
0.0
 10
101.488633
 20
190.120873
 30
0.0
 10
101.776500
 20
191.221540
 30
0.0
  0
SPLINE
  5
1f1
100
AcDbEntity
  8
Layer_1
 62
7
100
AcDbSpline
 70
8
 71
3
 72
8
 73
4
 74
0
 40
0
 40
0
 40
0
 40
0
 40
1
 40
1
 40
1
 40
1
 10
101.776500
 20
191.221540
 30
0.0
 10
102.081300
 20
192.339140
 30
0.0
 10
102.403033
 20
193.431340
 30
0.0
 10
102.741700
 20
194.498140
 30
0.0
  0
SPLINE
  5
1f2
100
AcDbEntity
  8
Layer_1
 62
7
100
AcDbSpline
 70
8
 71
3
 72
8
 73
4
 74
0
 40
0
 40
0
 40
0
 40
0
 40
1
 40
1
 40
1
 40
1
 10
102.741700
 20
194.498140
 30
0.0
 10
103.080367
 20
195.581873
 30
0.0
 10
103.469833
 20
196.614806
 30
0.0
 10
103.910100
 20
197.596937
 30
0.0
  0
SPLINE
  5
1f3
100
AcDbEntity
  8
Layer_1
 62
7
100
AcDbSpline
 70
8
 71
3
 72
8
 73
4
 74
0
 40
0
 40
0
 40
0
 40
0
 40
1
 40
1
 40
1
 40
1
 10
103.910100
 20
197.596937
 30
0.0
 10
104.350367
 20
198.596004
 30
0.0
 10
104.909167
 20
199.493470
 30
0.0
 10
105.586500
 20
200.289337
 30
0.0
  0
SPLINE
  5
1f4
100
AcDbEntity
  8
Layer_1
 62
7
100
AcDbSpline
 70
8
 71
3
 72
8
 73
4
 74
0
 40
0
 40
0
 40
0
 40
0
 40
1
 40
1
 40
1
 40
1
 10
105.586500
 20
200.289337
 30
0.0
 10
104.824500
 20
200.509470
 30
0.0
 10
103.960900
 20
200.746537
 30
0.0
 10
102.995700
 20
201.000537
 30
0.0
  0
SPLINE
  5
1f5
100
AcDbEntity
  8
Layer_1
 62
7
100
AcDbSpline
 70
8
 71
3
 72
8
 73
4
 74
0
 40
0
 40
0
 40
0
 40
0
 40
1
 40
1
 40
1
 40
1
 10
102.995700
 20
201.000537
 30
0.0
 10
102.047433
 20
201.271470
 30
0.0
 10
101.073767
 20
201.500070
 30
0.0
 10
100.074700
 20
201.686337
 30
0.0
  0
SPLINE
  5
1f6
100
AcDbEntity
  8
Layer_1
 62
7
100
AcDbSpline
 70
8
 71
3
 72
8
 73
4
 74
0
 40
0
 40
0
 40
0
 40
0
 40
1
 40
1
 40
1
 40
1
 10
100.074700
 20
201.686337
 30
0.0
 10
99.092569
 20
201.872604
 30
0.0
 10
98.127371
 20
201.982670
 30
0.0
 10
97.179105
 20
202.016537
 30
0.0
  0
SPLINE
  5
1f7
100
AcDbEntity
  8
Layer_1
 62
7
100
AcDbSpline
 70
8
 71
3
 72
8
 73
4
 74
0
 40
0
 40
0
 40
0
 40
0
 40
1
 40
1
 40
1
 40
1
 10
97.179105
 20
202.016537
 30
0.0
 10
96.247772
 20
202.067337
 30
0.0
 10
95.418038
 20
201.982670
 30
0.0
 10
94.689905
 20
201.762537
 30
0.0
  0
SPLINE
  5
1f8
100
AcDbEntity
  8
Layer_1
 62
7
100
AcDbSpline
 70
8
 71
3
 72
8
 73
4
 74
0
 40
0
 40
0
 40
0
 40
0
 40
1
 40
1
 40
1
 40
1
 10
94.689905
 20
201.762537
 30
0.0
 10
93.690838
 20
201.457737
 30
0.0
 10
92.945772
 20
201.009004
 30
0.0
 10
92.454705
 20
200.416337
 30
0.0
  0
SPLINE
  5
1f9
100
AcDbEntity
  8
Layer_1
 62
7
100
AcDbSpline
 70
8
 71
3
 72
8
 73
4
 74
0
 40
0
 40
0
 40
0
 40
0
 40
1
 40
1
 40
1
 40
1
 10
92.454705
 20
200.416337
 30
0.0
 10
91.963638
 20
199.823670
 30
0.0
 10
91.667305
 20
199.171737
 30
0.0
 10
91.565705
 20
198.460537
 30
0.0
  0
SPLINE
  5
1fa
100
AcDbEntity
  8
Layer_1
 62
7
100
AcDbSpline
 70
8
 71
3
 72
8
 73
4
 74
0
 40
0
 40
0
 40
0
 40
0
 40
1
 40
1
 40
1
 40
1
 10
91.565705
 20
198.460537
 30
0.0
 10
91.464105
 20
197.749337
 30
0.0
 10
91.523372
 20
197.012738
 30
0.0
 10
91.743505
 20
196.250740
 30
0.0
  0
SPLINE
  5
1fb
100
AcDbEntity
  8
Layer_1
 62
7
100
AcDbSpline
 70
8
 71
3
 72
8
 73
4
 74
0
 40
0
 40
0
 40
0
 40
0
 40
1
 40
1
 40
1
 40
1
 10
91.743505
 20
196.250740
 30
0.0
 10
91.980572
 20
195.488740
 30
0.0
 10
92.319238
 20
194.777540
 30
0.0
 10
92.759505
 20
194.117140
 30
0.0
  0
SPLINE
  5
1fc
100
AcDbEntity
  8
Layer_1
 62
7
100
AcDbSpline
 70
8
 71
3
 72
8
 73
4
 74
0
 40
0
 40
0
 40
0
 40
0
 40
1
 40
1
 40
1
 40
1
 10
92.759505
 20
194.117140
 30
0.0
 10
93.216705
 20
193.473673
 30
0.0
 10
93.741638
 20
192.923340
 30
0.0
 10
94.334305
 20
192.466140
 30
0.0
  0
SPLINE
  5
1fd
100
AcDbEntity
  8
Layer_1
 62
7
100
AcDbSpline
 70
8
 71
3
 72
8
 73
4
 74
0
 40
0
 40
0
 40
0
 40
0
 40
1
 40
1
 40
1
 40
1
 10
94.334305
 20
192.466140
 30
0.0
 10
94.926972
 20
192.008940
 30
0.0
 10
95.536572
 20
191.721073
 30
0.0
 10
96.163105
 20
191.602540
 30
0.0
  0
SPLINE
  5
1fe
100
AcDbEntity
  8
Layer_1
 62
7
100
AcDbSpline
 70
8
 71
3
 72
8
 73
4
 74
0
 40
0
 40
0
 40
0
 40
0
 40
1
 40
1
 40
1
 40
1
 10
96.163105
 20
191.602540
 30
0.0
 10
96.806572
 20
191.500940
 30
0.0
 10
97.433105
 20
191.611007
 30
0.0
 10
98.042705
 20
191.932740
 30
0.0
  0
SPLINE
  5
1ff
100
AcDbEntity
  8
Layer_1
 62
7
100
AcDbSpline
 70
8
 71
3
 72
8
 73
4
 74
0
 40
0
 40
0
 40
0
 40
0
 40
1
 40
1
 40
1
 40
1
 10
98.042705
 20
191.932740
 30
0.0
 10
98.669238
 20
192.254473
 30
0.0
 10
99.219571
 20
192.872540
 30
0.0
 10
99.693704
 20
193.786940
 30
0.0
  0
LWPOLYLINE
  5
200
100
AcDbEntity
  8
Layer_1
 62
7
100
AcDbPolyline
 90
1
 70
1
 10
73.455467
 20
195.336340
 30
0.0
  0
SPLINE
  5
201
100
AcDbEntity
  8
Layer_1
 62
7
100
AcDbSpline
 70
8
 71
3
 72
8
 73
4
 74
0
 40
0
 40
0
 40
0
 40
0
 40
1
 40
1
 40
1
 40
1
 10
107.008900
 20
200.213137
 30
0.0
 10
107.347567
 20
200.128470
 30
0.0
 10
107.770900
 20
200.026870
 30
0.0
 10
108.278900
 20
199.908337
 30
0.0
  0
SPLINE
  5
202
100
AcDbEntity
  8
Layer_1
 62
7
100
AcDbSpline
 70
8
 71
3
 72
8
 73
4
 74
0
 40
0
 40
0
 40
0
 40
0
 40
1
 40
1
 40
1
 40
1
 10
108.278900
 20
199.908337
 30
0.0
 10
108.803833
 20
199.806737
 30
0.0
 10
109.320300
 20
199.739004
 30
0.0
 10
109.828300
 20
199.705137
 30
0.0
  0
SPLINE
  5
203
100
AcDbEntity
  8
Layer_1
 62
7
100
AcDbSpline
 70
8
 71
3
 72
8
 73
4
 74
0
 40
0
 40
0
 40
0
 40
0
 40
1
 40
1
 40
1
 40
1
 10
109.828300
 20
199.705137
 30
0.0
 10
110.353233
 20
199.671270
 30
0.0
 10
110.835833
 20
199.705137
 30
0.0
 10
111.276100
 20
199.806737
 30
0.0
  0
SPLINE
  5
204
100
AcDbEntity
  8
Layer_1
 62
7
100
AcDbSpline
 70
8
 71
3
 72
8
 73
4
 74
0
 40
0
 40
0
 40
0
 40
0
 40
1
 40
1
 40
1
 40
1
 10
111.276100
 20
199.806737
 30
0.0
 10
111.733300
 20
199.908337
 30
0.0
 10
112.063500
 20
200.128470
 30
0.0
 10
112.266700
 20
200.467137
 30
0.0
  0
SPLINE
  5
205
100
AcDbEntity
  8
Layer_1
 62
7
100
AcDbSpline
 70
8
 71
3
 72
8
 73
4
 74
0
 40
0
 40
0
 40
0
 40
0
 40
1
 40
1
 40
1
 40
1
 10
112.266700
 20
200.467137
 30
0.0
 10
112.486833
 20
200.839670
 30
0.0
 10
112.469900
 20
201.186804
 30
0.0
 10
112.215900
 20
201.508537
 30
0.0
  0
SPLINE
  5
206
100
AcDbEntity
  8
Layer_1
 62
7
100
AcDbSpline
 70
8
 71
3
 72
8
 73
4
 74
0
 40
0
 40
0
 40
0
 40
0
 40
1
 40
1
 40
1
 40
1
 10
112.215900
 20
201.508537
 30
0.0
 10
111.961900
 20
201.830270
 30
0.0
 10
111.563967
 20
202.025004
 30
0.0
 10
111.022100
 20
202.092737
 30
0.0
  0
SPLINE
  5
207
100
AcDbEntity
  8
Layer_1
 62
7
100
AcDbSpline
 70
8
 71
3
 72
8
 73
4
 74
0
 40
0
 40
0
 40
0
 40
0
 40
1
 40
1
 40
1
 40
1
 10
111.022100
 20
202.092737
 30
0.0
 10
110.480233
 20
202.177404
 30
0.0
 10
109.845233
 20
202.084270
 30
0.0
 10
109.117100
 20
201.813337
 30
0.0
  0
SPLINE
  5
208
100
AcDbEntity
  8
Layer_1
 62
7
100
AcDbSpline
 70
8
 71
3
 72
8
 73
4
 74
0
 40
0
 40
0
 40
0
 40
0
 40
1
 40
1
 40
1
 40
1
 10
109.117100
 20
201.813337
 30
0.0
 10
108.405900
 20
201.559337
 30
0.0
 10
107.703167
 20
201.025937
 30
0.0
 10
107.008900
 20
200.213137
 30
0.0
  0
LWPOLYLINE
  5
209
100
AcDbEntity
  8
Layer_1
 62
7
100
AcDbPolyline
 90
1
 70
1
 10
99.693704
 20
193.786940
 30
0.0
  0
SPLINE
  5
20a
100
AcDbEntity
  8
Layer_1
 62
7
100
AcDbSpline
 70
8
 71
3
 72
8
 73
4
 74
0
 40
0
 40
0
 40
0
 40
0
 40
1
 40
1
 40
1
 40
1
 10
110.107700
 20
190.434140
 30
0.0
 10
109.819833
 20
190.806673
 30
0.0
 10
109.523500
 20
191.026807
 30
0.0
 10
109.218700
 20
191.094540
 30
0.0
  0
SPLINE
  5
20b
100
AcDbEntity
  8
Layer_1
 62
7
100
AcDbSpline
 70
8
 71
3
 72
8
 73
4
 74
0
 40
0
 40
0
 40
0
 40
0
 40
1
 40
1
 40
1
 40
1
 10
109.218700
 20
191.094540
 30
0.0
 10
108.930833
 20
191.162273
 30
0.0
 10
108.642967
 20
191.136873
 30
0.0
 10
108.355100
 20
191.018340
 30
0.0
  0
SPLINE
  5
20c
100
AcDbEntity
  8
Layer_1
 62
7
100
AcDbSpline
 70
8
 71
3
 72
8
 73
4
 74
0
 40
0
 40
0
 40
0
 40
0
 40
1
 40
1
 40
1
 40
1
 10
108.355100
 20
191.018340
 30
0.0
 10
108.084167
 20
190.899807
 30
0.0
 10
107.821700
 20
190.705073
 30
0.0
 10
107.567700
 20
190.434140
 30
0.0
  0
SPLINE
  5
20d
100
AcDbEntity
  8
Layer_1
 62
7
100
AcDbSpline
 70
8
 71
3
 72
8
 73
4
 74
0
 40
0
 40
0
 40
0
 40
0
 40
1
 40
1
 40
1
 40
1
 10
107.567700
 20
190.434140
 30
0.0
 10
107.330633
 20
190.180140
 30
0.0
 10
107.118967
 20
189.909207
 30
0.0
 10
106.932700
 20
189.621340
 30
0.0
  0
SPLINE
  5
20e
100
AcDbEntity
  8
Layer_1
 62
7
100
AcDbSpline
 70
8
 71
3
 72
8
 73
4
 74
0
 40
0
 40
0
 40
0
 40
0
 40
1
 40
1
 40
1
 40
1
 10
106.932700
 20
189.621340
 30
0.0
 10
106.627900
 20
189.147207
 30
0.0
 10
106.424700
 20
188.639207
 30
0.0
 10
106.323100
 20
188.097340
 30
0.0
  0
SPLINE
  5
20f
100
AcDbEntity
  8
Layer_1
 62
7
100
AcDbSpline
 70
8
 71
3
 72
8
 73
4
 74
0
 40
0
 40
0
 40
0
 40
0
 40
1
 40
1
 40
1
 40
1
 10
106.323100
 20
188.097340
 30
0.0
 10
106.187633
 20
187.403073
 30
0.0
 10
106.213033
 20
186.903540
 30
0.0
 10
106.399300
 20
186.598740
 30
0.0
  0
SPLINE
  5
210
100
AcDbEntity
  8
Layer_1
 62
7
100
AcDbSpline
 70
8
 71
3
 72
8
 73
4
 74
0
 40
0
 40
0
 40
0
 40
0
 40
1
 40
1
 40
1
 40
1
 10
106.399300
 20
186.598740
 30
0.0
 10
106.585567
 20
186.310873
 30
0.0
 10
106.839567
 20
186.183873
 30
0.0
 10
107.161300
 20
186.217740
 30
0.0
  0
SPLINE
  5
211
100
AcDbEntity
  8
Layer_1
 62
7
100
AcDbSpline
 70
8
 71
3
 72
8
 73
4
 74
0
 40
0
 40
0
 40
0
 40
0
 40
1
 40
1
 40
1
 40
1
 10
107.161300
 20
186.217740
 30
0.0
 10
107.499967
 20
186.251607
 30
0.0
 10
107.864033
 20
186.437873
 30
0.0
 10
108.253500
 20
186.776540
 30
0.0
  0
SPLINE
  5
212
100
AcDbEntity
  8
Layer_1
 62
7
100
AcDbSpline
 70
8
 71
3
 72
8
 73
4
 74
0
 40
0
 40
0
 40
0
 40
0
 40
1
 40
1
 40
1
 40
1
 10
108.253500
 20
186.776540
 30
0.0
 10
108.659900
 20
187.132140
 30
0.0
 10
109.023967
 20
187.614740
 30
0.0
 10
109.345700
 20
188.224340
 30
0.0
  0
SPLINE
  5
213
100
AcDbEntity
  8
Layer_1
 62
7
100
AcDbSpline
 70
8
 71
3
 72
8
 73
4
 74
0
 40
0
 40
0
 40
0
 40
0
 40
1
 40
1
 40
1
 40
1
 10
109.345700
 20
188.224340
 30
0.0
 10
109.599700
 20
189.037140
 30
0.0
 10
109.853700
 20
189.773740
 30
0.0
 10
110.107700
 20
190.434140
 30
0.0
  0
LWPOLYLINE
  5
214
100
AcDbEntity
  8
Layer_1
 62
7
100
AcDbPolyline
 90
1
 70
1
 10
107.008900
 20
200.213137
 30
0.0
  0
SPLINE
  5
215
100
AcDbEntity
  8
Layer_1
 62
7
100
AcDbSpline
 70
8
 71
3
 72
8
 73
4
 74
0
 40
0
 40
0
 40
0
 40
0
 40
1
 40
1
 40
1
 40
1
 10
114.273300
 20
186.700340
 30
0.0
 10
113.934633
 20
186.124607
 30
0.0
 10
113.545167
 20
185.523473
 30
0.0
 10
113.104900
 20
184.896940
 30
0.0
  0
SPLINE
  5
216
100
AcDbEntity
  8
Layer_1
 62
7
100
AcDbSpline
 70
8
 71
3
 72
8
 73
4
 74
0
 40
0
 40
0
 40
0
 40
0
 40
1
 40
1
 40
1
 40
1
 10
113.104900
 20
184.896940
 30
0.0
 10
112.681567
 20
184.287340
 30
0.0
 10
112.207433
 20
183.762407
 30
0.0
 10
111.682500
 20
183.322140
 30
0.0
  0
SPLINE
  5
217
100
AcDbEntity
  8
Layer_1
 62
7
100
AcDbSpline
 70
8
 71
3
 72
8
 73
4
 74
0
 40
0
 40
0
 40
0
 40
0
 40
1
 40
1
 40
1
 40
1
 10
111.682500
 20
183.322140
 30
0.0
 10
111.394633
 20
183.068140
 30
0.0
 10
111.072900
 20
182.873407
 30
0.0
 10
110.717300
 20
182.737940
 30
0.0
  0
SPLINE
  5
218
100
AcDbEntity
  8
Layer_1
 62
7
100
AcDbSpline
 70
8
 71
3
 72
8
 73
4
 74
0
 40
0
 40
0
 40
0
 40
0
 40
1
 40
1
 40
1
 40
1
 10
110.717300
 20
182.737940
 30
0.0
 10
110.378633
 20
182.619407
 30
0.0
 10
110.039967
 20
182.678673
 30
0.0
 10
109.701300
 20
182.915740
 30
0.0
  0
SPLINE
  5
219
100
AcDbEntity
  8
Layer_1
 62
7
100
AcDbSpline
 70
8
 71
3
 72
8
 73
4
 74
0
 40
0
 40
0
 40
0
 40
0
 40
1
 40
1
 40
1
 40
1
 10
109.701300
 20
182.915740
 30
0.0
 10
109.261033
 20
183.203607
 30
0.0
 10
108.973167
 20
183.737007
 30
0.0
 10
108.837700
 20
184.515940
 30
0.0
  0
SPLINE
  5
21a
100
AcDbEntity
  8
Layer_1
 62
7
100
AcDbSpline
 70
8
 71
3
 72
8
 73
4
 74
0
 40
0
 40
0
 40
0
 40
0
 40
1
 40
1
 40
1
 40
1
 10
108.837700
 20
184.515940
 30
0.0
 10
108.719167
 20
185.311807
 30
0.0
 10
108.786900
 20
186.200807
 30
0.0
 10
109.040900
 20
187.182940
 30
0.0
  0
SPLINE
  5
21b
100
AcDbEntity
  8
Layer_1
 62
7
100
AcDbSpline
 70
8
 71
3
 72
8
 73
4
 74
0
 40
0
 40
0
 40
0
 40
0
 40
1
 40
1
 40
1
 40
1
 10
109.040900
 20
187.182940
 30
0.0
 10
108.820767
 20
186.878140
 30
0.0
 10
108.541367
 20
186.598740
 30
0.0
 10
108.202700
 20
186.344740
 30
0.0
  0
SPLINE
  5
21c
100
AcDbEntity
  8
Layer_1
 62
7
100
AcDbSpline
 70
8
 71
3
 72
8
 73
4
 74
0
 40
0
 40
0
 40
0
 40
0
 40
1
 40
1
 40
1
 40
1
 10
108.202700
 20
186.344740
 30
0.0
 10
107.864033
 20
186.090740
 30
0.0
 10
107.508433
 20
185.904473
 30
0.0
 10
107.135900
 20
185.785940
 30
0.0
  0
SPLINE
  5
21d
100
AcDbEntity
  8
Layer_1
 62
7
100
AcDbSpline
 70
8
 71
3
 72
8
 73
4
 74
0
 40
0
 40
0
 40
0
 40
0
 40
1
 40
1
 40
1
 40
1
 10
107.135900
 20
185.785940
 30
0.0
 10
106.780300
 20
185.684340
 30
0.0
 10
106.424700
 20
185.675873
 30
0.0
 10
106.069100
 20
185.760540
 30
0.0
  0
SPLINE
  5
21e
100
AcDbEntity
  8
Layer_1
 62
7
100
AcDbSpline
 70
8
 71
3
 72
8
 73
4
 74
0
 40
0
 40
0
 40
0
 40
0
 40
1
 40
1
 40
1
 40
1
 10
106.069100
 20
185.760540
 30
0.0
 10
105.730433
 20
185.845207
 30
0.0
 10
105.434100
 20
186.090740
 30
0.0
 10
105.180100
 20
186.497140
 30
0.0
  0
SPLINE
  5
21f
100
AcDbEntity
  8
Layer_1
 62
7
100
AcDbSpline
 70
8
 71
3
 72
8
 73
4
 74
0
 40
0
 40
0
 40
0
 40
0
 40
1
 40
1
 40
1
 40
1
 10
105.180100
 20
186.497140
 30
0.0
 10
104.976900
 20
186.801940
 30
0.0
 10
104.866833
 20
187.140607
 30
0.0
 10
104.849900
 20
187.513140
 30
0.0
  0
SPLINE
  5
220
100
AcDbEntity
  8
Layer_1
 62
7
100
AcDbSpline
 70
8
 71
3
 72
8
 73
4
 74
0
 40
0
 40
0
 40
0
 40
0
 40
1
 40
1
 40
1
 40
1
 10
104.849900
 20
187.513140
 30
0.0
 10
104.832967
 20
187.885673
 30
0.0
 10
104.875300
 20
188.249740
 30
0.0
 10
104.976900
 20
188.605340
 30
0.0
  0
SPLINE
  5
221
100
AcDbEntity
  8
Layer_1
 62
7
100
AcDbSpline
 70
8
 71
3
 72
8
 73
4
 74
0
 40
0
 40
0
 40
0
 40
0
 40
1
 40
1
 40
1
 40
1
 10
104.976900
 20
188.605340
 30
0.0
 10
105.095433
 20
188.960940
 30
0.0
 10
105.256300
 20
189.299607
 30
0.0
 10
105.459500
 20
189.621340
 30
0.0
  0
SPLINE
  5
222
100
AcDbEntity
  8
Layer_1
 62
7
100
AcDbSpline
 70
8
 71
3
 72
8
 73
4
 74
0
 40
0
 40
0
 40
0
 40
0
 40
1
 40
1
 40
1
 40
1
 10
105.459500
 20
189.621340
 30
0.0
 10
105.679633
 20
189.960007
 30
0.0
 10
105.908233
 20
190.247873
 30
0.0
 10
106.145300
 20
190.484940
 30
0.0
  0
SPLINE
  5
223
100
AcDbEntity
  8
Layer_1
 62
7
100
AcDbSpline
 70
8
 71
3
 72
8
 73
4
 74
0
 40
0
 40
0
 40
0
 40
0
 40
1
 40
1
 40
1
 40
1
 10
106.145300
 20
190.484940
 30
0.0
 10
106.433167
 20
190.755873
 30
0.0
 10
106.746433
 20
190.976007
 30
0.0
 10
107.085100
 20
191.145340
 30
0.0
  0
SPLINE
  5
224
100
AcDbEntity
  8
Layer_1
 62
7
100
AcDbSpline
 70
8
 71
3
 72
8
 73
4
 74
0
 40
0
 40
0
 40
0
 40
0
 40
1
 40
1
 40
1
 40
1
 10
107.085100
 20
191.145340
 30
0.0
 10
107.440700
 20
191.331607
 30
0.0
 10
107.796300
 20
191.450140
 30
0.0
 10
108.151900
 20
191.500940
 30
0.0
  0
SPLINE
  5
225
100
AcDbEntity
  8
Layer_1
 62
7
100
AcDbSpline
 70
8
 71
3
 72
8
 73
4
 74
0
 40
0
 40
0
 40
0
 40
0
 40
1
 40
1
 40
1
 40
1
 10
108.151900
 20
191.500940
 30
0.0
 10
108.524433
 20
191.551740
 30
0.0
 10
108.888500
 20
191.517873
 30
0.0
 10
109.244100
 20
191.399340
 30
0.0
  0
SPLINE
  5
226
100
AcDbEntity
  8
Layer_1
 62
7
100
AcDbSpline
 70
8
 71
3
 72
8
 73
4
 74
0
 40
0
 40
0
 40
0
 40
0
 40
1
 40
1
 40
1
 40
1
 10
109.244100
 20
191.399340
 30
0.0
 10
109.599700
 20
191.297740
 30
0.0
 10
109.929900
 20
191.094540
 30
0.0
 10
110.234700
 20
190.789740
 30
0.0
  0
SPLINE
  5
227
100
AcDbEntity
  8
Layer_1
 62
7
100
AcDbSpline
 70
8
 71
3
 72
8
 73
4
 74
0
 40
0
 40
0
 40
0
 40
0
 40
1
 40
1
 40
1
 40
1
 10
110.234700
 20
190.789740
 30
0.0
 10
110.319367
 20
191.026807
 30
0.0
 10
110.446367
 20
191.170740
 30
0.0
 10
110.615700
 20
191.221540
 30
0.0
  0
SPLINE
  5
228
100
AcDbEntity
  8
Layer_1
 62
7
100
AcDbSpline
 70
8
 71
3
 72
8
 73
4
 74
0
 40
0
 40
0
 40
0
 40
0
 40
1
 40
1
 40
1
 40
1
 10
110.615700
 20
191.221540
 30
0.0
 10
110.785033
 20
191.289273
 30
0.0
 10
110.954367
 20
191.306207
 30
0.0
 10
111.123700
 20
191.272340
 30
0.0
  0
SPLINE
  5
229
100
AcDbEntity
  8
Layer_1
 62
7
100
AcDbSpline
 70
8
 71
3
 72
8
 73
4
 74
0
 40
0
 40
0
 40
0
 40
0
 40
1
 40
1
 40
1
 40
1
 10
111.123700
 20
191.272340
 30
0.0
 10
111.293033
 20
191.238473
 30
0.0
 10
111.428500
 20
191.162273
 30
0.0
 10
111.530100
 20
191.043740
 30
0.0
  0
SPLINE
  5
22a
100
AcDbEntity
  8
Layer_1
 62
7
100
AcDbSpline
 70
8
 71
3
 72
8
 73
4
 74
0
 40
0
 40
0
 40
0
 40
0
 40
1
 40
1
 40
1
 40
1
 10
111.530100
 20
191.043740
 30
0.0
 10
111.648633
 20
190.942140
 30
0.0
 10
111.690967
 20
190.849007
 30
0.0
 10
111.657100
 20
190.764340
 30
0.0
  0
LWPOLYLINE
  5
22b
100
AcDbEntity
  8
Layer_1
 62
7
100
AcDbPolyline
 90
1
 70
1
 10
110.107700
 20
190.434140
 30
0.0
  0
SPLINE
  5
22c
100
AcDbEntity
  8
Layer_1
 62
7
100
AcDbSpline
 70
8
 71
3
 72
8
 73
4
 74
0
 40
0
 40
0
 40
0
 40
0
 40
1
 40
1
 40
1
 40
1
 10
111.428500
 20
190.180140
 30
0.0
 10
111.276100
 20
189.756807
 30
0.0
 10
111.106767
 20
189.265740
 30
0.0
 10
110.920500
 20
188.706940
 30
0.0
  0
SPLINE
  5
22d
100
AcDbEntity
  8
Layer_1
 62
7
100
AcDbSpline
 70
8
 71
3
 72
8
 73
4
 74
0
 40
0
 40
0
 40
0
 40
0
 40
1
 40
1
 40
1
 40
1
 10
110.920500
 20
188.706940
 30
0.0
 10
110.751167
 20
188.165073
 30
0.0
 10
110.590300
 20
187.606273
 30
0.0
 10
110.437900
 20
187.030540
 30
0.0
  0
SPLINE
  5
22e
100
AcDbEntity
  8
Layer_1
 62
7
100
AcDbSpline
 70
8
 71
3
 72
8
 73
4
 74
0
 40
0
 40
0
 40
0
 40
0
 40
1
 40
1
 40
1
 40
1
 10
110.437900
 20
187.030540
 30
0.0
 10
110.302433
 20
186.471740
 30
0.0
 10
110.192367
 20
185.921407
 30
0.0
 10
110.107700
 20
185.379540
 30
0.0
  0
SPLINE
  5
22f
100
AcDbEntity
  8
Layer_1
 62
7
100
AcDbSpline
 70
8
 71
3
 72
8
 73
4
 74
0
 40
0
 40
0
 40
0
 40
0
 40
1
 40
1
 40
1
 40
1
 10
110.107700
 20
185.379540
 30
0.0
 10
110.039967
 20
184.854607
 30
0.0
 10
110.031500
 20
184.388940
 30
0.0
 10
110.082300
 20
183.982540
 30
0.0
  0
SPLINE
  5
230
100
AcDbEntity
  8
Layer_1
 62
7
100
AcDbSpline
 70
8
 71
3
 72
8
 73
4
 74
0
 40
0
 40
0
 40
0
 40
0
 40
1
 40
1
 40
1
 40
1
 10
110.082300
 20
183.982540
 30
0.0
 10
110.116167
 20
183.694673
 30
0.0
 10
110.183900
 20
183.491473
 30
0.0
 10
110.285500
 20
183.372940
 30
0.0
  0
SPLINE
  5
231
100
AcDbEntity
  8
Layer_1
 62
7
100
AcDbSpline
 70
8
 71
3
 72
8
 73
4
 74
0
 40
0
 40
0
 40
0
 40
0
 40
1
 40
1
 40
1
 40
1
 10
110.285500
 20
183.372940
 30
0.0
 10
110.387100
 20
183.254407
 30
0.0
 10
110.497167
 20
183.186673
 30
0.0
 10
110.615700
 20
183.169740
 30
0.0
  0
SPLINE
  5
232
100
AcDbEntity
  8
Layer_1
 62
7
100
AcDbSpline
 70
8
 71
3
 72
8
 73
4
 74
0
 40
0
 40
0
 40
0
 40
0
 40
1
 40
1
 40
1
 40
1
 10
110.615700
 20
183.169740
 30
0.0
 10
110.751167
 20
183.169740
 30
0.0
 10
110.895100
 20
183.203607
 30
0.0
 10
111.047500
 20
183.271340
 30
0.0
  0
SPLINE
  5
233
100
AcDbEntity
  8
Layer_1
 62
7
100
AcDbSpline
 70
8
 71
3
 72
8
 73
4
 74
0
 40
0
 40
0
 40
0
 40
0
 40
1
 40
1
 40
1
 40
1
 10
111.047500
 20
183.271340
 30
0.0
 10
111.199900
 20
183.356007
 30
0.0
 10
111.352300
 20
183.457607
 30
0.0
 10
111.504700
 20
183.576140
 30
0.0
  0
SPLINE
  5
234
100
AcDbEntity
  8
Layer_1
 62
7
100
AcDbSpline
 70
8
 71
3
 72
8
 73
4
 74
0
 40
0
 40
0
 40
0
 40
0
 40
1
 40
1
 40
1
 40
1
 10
111.504700
 20
183.576140
 30
0.0
 10
112.012700
 20
183.982540
 30
0.0
 10
112.486833
 20
184.499007
 30
0.0
 10
112.927100
 20
185.125540
 30
0.0
  0
SPLINE
  5
235
100
AcDbEntity
  8
Layer_1
 62
7
100
AcDbSpline
 70
8
 71
3
 72
8
 73
4
 74
0
 40
0
 40
0
 40
0
 40
0
 40
1
 40
1
 40
1
 40
1
 10
112.927100
 20
185.125540
 30
0.0
 10
113.367367
 20
185.752073
 30
0.0
 10
113.739900
 20
186.344740
 30
0.0
 10
114.044700
 20
186.903540
 30
0.0
  0
LWPOLYLINE
  5
236
100
AcDbEntity
  8
Layer_1
 62
7
100
AcDbPolyline
 90
2
 70
0
 10
111.657100
 20
190.764340
 30
0.0
 10
111.428500
 20
190.180140
 30
0.0
  0
SPLINE
  5
237
100
AcDbEntity
  8
Layer_1
 62
7
100
AcDbSpline
 70
8
 71
3
 72
8
 73
4
 74
0
 40
0
 40
0
 40
0
 40
0
 40
1
 40
1
 40
1
 40
1
 10
114.527300
 20
187.817940
 30
0.0
 10
114.544233
 20
187.834873
 30
0.0
 10
114.552700
 20
187.851807
 30
0.0
 10
114.552700
 20
187.868740
 30
0.0
  0
SPLINE
  5
238
100
AcDbEntity
  8
Layer_1
 62
7
100
AcDbSpline
 70
8
 71
3
 72
8
 73
4
 74
0
 40
0
 40
0
 40
0
 40
0
 40
1
 40
1
 40
1
 40
1
 10
114.552700
 20
187.868740
 30
0.0
 10
114.552700
 20
187.885673
 30
0.0
 10
114.569633
 20
187.911073
 30
0.0
 10
114.603500
 20
187.944940
 30
0.0
  0
SPLINE
  5
239
100
AcDbEntity
  8
Layer_1
 62
7
100
AcDbSpline
 70
8
 71
3
 72
8
 73
4
 74
0
 40
0
 40
0
 40
0
 40
0
 40
1
 40
1
 40
1
 40
1
 10
114.603500
 20
187.944940
 30
0.0
 10
114.637367
 20
187.978807
 30
0.0
 10
114.713567
 20
188.004207
 30
0.0
 10
114.832100
 20
188.021140
 30
0.0
  0
SPLINE
  5
23a
100
AcDbEntity
  8
Layer_1
 62
7
100
AcDbSpline
 70
8
 71
3
 72
8
 73
4
 74
0
 40
0
 40
0
 40
0
 40
0
 40
1
 40
1
 40
1
 40
1
 10
114.832100
 20
188.021140
 30
0.0
 10
114.950633
 20
188.038073
 30
0.0
 10
114.967567
 20
187.970340
 30
0.0
 10
114.882900
 20
187.817940
 30
0.0
  0
LWPOLYLINE
  5
23b
100
AcDbEntity
  8
Layer_1
 62
7
100
AcDbPolyline
 90
2
 70
0
 10
114.044700
 20
186.903540
 30
0.0
 10
114.527300
 20
187.817940
 30
0.0
  0
SPLINE
  5
23c
100
AcDbEntity
  8
Layer_1
 62
7
100
AcDbSpline
 70
8
 71
3
 72
8
 73
4
 74
0
 40
0
 40
0
 40
0
 40
0
 40
1
 40
1
 40
1
 40
1
 10
118.667500
 20
185.709740
 30
0.0
 10
118.379633
 20
185.286407
 30
0.0
 10
118.024033
 20
184.947740
 30
0.0
 10
117.600700
 20
184.693740
 30
0.0
  0
SPLINE
  5
23d
100
AcDbEntity
  8
Layer_1
 62
7
100
AcDbSpline
 70
8
 71
3
 72
8
 73
4
 74
0
 40
0
 40
0
 40
0
 40
0
 40
1
 40
1
 40
1
 40
1
 10
117.600700
 20
184.693740
 30
0.0
 10
117.194300
 20
184.439740
 30
0.0
 10
116.703233
 20
184.414340
 30
0.0
 10
116.127500
 20
184.617540
 30
0.0
  0
SPLINE
  5
23e
100
AcDbEntity
  8
Layer_1
 62
7
100
AcDbSpline
 70
8
 71
3
 72
8
 73
4
 74
0
 40
0
 40
0
 40
0
 40
0
 40
1
 40
1
 40
1
 40
1
 10
116.127500
 20
184.617540
 30
0.0
 10
115.534833
 20
184.837673
 30
0.0
 10
115.119967
 20
185.218673
 30
0.0
 10
114.882900
 20
185.760540
 30
0.0
  0
SPLINE
  5
23f
100
AcDbEntity
  8
Layer_1
 62
7
100
AcDbSpline
 70
8
 71
3
 72
8
 73
4
 74
0
 40
0
 40
0
 40
0
 40
0
 40
1
 40
1
 40
1
 40
1
 10
114.882900
 20
185.760540
 30
0.0
 10
114.662767
 20
186.319340
 30
0.0
 10
114.552700
 20
186.928940
 30
0.0
 10
114.552700
 20
187.589340
 30
0.0
  0
SPLINE
  5
240
100
AcDbEntity
  8
Layer_1
 62
7
100
AcDbSpline
 70
8
 71
3
 72
8
 73
4
 74
0
 40
0
 40
0
 40
0
 40
0
 40
1
 40
1
 40
1
 40
1
 10
114.552700
 20
187.589340
 30
0.0
 10
114.535767
 20
188.249740
 30
0.0
 10
114.603500
 20
188.901673
 30
0.0
 10
114.755900
 20
189.545140
 30
0.0
  0
SPLINE
  5
241
100
AcDbEntity
  8
Layer_1
 62
7
100
AcDbSpline
 70
8
 71
3
 72
8
 73
4
 74
0
 40
0
 40
0
 40
0
 40
0
 40
1
 40
1
 40
1
 40
1
 10
114.755900
 20
189.545140
 30
0.0
 10
114.908300
 20
190.205540
 30
0.0
 10
115.086100
 20
190.730473
 30
0.0
 10
115.289300
 20
191.119940
 30
0.0
  0
SPLINE
  5
242
100
AcDbEntity
  8
Layer_1
 62
7
100
AcDbSpline
 70
8
 71
3
 72
8
 73
4
 74
0
 40
0
 40
0
 40
0
 40
0
 40
1
 40
1
 40
1
 40
1
 10
115.289300
 20
191.119940
 30
0.0
 10
115.357033
 20
191.272340
 30
0.0
 10
115.467100
 20
191.357007
 30
0.0
 10
115.619500
 20
191.373940
 30
0.0
  0
SPLINE
  5
243
100
AcDbEntity
  8
Layer_1
 62
7
100
AcDbSpline
 70
8
 71
3
 72
8
 73
4
 74
0
 40
0
 40
0
 40
0
 40
0
 40
1
 40
1
 40
1
 40
1
 10
115.619500
 20
191.373940
 30
0.0
 10
115.771900
 20
191.390873
 30
0.0
 10
115.924300
 20
191.365473
 30
0.0
 10
116.076700
 20
191.297740
 30
0.0
  0
SPLINE
  5
244
100
AcDbEntity
  8
Layer_1
 62
7
100
AcDbSpline
 70
8
 71
3
 72
8
 73
4
 74
0
 40
0
 40
0
 40
0
 40
0
 40
1
 40
1
 40
1
 40
1
 10
116.076700
 20
191.297740
 30
0.0
 10
116.229100
 20
191.230007
 30
0.0
 10
116.356100
 20
191.145340
 30
0.0
 10
116.457700
 20
191.043740
 30
0.0
  0
SPLINE
  5
245
100
AcDbEntity
  8
Layer_1
 62
7
100
AcDbSpline
 70
8
 71
3
 72
8
 73
4
 74
0
 40
0
 40
0
 40
0
 40
0
 40
1
 40
1
 40
1
 40
1
 10
116.457700
 20
191.043740
 30
0.0
 10
116.559300
 20
190.959073
 30
0.0
 10
116.601633
 20
190.891340
 30
0.0
 10
116.584700
 20
190.840540
 30
0.0
  0
SPLINE
  5
246
100
AcDbEntity
  8
Layer_1
 62
7
100
AcDbSpline
 70
8
 71
3
 72
8
 73
4
 74
0
 40
0
 40
0
 40
0
 40
0
 40
1
 40
1
 40
1
 40
1
 10
116.584700
 20
190.840540
 30
0.0
 10
116.398433
 20
190.383340
 30
0.0
 10
116.254500
 20
189.824540
 30
0.0
 10
116.152900
 20
189.164140
 30
0.0
  0
SPLINE
  5
247
100
AcDbEntity
  8
Layer_1
 62
7
100
AcDbSpline
 70
8
 71
3
 72
8
 73
4
 74
0
 40
0
 40
0
 40
0
 40
0
 40
1
 40
1
 40
1
 40
1
 10
116.152900
 20
189.164140
 30
0.0
 10
116.051300
 20
188.520673
 30
0.0
 10
116.017433
 20
187.885673
 30
0.0
 10
116.051300
 20
187.259140
 30
0.0
  0
SPLINE
  5
248
100
AcDbEntity
  8
Layer_1
 62
7
100
AcDbSpline
 70
8
 71
3
 72
8
 73
4
 74
0
 40
0
 40
0
 40
0
 40
0
 40
1
 40
1
 40
1
 40
1
 10
116.051300
 20
187.259140
 30
0.0
 10
116.068233
 20
186.801940
 30
0.0
 10
116.127500
 20
186.378607
 30
0.0
 10
116.229100
 20
185.989140
 30
0.0
  0
SPLINE
  5
249
100
AcDbEntity
  8
Layer_1
 62
7
100
AcDbSpline
 70
8
 71
3
 72
8
 73
4
 74
0
 40
0
 40
0
 40
0
 40
0
 40
1
 40
1
 40
1
 40
1
 10
116.229100
 20
185.989140
 30
0.0
 10
116.347633
 20
185.599673
 30
0.0
 10
116.500033
 20
185.311807
 30
0.0
 10
116.686300
 20
185.125540
 30
0.0
  0
SPLINE
  5
24a
100
AcDbEntity
  8
Layer_1
 62
7
100
AcDbSpline
 70
8
 71
3
 72
8
 73
4
 74
0
 40
0
 40
0
 40
0
 40
0
 40
1
 40
1
 40
1
 40
1
 10
116.686300
 20
185.125540
 30
0.0
 10
116.872567
 20
184.939273
 30
0.0
 10
117.101167
 20
184.888473
 30
0.0
 10
117.372100
 20
184.973140
 30
0.0
  0
SPLINE
  5
24b
100
AcDbEntity
  8
Layer_1
 62
7
100
AcDbSpline
 70
8
 71
3
 72
8
 73
4
 74
0
 40
0
 40
0
 40
0
 40
0
 40
1
 40
1
 40
1
 40
1
 10
117.372100
 20
184.973140
 30
0.0
 10
117.659967
 20
185.057807
 30
0.0
 10
117.990167
 20
185.354140
 30
0.0
 10
118.362700
 20
185.862140
 30
0.0
  0
SPLINE
  5
24c
100
AcDbEntity
  8
Layer_1
 62
7
100
AcDbSpline
 70
8
 71
3
 72
8
 73
4
 74
0
 40
0
 40
0
 40
0
 40
0
 40
1
 40
1
 40
1
 40
1
 10
118.362700
 20
185.862140
 30
0.0
 10
118.515100
 20
186.065340
 30
0.0
 10
118.667500
 20
186.302407
 30
0.0
 10
118.819900
 20
186.573340
 30
0.0
  0
SPLINE
  5
24d
100
AcDbEntity
  8
Layer_1
 62
7
100
AcDbSpline
 70
8
 71
3
 72
8
 73
4
 74
0
 40
0
 40
0
 40
0
 40
0
 40
1
 40
1
 40
1
 40
1
 10
118.819900
 20
186.573340
 30
0.0
 10
118.972300
 20
186.861207
 30
0.0
 10
119.124700
 20
187.166007
 30
0.0
 10
119.277100
 20
187.487740
 30
0.0
  0
SPLINE
  5
24e
100
AcDbEntity
  8
Layer_1
 62
7
100
AcDbSpline
 70
8
 71
3
 72
8
 73
4
 74
0
 40
0
 40
0
 40
0
 40
0
 40
1
 40
1
 40
1
 40
1
 10
119.277100
 20
187.487740
 30
0.0
 10
119.090833
 20
187.741740
 30
0.0
 10
118.938433
 20
188.046540
 30
0.0
 10
118.819900
 20
188.402140
 30
0.0
  0
SPLINE
  5
24f
100
AcDbEntity
  8
Layer_1
 62
7
100
AcDbSpline
 70
8
 71
3
 72
8
 73
4
 74
0
 40
0
 40
0
 40
0
 40
0
 40
1
 40
1
 40
1
 40
1
 10
118.819900
 20
188.402140
 30
0.0
 10
118.718300
 20
188.757740
 30
0.0
 10
118.659033
 20
189.121807
 30
0.0
 10
118.642100
 20
189.494340
 30
0.0
  0
SPLINE
  5
250
100
AcDbEntity
  8
Layer_1
 62
7
100
AcDbSpline
 70
8
 71
3
 72
8
 73
4
 74
0
 40
0
 40
0
 40
0
 40
0
 40
1
 40
1
 40
1
 40
1
 10
118.642100
 20
189.494340
 30
0.0
 10
118.625167
 20
189.883807
 30
0.0
 10
118.650567
 20
190.256340
 30
0.0
 10
118.718300
 20
190.611940
 30
0.0
  0
SPLINE
  5
251
100
AcDbEntity
  8
Layer_1
 62
7
100
AcDbSpline
 70
8
 71
3
 72
8
 73
4
 74
0
 40
0
 40
0
 40
0
 40
0
 40
1
 40
1
 40
1
 40
1
 10
118.718300
 20
190.611940
 30
0.0
 10
118.802967
 20
190.984473
 30
0.0
 10
118.938433
 20
191.297740
 30
0.0
 10
119.124700
 20
191.551740
 30
0.0
  0
SPLINE
  5
252
100
AcDbEntity
  8
Layer_1
 62
7
100
AcDbSpline
 70
8
 71
3
 72
8
 73
4
 74
0
 40
0
 40
0
 40
0
 40
0
 40
1
 40
1
 40
1
 40
1
 10
119.124700
 20
191.551740
 30
0.0
 10
119.243233
 20
191.721073
 30
0.0
 10
119.370233
 20
191.848073
 30
0.0
 10
119.505700
 20
191.932740
 30
0.0
  0
SPLINE
  5
253
100
AcDbEntity
  8
Layer_1
 62
7
100
AcDbSpline
 70
8
 71
3
 72
8
 73
4
 74
0
 40
0
 40
0
 40
0
 40
0
 40
1
 40
1
 40
1
 40
1
 10
119.505700
 20
191.932740
 30
0.0
 10
119.658100
 20
192.034340
 30
0.0
 10
119.793567
 20
192.068207
 30
0.0
 10
119.912100
 20
192.034340
 30
0.0
  0
SPLINE
  5
254
100
AcDbEntity
  8
Layer_1
 62
7
100
AcDbSpline
 70
8
 71
3
 72
8
 73
4
 74
0
 40
0
 40
0
 40
0
 40
0
 40
1
 40
1
 40
1
 40
1
 10
119.912100
 20
192.034340
 30
0.0
 10
120.047567
 20
192.000473
 30
0.0
 10
120.157633
 20
191.881940
 30
0.0
 10
120.242300
 20
191.678740
 30
0.0
  0
SPLINE
  5
255
100
AcDbEntity
  8
Layer_1
 62
7
100
AcDbSpline
 70
8
 71
3
 72
8
 73
4
 74
0
 40
0
 40
0
 40
0
 40
0
 40
1
 40
1
 40
1
 40
1
 10
120.242300
 20
191.678740
 30
0.0
 10
120.343900
 20
191.492473
 30
0.0
 10
120.403167
 20
191.204607
 30
0.0
 10
120.420100
 20
190.815140
 30
0.0
  0
SPLINE
  5
256
100
AcDbEntity
  8
Layer_1
 62
7
100
AcDbSpline
 70
8
 71
3
 72
8
 73
4
 74
0
 40
0
 40
0
 40
0
 40
0
 40
1
 40
1
 40
1
 40
1
 10
120.420100
 20
190.815140
 30
0.0
 10
120.453967
 20
190.374873
 30
0.0
 10
120.386233
 20
189.849940
 30
0.0
 10
120.216900
 20
189.240340
 30
0.0
  0
SPLINE
  5
257
100
AcDbEntity
  8
Layer_1
 62
7
100
AcDbSpline
 70
8
 71
3
 72
8
 73
4
 74
0
 40
0
 40
0
 40
0
 40
0
 40
1
 40
1
 40
1
 40
1
 10
120.216900
 20
189.240340
 30
0.0
 10
120.064500
 20
188.647673
 30
0.0
 10
119.869767
 20
188.071940
 30
0.0
 10
119.632700
 20
187.513140
 30
0.0
  0
SPLINE
  5
258
100
AcDbEntity
  8
Layer_1
 62
7
100
AcDbSpline
 70
8
 71
3
 72
8
 73
4
 74
0
 40
0
 40
0
 40
0
 40
0
 40
1
 40
1
 40
1
 40
1
 10
119.632700
 20
187.513140
 30
0.0
 10
120.005233
 20
187.089807
 30
0.0
 10
120.394700
 20
186.912007
 30
0.0
 10
120.801100
 20
186.979740
 30
0.0
  0
SPLINE
  5
259
100
AcDbEntity
  8
Layer_1
 62
7
100
AcDbSpline
 70
8
 71
3
 72
8
 73
4
 74
0
 40
0
 40
0
 40
0
 40
0
 40
1
 40
1
 40
1
 40
1
 10
120.801100
 20
186.979740
 30
0.0
 10
121.207500
 20
187.064407
 30
0.0
 10
121.537700
 20
187.343807
 30
0.0
 10
121.791700
 20
187.817940
 30
0.0
  0
SPLINE
  5
25a
100
AcDbEntity
  8
Layer_1
 62
7
100
AcDbSpline
 70
8
 71
3
 72
8
 73
4
 74
0
 40
0
 40
0
 40
0
 40
0
 40
1
 40
1
 40
1
 40
1
 10
121.791700
 20
187.817940
 30
0.0
 10
121.791700
 20
187.834873
 30
0.0
 10
121.808633
 20
187.877207
 30
0.0
 10
121.842500
 20
187.944940
 30
0.0
  0
SPLINE
  5
25b
100
AcDbEntity
  8
Layer_1
 62
7
100
AcDbSpline
 70
8
 71
3
 72
8
 73
4
 74
0
 40
0
 40
0
 40
0
 40
0
 40
1
 40
1
 40
1
 40
1
 10
121.842500
 20
187.944940
 30
0.0
 10
121.876367
 20
188.029607
 30
0.0
 10
121.944100
 20
188.055007
 30
0.0
 10
122.045700
 20
188.021140
 30
0.0
  0
SPLINE
  5
25c
100
AcDbEntity
  8
Layer_1
 62
7
100
AcDbSpline
 70
8
 71
3
 72
8
 73
4
 74
0
 40
0
 40
0
 40
0
 40
0
 40
1
 40
1
 40
1
 40
1
 10
122.045700
 20
188.021140
 30
0.0
 10
122.130367
 20
187.970340
 30
0.0
 10
122.155767
 20
187.902607
 30
0.0
 10
122.121900
 20
187.817940
 30
0.0
  0
SPLINE
  5
25d
100
AcDbEntity
  8
Layer_1
 62
7
100
AcDbSpline
 70
8
 71
3
 72
8
 73
4
 74
0
 40
0
 40
0
 40
0
 40
0
 40
1
 40
1
 40
1
 40
1
 10
122.121900
 20
187.817940
 30
0.0
 10
121.850967
 20
187.225273
 30
0.0
 10
121.461500
 20
186.852740
 30
0.0
 10
120.953500
 20
186.700340
 30
0.0
  0
SPLINE
  5
25e
100
AcDbEntity
  8
Layer_1
 62
7
100
AcDbSpline
 70
8
 71
3
 72
8
 73
4
 74
0
 40
0
 40
0
 40
0
 40
0
 40
1
 40
1
 40
1
 40
1
 10
120.953500
 20
186.700340
 30
0.0
 10
120.462433
 20
186.564873
 30
0.0
 10
119.979833
 20
186.734207
 30
0.0
 10
119.505700
 20
187.208340
 30
0.0
  0
SPLINE
  5
25f
100
AcDbEntity
  8
Layer_1
 62
7
100
AcDbSpline
 70
8
 71
3
 72
8
 73
4
 74
0
 40
0
 40
0
 40
0
 40
0
 40
1
 40
1
 40
1
 40
1
 10
119.505700
 20
187.208340
 30
0.0
 10
119.370233
 20
186.920473
 30
0.0
 10
119.226300
 20
186.641073
 30
0.0
 10
119.073900
 20
186.370140
 30
0.0
  0
SPLINE
  5
260
100
AcDbEntity
  8
Layer_1
 62
7
100
AcDbSpline
 70
8
 71
3
 72
8
 73
4
 74
0
 40
0
 40
0
 40
0
 40
0
 40
1
 40
1
 40
1
 40
1
 10
119.073900
 20
186.370140
 30
0.0
 10
118.938433
 20
186.116140
 30
0.0
 10
118.802967
 20
185.896007
 30
0.0
 10
118.667500
 20
185.709740
 30
0.0
  0
LWPOLYLINE
  5
261
100
AcDbEntity
  8
Layer_1
 62
7
100
AcDbPolyline
 90
2
 70
0
 10
114.882900
 20
187.817940
 30
0.0
 10
114.273300
 20
186.700340
 30
0.0
  0
SPLINE
  5
262
100
AcDbEntity
  8
Layer_1
 62
7
100
AcDbSpline
 70
8
 71
3
 72
8
 73
4
 74
0
 40
0
 40
0
 40
0
 40
0
 40
1
 40
1
 40
1
 40
1
 10
119.404100
 20
187.792540
 30
0.0
 10
119.641167
 20
188.317473
 30
0.0
 10
119.827433
 20
188.850873
 30
0.0
 10
119.962900
 20
189.392740
 30
0.0
  0
SPLINE
  5
263
100
AcDbEntity
  8
Layer_1
 62
7
100
AcDbSpline
 70
8
 71
3
 72
8
 73
4
 74
0
 40
0
 40
0
 40
0
 40
0
 40
1
 40
1
 40
1
 40
1
 10
119.962900
 20
189.392740
 30
0.0
 10
120.098367
 20
189.934607
 30
0.0
 10
120.149167
 20
190.417207
 30
0.0
 10
120.115300
 20
190.840540
 30
0.0
  0
SPLINE
  5
264
100
AcDbEntity
  8
Layer_1
 62
7
100
AcDbSpline
 70
8
 71
3
 72
8
 73
4
 74
0
 40
0
 40
0
 40
0
 40
0
 40
1
 40
1
 40
1
 40
1
 10
120.115300
 20
190.840540
 30
0.0
 10
120.098367
 20
191.145340
 30
0.0
 10
120.064500
 20
191.365473
 30
0.0
 10
120.013700
 20
191.500940
 30
0.0
  0
SPLINE
  5
265
100
AcDbEntity
  8
Layer_1
 62
7
100
AcDbSpline
 70
8
 71
3
 72
8
 73
4
 74
0
 40
0
 40
0
 40
0
 40
0
 40
1
 40
1
 40
1
 40
1
 10
120.013700
 20
191.500940
 30
0.0
 10
119.962900
 20
191.636407
 30
0.0
 10
119.895167
 20
191.712607
 30
0.0
 10
119.810500
 20
191.729540
 30
0.0
  0
SPLINE
  5
266
100
AcDbEntity
  8
Layer_1
 62
7
100
AcDbSpline
 70
8
 71
3
 72
8
 73
4
 74
0
 40
0
 40
0
 40
0
 40
0
 40
1
 40
1
 40
1
 40
1
 10
119.810500
 20
191.729540
 30
0.0
 10
119.742767
 20
191.746473
 30
0.0
 10
119.666567
 20
191.712607
 30
0.0
 10
119.581900
 20
191.627940
 30
0.0
  0
SPLINE
  5
267
100
AcDbEntity
  8
Layer_1
 62
7
100
AcDbSpline
 70
8
 71
3
 72
8
 73
4
 74
0
 40
0
 40
0
 40
0
 40
0
 40
1
 40
1
 40
1
 40
1
 10
119.581900
 20
191.627940
 30
0.0
 10
119.497233
 20
191.560207
 30
0.0
 10
119.421033
 20
191.467073
 30
0.0
 10
119.353300
 20
191.348540
 30
0.0
  0
SPLINE
  5
268
100
AcDbEntity
  8
Layer_1
 62
7
100
AcDbSpline
 70
8
 71
3
 72
8
 73
4
 74
0
 40
0
 40
0
 40
0
 40
0
 40
1
 40
1
 40
1
 40
1
 10
119.353300
 20
191.348540
 30
0.0
 10
119.200900
 20
191.111473
 30
0.0
 10
119.090833
 20
190.840540
 30
0.0
 10
119.023100
 20
190.535740
 30
0.0
  0
SPLINE
  5
269
100
AcDbEntity
  8
Layer_1
 62
7
100
AcDbSpline
 70
8
 71
3
 72
8
 73
4
 74
0
 40
0
 40
0
 40
0
 40
0
 40
1
 40
1
 40
1
 40
1
 10
119.023100
 20
190.535740
 30
0.0
 10
118.955367
 20
190.230940
 30
0.0
 10
118.921500
 20
189.909207
 30
0.0
 10
118.921500
 20
189.570540
 30
0.0
  0
SPLINE
  5
26a
100
AcDbEntity
  8
Layer_1
 62
7
100
AcDbSpline
 70
8
 71
3
 72
8
 73
4
 74
0
 40
0
 40
0
 40
0
 40
0
 40
1
 40
1
 40
1
 40
1
 10
118.921500
 20
189.570540
 30
0.0
 10
118.938433
 20
189.248807
 30
0.0
 10
118.980767
 20
188.927073
 30
0.0
 10
119.048500
 20
188.605340
 30
0.0
  0
SPLINE
  5
26b
100
AcDbEntity
  8
Layer_1
 62
7
100
AcDbSpline
 70
8
 71
3
 72
8
 73
4
 74
0
 40
0
 40
0
 40
0
 40
0
 40
1
 40
1
 40
1
 40
1
 10
119.048500
 20
188.605340
 30
0.0
 10
119.133167
 20
188.300540
 30
0.0
 10
119.251700
 20
188.029607
 30
0.0
 10
119.404100
 20
187.792540
 30
0.0
  0
LWPOLYLINE
  5
26c
100
AcDbEntity
  8
Layer_1
 62
7
100
AcDbPolyline
 90
1
 70
1
 10
118.667500
 20
185.709740
 30
0.0
  0
SPLINE
  5
26d
100
AcDbEntity
  8
Layer_1
 62
7
100
AcDbSpline
 70
8
 71
3
 72
8
 73
4
 74
0
 40
0
 40
0
 40
0
 40
0
 40
1
 40
1
 40
1
 40
1
 10
127.049500
 20
190.434140
 30
0.0
 10
126.761633
 20
190.806673
 30
0.0
 10
126.465300
 20
191.026807
 30
0.0
 10
126.160500
 20
191.094540
 30
0.0
  0
SPLINE
  5
26e
100
AcDbEntity
  8
Layer_1
 62
7
100
AcDbSpline
 70
8
 71
3
 72
8
 73
4
 74
0
 40
0
 40
0
 40
0
 40
0
 40
1
 40
1
 40
1
 40
1
 10
126.160500
 20
191.094540
 30
0.0
 10
125.872633
 20
191.162273
 30
0.0
 10
125.584767
 20
191.136873
 30
0.0
 10
125.296900
 20
191.018340
 30
0.0
  0
SPLINE
  5
26f
100
AcDbEntity
  8
Layer_1
 62
7
100
AcDbSpline
 70
8
 71
3
 72
8
 73
4
 74
0
 40
0
 40
0
 40
0
 40
0
 40
1
 40
1
 40
1
 40
1
 10
125.296900
 20
191.018340
 30
0.0
 10
125.025967
 20
190.899807
 30
0.0
 10
124.763500
 20
190.705073
 30
0.0
 10
124.509500
 20
190.434140
 30
0.0
  0
SPLINE
  5
270
100
AcDbEntity
  8
Layer_1
 62
7
100
AcDbSpline
 70
8
 71
3
 72
8
 73
4
 74
0
 40
0
 40
0
 40
0
 40
0
 40
1
 40
1
 40
1
 40
1
 10
124.509500
 20
190.434140
 30
0.0
 10
124.272433
 20
190.180140
 30
0.0
 10
124.060767
 20
189.909207
 30
0.0
 10
123.874500
 20
189.621340
 30
0.0
  0
SPLINE
  5
271
100
AcDbEntity
  8
Layer_1
 62
7
100
AcDbSpline
 70
8
 71
3
 72
8
 73
4
 74
0
 40
0
 40
0
 40
0
 40
0
 40
1
 40
1
 40
1
 40
1
 10
123.874500
 20
189.621340
 30
0.0
 10
123.569700
 20
189.147207
 30
0.0
 10
123.366500
 20
188.639207
 30
0.0
 10
123.264900
 20
188.097340
 30
0.0
  0
SPLINE
  5
272
100
AcDbEntity
  8
Layer_1
 62
7
100
AcDbSpline
 70
8
 71
3
 72
8
 73
4
 74
0
 40
0
 40
0
 40
0
 40
0
 40
1
 40
1
 40
1
 40
1
 10
123.264900
 20
188.097340
 30
0.0
 10
123.129433
 20
187.403073
 30
0.0
 10
123.154833
 20
186.903540
 30
0.0
 10
123.341100
 20
186.598740
 30
0.0
  0
SPLINE
  5
273
100
AcDbEntity
  8
Layer_1
 62
7
100
AcDbSpline
 70
8
 71
3
 72
8
 73
4
 74
0
 40
0
 40
0
 40
0
 40
0
 40
1
 40
1
 40
1
 40
1
 10
123.341100
 20
186.598740
 30
0.0
 10
123.527367
 20
186.310873
 30
0.0
 10
123.781367
 20
186.183873
 30
0.0
 10
124.103100
 20
186.217740
 30
0.0
  0
SPLINE
  5
274
100
AcDbEntity
  8
Layer_1
 62
7
100
AcDbSpline
 70
8
 71
3
 72
8
 73
4
 74
0
 40
0
 40
0
 40
0
 40
0
 40
1
 40
1
 40
1
 40
1
 10
124.103100
 20
186.217740
 30
0.0
 10
124.441767
 20
186.251607
 30
0.0
 10
124.805833
 20
186.437873
 30
0.0
 10
125.195300
 20
186.776540
 30
0.0
  0
SPLINE
  5
275
100
AcDbEntity
  8
Layer_1
 62
7
100
AcDbSpline
 70
8
 71
3
 72
8
 73
4
 74
0
 40
0
 40
0
 40
0
 40
0
 40
1
 40
1
 40
1
 40
1
 10
125.195300
 20
186.776540
 30
0.0
 10
125.601700
 20
187.132140
 30
0.0
 10
125.965767
 20
187.614740
 30
0.0
 10
126.287500
 20
188.224340
 30
0.0
  0
SPLINE
  5
276
100
AcDbEntity
  8
Layer_1
 62
7
100
AcDbSpline
 70
8
 71
3
 72
8
 73
4
 74
0
 40
0
 40
0
 40
0
 40
0
 40
1
 40
1
 40
1
 40
1
 10
126.287500
 20
188.224340
 30
0.0
 10
126.541500
 20
189.037140
 30
0.0
 10
126.795500
 20
189.773740
 30
0.0
 10
127.049500
 20
190.434140
 30
0.0
  0
LWPOLYLINE
  5
277
100
AcDbEntity
  8
Layer_1
 62
7
100
AcDbPolyline
 90
1
 70
1
 10
119.404100
 20
187.792540
 30
0.0
  0
SPLINE
  5
278
100
AcDbEntity
  8
Layer_1
 62
7
100
AcDbSpline
 70
8
 71
3
 72
8
 73
4
 74
0
 40
0
 40
0
 40
0
 40
0
 40
1
 40
1
 40
1
 40
1
 10
131.215100
 20
186.700340
 30
0.0
 10
130.876433
 20
186.124607
 30
0.0
 10
130.486967
 20
185.523473
 30
0.0
 10
130.046700
 20
184.896940
 30
0.0
  0
SPLINE
  5
279
100
AcDbEntity
  8
Layer_1
 62
7
100
AcDbSpline
 70
8
 71
3
 72
8
 73
4
 74
0
 40
0
 40
0
 40
0
 40
0
 40
1
 40
1
 40
1
 40
1
 10
130.046700
 20
184.896940
 30
0.0
 10
129.623367
 20
184.287340
 30
0.0
 10
129.149233
 20
183.762407
 30
0.0
 10
128.624300
 20
183.322140
 30
0.0
  0
SPLINE
  5
27a
100
AcDbEntity
  8
Layer_1
 62
7
100
AcDbSpline
 70
8
 71
3
 72
8
 73
4
 74
0
 40
0
 40
0
 40
0
 40
0
 40
1
 40
1
 40
1
 40
1
 10
128.624300
 20
183.322140
 30
0.0
 10
128.336433
 20
183.068140
 30
0.0
 10
128.014700
 20
182.873407
 30
0.0
 10
127.659100
 20
182.737940
 30
0.0
  0
SPLINE
  5
27b
100
AcDbEntity
  8
Layer_1
 62
7
100
AcDbSpline
 70
8
 71
3
 72
8
 73
4
 74
0
 40
0
 40
0
 40
0
 40
0
 40
1
 40
1
 40
1
 40
1
 10
127.659100
 20
182.737940
 30
0.0
 10
127.320433
 20
182.619407
 30
0.0
 10
126.981767
 20
182.678673
 30
0.0
 10
126.643100
 20
182.915740
 30
0.0
  0
SPLINE
  5
27c
100
AcDbEntity
  8
Layer_1
 62
7
100
AcDbSpline
 70
8
 71
3
 72
8
 73
4
 74
0
 40
0
 40
0
 40
0
 40
0
 40
1
 40
1
 40
1
 40
1
 10
126.643100
 20
182.915740
 30
0.0
 10
126.202833
 20
183.203607
 30
0.0
 10
125.914967
 20
183.737007
 30
0.0
 10
125.779500
 20
184.515940
 30
0.0
  0
SPLINE
  5
27d
100
AcDbEntity
  8
Layer_1
 62
7
100
AcDbSpline
 70
8
 71
3
 72
8
 73
4
 74
0
 40
0
 40
0
 40
0
 40
0
 40
1
 40
1
 40
1
 40
1
 10
125.779500
 20
184.515940
 30
0.0
 10
125.660967
 20
185.311807
 30
0.0
 10
125.728700
 20
186.200807
 30
0.0
 10
125.982700
 20
187.182940
 30
0.0
  0
SPLINE
  5
27e
100
AcDbEntity
  8
Layer_1
 62
7
100
AcDbSpline
 70
8
 71
3
 72
8
 73
4
 74
0
 40
0
 40
0
 40
0
 40
0
 40
1
 40
1
 40
1
 40
1
 10
125.982700
 20
187.182940
 30
0.0
 10
125.762567
 20
186.878140
 30
0.0
 10
125.483167
 20
186.598740
 30
0.0
 10
125.144500
 20
186.344740
 30
0.0
  0
SPLINE
  5
27f
100
AcDbEntity
  8
Layer_1
 62
7
100
AcDbSpline
 70
8
 71
3
 72
8
 73
4
 74
0
 40
0
 40
0
 40
0
 40
0
 40
1
 40
1
 40
1
 40
1
 10
125.144500
 20
186.344740
 30
0.0
 10
124.805833
 20
186.090740
 30
0.0
 10
124.450233
 20
185.904473
 30
0.0
 10
124.077700
 20
185.785940
 30
0.0
  0
SPLINE
  5
280
100
AcDbEntity
  8
Layer_1
 62
7
100
AcDbSpline
 70
8
 71
3
 72
8
 73
4
 74
0
 40
0
 40
0
 40
0
 40
0
 40
1
 40
1
 40
1
 40
1
 10
124.077700
 20
185.785940
 30
0.0
 10
123.722100
 20
185.684340
 30
0.0
 10
123.366500
 20
185.675873
 30
0.0
 10
123.010900
 20
185.760540
 30
0.0
  0
SPLINE
  5
281
100
AcDbEntity
  8
Layer_1
 62
7
100
AcDbSpline
 70
8
 71
3
 72
8
 73
4
 74
0
 40
0
 40
0
 40
0
 40
0
 40
1
 40
1
 40
1
 40
1
 10
123.010900
 20
185.760540
 30
0.0
 10
122.672233
 20
185.845207
 30
0.0
 10
122.375900
 20
186.090740
 30
0.0
 10
122.121900
 20
186.497140
 30
0.0
  0
SPLINE
  5
282
100
AcDbEntity
  8
Layer_1
 62
7
100
AcDbSpline
 70
8
 71
3
 72
8
 73
4
 74
0
 40
0
 40
0
 40
0
 40
0
 40
1
 40
1
 40
1
 40
1
 10
122.121900
 20
186.497140
 30
0.0
 10
121.918700
 20
186.801940
 30
0.0
 10
121.808633
 20
187.140607
 30
0.0
 10
121.791700
 20
187.513140
 30
0.0
  0
SPLINE
  5
283
100
AcDbEntity
  8
Layer_1
 62
7
100
AcDbSpline
 70
8
 71
3
 72
8
 73
4
 74
0
 40
0
 40
0
 40
0
 40
0
 40
1
 40
1
 40
1
 40
1
 10
121.791700
 20
187.513140
 30
0.0
 10
121.774767
 20
187.885673
 30
0.0
 10
121.817100
 20
188.249740
 30
0.0
 10
121.918700
 20
188.605340
 30
0.0
  0
SPLINE
  5
284
100
AcDbEntity
  8
Layer_1
 62
7
100
AcDbSpline
 70
8
 71
3
 72
8
 73
4
 74
0
 40
0
 40
0
 40
0
 40
0
 40
1
 40
1
 40
1
 40
1
 10
121.918700
 20
188.605340
 30
0.0
 10
122.037233
 20
188.960940
 30
0.0
 10
122.198100
 20
189.299607
 30
0.0
 10
122.401300
 20
189.621340
 30
0.0
  0
SPLINE
  5
285
100
AcDbEntity
  8
Layer_1
 62
7
100
AcDbSpline
 70
8
 71
3
 72
8
 73
4
 74
0
 40
0
 40
0
 40
0
 40
0
 40
1
 40
1
 40
1
 40
1
 10
122.401300
 20
189.621340
 30
0.0
 10
122.621433
 20
189.960007
 30
0.0
 10
122.850033
 20
190.247873
 30
0.0
 10
123.087100
 20
190.484940
 30
0.0
  0
SPLINE
  5
286
100
AcDbEntity
  8
Layer_1
 62
7
100
AcDbSpline
 70
8
 71
3
 72
8
 73
4
 74
0
 40
0
 40
0
 40
0
 40
0
 40
1
 40
1
 40
1
 40
1
 10
123.087100
 20
190.484940
 30
0.0
 10
123.374967
 20
190.755873
 30
0.0
 10
123.688233
 20
190.976007
 30
0.0
 10
124.026900
 20
191.145340
 30
0.0
  0
SPLINE
  5
287
100
AcDbEntity
  8
Layer_1
 62
7
100
AcDbSpline
 70
8
 71
3
 72
8
 73
4
 74
0
 40
0
 40
0
 40
0
 40
0
 40
1
 40
1
 40
1
 40
1
 10
124.026900
 20
191.145340
 30
0.0
 10
124.382500
 20
191.331607
 30
0.0
 10
124.738100
 20
191.450140
 30
0.0
 10
125.093700
 20
191.500940
 30
0.0
  0
SPLINE
  5
288
100
AcDbEntity
  8
Layer_1
 62
7
100
AcDbSpline
 70
8
 71
3
 72
8
 73
4
 74
0
 40
0
 40
0
 40
0
 40
0
 40
1
 40
1
 40
1
 40
1
 10
125.093700
 20
191.500940
 30
0.0
 10
125.466233
 20
191.551740
 30
0.0
 10
125.830300
 20
191.517873
 30
0.0
 10
126.185900
 20
191.399340
 30
0.0
  0
SPLINE
  5
289
100
AcDbEntity
  8
Layer_1
 62
7
100
AcDbSpline
 70
8
 71
3
 72
8
 73
4
 74
0
 40
0
 40
0
 40
0
 40
0
 40
1
 40
1
 40
1
 40
1
 10
126.185900
 20
191.399340
 30
0.0
 10
126.541500
 20
191.297740
 30
0.0
 10
126.871700
 20
191.094540
 30
0.0
 10
127.176500
 20
190.789740
 30
0.0
  0
SPLINE
  5
28a
100
AcDbEntity
  8
Layer_1
 62
7
100
AcDbSpline
 70
8
 71
3
 72
8
 73
4
 74
0
 40
0
 40
0
 40
0
 40
0
 40
1
 40
1
 40
1
 40
1
 10
127.176500
 20
190.789740
 30
0.0
 10
127.261167
 20
191.026807
 30
0.0
 10
127.388167
 20
191.170740
 30
0.0
 10
127.557500
 20
191.221540
 30
0.0
  0
SPLINE
  5
28b
100
AcDbEntity
  8
Layer_1
 62
7
100
AcDbSpline
 70
8
 71
3
 72
8
 73
4
 74
0
 40
0
 40
0
 40
0
 40
0
 40
1
 40
1
 40
1
 40
1
 10
127.557500
 20
191.221540
 30
0.0
 10
127.726833
 20
191.289273
 30
0.0
 10
127.896167
 20
191.306207
 30
0.0
 10
128.065500
 20
191.272340
 30
0.0
  0
SPLINE
  5
28c
100
AcDbEntity
  8
Layer_1
 62
7
100
AcDbSpline
 70
8
 71
3
 72
8
 73
4
 74
0
 40
0
 40
0
 40
0
 40
0
 40
1
 40
1
 40
1
 40
1
 10
128.065500
 20
191.272340
 30
0.0
 10
128.234833
 20
191.238473
 30
0.0
 10
128.370300
 20
191.162273
 30
0.0
 10
128.471900
 20
191.043740
 30
0.0
  0
SPLINE
  5
28d
100
AcDbEntity
  8
Layer_1
 62
7
100
AcDbSpline
 70
8
 71
3
 72
8
 73
4
 74
0
 40
0
 40
0
 40
0
 40
0
 40
1
 40
1
 40
1
 40
1
 10
128.471900
 20
191.043740
 30
0.0
 10
128.590433
 20
190.942140
 30
0.0
 10
128.632767
 20
190.849007
 30
0.0
 10
128.598900
 20
190.764340
 30
0.0
  0
LWPOLYLINE
  5
28e
100
AcDbEntity
  8
Layer_1
 62
7
100
AcDbPolyline
 90
1
 70
1
 10
127.049500
 20
190.434140
 30
0.0
  0
SPLINE
  5
28f
100
AcDbEntity
  8
Layer_1
 62
7
100
AcDbSpline
 70
8
 71
3
 72
8
 73
4
 74
0
 40
0
 40
0
 40
0
 40
0
 40
1
 40
1
 40
1
 40
1
 10
128.370300
 20
190.180140
 30
0.0
 10
128.217900
 20
189.756807
 30
0.0
 10
128.048567
 20
189.265740
 30
0.0
 10
127.862300
 20
188.706940
 30
0.0
  0
SPLINE
  5
290
100
AcDbEntity
  8
Layer_1
 62
7
100
AcDbSpline
 70
8
 71
3
 72
8
 73
4
 74
0
 40
0
 40
0
 40
0
 40
0
 40
1
 40
1
 40
1
 40
1
 10
127.862300
 20
188.706940
 30
0.0
 10
127.692967
 20
188.165073
 30
0.0
 10
127.532100
 20
187.606273
 30
0.0
 10
127.379700
 20
187.030540
 30
0.0
  0
SPLINE
  5
291
100
AcDbEntity
  8
Layer_1
 62
7
100
AcDbSpline
 70
8
 71
3
 72
8
 73
4
 74
0
 40
0
 40
0
 40
0
 40
0
 40
1
 40
1
 40
1
 40
1
 10
127.379700
 20
187.030540
 30
0.0
 10
127.244233
 20
186.471740
 30
0.0
 10
127.134167
 20
185.921407
 30
0.0
 10
127.049500
 20
185.379540
 30
0.0
  0
SPLINE
  5
292
100
AcDbEntity
  8
Layer_1
 62
7
100
AcDbSpline
 70
8
 71
3
 72
8
 73
4
 74
0
 40
0
 40
0
 40
0
 40
0
 40
1
 40
1
 40
1
 40
1
 10
127.049500
 20
185.379540
 30
0.0
 10
126.981767
 20
184.854607
 30
0.0
 10
126.973300
 20
184.388940
 30
0.0
 10
127.024100
 20
183.982540
 30
0.0
  0
SPLINE
  5
293
100
AcDbEntity
  8
Layer_1
 62
7
100
AcDbSpline
 70
8
 71
3
 72
8
 73
4
 74
0
 40
0
 40
0
 40
0
 40
0
 40
1
 40
1
 40
1
 40
1
 10
127.024100
 20
183.982540
 30
0.0
 10
127.057967
 20
183.694673
 30
0.0
 10
127.125700
 20
183.491473
 30
0.0
 10
127.227300
 20
183.372940
 30
0.0
  0
SPLINE
  5
294
100
AcDbEntity
  8
Layer_1
 62
7
100
AcDbSpline
 70
8
 71
3
 72
8
 73
4
 74
0
 40
0
 40
0
 40
0
 40
0
 40
1
 40
1
 40
1
 40
1
 10
127.227300
 20
183.372940
 30
0.0
 10
127.328900
 20
183.254407
 30
0.0
 10
127.438967
 20
183.186673
 30
0.0
 10
127.557500
 20
183.169740
 30
0.0
  0
SPLINE
  5
295
100
AcDbEntity
  8
Layer_1
 62
7
100
AcDbSpline
 70
8
 71
3
 72
8
 73
4
 74
0
 40
0
 40
0
 40
0
 40
0
 40
1
 40
1
 40
1
 40
1
 10
127.557500
 20
183.169740
 30
0.0
 10
127.692967
 20
183.169740
 30
0.0
 10
127.836900
 20
183.203607
 30
0.0
 10
127.989300
 20
183.271340
 30
0.0
  0
SPLINE
  5
296
100
AcDbEntity
  8
Layer_1
 62
7
100
AcDbSpline
 70
8
 71
3
 72
8
 73
4
 74
0
 40
0
 40
0
 40
0
 40
0
 40
1
 40
1
 40
1
 40
1
 10
127.989300
 20
183.271340
 30
0.0
 10
128.141700
 20
183.356007
 30
0.0
 10
128.294100
 20
183.457607
 30
0.0
 10
128.446500
 20
183.576140
 30
0.0
  0
SPLINE
  5
297
100
AcDbEntity
  8
Layer_1
 62
7
100
AcDbSpline
 70
8
 71
3
 72
8
 73
4
 74
0
 40
0
 40
0
 40
0
 40
0
 40
1
 40
1
 40
1
 40
1
 10
128.446500
 20
183.576140
 30
0.0
 10
128.954500
 20
183.982540
 30
0.0
 10
129.428633
 20
184.499007
 30
0.0
 10
129.868900
 20
185.125540
 30
0.0
  0
SPLINE
  5
298
100
AcDbEntity
  8
Layer_1
 62
7
100
AcDbSpline
 70
8
 71
3
 72
8
 73
4
 74
0
 40
0
 40
0
 40
0
 40
0
 40
1
 40
1
 40
1
 40
1
 10
129.868900
 20
185.125540
 30
0.0
 10
130.309167
 20
185.752073
 30
0.0
 10
130.681700
 20
186.344740
 30
0.0
 10
130.986500
 20
186.903540
 30
0.0
  0
LWPOLYLINE
  5
299
100
AcDbEntity
  8
Layer_1
 62
7
100
AcDbPolyline
 90
2
 70
0
 10
128.598900
 20
190.764340
 30
0.0
 10
128.370300
 20
190.180140
 30
0.0
  0
SPLINE
  5
29a
100
AcDbEntity
  8
Layer_1
 62
7
100
AcDbSpline
 70
8
 71
3
 72
8
 73
4
 74
0
 40
0
 40
0
 40
0
 40
0
 40
1
 40
1
 40
1
 40
1
 10
131.469100
 20
187.817940
 30
0.0
 10
131.486033
 20
187.834873
 30
0.0
 10
131.494500
 20
187.851807
 30
0.0
 10
131.494500
 20
187.868740
 30
0.0
  0
SPLINE
  5
29b
100
AcDbEntity
  8
Layer_1
 62
7
100
AcDbSpline
 70
8
 71
3
 72
8
 73
4
 74
0
 40
0
 40
0
 40
0
 40
0
 40
1
 40
1
 40
1
 40
1
 10
131.494500
 20
187.868740
 30
0.0
 10
131.494500
 20
187.885673
 30
0.0
 10
131.511433
 20
187.911073
 30
0.0
 10
131.545300
 20
187.944940
 30
0.0
  0
SPLINE
  5
29c
100
AcDbEntity
  8
Layer_1
 62
7
100
AcDbSpline
 70
8
 71
3
 72
8
 73
4
 74
0
 40
0
 40
0
 40
0
 40
0
 40
1
 40
1
 40
1
 40
1
 10
131.545300
 20
187.944940
 30
0.0
 10
131.579167
 20
187.978807
 30
0.0
 10
131.655367
 20
188.004207
 30
0.0
 10
131.773900
 20
188.021140
 30
0.0
  0
SPLINE
  5
29d
100
AcDbEntity
  8
Layer_1
 62
7
100
AcDbSpline
 70
8
 71
3
 72
8
 73
4
 74
0
 40
0
 40
0
 40
0
 40
0
 40
1
 40
1
 40
1
 40
1
 10
131.773900
 20
188.021140
 30
0.0
 10
131.892433
 20
188.038073
 30
0.0
 10
131.909367
 20
187.970340
 30
0.0
 10
131.824700
 20
187.817940
 30
0.0
  0
LWPOLYLINE
  5
29e
100
AcDbEntity
  8
Layer_1
 62
7
100
AcDbPolyline
 90
2
 70
0
 10
130.986500
 20
186.903540
 30
0.0
 10
131.469100
 20
187.817940
 30
0.0
  0
SPLINE
  5
29f
100
AcDbEntity
  8
Layer_1
 62
7
100
AcDbSpline
 70
8
 71
3
 72
8
 73
4
 74
0
 40
0
 40
0
 40
0
 40
0
 40
1
 40
1
 40
1
 40
1
 10
134.898100
 20
184.592140
 30
0.0
 10
134.915033
 20
184.101073
 30
0.0
 10
134.872700
 20
183.643873
 30
0.0
 10
134.771100
 20
183.220540
 30
0.0
  0
SPLINE
  5
2a0
100
AcDbEntity
  8
Layer_1
 62
7
100
AcDbSpline
 70
8
 71
3
 72
8
 73
4
 74
0
 40
0
 40
0
 40
0
 40
0
 40
1
 40
1
 40
1
 40
1
 10
134.771100
 20
183.220540
 30
0.0
 10
134.669500
 20
182.797207
 30
0.0
 10
134.466300
 20
182.399273
 30
0.0
 10
134.161500
 20
182.026740
 30
0.0
  0
SPLINE
  5
2a1
100
AcDbEntity
  8
Layer_1
 62
7
100
AcDbSpline
 70
8
 71
3
 72
8
 73
4
 74
0
 40
0
 40
0
 40
0
 40
0
 40
1
 40
1
 40
1
 40
1
 10
134.161500
 20
182.026740
 30
0.0
 10
133.958300
 20
181.789673
 30
0.0
 10
133.678900
 20
181.594940
 30
0.0
 10
133.323300
 20
181.442540
 30
0.0
  0
SPLINE
  5
2a2
100
AcDbEntity
  8
Layer_1
 62
7
100
AcDbSpline
 70
8
 71
3
 72
8
 73
4
 74
0
 40
0
 40
0
 40
0
 40
0
 40
1
 40
1
 40
1
 40
1
 10
133.323300
 20
181.442540
 30
0.0
 10
132.967700
 20
181.307073
 30
0.0
 10
132.612100
 20
181.239340
 30
0.0
 10
132.256500
 20
181.239340
 30
0.0
  0
SPLINE
  5
2a3
100
AcDbEntity
  8
Layer_1
 62
7
100
AcDbSpline
 70
8
 71
3
 72
8
 73
4
 74
0
 40
0
 40
0
 40
0
 40
0
 40
1
 40
1
 40
1
 40
1
 10
132.256500
 20
181.239340
 30
0.0
 10
131.917833
 20
181.239340
 30
0.0
 10
131.629967
 20
181.332473
 30
0.0
 10
131.392900
 20
181.518740
 30
0.0
  0
SPLINE
  5
2a4
100
AcDbEntity
  8
Layer_1
 62
7
100
AcDbSpline
 70
8
 71
3
 72
8
 73
4
 74
0
 40
0
 40
0
 40
0
 40
0
 40
1
 40
1
 40
1
 40
1
 10
131.392900
 20
181.518740
 30
0.0
 10
131.138900
 20
181.705007
 30
0.0
 10
131.020367
 20
182.001340
 30
0.0
 10
131.037300
 20
182.407740
 30
0.0
  0
SPLINE
  5
2a5
100
AcDbEntity
  8
Layer_1
 62
7
100
AcDbSpline
 70
8
 71
3
 72
8
 73
4
 74
0
 40
0
 40
0
 40
0
 40
0
 40
1
 40
1
 40
1
 40
1
 10
131.037300
 20
182.407740
 30
0.0
 10
131.071167
 20
182.746407
 30
0.0
 10
131.189700
 20
183.017340
 30
0.0
 10
131.392900
 20
183.220540
 30
0.0
  0
SPLINE
  5
2a6
100
AcDbEntity
  8
Layer_1
 62
7
100
AcDbSpline
 70
8
 71
3
 72
8
 73
4
 74
0
 40
0
 40
0
 40
0
 40
0
 40
1
 40
1
 40
1
 40
1
 10
131.392900
 20
183.220540
 30
0.0
 10
131.596100
 20
183.423740
 30
0.0
 10
131.833167
 20
183.593073
 30
0.0
 10
132.104100
 20
183.728540
 30
0.0
  0
SPLINE
  5
2a7
100
AcDbEntity
  8
Layer_1
 62
7
100
AcDbSpline
 70
8
 71
3
 72
8
 73
4
 74
0
 40
0
 40
0
 40
0
 40
0
 40
1
 40
1
 40
1
 40
1
 10
132.104100
 20
183.728540
 30
0.0
 10
132.391967
 20
183.864007
 30
0.0
 10
132.654433
 20
183.982540
 30
0.0
 10
132.891500
 20
184.084140
 30
0.0
  0
SPLINE
  5
2a8
100
AcDbEntity
  8
Layer_1
 62
7
100
AcDbSpline
 70
8
 71
3
 72
8
 73
4
 74
0
 40
0
 40
0
 40
0
 40
0
 40
1
 40
1
 40
1
 40
1
 10
132.891500
 20
184.084140
 30
0.0
 10
133.128567
 20
184.202673
 30
0.0
 10
133.365633
 20
184.304273
 30
0.0
 10
133.602700
 20
184.388940
 30
0.0
  0
SPLINE
  5
2a9
100
AcDbEntity
  8
Layer_1
 62
7
100
AcDbSpline
 70
8
 71
3
 72
8
 73
4
 74
0
 40
0
 40
0
 40
0
 40
0
 40
1
 40
1
 40
1
 40
1
 10
133.602700
 20
184.388940
 30
0.0
 10
133.585767
 20
184.846140
 30
0.0
 10
133.526500
 20
185.294873
 30
0.0
 10
133.424900
 20
185.735140
 30
0.0
  0
SPLINE
  5
2aa
100
AcDbEntity
  8
Layer_1
 62
7
100
AcDbSpline
 70
8
 71
3
 72
8
 73
4
 74
0
 40
0
 40
0
 40
0
 40
0
 40
1
 40
1
 40
1
 40
1
 10
133.424900
 20
185.735140
 30
0.0
 10
133.323300
 20
186.175407
 30
0.0
 10
133.213233
 20
186.598740
 30
0.0
 10
133.094700
 20
187.005140
 30
0.0
  0
SPLINE
  5
2ab
100
AcDbEntity
  8
Layer_1
 62
7
100
AcDbSpline
 70
8
 71
3
 72
8
 73
4
 74
0
 40
0
 40
0
 40
0
 40
0
 40
1
 40
1
 40
1
 40
1
 10
133.094700
 20
187.005140
 30
0.0
 10
132.993100
 20
187.428473
 30
0.0
 10
132.891500
 20
187.834873
 30
0.0
 10
132.789900
 20
188.224340
 30
0.0
  0
SPLINE
  5
2ac
100
AcDbEntity
  8
Layer_1
 62
7
100
AcDbSpline
 70
8
 71
3
 72
8
 73
4
 74
0
 40
0
 40
0
 40
0
 40
0
 40
1
 40
1
 40
1
 40
1
 10
132.789900
 20
188.224340
 30
0.0
 10
132.688300
 20
188.613807
 30
0.0
 10
132.629033
 20
188.986340
 30
0.0
 10
132.612100
 20
189.341940
 30
0.0
  0
LWPOLYLINE
  5
2ad
100
AcDbEntity
  8
Layer_1
 62
7
100
AcDbPolyline
 90
2
 70
0
 10
131.824700
 20
187.817940
 30
0.0
 10
131.215100
 20
186.700340
 30
0.0
  0
SPLINE
  5
2ae
100
AcDbEntity
  8
Layer_1
 62
7
100
AcDbSpline
 70
8
 71
3
 72
8
 73
4
 74
0
 40
0
 40
0
 40
0
 40
0
 40
1
 40
1
 40
1
 40
1
 10
131.748500
 20
187.665540
 30
0.0
 10
131.714633
 20
187.597807
 30
0.0
 10
131.655367
 20
187.580873
 30
0.0
 10
131.570700
 20
187.614740
 30
0.0
  0
SPLINE
  5
2af
100
AcDbEntity
  8
Layer_1
 62
7
100
AcDbSpline
 70
8
 71
3
 72
8
 73
4
 74
0
 40
0
 40
0
 40
0
 40
0
 40
1
 40
1
 40
1
 40
1
 10
131.570700
 20
187.614740
 30
0.0
 10
131.486033
 20
187.665540
 30
0.0
 10
131.460633
 20
187.733273
 30
0.0
 10
131.494500
 20
187.817940
 30
0.0
  0
SPLINE
  5
2b0
100
AcDbEntity
  8
Layer_1
 62
7
100
AcDbSpline
 70
8
 71
3
 72
8
 73
4
 74
0
 40
0
 40
0
 40
0
 40
0
 40
1
 40
1
 40
1
 40
1
 10
131.494500
 20
187.817940
 30
0.0
 10
131.680767
 20
188.190473
 30
0.0
 10
131.875500
 20
188.571473
 30
0.0
 10
132.078700
 20
188.960940
 30
0.0
  0
SPLINE
  5
2b1
100
AcDbEntity
  8
Layer_1
 62
7
100
AcDbSpline
 70
8
 71
3
 72
8
 73
4
 74
0
 40
0
 40
0
 40
0
 40
0
 40
1
 40
1
 40
1
 40
1
 10
132.078700
 20
188.960940
 30
0.0
 10
132.281900
 20
189.350407
 30
0.0
 10
132.468167
 20
189.739873
 30
0.0
 10
132.637500
 20
190.129340
 30
0.0
  0
SPLINE
  5
2b2
100
AcDbEntity
  8
Layer_1
 62
7
100
AcDbSpline
 70
8
 71
3
 72
8
 73
4
 74
0
 40
0
 40
0
 40
0
 40
0
 40
1
 40
1
 40
1
 40
1
 10
132.637500
 20
190.129340
 30
0.0
 10
132.705233
 20
190.366407
 30
0.0
 10
132.806833
 20
190.578073
 30
0.0
 10
132.942300
 20
190.764340
 30
0.0
  0
SPLINE
  5
2b3
100
AcDbEntity
  8
Layer_1
 62
7
100
AcDbSpline
 70
8
 71
3
 72
8
 73
4
 74
0
 40
0
 40
0
 40
0
 40
0
 40
1
 40
1
 40
1
 40
1
 10
132.942300
 20
190.764340
 30
0.0
 10
133.094700
 20
190.967540
 30
0.0
 10
133.306367
 20
191.128407
 30
0.0
 10
133.577300
 20
191.246940
 30
0.0
  0
SPLINE
  5
2b4
100
AcDbEntity
  8
Layer_1
 62
7
100
AcDbSpline
 70
8
 71
3
 72
8
 73
4
 74
0
 40
0
 40
0
 40
0
 40
0
 40
1
 40
1
 40
1
 40
1
 10
133.577300
 20
191.246940
 30
0.0
 10
133.729700
 20
191.314673
 30
0.0
 10
133.839767
 20
191.263873
 30
0.0
 10
133.907500
 20
191.094540
 30
0.0
  0
SPLINE
  5
2b5
100
AcDbEntity
  8
Layer_1
 62
7
100
AcDbSpline
 70
8
 71
3
 72
8
 73
4
 74
0
 40
0
 40
0
 40
0
 40
0
 40
1
 40
1
 40
1
 40
1
 10
133.907500
 20
191.094540
 30
0.0
 10
133.992167
 20
190.925207
 30
0.0
 10
134.000633
 20
190.781273
 30
0.0
 10
133.932900
 20
190.662740
 30
0.0
  0
SPLINE
  5
2b6
100
AcDbEntity
  8
Layer_1
 62
7
100
AcDbSpline
 70
8
 71
3
 72
8
 73
4
 74
0
 40
0
 40
0
 40
0
 40
0
 40
1
 40
1
 40
1
 40
1
 10
133.932900
 20
190.662740
 30
0.0
 10
133.882100
 20
190.256340
 30
0.0
 10
133.890567
 20
189.816073
 30
0.0
 10
133.958300
 20
189.341940
 30
0.0
  0
SPLINE
  5
2b7
100
AcDbEntity
  8
Layer_1
 62
7
100
AcDbSpline
 70
8
 71
3
 72
8
 73
4
 74
0
 40
0
 40
0
 40
0
 40
0
 40
1
 40
1
 40
1
 40
1
 10
133.958300
 20
189.341940
 30
0.0
 10
134.042967
 20
188.884740
 30
0.0
 10
134.144567
 20
188.410607
 30
0.0
 10
134.263100
 20
187.919540
 30
0.0
  0
SPLINE
  5
2b8
100
AcDbEntity
  8
Layer_1
 62
7
100
AcDbSpline
 70
8
 71
3
 72
8
 73
4
 74
0
 40
0
 40
0
 40
0
 40
0
 40
1
 40
1
 40
1
 40
1
 10
134.263100
 20
187.919540
 30
0.0
 10
134.381633
 20
187.428473
 30
0.0
 10
134.500167
 20
186.928940
 30
0.0
 10
134.618700
 20
186.420940
 30
0.0
  0
SPLINE
  5
2b9
100
AcDbEntity
  8
Layer_1
 62
7
100
AcDbSpline
 70
8
 71
3
 72
8
 73
4
 74
0
 40
0
 40
0
 40
0
 40
0
 40
1
 40
1
 40
1
 40
1
 10
134.618700
 20
186.420940
 30
0.0
 10
134.737233
 20
185.912940
 30
0.0
 10
134.821900
 20
185.421873
 30
0.0
 10
134.872700
 20
184.947740
 30
0.0
  0
SPLINE
  5
2ba
100
AcDbEntity
  8
Layer_1
 62
7
100
AcDbSpline
 70
8
 71
3
 72
8
 73
4
 74
0
 40
0
 40
0
 40
0
 40
0
 40
1
 40
1
 40
1
 40
1
 10
134.872700
 20
184.947740
 30
0.0
 10
135.533100
 20
185.286407
 30
0.0
 10
136.083433
 20
185.718207
 30
0.0
 10
136.523700
 20
186.243140
 30
0.0
  0
SPLINE
  5
2bb
100
AcDbEntity
  8
Layer_1
 62
7
100
AcDbSpline
 70
8
 71
3
 72
8
 73
4
 74
0
 40
0
 40
0
 40
0
 40
0
 40
1
 40
1
 40
1
 40
1
 10
136.523700
 20
186.243140
 30
0.0
 10
136.963967
 20
186.768073
 30
0.0
 10
137.353433
 20
187.326873
 30
0.0
 10
137.692100
 20
187.919540
 30
0.0
  0
LWPOLYLINE
  5
2bc
100
AcDbEntity
  8
Layer_1
 62
7
100
AcDbPolyline
 90
3
 70
0
 10
132.612100
 20
189.341940
 30
0.0
 10
131.824700
 20
187.817940
 30
0.0
 10
131.748500
 20
187.665540
 30
0.0
  0
SPLINE
  5
2bd
100
AcDbEntity
  8
Layer_1
 62
7
100
AcDbSpline
 70
8
 71
3
 72
8
 73
4
 74
0
 40
0
 40
0
 40
0
 40
0
 40
1
 40
1
 40
1
 40
1
 10
137.768300
 20
188.046540
 30
0.0
 10
137.802167
 20
188.148140
 30
0.0
 10
137.869900
 20
188.165073
 30
0.0
 10
137.971500
 20
188.097340
 30
0.0
  0
SPLINE
  5
2be
100
AcDbEntity
  8
Layer_1
 62
7
100
AcDbSpline
 70
8
 71
3
 72
8
 73
4
 74
0
 40
0
 40
0
 40
0
 40
0
 40
1
 40
1
 40
1
 40
1
 10
137.971500
 20
188.097340
 30
0.0
 10
138.056167
 20
188.046540
 30
0.0
 10
138.073100
 20
187.978807
 30
0.0
 10
138.022300
 20
187.894140
 30
0.0
  0
SPLINE
  5
2bf
100
AcDbEntity
  8
Layer_1
 62
7
100
AcDbSpline
 70
8
 71
3
 72
8
 73
4
 74
0
 40
0
 40
0
 40
0
 40
0
 40
1
 40
1
 40
1
 40
1
 10
138.022300
 20
187.894140
 30
0.0
 10
137.649767
 20
187.182940
 30
0.0
 10
137.209500
 20
186.547940
 30
0.0
 10
136.701500
 20
185.989140
 30
0.0
  0
SPLINE
  5
2c0
100
AcDbEntity
  8
Layer_1
 62
7
100
AcDbSpline
 70
8
 71
3
 72
8
 73
4
 74
0
 40
0
 40
0
 40
0
 40
0
 40
1
 40
1
 40
1
 40
1
 10
136.701500
 20
185.989140
 30
0.0
 10
136.210433
 20
185.447273
 30
0.0
 10
135.609300
 20
184.981607
 30
0.0
 10
134.898100
 20
184.592140
 30
0.0
  0
LWPOLYLINE
  5
2c1
100
AcDbEntity
  8
Layer_1
 62
7
100
AcDbPolyline
 90
2
 70
0
 10
137.692100
 20
187.919540
 30
0.0
 10
137.768300
 20
188.046540
 30
0.0
  0
SPLINE
  5
2c2
100
AcDbEntity
  8
Layer_1
 62
7
100
AcDbSpline
 70
8
 71
3
 72
8
 73
4
 74
0
 40
0
 40
0
 40
0
 40
0
 40
1
 40
1
 40
1
 40
1
 10
133.577300
 20
184.084140
 30
0.0
 10
133.086233
 20
183.864007
 30
0.0
 10
132.679833
 20
183.677740
 30
0.0
 10
132.358100
 20
183.525340
 30
0.0
  0
SPLINE
  5
2c3
100
AcDbEntity
  8
Layer_1
 62
7
100
AcDbSpline
 70
8
 71
3
 72
8
 73
4
 74
0
 40
0
 40
0
 40
0
 40
0
 40
1
 40
1
 40
1
 40
1
 10
132.358100
 20
183.525340
 30
0.0
 10
132.036367
 20
183.372940
 30
0.0
 10
131.790833
 20
183.203607
 30
0.0
 10
131.621500
 20
183.017340
 30
0.0
  0
SPLINE
  5
2c4
100
AcDbEntity
  8
Layer_1
 62
7
100
AcDbSpline
 70
8
 71
3
 72
8
 73
4
 74
0
 40
0
 40
0
 40
0
 40
0
 40
1
 40
1
 40
1
 40
1
 10
131.621500
 20
183.017340
 30
0.0
 10
131.452167
 20
182.814140
 30
0.0
 10
131.367500
 20
182.602473
 30
0.0
 10
131.367500
 20
182.382340
 30
0.0
  0
SPLINE
  5
2c5
100
AcDbEntity
  8
Layer_1
 62
7
100
AcDbSpline
 70
8
 71
3
 72
8
 73
4
 74
0
 40
0
 40
0
 40
0
 40
0
 40
1
 40
1
 40
1
 40
1
 10
131.367500
 20
182.382340
 30
0.0
 10
131.367500
 20
182.179140
 30
0.0
 10
131.418300
 20
182.001340
 30
0.0
 10
131.519900
 20
181.848940
 30
0.0
  0
SPLINE
  5
2c6
100
AcDbEntity
  8
Layer_1
 62
7
100
AcDbSpline
 70
8
 71
3
 72
8
 73
4
 74
0
 40
0
 40
0
 40
0
 40
0
 40
1
 40
1
 40
1
 40
1
 10
131.519900
 20
181.848940
 30
0.0
 10
131.638433
 20
181.713473
 30
0.0
 10
131.790833
 20
181.637273
 30
0.0
 10
131.977100
 20
181.620340
 30
0.0
  0
SPLINE
  5
2c7
100
AcDbEntity
  8
Layer_1
 62
7
100
AcDbSpline
 70
8
 71
3
 72
8
 73
4
 74
0
 40
0
 40
0
 40
0
 40
0
 40
1
 40
1
 40
1
 40
1
 10
131.977100
 20
181.620340
 30
0.0
 10
132.180300
 20
181.603407
 30
0.0
 10
132.391967
 20
181.696540
 30
0.0
 10
132.612100
 20
181.899740
 30
0.0
  0
SPLINE
  5
2c8
100
AcDbEntity
  8
Layer_1
 62
7
100
AcDbSpline
 70
8
 71
3
 72
8
 73
4
 74
0
 40
0
 40
0
 40
0
 40
0
 40
1
 40
1
 40
1
 40
1
 10
132.612100
 20
181.899740
 30
0.0
 10
132.916900
 20
182.187607
 30
0.0
 10
133.153967
 20
182.526273
 30
0.0
 10
133.323300
 20
182.915740
 30
0.0
  0
SPLINE
  5
2c9
100
AcDbEntity
  8
Layer_1
 62
7
100
AcDbSpline
 70
8
 71
3
 72
8
 73
4
 74
0
 40
0
 40
0
 40
0
 40
0
 40
1
 40
1
 40
1
 40
1
 10
133.323300
 20
182.915740
 30
0.0
 10
133.492633
 20
183.305207
 30
0.0
 10
133.577300
 20
183.694673
 30
0.0
 10
133.577300
 20
184.084140
 30
0.0
  0
LWPOLYLINE
  5
2ca
100
AcDbEntity
  8
Layer_1
 62
7
100
AcDbPolyline
 90
1
 70
1
 10
134.898100
 20
184.592140
 30
0.0
  0
SPLINE
  5
2cb
100
AcDbEntity
  8
Layer_1
 62
7
100
AcDbSpline
 70
8
 71
3
 72
8
 73
4
 74
0
 40
0
 40
0
 40
0
 40
0
 40
1
 40
1
 40
1
 40
1
 10
147.293310
 20
187.817940
 30
0.0
 10
146.937710
 20
187.140607
 30
0.0
 10
146.429710
 20
186.590273
 30
0.0
 10
145.769310
 20
186.166940
 30
0.0
  0
SPLINE
  5
2cc
100
AcDbEntity
  8
Layer_1
 62
7
100
AcDbSpline
 70
8
 71
3
 72
8
 73
4
 74
0
 40
0
 40
0
 40
0
 40
0
 40
1
 40
1
 40
1
 40
1
 10
145.769310
 20
186.166940
 30
0.0
 10
145.125843
 20
185.743607
 30
0.0
 10
144.448510
 20
185.548873
 30
0.0
 10
143.737310
 20
185.582740
 30
0.0
  0
SPLINE
  5
2cd
100
AcDbEntity
  8
Layer_1
 62
7
100
AcDbSpline
 70
8
 71
3
 72
8
 73
4
 74
0
 40
0
 40
0
 40
0
 40
0
 40
1
 40
1
 40
1
 40
1
 10
143.737310
 20
185.582740
 30
0.0
 10
143.618777
 20
185.345673
 30
0.0
 10
143.483310
 20
185.125540
 30
0.0
 10
143.330910
 20
184.922340
 30
0.0
  0
SPLINE
  5
2ce
100
AcDbEntity
  8
Layer_1
 62
7
100
AcDbSpline
 70
8
 71
3
 72
8
 73
4
 74
0
 40
0
 40
0
 40
0
 40
0
 40
1
 40
1
 40
1
 40
1
 10
143.330910
 20
184.922340
 30
0.0
 10
143.195443
 20
184.736073
 30
0.0
 10
143.051510
 20
184.558273
 30
0.0
 10
142.899110
 20
184.388940
 30
0.0
  0
SPLINE
  5
2cf
100
AcDbEntity
  8
Layer_1
 62
7
100
AcDbSpline
 70
8
 71
3
 72
8
 73
4
 74
0
 40
0
 40
0
 40
0
 40
0
 40
1
 40
1
 40
1
 40
1
 10
142.899110
 20
184.388940
 30
0.0
 10
142.628177
 20
184.101073
 30
0.0
 10
142.323377
 20
183.880940
 30
0.0
 10
141.984710
 20
183.728540
 30
0.0
  0
SPLINE
  5
2d0
100
AcDbEntity
  8
Layer_1
 62
7
100
AcDbSpline
 70
8
 71
3
 72
8
 73
4
 74
0
 40
0
 40
0
 40
0
 40
0
 40
1
 40
1
 40
1
 40
1
 10
141.984710
 20
183.728540
 30
0.0
 10
141.646043
 20
183.576140
 30
0.0
 10
141.307377
 20
183.483007
 30
0.0
 10
140.968710
 20
183.449140
 30
0.0
  0
SPLINE
  5
2d1
100
AcDbEntity
  8
Layer_1
 62
7
100
AcDbSpline
 70
8
 71
3
 72
8
 73
4
 74
0
 40
0
 40
0
 40
0
 40
0
 40
1
 40
1
 40
1
 40
1
 10
140.968710
 20
183.449140
 30
0.0
 10
140.630043
 20
183.415273
 30
0.0
 10
140.291377
 20
183.432207
 30
0.0
 10
139.952710
 20
183.499940
 30
0.0
  0
SPLINE
  5
2d2
100
AcDbEntity
  8
Layer_1
 62
7
100
AcDbSpline
 70
8
 71
3
 72
8
 73
4
 74
0
 40
0
 40
0
 40
0
 40
0
 40
1
 40
1
 40
1
 40
1
 10
139.952710
 20
183.499940
 30
0.0
 10
139.614043
 20
183.584607
 30
0.0
 10
139.309243
 20
183.728540
 30
0.0
 10
139.038310
 20
183.931740
 30
0.0
  0
SPLINE
  5
2d3
100
AcDbEntity
  8
Layer_1
 62
7
100
AcDbSpline
 70
8
 71
3
 72
8
 73
4
 74
0
 40
0
 40
0
 40
0
 40
0
 40
1
 40
1
 40
1
 40
1
 10
139.038310
 20
183.931740
 30
0.0
 10
138.648843
 20
184.202673
 30
0.0
 10
138.335577
 20
184.558273
 30
0.0
 10
138.098510
 20
184.998540
 30
0.0
  0
SPLINE
  5
2d4
100
AcDbEntity
  8
Layer_1
 62
7
100
AcDbSpline
 70
8
 71
3
 72
8
 73
4
 74
0
 40
0
 40
0
 40
0
 40
0
 40
1
 40
1
 40
1
 40
1
 10
138.098510
 20
184.998540
 30
0.0
 10
137.878377
 20
185.438807
 30
0.0
 10
137.725977
 20
185.904473
 30
0.0
 10
137.641310
 20
186.395540
 30
0.0
  0
SPLINE
  5
2d5
100
AcDbEntity
  8
Layer_1
 62
7
100
AcDbSpline
 70
8
 71
3
 72
8
 73
4
 74
0
 40
0
 40
0
 40
0
 40
0
 40
1
 40
1
 40
1
 40
1
 10
137.641310
 20
186.395540
 30
0.0
 10
137.573577
 20
186.903540
 30
0.0
 10
137.573577
 20
187.403073
 30
0.0
 10
137.641310
 20
187.894140
 30
0.0
  0
SPLINE
  5
2d6
100
AcDbEntity
  8
Layer_1
 62
7
100
AcDbSpline
 70
8
 71
3
 72
8
 73
4
 74
0
 40
0
 40
0
 40
0
 40
0
 40
1
 40
1
 40
1
 40
1
 10
137.641310
 20
187.894140
 30
0.0
 10
137.709043
 20
188.402140
 30
0.0
 10
137.852977
 20
188.859340
 30
0.0
 10
138.073110
 20
189.265740
 30
0.0
  0
SPLINE
  5
2d7
100
AcDbEntity
  8
Layer_1
 62
7
100
AcDbSpline
 70
8
 71
3
 72
8
 73
4
 74
0
 40
0
 40
0
 40
0
 40
0
 40
1
 40
1
 40
1
 40
1
 10
138.073110
 20
189.265740
 30
0.0
 10
137.785243
 20
189.892273
 30
0.0
 10
137.734443
 20
190.501873
 30
0.0
 10
137.920710
 20
191.094540
 30
0.0
  0
SPLINE
  5
2d8
100
AcDbEntity
  8
Layer_1
 62
7
100
AcDbSpline
 70
8
 71
3
 72
8
 73
4
 74
0
 40
0
 40
0
 40
0
 40
0
 40
1
 40
1
 40
1
 40
1
 10
137.920710
 20
191.094540
 30
0.0
 10
138.106977
 20
191.687207
 30
0.0
 10
138.420243
 20
192.169807
 30
0.0
 10
138.860510
 20
192.542340
 30
0.0
  0
SPLINE
  5
2d9
100
AcDbEntity
  8
Layer_1
 62
7
100
AcDbSpline
 70
8
 71
3
 72
8
 73
4
 74
0
 40
0
 40
0
 40
0
 40
0
 40
1
 40
1
 40
1
 40
1
 10
138.860510
 20
192.542340
 30
0.0
 10
139.317710
 20
192.931807
 30
0.0
 10
139.851110
 20
193.160407
 30
0.0
 10
140.460710
 20
193.228140
 30
0.0
  0
SPLINE
  5
2da
100
AcDbEntity
  8
Layer_1
 62
7
100
AcDbSpline
 70
8
 71
3
 72
8
 73
4
 74
0
 40
0
 40
0
 40
0
 40
0
 40
1
 40
1
 40
1
 40
1
 10
140.460710
 20
193.228140
 30
0.0
 10
141.087243
 20
193.312807
 30
0.0
 10
141.688377
 20
193.160407
 30
0.0
 10
142.264110
 20
192.770940
 30
0.0
  0
SPLINE
  5
2db
100
AcDbEntity
  8
Layer_1
 62
7
100
AcDbSpline
 70
8
 71
3
 72
8
 73
4
 74
0
 40
0
 40
0
 40
0
 40
0
 40
1
 40
1
 40
1
 40
1
 10
142.264110
 20
192.770940
 30
0.0
 10
142.789043
 20
192.381473
 30
0.0
 10
143.212377
 20
191.915807
 30
0.0
 10
143.534110
 20
191.373940
 30
0.0
  0
SPLINE
  5
2dc
100
AcDbEntity
  8
Layer_1
 62
7
100
AcDbSpline
 70
8
 71
3
 72
8
 73
4
 74
0
 40
0
 40
0
 40
0
 40
0
 40
1
 40
1
 40
1
 40
1
 10
143.534110
 20
191.373940
 30
0.0
 10
143.855843
 20
190.832073
 30
0.0
 10
144.075977
 20
190.247873
 30
0.0
 10
144.194510
 20
189.621340
 30
0.0
  0
SPLINE
  5
2dd
100
AcDbEntity
  8
Layer_1
 62
7
100
AcDbSpline
 70
8
 71
3
 72
8
 73
4
 74
0
 40
0
 40
0
 40
0
 40
0
 40
1
 40
1
 40
1
 40
1
 10
144.194510
 20
189.621340
 30
0.0
 10
144.329977
 20
189.011740
 30
0.0
 10
144.372310
 20
188.376740
 30
0.0
 10
144.321510
 20
187.716340
 30
0.0
  0
SPLINE
  5
2de
100
AcDbEntity
  8
Layer_1
 62
7
100
AcDbSpline
 70
8
 71
3
 72
8
 73
4
 74
0
 40
0
 40
0
 40
0
 40
0
 40
1
 40
1
 40
1
 40
1
 10
144.321510
 20
187.716340
 30
0.0
 10
144.270710
 20
187.072873
 30
0.0
 10
144.126777
 20
186.463273
 30
0.0
 10
143.889710
 20
185.887540
 30
0.0
  0
SPLINE
  5
2df
100
AcDbEntity
  8
Layer_1
 62
7
100
AcDbSpline
 70
8
 71
3
 72
8
 73
4
 74
0
 40
0
 40
0
 40
0
 40
0
 40
1
 40
1
 40
1
 40
1
 10
143.889710
 20
185.887540
 30
0.0
 10
144.194510
 20
185.870607
 30
0.0
 10
144.490843
 20
185.912940
 30
0.0
 10
144.778710
 20
186.014540
 30
0.0
  0
SPLINE
  5
2e0
100
AcDbEntity
  8
Layer_1
 62
7
100
AcDbSpline
 70
8
 71
3
 72
8
 73
4
 74
0
 40
0
 40
0
 40
0
 40
0
 40
1
 40
1
 40
1
 40
1
 10
144.778710
 20
186.014540
 30
0.0
 10
145.083510
 20
186.116140
 30
0.0
 10
145.362910
 20
186.251607
 30
0.0
 10
145.616910
 20
186.420940
 30
0.0
  0
SPLINE
  5
2e1
100
AcDbEntity
  8
Layer_1
 62
7
100
AcDbSpline
 70
8
 71
3
 72
8
 73
4
 74
0
 40
0
 40
0
 40
0
 40
0
 40
1
 40
1
 40
1
 40
1
 10
145.616910
 20
186.420940
 30
0.0
 10
145.887843
 20
186.607207
 30
0.0
 10
146.133377
 20
186.818873
 30
0.0
 10
146.353510
 20
187.055940
 30
0.0
  0
SPLINE
  5
2e2
100
AcDbEntity
  8
Layer_1
 62
7
100
AcDbSpline
 70
8
 71
3
 72
8
 73
4
 74
0
 40
0
 40
0
 40
0
 40
0
 40
1
 40
1
 40
1
 40
1
 10
146.353510
 20
187.055940
 30
0.0
 10
146.573643
 20
187.293007
 30
0.0
 10
146.776843
 20
187.547007
 30
0.0
 10
146.963110
 20
187.817940
 30
0.0
  0
SPLINE
  5
2e3
100
AcDbEntity
  8
Layer_1
 62
7
100
AcDbSpline
 70
8
 71
3
 72
8
 73
4
 74
0
 40
0
 40
0
 40
0
 40
0
 40
1
 40
1
 40
1
 40
1
 10
146.963110
 20
187.817940
 30
0.0
 10
147.013910
 20
187.902607
 30
0.0
 10
147.090110
 20
187.936473
 30
0.0
 10
147.191710
 20
187.919540
 30
0.0
  0
SPLINE
  5
2e4
100
AcDbEntity
  8
Layer_1
 62
7
100
AcDbSpline
 70
8
 71
3
 72
8
 73
4
 74
0
 40
0
 40
0
 40
0
 40
0
 40
1
 40
1
 40
1
 40
1
 10
147.191710
 20
187.919540
 30
0.0
 10
147.293310
 20
187.919540
 30
0.0
 10
147.327177
 20
187.885673
 30
0.0
 10
147.293310
 20
187.817940
 30
0.0
  0
LWPOLYLINE
  5
2e5
100
AcDbEntity
  8
Layer_1
 62
7
100
AcDbPolyline
 90
1
 70
1
 10
133.577300
 20
184.084140
 30
0.0
  0
SPLINE
  5
2e6
100
AcDbEntity
  8
Layer_1
 62
7
100
AcDbSpline
 70
8
 71
3
 72
8
 73
4
 74
0
 40
0
 40
0
 40
0
 40
0
 40
1
 40
1
 40
1
 40
1
 10
138.479510
 20
189.849940
 30
0.0
 10
138.564177
 20
189.934607
 30
0.0
 10
138.648843
 20
189.909207
 30
0.0
 10
138.733510
 20
189.773740
 30
0.0
  0
SPLINE
  5
2e7
100
AcDbEntity
  8
Layer_1
 62
7
100
AcDbSpline
 70
8
 71
3
 72
8
 73
4
 74
0
 40
0
 40
0
 40
0
 40
0
 40
1
 40
1
 40
1
 40
1
 10
138.733510
 20
189.773740
 30
0.0
 10
138.835110
 20
189.638273
 30
0.0
 10
138.919777
 20
189.468940
 30
0.0
 10
138.987510
 20
189.265740
 30
0.0
  0
SPLINE
  5
2e8
100
AcDbEntity
  8
Layer_1
 62
7
100
AcDbSpline
 70
8
 71
3
 72
8
 73
4
 74
0
 40
0
 40
0
 40
0
 40
0
 40
1
 40
1
 40
1
 40
1
 10
138.987510
 20
189.265740
 30
0.0
 10
139.072177
 20
189.062540
 30
0.0
 10
139.131443
 20
188.850873
 30
0.0
 10
139.165310
 20
188.630740
 30
0.0
  0
SPLINE
  5
2e9
100
AcDbEntity
  8
Layer_1
 62
7
100
AcDbSpline
 70
8
 71
3
 72
8
 73
4
 74
0
 40
0
 40
0
 40
0
 40
0
 40
1
 40
1
 40
1
 40
1
 10
139.165310
 20
188.630740
 30
0.0
 10
139.216110
 20
188.427540
 30
0.0
 10
139.233043
 20
188.292073
 30
0.0
 10
139.216110
 20
188.224340
 30
0.0
  0
SPLINE
  5
2ea
100
AcDbEntity
  8
Layer_1
 62
7
100
AcDbSpline
 70
8
 71
3
 72
8
 73
4
 74
0
 40
0
 40
0
 40
0
 40
0
 40
1
 40
1
 40
1
 40
1
 10
139.216110
 20
188.224340
 30
0.0
 10
139.757977
 20
187.631673
 30
0.0
 10
140.409910
 20
187.115207
 30
0.0
 10
141.171910
 20
186.674940
 30
0.0
  0
SPLINE
  5
2eb
100
AcDbEntity
  8
Layer_1
 62
7
100
AcDbSpline
 70
8
 71
3
 72
8
 73
4
 74
0
 40
0
 40
0
 40
0
 40
0
 40
1
 40
1
 40
1
 40
1
 10
141.171910
 20
186.674940
 30
0.0
 10
141.950843
 20
186.251607
 30
0.0
 10
142.746710
 20
185.997607
 30
0.0
 10
143.559510
 20
185.912940
 30
0.0
  0
SPLINE
  5
2ec
100
AcDbEntity
  8
Layer_1
 62
7
100
AcDbSpline
 70
8
 71
3
 72
8
 73
4
 74
0
 40
0
 40
0
 40
0
 40
0
 40
1
 40
1
 40
1
 40
1
 10
143.559510
 20
185.912940
 30
0.0
 10
143.796577
 20
186.471740
 30
0.0
 10
143.948977
 20
187.055940
 30
0.0
 10
144.016710
 20
187.665540
 30
0.0
  0
SPLINE
  5
2ed
100
AcDbEntity
  8
Layer_1
 62
7
100
AcDbSpline
 70
8
 71
3
 72
8
 73
4
 74
0
 40
0
 40
0
 40
0
 40
0
 40
1
 40
1
 40
1
 40
1
 10
144.016710
 20
187.665540
 30
0.0
 10
144.084443
 20
188.292073
 30
0.0
 10
144.050577
 20
188.901673
 30
0.0
 10
143.915110
 20
189.494340
 30
0.0
  0
SPLINE
  5
2ee
100
AcDbEntity
  8
Layer_1
 62
7
100
AcDbSpline
 70
8
 71
3
 72
8
 73
4
 74
0
 40
0
 40
0
 40
0
 40
0
 40
1
 40
1
 40
1
 40
1
 10
143.915110
 20
189.494340
 30
0.0
 10
143.796577
 20
190.087007
 30
0.0
 10
143.584910
 20
190.645807
 30
0.0
 10
143.280110
 20
191.170740
 30
0.0
  0
SPLINE
  5
2ef
100
AcDbEntity
  8
Layer_1
 62
7
100
AcDbSpline
 70
8
 71
3
 72
8
 73
4
 74
0
 40
0
 40
0
 40
0
 40
0
 40
1
 40
1
 40
1
 40
1
 10
143.280110
 20
191.170740
 30
0.0
 10
142.975310
 20
191.695673
 30
0.0
 10
142.568910
 20
192.144407
 30
0.0
 10
142.060910
 20
192.516940
 30
0.0
  0
SPLINE
  5
2f0
100
AcDbEntity
  8
Layer_1
 62
7
100
AcDbSpline
 70
8
 71
3
 72
8
 73
4
 74
0
 40
0
 40
0
 40
0
 40
0
 40
1
 40
1
 40
1
 40
1
 10
142.060910
 20
192.516940
 30
0.0
 10
141.569843
 20
192.872540
 30
0.0
 10
141.070310
 20
193.024940
 30
0.0
 10
140.562310
 20
192.974140
 30
0.0
  0
SPLINE
  5
2f1
100
AcDbEntity
  8
Layer_1
 62
7
100
AcDbSpline
 70
8
 71
3
 72
8
 73
4
 74
0
 40
0
 40
0
 40
0
 40
0
 40
1
 40
1
 40
1
 40
1
 10
140.562310
 20
192.974140
 30
0.0
 10
140.054310
 20
192.923340
 30
0.0
 10
139.605577
 20
192.737073
 30
0.0
 10
139.216110
 20
192.415340
 30
0.0
  0
SPLINE
  5
2f2
100
AcDbEntity
  8
Layer_1
 62
7
100
AcDbSpline
 70
8
 71
3
 72
8
 73
4
 74
0
 40
0
 40
0
 40
0
 40
0
 40
1
 40
1
 40
1
 40
1
 10
139.216110
 20
192.415340
 30
0.0
 10
138.826643
 20
192.110540
 30
0.0
 10
138.530310
 20
191.704140
 30
0.0
 10
138.327110
 20
191.196140
 30
0.0
  0
SPLINE
  5
2f3
100
AcDbEntity
  8
Layer_1
 62
7
100
AcDbSpline
 70
8
 71
3
 72
8
 73
4
 74
0
 40
0
 40
0
 40
0
 40
0
 40
1
 40
1
 40
1
 40
1
 10
138.327110
 20
191.196140
 30
0.0
 10
138.140843
 20
190.688140
 30
0.0
 10
138.115443
 20
190.146273
 30
0.0
 10
138.250910
 20
189.570540
 30
0.0
  0
LWPOLYLINE
  5
2f4
100
AcDbEntity
  8
Layer_1
 62
7
100
AcDbPolyline
 90
1
 70
1
 10
147.293310
 20
187.817940
 30
0.0
  0
SPLINE
  5
2f5
100
AcDbEntity
  8
Layer_1
 62
7
100
AcDbSpline
 70
8
 71
3
 72
8
 73
4
 74
0
 40
0
 40
0
 40
0
 40
0
 40
1
 40
1
 40
1
 40
1
 10
139.139910
 20
187.843340
 30
0.0
 10
139.122977
 20
187.589340
 30
0.0
 10
139.122977
 20
187.309940
 30
0.0
 10
139.139910
 20
187.005140
 30
0.0
  0
SPLINE
  5
2f6
100
AcDbEntity
  8
Layer_1
 62
7
100
AcDbSpline
 70
8
 71
3
 72
8
 73
4
 74
0
 40
0
 40
0
 40
0
 40
0
 40
1
 40
1
 40
1
 40
1
 10
139.139910
 20
187.005140
 30
0.0
 10
139.173777
 20
186.700340
 30
0.0
 10
139.224577
 20
186.395540
 30
0.0
 10
139.292310
 20
186.090740
 30
0.0
  0
SPLINE
  5
2f7
100
AcDbEntity
  8
Layer_1
 62
7
100
AcDbSpline
 70
8
 71
3
 72
8
 73
4
 74
0
 40
0
 40
0
 40
0
 40
0
 40
1
 40
1
 40
1
 40
1
 10
139.292310
 20
186.090740
 30
0.0
 10
139.376977
 20
185.785940
 30
0.0
 10
139.478577
 20
185.489607
 30
0.0
 10
139.597110
 20
185.201740
 30
0.0
  0
SPLINE
  5
2f8
100
AcDbEntity
  8
Layer_1
 62
7
100
AcDbSpline
 70
8
 71
3
 72
8
 73
4
 74
0
 40
0
 40
0
 40
0
 40
0
 40
1
 40
1
 40
1
 40
1
 10
139.597110
 20
185.201740
 30
0.0
 10
139.732577
 20
184.930807
 30
0.0
 10
139.893443
 20
184.693740
 30
0.0
 10
140.079710
 20
184.490540
 30
0.0
  0
SPLINE
  5
2f9
100
AcDbEntity
  8
Layer_1
 62
7
100
AcDbSpline
 70
8
 71
3
 72
8
 73
4
 74
0
 40
0
 40
0
 40
0
 40
0
 40
1
 40
1
 40
1
 40
1
 10
140.079710
 20
184.490540
 30
0.0
 10
140.282910
 20
184.270407
 30
0.0
 10
140.503043
 20
184.118007
 30
0.0
 10
140.740110
 20
184.033340
 30
0.0
  0
SPLINE
  5
2fa
100
AcDbEntity
  8
Layer_1
 62
7
100
AcDbSpline
 70
8
 71
3
 72
8
 73
4
 74
0
 40
0
 40
0
 40
0
 40
0
 40
1
 40
1
 40
1
 40
1
 10
140.740110
 20
184.033340
 30
0.0
 10
140.977177
 20
183.965607
 30
0.0
 10
141.214243
 20
183.948673
 30
0.0
 10
141.451310
 20
183.982540
 30
0.0
  0
SPLINE
  5
2fb
100
AcDbEntity
  8
Layer_1
 62
7
100
AcDbSpline
 70
8
 71
3
 72
8
 73
4
 74
0
 40
0
 40
0
 40
0
 40
0
 40
1
 40
1
 40
1
 40
1
 10
141.451310
 20
183.982540
 30
0.0
 10
141.688377
 20
184.016407
 30
0.0
 10
141.916977
 20
184.092607
 30
0.0
 10
142.137110
 20
184.211140
 30
0.0
  0
SPLINE
  5
2fc
100
AcDbEntity
  8
Layer_1
 62
7
100
AcDbSpline
 70
8
 71
3
 72
8
 73
4
 74
0
 40
0
 40
0
 40
0
 40
0
 40
1
 40
1
 40
1
 40
1
 10
142.137110
 20
184.211140
 30
0.0
 10
142.357243
 20
184.329673
 30
0.0
 10
142.560443
 20
184.482073
 30
0.0
 10
142.746710
 20
184.668340
 30
0.0
  0
SPLINE
  5
2fd
100
AcDbEntity
  8
Layer_1
 62
7
100
AcDbSpline
 70
8
 71
3
 72
8
 73
4
 74
0
 40
0
 40
0
 40
0
 40
0
 40
1
 40
1
 40
1
 40
1
 10
142.746710
 20
184.668340
 30
0.0
 10
142.882177
 20
184.803807
 30
0.0
 10
143.009177
 20
184.947740
 30
0.0
 10
143.127710
 20
185.100140
 30
0.0
  0
SPLINE
  5
2fe
100
AcDbEntity
  8
Layer_1
 62
7
100
AcDbSpline
 70
8
 71
3
 72
8
 73
4
 74
0
 40
0
 40
0
 40
0
 40
0
 40
1
 40
1
 40
1
 40
1
 10
143.127710
 20
185.100140
 30
0.0
 10
143.246243
 20
185.269473
 30
0.0
 10
143.347843
 20
185.438807
 30
0.0
 10
143.432510
 20
185.608140
 30
0.0
  0
SPLINE
  5
2ff
100
AcDbEntity
  8
Layer_1
 62
7
100
AcDbSpline
 70
8
 71
3
 72
8
 73
4
 74
0
 40
0
 40
0
 40
0
 40
0
 40
1
 40
1
 40
1
 40
1
 10
143.432510
 20
185.608140
 30
0.0
 10
142.636643
 20
185.709740
 30
0.0
 10
141.857710
 20
185.963740
 30
0.0
 10
141.095710
 20
186.370140
 30
0.0
  0
SPLINE
  5
300
100
AcDbEntity
  8
Layer_1
 62
7
100
AcDbSpline
 70
8
 71
3
 72
8
 73
4
 74
0
 40
0
 40
0
 40
0
 40
0
 40
1
 40
1
 40
1
 40
1
 10
141.095710
 20
186.370140
 30
0.0
 10
140.350643
 20
186.793473
 30
0.0
 10
139.698710
 20
187.284540
 30
0.0
 10
139.139910
 20
187.843340
 30
0.0
  0
LWPOLYLINE
  5
301
100
AcDbEntity
  8
Layer_1
 62
7
100
AcDbPolyline
 90
2
 70
0
 10
138.250910
 20
189.570540
 30
0.0
 10
138.479510
 20
189.849940
 30
0.0
  0
SPLINE
  5
302
100
AcDbEntity
  8
Layer_1
 62
7
100
AcDbSpline
 70
8
 71
3
 72
8
 73
4
 74
0
 40
0
 40
0
 40
0
 40
0
 40
1
 40
1
 40
1
 40
1
 10
152.881320
 20
186.903540
 30
0.0
 10
152.965987
 20
187.039007
 30
0.0
 10
153.042187
 20
187.182940
 30
0.0
 10
153.109920
 20
187.335340
 30
0.0
  0
SPLINE
  5
303
100
AcDbEntity
  8
Layer_1
 62
7
100
AcDbSpline
 70
8
 71
3
 72
8
 73
4
 74
0
 40
0
 40
0
 40
0
 40
0
 40
1
 40
1
 40
1
 40
1
 10
153.109920
 20
187.335340
 30
0.0
 10
153.194587
 20
187.504673
 30
0.0
 10
153.279253
 20
187.665540
 30
0.0
 10
153.363920
 20
187.817940
 30
0.0
  0
LWPOLYLINE
  5
304
100
AcDbEntity
  8
Layer_1
 62
7
100
AcDbPolyline
 90
1
 70
1
 10
139.139910
 20
187.843340
 30
0.0
  0
SPLINE
  5
305
100
AcDbEntity
  8
Layer_1
 62
7
100
AcDbSpline
 70
8
 71
3
 72
8
 73
4
 74
0
 40
0
 40
0
 40
0
 40
0
 40
1
 40
1
 40
1
 40
1
 10
153.363920
 20
187.868740
 30
0.0
 10
153.380853
 20
187.885673
 30
0.0
 10
153.389320
 20
187.911073
 30
0.0
 10
153.389320
 20
187.944940
 30
0.0
  0
SPLINE
  5
306
100
AcDbEntity
  8
Layer_1
 62
7
100
AcDbSpline
 70
8
 71
3
 72
8
 73
4
 74
0
 40
0
 40
0
 40
0
 40
0
 40
1
 40
1
 40
1
 40
1
 10
153.389320
 20
187.944940
 30
0.0
 10
153.406253
 20
187.961873
 30
0.0
 10
153.431653
 20
187.978807
 30
0.0
 10
153.465520
 20
187.995740
 30
0.0
  0
SPLINE
  5
307
100
AcDbEntity
  8
Layer_1
 62
7
100
AcDbSpline
 70
8
 71
3
 72
8
 73
4
 74
0
 40
0
 40
0
 40
0
 40
0
 40
1
 40
1
 40
1
 40
1
 10
153.465520
 20
187.995740
 30
0.0
 10
153.516320
 20
188.029607
 30
0.0
 10
153.558653
 20
188.046540
 30
0.0
 10
153.592520
 20
188.046540
 30
0.0
  0
SPLINE
  5
308
100
AcDbEntity
  8
Layer_1
 62
7
100
AcDbSpline
 70
8
 71
3
 72
8
 73
4
 74
0
 40
0
 40
0
 40
0
 40
0
 40
1
 40
1
 40
1
 40
1
 10
153.592520
 20
188.046540
 30
0.0
 10
153.643320
 20
188.046540
 30
0.0
 10
153.677187
 20
188.029607
 30
0.0
 10
153.694120
 20
187.995740
 30
0.0
  0
SPLINE
  5
309
100
AcDbEntity
  8
Layer_1
 62
7
100
AcDbSpline
 70
8
 71
3
 72
8
 73
4
 74
0
 40
0
 40
0
 40
0
 40
0
 40
1
 40
1
 40
1
 40
1
 10
153.694120
 20
187.995740
 30
0.0
 10
153.727987
 20
187.961873
 30
0.0
 10
153.727987
 20
187.902607
 30
0.0
 10
153.694120
 20
187.817940
 30
0.0
  0
LWPOLYLINE
  5
30a
100
AcDbEntity
  8
Layer_1
 62
7
100
AcDbPolyline
 90
2
 70
0
 10
153.363920
 20
187.817940
 30
0.0
 10
153.363920
 20
187.868740
 30
0.0
  0
SPLINE
  5
30b
100
AcDbEntity
  8
Layer_1
 62
7
100
AcDbSpline
 70
8
 71
3
 72
8
 73
4
 74
0
 40
0
 40
0
 40
0
 40
0
 40
1
 40
1
 40
1
 40
1
 10
153.135320
 20
186.700340
 30
0.0
 10
152.999853
 20
186.429407
 30
0.0
 10
152.830520
 20
186.107673
 30
0.0
 10
152.627320
 20
185.735140
 30
0.0
  0
SPLINE
  5
30c
100
AcDbEntity
  8
Layer_1
 62
7
100
AcDbSpline
 70
8
 71
3
 72
8
 73
4
 74
0
 40
0
 40
0
 40
0
 40
0
 40
1
 40
1
 40
1
 40
1
 10
152.627320
 20
185.735140
 30
0.0
 10
152.424120
 20
185.379540
 30
0.0
 10
152.203987
 20
185.015473
 30
0.0
 10
151.966920
 20
184.642940
 30
0.0
  0
SPLINE
  5
30d
100
AcDbEntity
  8
Layer_1
 62
7
100
AcDbSpline
 70
8
 71
3
 72
8
 73
4
 74
0
 40
0
 40
0
 40
0
 40
0
 40
1
 40
1
 40
1
 40
1
 10
151.966920
 20
184.642940
 30
0.0
 10
151.729853
 20
184.287340
 30
0.0
 10
151.467387
 20
183.940207
 30
0.0
 10
151.179520
 20
183.601540
 30
0.0
  0
SPLINE
  5
30e
100
AcDbEntity
  8
Layer_1
 62
7
100
AcDbSpline
 70
8
 71
3
 72
8
 73
4
 74
0
 40
0
 40
0
 40
0
 40
0
 40
1
 40
1
 40
1
 40
1
 10
151.179520
 20
183.601540
 30
0.0
 10
150.891653
 20
183.262873
 30
0.0
 10
150.595320
 20
182.991940
 30
0.0
 10
150.290520
 20
182.788740
 30
0.0
  0
SPLINE
  5
30f
100
AcDbEntity
  8
Layer_1
 62
7
100
AcDbSpline
 70
8
 71
3
 72
8
 73
4
 74
0
 40
0
 40
0
 40
0
 40
0
 40
1
 40
1
 40
1
 40
1
 10
150.290520
 20
182.788740
 30
0.0
 10
149.985720
 20
182.585540
 30
0.0
 10
149.680920
 20
182.458540
 30
0.0
 10
149.376120
 20
182.407740
 30
0.0
  0
SPLINE
  5
310
100
AcDbEntity
  8
Layer_1
 62
7
100
AcDbSpline
 70
8
 71
3
 72
8
 73
4
 74
0
 40
0
 40
0
 40
0
 40
0
 40
1
 40
1
 40
1
 40
1
 10
149.376120
 20
182.407740
 30
0.0
 10
149.088253
 20
182.373873
 30
0.0
 10
148.817320
 20
182.407740
 30
0.0
 10
148.563320
 20
182.509340
 30
0.0
  0
SPLINE
  5
311
100
AcDbEntity
  8
Layer_1
 62
7
100
AcDbSpline
 70
8
 71
3
 72
8
 73
4
 74
0
 40
0
 40
0
 40
0
 40
0
 40
1
 40
1
 40
1
 40
1
 10
148.563320
 20
182.509340
 30
0.0
 10
148.309320
 20
182.610940
 30
0.0
 10
148.080720
 20
182.771807
 30
0.0
 10
147.877520
 20
182.991940
 30
0.0
  0
SPLINE
  5
312
100
AcDbEntity
  8
Layer_1
 62
7
100
AcDbSpline
 70
8
 71
3
 72
8
 73
4
 74
0
 40
0
 40
0
 40
0
 40
0
 40
1
 40
1
 40
1
 40
1
 10
147.877520
 20
182.991940
 30
0.0
 10
147.674320
 20
183.212073
 30
0.0
 10
147.521920
 20
183.474540
 30
0.0
 10
147.420320
 20
183.779340
 30
0.0
  0
SPLINE
  5
313
100
AcDbEntity
  8
Layer_1
 62
7
100
AcDbSpline
 70
8
 71
3
 72
8
 73
4
 74
0
 40
0
 40
0
 40
0
 40
0
 40
1
 40
1
 40
1
 40
1
 10
147.420320
 20
183.779340
 30
0.0
 10
147.200187
 20
184.338140
 30
0.0
 10
147.064720
 20
184.981607
 30
0.0
 10
147.013920
 20
185.709740
 30
0.0
  0
SPLINE
  5
314
100
AcDbEntity
  8
Layer_1
 62
7
100
AcDbSpline
 70
8
 71
3
 72
8
 73
4
 74
0
 40
0
 40
0
 40
0
 40
0
 40
1
 40
1
 40
1
 40
1
 10
147.013920
 20
185.709740
 30
0.0
 10
146.963120
 20
186.454807
 30
0.0
 10
146.954653
 20
187.208340
 30
0.0
 10
146.988520
 20
187.970340
 30
0.0
  0
SPLINE
  5
315
100
AcDbEntity
  8
Layer_1
 62
7
100
AcDbSpline
 70
8
 71
3
 72
8
 73
4
 74
0
 40
0
 40
0
 40
0
 40
0
 40
1
 40
1
 40
1
 40
1
 10
146.988520
 20
187.970340
 30
0.0
 10
147.039320
 20
188.732340
 30
0.0
 10
147.115520
 20
189.468940
 30
0.0
 10
147.217120
 20
190.180140
 30
0.0
  0
SPLINE
  5
316
100
AcDbEntity
  8
Layer_1
 62
7
100
AcDbSpline
 70
8
 71
3
 72
8
 73
4
 74
0
 40
0
 40
0
 40
0
 40
0
 40
1
 40
1
 40
1
 40
1
 10
147.217120
 20
190.180140
 30
0.0
 10
147.335653
 20
190.891340
 30
0.0
 10
147.462653
 20
191.517873
 30
0.0
 10
147.598120
 20
192.059740
 30
0.0
  0
SPLINE
  5
317
100
AcDbEntity
  8
Layer_1
 62
7
100
AcDbSpline
 70
8
 71
3
 72
8
 73
4
 74
0
 40
0
 40
0
 40
0
 40
0
 40
1
 40
1
 40
1
 40
1
 10
147.598120
 20
192.059740
 30
0.0
 10
147.767453
 20
192.821740
 30
0.0
 10
147.962187
 20
193.558340
 30
0.0
 10
148.182320
 20
194.269540
 30
0.0
  0
SPLINE
  5
318
100
AcDbEntity
  8
Layer_1
 62
7
100
AcDbSpline
 70
8
 71
3
 72
8
 73
4
 74
0
 40
0
 40
0
 40
0
 40
0
 40
1
 40
1
 40
1
 40
1
 10
148.182320
 20
194.269540
 30
0.0
 10
148.402453
 20
194.997673
 30
0.0
 10
148.639520
 20
195.683473
 30
0.0
 10
148.893520
 20
196.326940
 30
0.0
  0
SPLINE
  5
319
100
AcDbEntity
  8
Layer_1
 62
7
100
AcDbSpline
 70
8
 71
3
 72
8
 73
4
 74
0
 40
0
 40
0
 40
0
 40
0
 40
1
 40
1
 40
1
 40
1
 10
148.893520
 20
196.326940
 30
0.0
 10
149.164453
 20
197.038138
 30
0.0
 10
149.477720
 20
197.757804
 30
0.0
 10
149.833320
 20
198.485937
 30
0.0
  0
SPLINE
  5
31a
100
AcDbEntity
  8
Layer_1
 62
7
100
AcDbSpline
 70
8
 71
3
 72
8
 73
4
 74
0
 40
0
 40
0
 40
0
 40
0
 40
1
 40
1
 40
1
 40
1
 10
149.833320
 20
198.485937
 30
0.0
 10
150.188920
 20
199.231004
 30
0.0
 10
150.595320
 20
199.925270
 30
0.0
 10
151.052520
 20
200.568737
 30
0.0
  0
SPLINE
  5
31b
100
AcDbEntity
  8
Layer_1
 62
7
100
AcDbSpline
 70
8
 71
3
 72
8
 73
4
 74
0
 40
0
 40
0
 40
0
 40
0
 40
1
 40
1
 40
1
 40
1
 10
151.052520
 20
200.568737
 30
0.0
 10
151.526653
 20
201.229137
 30
0.0
 10
152.068520
 20
201.813337
 30
0.0
 10
152.678120
 20
202.321337
 30
0.0
  0
SPLINE
  5
31c
100
AcDbEntity
  8
Layer_1
 62
7
100
AcDbSpline
 70
8
 71
3
 72
8
 73
4
 74
0
 40
0
 40
0
 40
0
 40
0
 40
1
 40
1
 40
1
 40
1
 10
152.678120
 20
202.321337
 30
0.0
 10
153.287720
 20
202.829337
 30
0.0
 10
153.973520
 20
203.218804
 30
0.0
 10
154.735520
 20
203.489737
 30
0.0
  0
SPLINE
  5
31d
100
AcDbEntity
  8
Layer_1
 62
7
100
AcDbSpline
 70
8
 71
3
 72
8
 73
4
 74
0
 40
0
 40
0
 40
0
 40
0
 40
1
 40
1
 40
1
 40
1
 10
154.735520
 20
203.489737
 30
0.0
 10
155.057253
 20
203.608270
 30
0.0
 10
155.370520
 20
203.684470
 30
0.0
 10
155.675320
 20
203.718337
 30
0.0
  0
SPLINE
  5
31e
100
AcDbEntity
  8
Layer_1
 62
7
100
AcDbSpline
 70
8
 71
3
 72
8
 73
4
 74
0
 40
0
 40
0
 40
0
 40
0
 40
1
 40
1
 40
1
 40
1
 10
155.675320
 20
203.718337
 30
0.0
 10
155.997053
 20
203.752204
 30
0.0
 10
156.284920
 20
203.718337
 30
0.0
 10
156.538920
 20
203.616737
 30
0.0
  0
SPLINE
  5
31f
100
AcDbEntity
  8
Layer_1
 62
7
100
AcDbSpline
 70
8
 71
3
 72
8
 73
4
 74
0
 40
0
 40
0
 40
0
 40
0
 40
1
 40
1
 40
1
 40
1
 10
156.538920
 20
203.616737
 30
0.0
 10
156.792920
 20
203.532070
 30
0.0
 10
156.996120
 20
203.371204
 30
0.0
 10
157.148520
 20
203.134137
 30
0.0
  0
SPLINE
  5
320
100
AcDbEntity
  8
Layer_1
 62
7
100
AcDbSpline
 70
8
 71
3
 72
8
 73
4
 74
0
 40
0
 40
0
 40
0
 40
0
 40
1
 40
1
 40
1
 40
1
 10
157.148520
 20
203.134137
 30
0.0
 10
157.300920
 20
202.897070
 30
0.0
 10
157.377120
 20
202.566870
 30
0.0
 10
157.377120
 20
202.143537
 30
0.0
  0
SPLINE
  5
321
100
AcDbEntity
  8
Layer_1
 62
7
100
AcDbSpline
 70
8
 71
3
 72
8
 73
4
 74
0
 40
0
 40
0
 40
0
 40
0
 40
1
 40
1
 40
1
 40
1
 10
157.377120
 20
202.143537
 30
0.0
 10
157.360187
 20
201.432337
 30
0.0
 10
157.063853
 20
200.475604
 30
0.0
 10
156.488120
 20
199.273337
 30
0.0
  0
SPLINE
  5
322
100
AcDbEntity
  8
Layer_1
 62
7
100
AcDbSpline
 70
8
 71
3
 72
8
 73
4
 74
0
 40
0
 40
0
 40
0
 40
0
 40
1
 40
1
 40
1
 40
1
 10
156.488120
 20
199.273337
 30
0.0
 10
155.912387
 20
198.071070
 30
0.0
 10
154.938720
 20
196.623271
 30
0.0
 10
153.567120
 20
194.929940
 30
0.0
  0
SPLINE
  5
323
100
AcDbEntity
  8
Layer_1
 62
7
100
AcDbSpline
 70
8
 71
3
 72
8
 73
4
 74
0
 40
0
 40
0
 40
0
 40
0
 40
1
 40
1
 40
1
 40
1
 10
153.567120
 20
194.929940
 30
0.0
 10
153.228453
 20
194.523540
 30
0.0
 10
152.864387
 20
194.100207
 30
0.0
 10
152.474920
 20
193.659940
 30
0.0
  0
SPLINE
  5
324
100
AcDbEntity
  8
Layer_1
 62
7
100
AcDbSpline
 70
8
 71
3
 72
8
 73
4
 74
0
 40
0
 40
0
 40
0
 40
0
 40
1
 40
1
 40
1
 40
1
 10
152.474920
 20
193.659940
 30
0.0
 10
152.085453
 20
193.219673
 30
0.0
 10
151.679053
 20
192.787873
 30
0.0
 10
151.255720
 20
192.364540
 30
0.0
  0
SPLINE
  5
325
100
AcDbEntity
  8
Layer_1
 62
7
100
AcDbSpline
 70
8
 71
3
 72
8
 73
4
 74
0
 40
0
 40
0
 40
0
 40
0
 40
1
 40
1
 40
1
 40
1
 10
151.255720
 20
192.364540
 30
0.0
 10
150.832387
 20
191.941207
 30
0.0
 10
150.400587
 20
191.543273
 30
0.0
 10
149.960320
 20
191.170740
 30
0.0
  0
SPLINE
  5
326
100
AcDbEntity
  8
Layer_1
 62
7
100
AcDbSpline
 70
8
 71
3
 72
8
 73
4
 74
0
 40
0
 40
0
 40
0
 40
0
 40
1
 40
1
 40
1
 40
1
 10
149.960320
 20
191.170740
 30
0.0
 10
149.520053
 20
190.798207
 30
0.0
 10
149.079787
 20
190.459540
 30
0.0
 10
148.639520
 20
190.154740
 30
0.0
  0
SPLINE
  5
327
100
AcDbEntity
  8
Layer_1
 62
7
100
AcDbSpline
 70
8
 71
3
 72
8
 73
4
 74
0
 40
0
 40
0
 40
0
 40
0
 40
1
 40
1
 40
1
 40
1
 10
148.639520
 20
190.154740
 30
0.0
 10
148.588720
 20
189.782207
 30
0.0
 10
148.529453
 20
189.308073
 30
0.0
 10
148.461720
 20
188.732340
 30
0.0
  0
SPLINE
  5
328
100
AcDbEntity
  8
Layer_1
 62
7
100
AcDbSpline
 70
8
 71
3
 72
8
 73
4
 74
0
 40
0
 40
0
 40
0
 40
0
 40
1
 40
1
 40
1
 40
1
 10
148.461720
 20
188.732340
 30
0.0
 10
148.410920
 20
188.173540
 30
0.0
 10
148.377053
 20
187.580873
 30
0.0
 10
148.360120
 20
186.954340
 30
0.0
  0
SPLINE
  5
329
100
AcDbEntity
  8
Layer_1
 62
7
100
AcDbSpline
 70
8
 71
3
 72
8
 73
4
 74
0
 40
0
 40
0
 40
0
 40
0
 40
1
 40
1
 40
1
 40
1
 10
148.360120
 20
186.954340
 30
0.0
 10
148.360120
 20
186.327807
 30
0.0
 10
148.377053
 20
185.718207
 30
0.0
 10
148.410920
 20
185.125540
 30
0.0
  0
SPLINE
  5
32a
100
AcDbEntity
  8
Layer_1
 62
7
100
AcDbSpline
 70
8
 71
3
 72
8
 73
4
 74
0
 40
0
 40
0
 40
0
 40
0
 40
1
 40
1
 40
1
 40
1
 10
148.410920
 20
185.125540
 30
0.0
 10
148.461720
 20
184.549807
 30
0.0
 10
148.554853
 20
184.067207
 30
0.0
 10
148.690320
 20
183.677740
 30
0.0
  0
SPLINE
  5
32b
100
AcDbEntity
  8
Layer_1
 62
7
100
AcDbSpline
 70
8
 71
3
 72
8
 73
4
 74
0
 40
0
 40
0
 40
0
 40
0
 40
1
 40
1
 40
1
 40
1
 10
148.690320
 20
183.677740
 30
0.0
 10
148.842720
 20
183.203607
 30
0.0
 10
149.045920
 20
182.932673
 30
0.0
 10
149.299920
 20
182.864940
 30
0.0
  0
SPLINE
  5
32c
100
AcDbEntity
  8
Layer_1
 62
7
100
AcDbSpline
 70
8
 71
3
 72
8
 73
4
 74
0
 40
0
 40
0
 40
0
 40
0
 40
1
 40
1
 40
1
 40
1
 10
149.299920
 20
182.864940
 30
0.0
 10
149.553920
 20
182.814140
 30
0.0
 10
149.824853
 20
182.890340
 30
0.0
 10
150.112720
 20
183.093540
 30
0.0
  0
SPLINE
  5
32d
100
AcDbEntity
  8
Layer_1
 62
7
100
AcDbSpline
 70
8
 71
3
 72
8
 73
4
 74
0
 40
0
 40
0
 40
0
 40
0
 40
1
 40
1
 40
1
 40
1
 10
150.112720
 20
183.093540
 30
0.0
 10
150.400587
 20
183.296740
 30
0.0
 10
150.688453
 20
183.584607
 30
0.0
 10
150.976320
 20
183.957140
 30
0.0
  0
SPLINE
  5
32e
100
AcDbEntity
  8
Layer_1
 62
7
100
AcDbSpline
 70
8
 71
3
 72
8
 73
4
 74
0
 40
0
 40
0
 40
0
 40
0
 40
1
 40
1
 40
1
 40
1
 10
150.976320
 20
183.957140
 30
0.0
 10
151.281120
 20
184.329673
 30
0.0
 10
151.560520
 20
184.710673
 30
0.0
 10
151.814520
 20
185.100140
 30
0.0
  0
SPLINE
  5
32f
100
AcDbEntity
  8
Layer_1
 62
7
100
AcDbSpline
 70
8
 71
3
 72
8
 73
4
 74
0
 40
0
 40
0
 40
0
 40
0
 40
1
 40
1
 40
1
 40
1
 10
151.814520
 20
185.100140
 30
0.0
 10
152.085453
 20
185.506540
 30
0.0
 10
152.314053
 20
185.879073
 30
0.0
 10
152.500320
 20
186.217740
 30
0.0
  0
SPLINE
  5
330
100
AcDbEntity
  8
Layer_1
 62
7
100
AcDbSpline
 70
8
 71
3
 72
8
 73
4
 74
0
 40
0
 40
0
 40
0
 40
0
 40
1
 40
1
 40
1
 40
1
 10
152.500320
 20
186.217740
 30
0.0
 10
152.686587
 20
186.556407
 30
0.0
 10
152.813587
 20
186.785007
 30
0.0
 10
152.881320
 20
186.903540
 30
0.0
  0
LWPOLYLINE
  5
331
100
AcDbEntity
  8
Layer_1
 62
7
100
AcDbPolyline
 90
2
 70
0
 10
153.694120
 20
187.817940
 30
0.0
 10
153.135320
 20
186.700340
 30
0.0
  0
SPLINE
  5
332
100
AcDbEntity
  8
Layer_1
 62
7
100
AcDbSpline
 70
8
 71
3
 72
8
 73
4
 74
0
 40
0
 40
0
 40
0
 40
0
 40
1
 40
1
 40
1
 40
1
 10
148.690320
 20
190.586540
 30
0.0
 10
149.520053
 20
191.196140
 30
0.0
 10
150.341320
 20
191.907340
 30
0.0
 10
151.154120
 20
192.720140
 30
0.0
  0
SPLINE
  5
333
100
AcDbEntity
  8
Layer_1
 62
7
100
AcDbSpline
 70
8
 71
3
 72
8
 73
4
 74
0
 40
0
 40
0
 40
0
 40
0
 40
1
 40
1
 40
1
 40
1
 10
151.154120
 20
192.720140
 30
0.0
 10
151.966920
 20
193.532940
 30
0.0
 10
152.695053
 20
194.337273
 30
0.0
 10
153.338520
 20
195.133140
 30
0.0
  0
SPLINE
  5
334
100
AcDbEntity
  8
Layer_1
 62
7
100
AcDbSpline
 70
8
 71
3
 72
8
 73
4
 74
0
 40
0
 40
0
 40
0
 40
0
 40
1
 40
1
 40
1
 40
1
 10
153.338520
 20
195.133140
 30
0.0
 10
154.693187
 20
196.792605
 30
0.0
 10
155.649920
 20
198.206537
 30
0.0
 10
156.208720
 20
199.374937
 30
0.0
  0
SPLINE
  5
335
100
AcDbEntity
  8
Layer_1
 62
7
100
AcDbSpline
 70
8
 71
3
 72
8
 73
4
 74
0
 40
0
 40
0
 40
0
 40
0
 40
1
 40
1
 40
1
 40
1
 10
156.208720
 20
199.374937
 30
0.0
 10
156.767520
 20
200.543337
 30
0.0
 10
157.046920
 20
201.474670
 30
0.0
 10
157.046920
 20
202.168937
 30
0.0
  0
SPLINE
  5
336
100
AcDbEntity
  8
Layer_1
 62
7
100
AcDbSpline
 70
8
 71
3
 72
8
 73
4
 74
0
 40
0
 40
0
 40
0
 40
0
 40
1
 40
1
 40
1
 40
1
 10
157.046920
 20
202.168937
 30
0.0
 10
157.046920
 20
202.812404
 30
0.0
 10
156.860653
 20
203.193404
 30
0.0
 10
156.488120
 20
203.311937
 30
0.0
  0
SPLINE
  5
337
100
AcDbEntity
  8
Layer_1
 62
7
100
AcDbSpline
 70
8
 71
3
 72
8
 73
4
 74
0
 40
0
 40
0
 40
0
 40
0
 40
1
 40
1
 40
1
 40
1
 10
156.488120
 20
203.311937
 30
0.0
 10
156.132520
 20
203.430470
 30
0.0
 10
155.709187
 20
203.371204
 30
0.0
 10
155.218120
 20
203.134137
 30
0.0
  0
SPLINE
  5
338
100
AcDbEntity
  8
Layer_1
 62
7
100
AcDbSpline
 70
8
 71
3
 72
8
 73
4
 74
0
 40
0
 40
0
 40
0
 40
0
 40
1
 40
1
 40
1
 40
1
 10
155.218120
 20
203.134137
 30
0.0
 10
154.489987
 20
202.795470
 30
0.0
 10
153.677187
 20
202.067337
 30
0.0
 10
152.779720
 20
200.949737
 30
0.0
  0
SPLINE
  5
339
100
AcDbEntity
  8
Layer_1
 62
7
100
AcDbSpline
 70
8
 71
3
 72
8
 73
4
 74
0
 40
0
 40
0
 40
0
 40
0
 40
1
 40
1
 40
1
 40
1
 10
152.779720
 20
200.949737
 30
0.0
 10
151.882253
 20
199.832137
 30
0.0
 10
151.060987
 20
198.299671
 30
0.0
 10
150.315920
 20
196.352340
 30
0.0
  0
SPLINE
  5
33a
100
AcDbEntity
  8
Layer_1
 62
7
100
AcDbSpline
 70
8
 71
3
 72
8
 73
4
 74
0
 40
0
 40
0
 40
0
 40
0
 40
1
 40
1
 40
1
 40
1
 10
150.315920
 20
196.352340
 30
0.0
 10
149.977253
 20
195.421007
 30
0.0
 10
149.663987
 20
194.472740
 30
0.0
 10
149.376120
 20
193.507540
 30
0.0
  0
SPLINE
  5
33b
100
AcDbEntity
  8
Layer_1
 62
7
100
AcDbSpline
 70
8
 71
3
 72
8
 73
4
 74
0
 40
0
 40
0
 40
0
 40
0
 40
1
 40
1
 40
1
 40
1
 10
149.376120
 20
193.507540
 30
0.0
 10
149.088253
 20
192.542340
 30
0.0
 10
148.859653
 20
191.568673
 30
0.0
 10
148.690320
 20
190.586540
 30
0.0
  0
LWPOLYLINE
  5
33c
100
AcDbEntity
  8
Layer_1
 62
7
100
AcDbPolyline
 90
1
 70
1
 10
152.881320
 20
186.903540
 30
0.0
  0
SPLINE
  5
33d
100
AcDbEntity
  8
Layer_1
 62
7
100
AcDbSpline
 70
8
 71
3
 72
8
 73
4
 74
0
 40
0
 40
0
 40
0
 40
0
 40
1
 40
1
 40
1
 40
1
 10
156.538940
 20
183.347540
 30
0.0
 10
156.251073
 20
183.076607
 30
0.0
 10
155.954740
 20
182.856473
 30
0.0
 10
155.649940
 20
182.687140
 30
0.0
  0
SPLINE
  5
33e
100
AcDbEntity
  8
Layer_1
 62
7
100
AcDbSpline
 70
8
 71
3
 72
8
 73
4
 74
0
 40
0
 40
0
 40
0
 40
0
 40
1
 40
1
 40
1
 40
1
 10
155.649940
 20
182.687140
 30
0.0
 10
155.345140
 20
182.534740
 30
0.0
 10
154.981073
 20
182.517807
 30
0.0
 10
154.557740
 20
182.636340
 30
0.0
  0
SPLINE
  5
33f
100
AcDbEntity
  8
Layer_1
 62
7
100
AcDbSpline
 70
8
 71
3
 72
8
 73
4
 74
0
 40
0
 40
0
 40
0
 40
0
 40
1
 40
1
 40
1
 40
1
 10
154.557740
 20
182.636340
 30
0.0
 10
154.168273
 20
182.737940
 30
0.0
 10
153.871940
 20
182.958073
 30
0.0
 10
153.668740
 20
183.296740
 30
0.0
  0
SPLINE
  5
340
100
AcDbEntity
  8
Layer_1
 62
7
100
AcDbSpline
 70
8
 71
3
 72
8
 73
4
 74
0
 40
0
 40
0
 40
0
 40
0
 40
1
 40
1
 40
1
 40
1
 10
153.668740
 20
183.296740
 30
0.0
 10
153.465540
 20
183.635407
 30
0.0
 10
153.330073
 20
184.041807
 30
0.0
 10
153.262340
 20
184.515940
 30
0.0
  0
SPLINE
  5
341
100
AcDbEntity
  8
Layer_1
 62
7
100
AcDbSpline
 70
8
 71
3
 72
8
 73
4
 74
0
 40
0
 40
0
 40
0
 40
0
 40
1
 40
1
 40
1
 40
1
 10
153.262340
 20
184.515940
 30
0.0
 10
153.177673
 20
184.990073
 30
0.0
 10
153.152273
 20
185.498073
 30
0.0
 10
153.186140
 20
186.039940
 30
0.0
  0
SPLINE
  5
342
100
AcDbEntity
  8
Layer_1
 62
7
100
AcDbSpline
 70
8
 71
3
 72
8
 73
4
 74
0
 40
0
 40
0
 40
0
 40
0
 40
1
 40
1
 40
1
 40
1
 10
153.186140
 20
186.039940
 30
0.0
 10
153.203073
 20
186.598740
 30
0.0
 10
153.253873
 20
187.132140
 30
0.0
 10
153.338540
 20
187.640140
 30
0.0
  0
SPLINE
  5
343
100
AcDbEntity
  8
Layer_1
 62
7
100
AcDbSpline
 70
8
 71
3
 72
8
 73
4
 74
0
 40
0
 40
0
 40
0
 40
0
 40
1
 40
1
 40
1
 40
1
 10
153.338540
 20
187.640140
 30
0.0
 10
153.406273
 20
188.165073
 30
0.0
 10
153.490940
 20
188.647673
 30
0.0
 10
153.592540
 20
189.087940
 30
0.0
  0
SPLINE
  5
344
100
AcDbEntity
  8
Layer_1
 62
7
100
AcDbSpline
 70
8
 71
3
 72
8
 73
4
 74
0
 40
0
 40
0
 40
0
 40
0
 40
1
 40
1
 40
1
 40
1
 10
153.592540
 20
189.087940
 30
0.0
 10
153.694140
 20
189.545140
 30
0.0
 10
153.778807
 20
189.909207
 30
0.0
 10
153.846540
 20
190.180140
 30
0.0
  0
SPLINE
  5
345
100
AcDbEntity
  8
Layer_1
 62
7
100
AcDbSpline
 70
8
 71
3
 72
8
 73
4
 74
0
 40
0
 40
0
 40
0
 40
0
 40
1
 40
1
 40
1
 40
1
 10
153.846540
 20
190.180140
 30
0.0
 10
153.863473
 20
190.315607
 30
0.0
 10
153.948140
 20
190.400273
 30
0.0
 10
154.100540
 20
190.434140
 30
0.0
  0
SPLINE
  5
346
100
AcDbEntity
  8
Layer_1
 62
7
100
AcDbSpline
 70
8
 71
3
 72
8
 73
4
 74
0
 40
0
 40
0
 40
0
 40
0
 40
1
 40
1
 40
1
 40
1
 10
154.100540
 20
190.434140
 30
0.0
 10
154.269873
 20
190.484940
 30
0.0
 10
154.439207
 20
190.493407
 30
0.0
 10
154.608540
 20
190.459540
 30
0.0
  0
SPLINE
  5
347
100
AcDbEntity
  8
Layer_1
 62
7
100
AcDbSpline
 70
8
 71
3
 72
8
 73
4
 74
0
 40
0
 40
0
 40
0
 40
0
 40
1
 40
1
 40
1
 40
1
 10
154.608540
 20
190.459540
 30
0.0
 10
154.794807
 20
190.442607
 30
0.0
 10
154.955673
 20
190.400273
 30
0.0
 10
155.091140
 20
190.332540
 30
0.0
  0
SPLINE
  5
348
100
AcDbEntity
  8
Layer_1
 62
7
100
AcDbSpline
 70
8
 71
3
 72
8
 73
4
 74
0
 40
0
 40
0
 40
0
 40
0
 40
1
 40
1
 40
1
 40
1
 10
155.091140
 20
190.332540
 30
0.0
 10
155.226607
 20
190.264807
 30
0.0
 10
155.285873
 20
190.188607
 30
0.0
 10
155.268940
 20
190.103940
 30
0.0
  0
LWPOLYLINE
  5
349
100
AcDbEntity
  8
Layer_1
 62
7
100
AcDbPolyline
 90
1
 70
1
 10
148.690320
 20
190.586540
 30
0.0
  0
SPLINE
  5
34a
100
AcDbEntity
  8
Layer_1
 62
7
100
AcDbSpline
 70
8
 71
3
 72
8
 73
4
 74
0
 40
0
 40
0
 40
0
 40
0
 40
1
 40
1
 40
1
 40
1
 10
155.091140
 20
189.392740
 30
0.0
 10
155.006473
 20
189.054073
 30
0.0
 10
154.913340
 20
188.656140
 30
0.0
 10
154.811740
 20
188.198940
 30
0.0
  0
SPLINE
  5
34b
100
AcDbEntity
  8
Layer_1
 62
7
100
AcDbSpline
 70
8
 71
3
 72
8
 73
4
 74
0
 40
0
 40
0
 40
0
 40
0
 40
1
 40
1
 40
1
 40
1
 10
154.811740
 20
188.198940
 30
0.0
 10
154.727073
 20
187.758673
 30
0.0
 10
154.642407
 20
187.284540
 30
0.0
 10
154.557740
 20
186.776540
 30
0.0
  0
SPLINE
  5
34c
100
AcDbEntity
  8
Layer_1
 62
7
100
AcDbSpline
 70
8
 71
3
 72
8
 73
4
 74
0
 40
0
 40
0
 40
0
 40
0
 40
1
 40
1
 40
1
 40
1
 10
154.557740
 20
186.776540
 30
0.0
 10
154.490007
 20
186.268540
 30
0.0
 10
154.439207
 20
185.777473
 30
0.0
 10
154.405340
 20
185.303340
 30
0.0
  0
SPLINE
  5
34d
100
AcDbEntity
  8
Layer_1
 62
7
100
AcDbSpline
 70
8
 71
3
 72
8
 73
4
 74
0
 40
0
 40
0
 40
0
 40
0
 40
1
 40
1
 40
1
 40
1
 10
154.405340
 20
185.303340
 30
0.0
 10
154.371473
 20
184.846140
 30
0.0
 10
154.371473
 20
184.422807
 30
0.0
 10
154.405340
 20
184.033340
 30
0.0
  0
SPLINE
  5
34e
100
AcDbEntity
  8
Layer_1
 62
7
100
AcDbSpline
 70
8
 71
3
 72
8
 73
4
 74
0
 40
0
 40
0
 40
0
 40
0
 40
1
 40
1
 40
1
 40
1
 10
154.405340
 20
184.033340
 30
0.0
 10
154.456140
 20
183.660807
 30
0.0
 10
154.549273
 20
183.372940
 30
0.0
 10
154.684740
 20
183.169740
 30
0.0
  0
SPLINE
  5
34f
100
AcDbEntity
  8
Layer_1
 62
7
100
AcDbSpline
 70
8
 71
3
 72
8
 73
4
 74
0
 40
0
 40
0
 40
0
 40
0
 40
1
 40
1
 40
1
 40
1
 10
154.684740
 20
183.169740
 30
0.0
 10
154.837140
 20
182.983473
 30
0.0
 10
155.040340
 20
182.907273
 30
0.0
 10
155.294340
 20
182.941140
 30
0.0
  0
SPLINE
  5
350
100
AcDbEntity
  8
Layer_1
 62
7
100
AcDbSpline
 70
8
 71
3
 72
8
 73
4
 74
0
 40
0
 40
0
 40
0
 40
0
 40
1
 40
1
 40
1
 40
1
 10
155.294340
 20
182.941140
 30
0.0
 10
155.565273
 20
182.991940
 30
0.0
 10
155.912407
 20
183.203607
 30
0.0
 10
156.335740
 20
183.576140
 30
0.0
  0
SPLINE
  5
351
100
AcDbEntity
  8
Layer_1
 62
7
100
AcDbSpline
 70
8
 71
3
 72
8
 73
4
 74
0
 40
0
 40
0
 40
0
 40
0
 40
1
 40
1
 40
1
 40
1
 10
156.335740
 20
183.576140
 30
0.0
 10
156.877607
 20
184.033340
 30
0.0
 10
157.343273
 20
184.549807
 30
0.0
 10
157.732740
 20
185.125540
 30
0.0
  0
SPLINE
  5
352
100
AcDbEntity
  8
Layer_1
 62
7
100
AcDbSpline
 70
8
 71
3
 72
8
 73
4
 74
0
 40
0
 40
0
 40
0
 40
0
 40
1
 40
1
 40
1
 40
1
 10
157.732740
 20
185.125540
 30
0.0
 10
158.139140
 20
185.701273
 30
0.0
 10
158.511673
 20
186.293940
 30
0.0
 10
158.850340
 20
186.903540
 30
0.0
  0
SPLINE
  5
353
100
AcDbEntity
  8
Layer_1
 62
7
100
AcDbSpline
 70
8
 71
3
 72
8
 73
4
 74
0
 40
0
 40
0
 40
0
 40
0
 40
1
 40
1
 40
1
 40
1
 10
158.850340
 20
186.903540
 30
0.0
 10
158.935007
 20
187.039007
 30
0.0
 10
159.019673
 20
187.182940
 30
0.0
 10
159.104340
 20
187.335340
 30
0.0
  0
SPLINE
  5
354
100
AcDbEntity
  8
Layer_1
 62
7
100
AcDbSpline
 70
8
 71
3
 72
8
 73
4
 74
0
 40
0
 40
0
 40
0
 40
0
 40
1
 40
1
 40
1
 40
1
 10
159.104340
 20
187.335340
 30
0.0
 10
159.189007
 20
187.504673
 30
0.0
 10
159.273673
 20
187.665540
 30
0.0
 10
159.358340
 20
187.817940
 30
0.0
  0
SPLINE
  5
355
100
AcDbEntity
  8
Layer_1
 62
7
100
AcDbSpline
 70
8
 71
3
 72
8
 73
4
 74
0
 40
0
 40
0
 40
0
 40
0
 40
1
 40
1
 40
1
 40
1
 10
159.358340
 20
187.817940
 30
0.0
 10
159.375273
 20
187.834873
 30
0.0
 10
159.383740
 20
187.860273
 30
0.0
 10
159.383740
 20
187.894140
 30
0.0
  0
LWPOLYLINE
  5
356
100
AcDbEntity
  8
Layer_1
 62
7
100
AcDbPolyline
 90
2
 70
0
 10
155.268940
 20
190.103940
 30
0.0
 10
155.091140
 20
189.392740
 30
0.0
  0
SPLINE
  5
357
100
AcDbEntity
  8
Layer_1
 62
7
100
AcDbSpline
 70
8
 71
3
 72
8
 73
4
 74
0
 40
0
 40
0
 40
0
 40
0
 40
1
 40
1
 40
1
 40
1
 10
159.459940
 20
188.021140
 30
0.0
 10
159.510740
 20
188.055007
 30
0.0
 10
159.578473
 20
188.063473
 30
0.0
 10
159.663140
 20
188.046540
 30
0.0
  0
SPLINE
  5
358
100
AcDbEntity
  8
Layer_1
 62
7
100
AcDbSpline
 70
8
 71
3
 72
8
 73
4
 74
0
 40
0
 40
0
 40
0
 40
0
 40
1
 40
1
 40
1
 40
1
 10
159.663140
 20
188.046540
 30
0.0
 10
159.764740
 20
188.029607
 30
0.0
 10
159.773207
 20
187.953407
 30
0.0
 10
159.688540
 20
187.817940
 30
0.0
  0
SPLINE
  5
359
100
AcDbEntity
  8
Layer_1
 62
7
100
AcDbSpline
 70
8
 71
3
 72
8
 73
4
 74
0
 40
0
 40
0
 40
0
 40
0
 40
1
 40
1
 40
1
 40
1
 10
159.688540
 20
187.817940
 30
0.0
 10
159.603873
 20
187.631673
 30
0.0
 10
159.510740
 20
187.445407
 30
0.0
 10
159.409140
 20
187.259140
 30
0.0
  0
LWPOLYLINE
  5
35a
100
AcDbEntity
  8
Layer_1
 62
7
100
AcDbPolyline
 90
3
 70
0
 10
159.383740
 20
187.894140
 30
0.0
 10
159.434540
 20
187.995740
 30
0.0
 10
159.459940
 20
188.021140
 30
0.0
  0
SPLINE
  5
35b
100
AcDbEntity
  8
Layer_1
 62
7
100
AcDbSpline
 70
8
 71
3
 72
8
 73
4
 74
0
 40
0
 40
0
 40
0
 40
0
 40
1
 40
1
 40
1
 40
1
 10
159.104340
 20
186.700340
 30
0.0
 10
158.748740
 20
186.090740
 30
0.0
 10
158.367740
 20
185.489607
 30
0.0
 10
157.961340
 20
184.896940
 30
0.0
  0
SPLINE
  5
35c
100
AcDbEntity
  8
Layer_1
 62
7
100
AcDbSpline
 70
8
 71
3
 72
8
 73
4
 74
0
 40
0
 40
0
 40
0
 40
0
 40
1
 40
1
 40
1
 40
1
 10
157.961340
 20
184.896940
 30
0.0
 10
157.554940
 20
184.321207
 30
0.0
 10
157.080807
 20
183.804740
 30
0.0
 10
156.538940
 20
183.347540
 30
0.0
  0
LWPOLYLINE
  5
35d
100
AcDbEntity
  8
Layer_1
 62
7
100
AcDbPolyline
 90
2
 70
0
 10
159.409140
 20
187.259140
 30
0.0
 10
159.104340
 20
186.700340
 30
0.0
  0
SPLINE
  5
35e
100
AcDbEntity
  8
Layer_1
 62
7
100
AcDbSpline
 70
8
 71
3
 72
8
 73
4
 74
0
 40
0
 40
0
 40
0
 40
0
 40
1
 40
1
 40
1
 40
1
 10
155.065740
 20
192.491540
 30
0.0
 10
155.302807
 20
192.491540
 30
0.0
 10
155.497540
 20
192.415340
 30
0.0
 10
155.649940
 20
192.262940
 30
0.0
  0
SPLINE
  5
35f
100
AcDbEntity
  8
Layer_1
 62
7
100
AcDbSpline
 70
8
 71
3
 72
8
 73
4
 74
0
 40
0
 40
0
 40
0
 40
0
 40
1
 40
1
 40
1
 40
1
 10
155.649940
 20
192.262940
 30
0.0
 10
155.819273
 20
192.127473
 30
0.0
 10
155.903940
 20
191.958140
 30
0.0
 10
155.903940
 20
191.754940
 30
0.0
  0
SPLINE
  5
360
100
AcDbEntity
  8
Layer_1
 62
7
100
AcDbSpline
 70
8
 71
3
 72
8
 73
4
 74
0
 40
0
 40
0
 40
0
 40
0
 40
1
 40
1
 40
1
 40
1
 10
155.903940
 20
191.754940
 30
0.0
 10
155.920873
 20
191.568673
 30
0.0
 10
155.844673
 20
191.399340
 30
0.0
 10
155.675340
 20
191.246940
 30
0.0
  0
SPLINE
  5
361
100
AcDbEntity
  8
Layer_1
 62
7
100
AcDbSpline
 70
8
 71
3
 72
8
 73
4
 74
0
 40
0
 40
0
 40
0
 40
0
 40
1
 40
1
 40
1
 40
1
 10
155.675340
 20
191.246940
 30
0.0
 10
155.522940
 20
191.111473
 30
0.0
 10
155.328207
 20
191.043740
 30
0.0
 10
155.091140
 20
191.043740
 30
0.0
  0
SPLINE
  5
362
100
AcDbEntity
  8
Layer_1
 62
7
100
AcDbSpline
 70
8
 71
3
 72
8
 73
4
 74
0
 40
0
 40
0
 40
0
 40
0
 40
1
 40
1
 40
1
 40
1
 10
155.091140
 20
191.043740
 30
0.0
 10
154.854073
 20
191.043740
 30
0.0
 10
154.650873
 20
191.111473
 30
0.0
 10
154.481540
 20
191.246940
 30
0.0
  0
SPLINE
  5
363
100
AcDbEntity
  8
Layer_1
 62
7
100
AcDbSpline
 70
8
 71
3
 72
8
 73
4
 74
0
 40
0
 40
0
 40
0
 40
0
 40
1
 40
1
 40
1
 40
1
 10
154.481540
 20
191.246940
 30
0.0
 10
154.329140
 20
191.399340
 30
0.0
 10
154.252940
 20
191.568673
 30
0.0
 10
154.252940
 20
191.754940
 30
0.0
  0
SPLINE
  5
364
100
AcDbEntity
  8
Layer_1
 62
7
100
AcDbSpline
 70
8
 71
3
 72
8
 73
4
 74
0
 40
0
 40
0
 40
0
 40
0
 40
1
 40
1
 40
1
 40
1
 10
154.252940
 20
191.754940
 30
0.0
 10
154.236007
 20
191.958140
 30
0.0
 10
154.303740
 20
192.127473
 30
0.0
 10
154.456140
 20
192.262940
 30
0.0
  0
SPLINE
  5
365
100
AcDbEntity
  8
Layer_1
 62
7
100
AcDbSpline
 70
8
 71
3
 72
8
 73
4
 74
0
 40
0
 40
0
 40
0
 40
0
 40
1
 40
1
 40
1
 40
1
 10
154.456140
 20
192.262940
 30
0.0
 10
154.625473
 20
192.415340
 30
0.0
 10
154.828673
 20
192.491540
 30
0.0
 10
155.065740
 20
192.491540
 30
0.0
  0
LWPOLYLINE
  5
366
100
AcDbEntity
  8
Layer_1
 62
7
100
AcDbPolyline
 90
1
 70
1
 10
156.538940
 20
183.347540
 30
0.0
  0
LWPOLYLINE
  5
367
100
AcDbEntity
  8
Layer_1
 62
7
100
AcDbPolyline
 90
1
 70
1
 10
155.065740
 20
192.491540
 30
0.0
  0
ENDSEC
  0
SECTION
  2
OBJECTS
  0
DICTIONARY
  5
C
330
0
100
AcDbDictionary
  3
ACAD_GROUP
350
D
  3
ACAD_MLINESTYLE
350
17
  0
DICTIONARY
  5
D
330
C
100
AcDbDictionary
  0
DICTIONARY
  5
1A
330
C
100
AcDbDictionary
  0
DICTIONARY
  5
17
330
C
100
AcDbDictionary
  3
STANDARD
350
18
  0
DICTIONARY
  5
19
330
C
100
AcDbDictionary
  0
ENDSEC
  0
EOF
