  0
SECTION
  2
HEADER
  9
$ACADVER
  1
AC1015
  9
$ACADMAINTVER
 70
     6
  9
$DWGCODEPAGE
  3
ANSI_1252
  9
$INSBASE
 10
0.0
 20
0.0
 30
0.0
  9
$EXTMIN
 10
0.0
 20
0.0
 30
0.0
  9
$EXTMAX
 10
1189.0
 20
841.0
 30
0.0
  9
$LIMMIN
 10
0.0
 20
0.0
  9
$LIMMAX
 10
1189.0
 20
841.0
  9
$ORTHOMODE
 70
     0
  9
$REGENMODE
 70
     1
  9
$FILLMODE
 70
     1
  9
$QTEXTMODE
 70
     0
  9
$MIRRTEXT
 70
     1
  9
$LTSCALE
 40
1.0
  9
$ATTMODE
 70
     1
  9
$TEXTSIZE
 40
3.5
  9
$TRACEWID
 40
1.0
  9
$TEXTSTYLE
  7
Standard
  9
$CLAYER
  8
0
  9
$CELTYPE
  6
ByLayer
  9
$CECOLOR
 62
   256
  9
$CELTSCALE
 40
1.0
  9
$DISPSILH
 70
     0
  9
$DIMSCALE
 40
1.0
  9
$DIMASZ
 40
3.302
  9
$DIMEXO
 40
1.0
  9
$DIMDLI
 40
3.75
  9
$DIMRND
 40
0.0
  9
$DIMDLE
 40
0.0
  9
$DIMEXE
 40
1.0
  9
$DIMTP
 40
0.0
  9
$DIMTM
 40
0.0
  9
$DIMTXT
 40
3.5
  9
$DIMCEN
 40
2.5
  9
$DIMTSZ
 40
0.0
  9
$DIMTOL
 70
     0
  9
$DIMLIM
 70
     0
  9
$DIMTIH
 70
     1
  9
$DIMTOH
 70
     1
  9
$DIMSE1
 70
     0
  9
$DIMSE2
 70
     0
  9
$DIMTAD
 70
     1
  9
$DIMZIN
 70
     0
  9
$DIMBLK
  1

  9
$DIMASO
 70
     1
  9
$DIMSHO
 70
     1
  9
$DIMPOST
  1

  9
$DIMAPOST
  1

  9
$DIMALT
 70
     0
  9
$DIMALTD
 70
     3
  9
$DIMALTF
 40
0.0393700787
  9
$DIMLFAC
 40
5.0
  9
$DIMTOFL
 70
     1
  9
$DIMTVP
 40
0.0
  9
$DIMTIX
 70
     0
  9
$DIMSOXD
 70
     0
  9
$DIMSAH
 70
     0
  9
$DIMBLK1
  1

  9
$DIMBLK2
  1

  9
$DIMSTYLE
  2
ISO-25
  9
$DIMCLRD
 70
     0
  9
$DIMCLRE
 70
     0
  9
$DIMCLRT
 70
     0
  9
$DIMTFAC
 40
1.0
  9
$DIMGAP
 40
1.524
  9
$DIMJUST
 70
     0
  9
$DIMSD1
 70
     0
  9
$DIMSD2
 70
     0
  9
$DIMTOLJ
 70
     0
  9
$DIMTZIN
 70
     0
  9
$DIMALTZ
 70
     0
  9
$DIMALTTZ
 70
     0
  9
$DIMUPT
 70
     0
  9
$DIMDEC
 70
     2
  9
$DIMTDEC
 70
     2
  9
$DIMALTU
 70
     2
  9
$DIMALTTD
 70
     3
  9
$DIMTXSTY
  7
Standard
  9
$DIMAUNIT
 70
     0
  9
$DIMADEC
 70
     2
  9
$DIMALTRND
 40
0.0
  9
$DIMAZIN
 70
     0
  9
$DIMDSEP
 70
    44
  9
$DIMATFIT
 70
     3
  9
$DIMFRAC
 70
     0
  9
$DIMLDRBLK
  1

  9
$DIMLUNIT
 70
     2
  9
$DIMLWD
 70
    -2
  9
$DIMLWE
 70
    -2
  9
$DIMTMOVE
 70
     0
  9
$LUNITS
 70
     2
  9
$LUPREC
 70
     2
  9
$SKETCHINC
 40
1.0
  9
$FILLETRAD
 40
10.0
  9
$AUNITS
 70
     0
  9
$AUPREC
 70
     2
  9
$MENU
  1
.
  9
$ELEVATION
 40
0.0
  9
$PELEVATION
 40
0.0
  9
$THICKNESS
 40
0.0
  9
$LIMCHECK
 70
     0
  9
$CHAMFERA
 40
0.0
  9
$CHAMFERB
 40
0.0
  9
$CHAMFERC
 40
0.0
  9
$CHAMFERD
 40
0.0
  9
$SKPOLY
 70
     0
  9
$TDCREATE
 40
2458204.510724317
  9
$TDUCREATE
 40
2458204.427390984
  9
$TDUPDATE
 40
2458204.510724676
  9
$TDUUPDATE
 40
2458204.427391343
  9
$TDINDWG
 40
0.0000000116
  9
$TDUSRTIMER
 40
0.0000000116
  9
$USRTIMER
 70
     1
  9
$ANGBASE
 50
0.0
  9
$ANGDIR
 70
     0
  9
$PDMODE
 70
     0
  9
$PDSIZE
 40
-1.0
  9
$PLINEWID
 40
0.0
  9
$SPLFRAME
 70
     0
  9
$SPLINETYPE
 70
     6
  9
$SPLINESEGS
 70
     8
  9
$HANDSEED
  5
CE
  9
$SURFTAB1
 70
     6
  9
$SURFTAB2
 70
     6
  9
$SURFTYPE
 70
     6
  9
$SURFU
 70
     6
  9
$SURFV
 70
     6
  9
$UCSBASE
  2

  9
$UCSNAME
  2

  9
$UCSORG
 10
0.0
 20
0.0
 30
0.0
  9
$UCSXDIR
 10
1.0
 20
0.0
 30
0.0
  9
$UCSYDIR
 10
0.0
 20
1.0
 30
0.0
  9
$UCSORTHOREF
  2

  9
$UCSORTHOVIEW
 70
     0
  9
$UCSORGTOP
 10
0.0
 20
0.0
 30
0.0
  9
$UCSORGBOTTOM
 10
0.0
 20
0.0
 30
0.0
  9
$UCSORGLEFT
 10
0.0
 20
0.0
 30
0.0
  9
$UCSORGRIGHT
 10
0.0
 20
0.0
 30
0.0
  9
$UCSORGFRONT
 10
0.0
 20
0.0
 30
0.0
  9
$UCSORGBACK
 10
0.0
 20
0.0
 30
0.0
  9
$PUCSBASE
  2

  9
$PUCSNAME
  2

  9
$PUCSORG
 10
0.0
 20
0.0
 30
0.0
  9
$PUCSXDIR
 10
1.0
 20
0.0
 30
0.0
  9
$PUCSYDIR
 10
0.0
 20
1.0
 30
0.0
  9
$PUCSORTHOREF
  2

  9
$PUCSORTHOVIEW
 70
     0
  9
$PUCSORGTOP
 10
0.0
 20
0.0
 30
0.0
  9
$PUCSORGBOTTOM
 10
0.0
 20
0.0
 30
0.0
  9
$PUCSORGLEFT
 10
0.0
 20
0.0
 30
0.0
  9
$PUCSORGRIGHT
 10
0.0
 20
0.0
 30
0.0
  9
$PUCSORGFRONT
 10
0.0
 20
0.0
 30
0.0
  9
$PUCSORGBACK
 10
0.0
 20
0.0
 30
0.0
  9
$USERI1
 70
     0
  9
$USERI2
 70
     0
  9
$USERI3
 70
     0
  9
$USERI4
 70
     0
  9
$USERI5
 70
     0
  9
$USERR1
 40
0.0
  9
$USERR2
 40
0.0
  9
$USERR3
 40
0.0
  9
$USERR4
 40
0.0
  9
$USERR5
 40
0.0
  9
$WORLDVIEW
 70
     1
  9
$SHADEDGE
 70
     3
  9
$SHADEDIF
 70
    70
  9
$TILEMODE
 70
     1
  9
$MAXACTVP
 70
    64
  9
$PINSBASE
 10
0.0
 20
0.0
 30
0.0
  9
$PLIMCHECK
 70
     0
  9
$PEXTMIN
 10
1.0000000000E+20
 20
1.0000000000E+20
 30
1.0000000000E+20
  9
$PEXTMAX
 10
-1.0000000000E+20
 20
-1.0000000000E+20
 30
-1.0000000000E+20
  9
$PLIMMIN
 10
0.0
 20
0.0
  9
$PLIMMAX
 10
420.0
 20
297.0
  9
$UNITMODE
 70
     0
  9
$VISRETAIN
 70
     1
  9
$PLINEGEN
 70
     0
  9
$PSLTSCALE
 70
     1
  9
$TREEDEPTH
 70
  3020
  9
$CMLSTYLE
  2
Standard
  9
$CMLJUST
 70
     0
  9
$CMLSCALE
 40
20.0
  9
$PROXYGRAPHICS
 70
     1
  9
$MEASUREMENT
 70
     1
  9
$CELWEIGHT
370
    -1
  9
$ENDCAPS
280
     0
  9
$JOINSTYLE
280
     0
  9
$LWDISPLAY
290
     1
  9
$INSUNITS
 70
     4
  9
$HYPERLINKBASE
  1

  9
$STYLESHEET
  1

  9
$XEDIT
290
     1
  9
$CEPSNTYPE
380
     0
  9
$PSTYLEMODE
290
     1
  9
$FINGERPRINTGUID
  2
{90AFDB4A-65C1-4787-822A-9BA6BCF714E5}
  9
$VERSIONGUID
  2
{FAEB1C32-E019-11D5-929B-00C0DF256EC4}
  9
$EXTNAMES
290
     1
  9
$PSVPSCALE
 40
0.0
  9
$OLESTARTUP
290
     0
  0
ENDSEC
  0
SECTION
  2
CLASSES
  0
CLASS
  1
ACDBDICTIONARYWDFLT
  2
AcDbDictionaryWithDefault
  3
ObjectDBX Classes
 90
        0
280
     0
281
     0
  0
CLASS
  1
VISUALSTYLE
  2
AcDbVisualStyle
  3
ObjectDBX Classes
 90
     4095
280
     0
281
     0
  0
CLASS
  1
MATERIAL
  2
AcDbMaterial
  3
ObjectDBX Classes
 90
     1153
280
     0
281
     0
  0
CLASS
  1
SCALE
  2
AcDbScale
  3
ObjectDBX Classes
 90
     1153
280
     0
281
     0
  0
CLASS
  1
TABLESTYLE
  2
AcDbTableStyle
  3
ObjectDBX Classes
 90
     4095
280
     0
281
     0
  0
CLASS
  1
MLEADERSTYLE
  2
AcDbMLeaderStyle
  3
ACDB_MLEADERSTYLE_CLASS
 90
     4095
280
     0
281
     0
  0
CLASS
  1
SUN
  2
AcDbSun
  3
SCENEOE
 90
     1153
280
     0
281
     0
  0
CLASS
  1
ACDBPLACEHOLDER
  2
AcDbPlaceHolder
  3
ObjectDBX Classes
 90
        0
280
     0
281
     0
  0
CLASS
  1
LAYOUT
  2
AcDbLayout
  3
ObjectDBX Classes
 90
        0
280
     0
281
     0
  0
ENDSEC
  0
SECTION
  2
TABLES
  0
TABLE
  2
VPORT
  5
8
330
0
100
AcDbSymbolTable
 70
     1
  0
VPORT
  5
29
330
8
100
AcDbSymbolTableRecord
100
AcDbViewportTableRecord
  2
*Active
 70
     0
 10
0.0
 20
0.0
 11
1.0
 21
1.0
 12
594.5
 22
420.5
 13
0.0
 23
0.0
 14
10.0
 24
10.0
 15
10.0
 25
10.0
 16
0.0
 26
0.0
 36
1.0
 17
0.0
 27
0.0
 37
0.0
 40
841.0
 41
1.4137931034
 42
50.0
 43
0.0
 44
0.0
 50
0.0
 51
0.0
 71
     0
 72
  2000
 73
     1
 74
     3
 75
     0
 76
     0
 77
     0
 78
     0
281
     0
 65
     1
110
0.0
120
0.0
130
0.0
111
1.0
121
0.0
131
0.0
112
0.0
122
1.0
132
0.0
 79
     0
146
0.0
  0
ENDTAB
  0
TABLE
  2
LTYPE
  5
5
330
0
100
AcDbSymbolTable
 70
     6
  0
LTYPE
  5
14
330
5
100
AcDbSymbolTableRecord
100
AcDbLinetypeTableRecord
  2
ByBlock
 70
     0
  3

 72
    65
 73
     0
 40
0.0
  0
LTYPE
  5
15
330
5
100
AcDbSymbolTableRecord
100
AcDbLinetypeTableRecord
  2
ByLayer
 70
     0
  3

 72
    65
 73
     0
 40
0.0
  0
LTYPE
  5
16
330
5
100
AcDbSymbolTableRecord
100
AcDbLinetypeTableRecord
  2
Continuous
 70
     0
  3
Solid line
 72
    65
 73
     0
 40
0.0
  0
LTYPE
  5
6E
330
5
100
AcDbSymbolTableRecord
100
AcDbLinetypeTableRecord
  2
HIDDEN
 70
     0
  3
Hidden __ __ __ __ __ __ __ __ __ __ __ __ __ __
 72
    65
 73
     2
 40
1.905
 49
1.27
 74
     0
 49
-0.635
 74
     0
  0
LTYPE
  5
6F
330
5
100
AcDbSymbolTableRecord
100
AcDbLinetypeTableRecord
  2
PHANTOM
 70
     0
  3
Phantom ______  __  __  ______  __  __  ______
 72
    65
 73
     6
 40
12.7
 49
6.35
 74
     0
 49
-1.27
 74
     0
 49
1.27
 74
     0
 49
-1.27
 74
     0
 49
1.27
 74
     0
 49
-1.27
 74
     0
  0
LTYPE
  5
70
330
5
100
AcDbSymbolTableRecord
100
AcDbLinetypeTableRecord
  2
CENTER
 70
     0
  3
Center ____ _ ____ _ ____ _ ____ _ ____ _ ____
 72
    65
 73
     4
 40
10.16
 49
6.35
 74
     0
 49
-1.27
 74
     0
 49
1.27
 74
     0
 49
-1.27
 74
     0
  0
LTYPE
  5
71
330
5
100
AcDbSymbolTableRecord
100
AcDbLinetypeTableRecord
  2
CENTERX2
 70
     0
  3
Center (2x) ________  __  ________  __  _____
 72
    65
 73
     4
 40
20.32
 49
12.7
 74
     0
 49
-2.54
 74
     0
 49
2.54
 74
     0
 49
-2.54
 74
     0
  0
LTYPE
  5
72
330
5
100
AcDbSymbolTableRecord
100
AcDbLinetypeTableRecord
  2
DOT2
 70
     0
  3
Dot (.5x) ........................................
 72
    65
 73
     2
 40
0.635
 49
0.0
 74
     0
 49
-0.635
 74
     0
  0
ENDTAB
  0
TABLE
  2
LAYER
  5
2
330
0
100
AcDbSymbolTable
 70
     1
  0
LAYER
  5
10
330
2
100
AcDbSymbolTableRecord
100
AcDbLayerTableRecord
  2
0
 70
     0
 62
     7
  6
Continuous
370
    -3
390
F
  0
ENDTAB
  0
TABLE
  2
STYLE
  5
3
330
0
100
AcDbSymbolTable
 70
     2
  0
STYLE
  5
11
330
3
100
AcDbSymbolTableRecord
100
AcDbTextStyleTableRecord
  2
Standard
 70
     0
 40
0.0
 41
1.0
 50
0.0
 71
     0
 42
3.5
  3
txt
  4

  0
STYLE
  5
CB
330
3
100
AcDbSymbolTableRecord
100
AcDbTextStyleTableRecord
  2
SLDTEXTSTYLE0
 70
     0
 40
0.0
 41
0.7
 50
0.0
 71
     0
 42
3.5
  3
TXT
  4

  0
ENDTAB
  0
TABLE
  2
VIEW
  5
6
330
0
100
AcDbSymbolTable
 70
     0
  0
ENDTAB
  0
TABLE
  2
UCS
  5
7
330
0
100
AcDbSymbolTable
 70
     0
  0
ENDTAB
  0
TABLE
  2
APPID
  5
9
330
0
100
AcDbSymbolTable
 70
     1
  0
APPID
  5
12
330
9
100
AcDbSymbolTableRecord
100
AcDbRegAppTableRecord
  2
ACAD
 70
     0
  0
ENDTAB
  0
TABLE
  2
DIMSTYLE
  5
A
330
0
100
AcDbSymbolTable
 70
     1
100
AcDbDimStyleTable
  0
DIMSTYLE
105
27
330
A
100
AcDbSymbolTableRecord
100
AcDbDimStyleTableRecord
  2
ISO-25
 70
     0
 41
2.5
 42
0.625
 43
3.75
 44
1.25
 73
     0
 74
     0
 77
     1
 78
     8
140
2.5
141
2.5
143
0.0393700787
147
0.625
171
     3
172
     1
178
     0
271
     2
272
     2
274
     3
278
    44
283
     0
284
     8
340
11
  0
ENDTAB
  0
TABLE
  2
BLOCK_RECORD
  5
1
330
0
100
AcDbSymbolTable
 70
     1
  0
BLOCK_RECORD
  5
1F
330
1
100
AcDbSymbolTableRecord
100
AcDbBlockTableRecord
  2
*Model_Space
340
22
  0
BLOCK_RECORD
  5
1B
330
1
100
AcDbSymbolTableRecord
100
AcDbBlockTableRecord
  2
*Paper_Space
340
1E
  0
BLOCK_RECORD
  5
23
330
1
100
AcDbSymbolTableRecord
100
AcDbBlockTableRecord
  2
*Paper_Space0
340
26
  0
ENDTAB
  0
ENDSEC
  0
SECTION
  2
BLOCKS
  0
BLOCK
  5
20
330
1F
100
AcDbEntity
  8
0
100
AcDbBlockBegin
  2
*Model_Space
 70
     0
 10
0.0
 20
0.0
 30
0.0
  3
*Model_Space
  1

  0
ENDBLK
  5
21
330
1F
100
AcDbEntity
  8
0
100
AcDbBlockEnd
  0
BLOCK
  5
1C
330
1B
100
AcDbEntity
 67
     1
  8
0
100
AcDbBlockBegin
  2
*Paper_Space
 70
     0
 10
0.0
 20
0.0
 30
0.0
  3
*Paper_Space
  1

  0
ENDBLK
  5
1D
330
1B
100
AcDbEntity
 67
     1
  8
0
100
AcDbBlockEnd
  0
BLOCK
  5
24
330
23
100
AcDbEntity
  8
0
100
AcDbBlockBegin
  2
*Paper_Space0
 70
     0
 10
0.0
 20
0.0
 30
0.0
  3
*Paper_Space0
  1

  0
ENDBLK
  5
25
330
23
100
AcDbEntity
  8
0
100
AcDbBlockEnd
  0
ENDSEC
  0
SECTION
  2
ENTITIES
  0
LINE
  5
73
330
1F
100
AcDbEntity
  8
0
  6
Continuous
 62
     7
370
    25
100
AcDbLine
 10
752.2917484667
 20
508.9548412992
 30
0.0
 11
724.229318065
 21
512.4903752035
 31
0.0
  0
LINE
  5
74
330
1F
100
AcDbEntity
  8
0
  6
Continuous
 62
     7
370
    25
100
AcDbLine
 10
717.9167550297
 20
511.3757542569
 30
0.0
 11
715.1357538331
 21
510.0879816668
 31
0.0
  0
LINE
  5
75
330
1F
100
AcDbEntity
  8
0
  6
Continuous
 62
     7
370
    25
100
AcDbLine
 10
716.0259331045
 20
510.5001887768
 30
0.0
 11
486.509717516
 21
539.4165139196
 31
0.0
  0
LINE
  5
76
330
1F
100
AcDbEntity
  8
0
  6
Continuous
 62
     7
370
    25
100
AcDbLine
 10
488.4749728776
 20
539.1689150174
 30
0.0
 11
486.8604136858
 21
540.4861170061
 31
0.0
  0
LINE
  5
77
330
1F
100
AcDbEntity
  8
0
  6
Continuous
 62
     7
370
    25
100
AcDbLine
 10
481.0215879167
 20
543.1316690406
 30
0.0
 11
452.0237431682
 21
546.785054075
 31
0.0
  0
SPLINE
  5
78
330
1F
100
AcDbEntity
  8
0
  6
Continuous
 62
     7
370
    25
100
AcDbSpline
210
0.0
220
0.0
230
1.0
 70
     8
 71
     3
 72
    31
 73
    27
 74
     0
 42
0.000000001
 43
0.00000001
 40
0.0
 40
0.0
 40
0.0
 40
0.0
 40
0.0418385790965888
 40
0.0917411730853814
 40
0.1410188316503652
 40
0.1895663901866057
 40
0.2373043970382037
 40
0.2841806818062719
 40
0.3301701495099056
 40
0.3752729488716549
 40
0.4195114137344171
 40
0.4629262980538202
 40
0.5055728065849695
 40
0.5475168105206887
 40
0.5888314908778594
 40
0.6295945189405222
 40
0.669885785096542
 40
0.7097856280841138
 40
0.7493734887913559
 40
0.7887269061729755
 40
0.8279207785214135
 40
0.8670268247177532
 40
0.906113193102771
 40
0.9452334963379765
 40
0.9844388928152689
 40
1.0
 40
1.0
 40
1.0
 40
1.0
 10
430.8908375585966
 20
549.6425308059655
 30
0.0
 10
430.524707415451
 20
549.7330874529204
 30
0.0
 10
429.721878792697
 20
549.9316547370325
 30
0.0
 10
428.5258462749529
 20
550.3005931210239
 30
0.0
 10
427.3093821843668
 20
550.7279972622825
 30
0.0
 10
426.1561528728615
 20
551.1910734148444
 30
0.0
 10
425.0707597224393
 20
551.6798497221027
 30
0.0
 10
424.0572348711052
 20
552.1867600733486
 30
0.0
 10
423.1176313348316
 20
552.7038689629557
 30
0.0
 10
422.2526306610013
 20
553.2238767556014
 30
0.0
 10
421.461688061494
 20
553.7400397834907
 30
0.0
 10
420.7433220984683
 20
554.246282897647
 30
0.0
 10
420.0953564141712
 20
554.7371875252121
 30
0.0
 10
419.5151402336901
 20
555.2079582355367
 30
0.0
 10
418.9997283285999
 20
555.6543610666909
 30
0.0
 10
418.5460224158062
 20
556.0726517686294
 30
0.0
 10
418.1508756578861
 20
556.4595026361947
 30
0.0
 10
417.8111684160327
 20
556.8119300441041
 30
0.0
 10
417.5238514341061
 20
557.127241118484
 30
0.0
 10
417.2859978604345
 20
557.4029450609606
 30
0.0
 10
417.0947367926689
 20
557.6368367810778
 30
0.0
 10
416.9475624876753
 20
557.8264841611948
 30
0.0
 10
416.8412100775478
 20
557.9709616206513
 30
0.0
 10
416.7758505379248
 20
558.0642356246544
 30
0.0
 10
416.7466724619603
 20
558.108668741171
 30
0.0
 10
416.7501771154788
 20
558.103147197036
 30
0.0
 10
416.7511729119128
 20
558.1015783304048
 30
0.0
  0
SPLINE
  5
79
330
1F
100
AcDbEntity
  8
0
  6
Continuous
 62
     7
370
    25
100
AcDbSpline
210
0.0
220
0.0
230
1.0
 70
     8
 71
     3
 72
     9
 73
     5
 74
     0
 42
0.000000001
 43
0.00000001
 40
0.0
 40
0.0
 40
0.0
 40
0.0
 40
0.6493277563148276
 40
1.0
 40
1.0
 40
1.0
 40
1.0
 10
392.5453474572894
 20
365.9817697903831
 30
0.0
 10
392.5457823547031
 20
365.982231847542
 30
0.0
 10
392.5464521203328
 20
365.982943440654
 30
0.0
 10
392.5673886489145
 20
366.0015606134837
 30
0.0
 10
392.5747305083672
 20
366.0080891392509
 30
0.0
  0
LINE
  5
7A
330
1F
100
AcDbEntity
  8
0
  6
Continuous
 62
     7
370
    25
100
AcDbLine
 10
448.0966714343
 20
553.3272501757
 30
0.0
 11
442.4841853539
 21
554.0343569565
 31
0.0
  0
LINE
  5
7B
330
1F
100
AcDbEntity
  8
0
  6
Continuous
 62
     7
370
    25
100
AcDbLine
 10
442.0340049773
 20
543.3886291367
 30
0.0
 11
440.4541067619
 21
542.1622843118
 31
0.0
  0
SPLINE
  5
7C
330
1F
100
AcDbEntity
  8
0
  6
Continuous
 62
     7
370
    25
100
AcDbSpline
210
0.0
220
0.0
230
1.0
 70
     8
 71
     3
 72
    92
 73
    88
 74
     0
 42
0.000000001
 43
0.00000001
 40
0.0
 40
0.0
 40
0.0
 40
0.0
 40
0.0021537664742997
 40
0.013413302297495
 40
0.0247794607394837
 40
0.0362483250335459
 40
0.047815856659998
 40
0.0594779362110422
 40
0.071230399304084
 40
0.0830690677057705
 40
0.0949897759064869
 40
0.106988393440101
 40
0.1190608432798316
 40
0.1312031166606104
 40
0.1434112846840739
 40
0.155681507057658
 40
0.1680100383062318
 40
0.1803932317757378
 40
0.1928275417258752
 40
0.2053095237833831
 40
0.2178358340016541
 40
0.2304032267460839
 40
0.2430085515991356
 40
0.2556487494547972
 40
0.2683208479494
 40
0.2810219563549847
 40
0.2937492600422588
 40
0.3065000146032075
 40
0.3192715397082479
 40
0.3320612127593963
 40
0.3448664623894416
 40
0.3576847618468899
 40
0.3705136222981152
 40
0.3833505860709924
 40
0.3961932198583486
 40
0.4090391078949462
 40
0.4218858451182242
 40
0.4347302622334853
 40
0.4475699206211966
 40
0.4604024023043754
 40
0.4732252708008622
 40
0.4860360643183224
 40
0.4988322889889503
 40
0.5116114121555357
 40
0.5243708557285909
 40
0.5371079896403157
 40
0.5498201254290068
 40
0.5625045099965383
 40
0.5751583195921468
 40
0.5877786540884158
 40
0.6003625316297398
 40
0.6129068837498934
 40
0.62540855107416
 40
0.6378642797423366
 40
0.6502707187121154
 40
0.6626244181279105
 40
0.6749218289677238
 40
0.6871593042100529
 40
0.6993331017935662
 40
0.7114393896734262
 40
0.7234742533091314
 40
0.7354337059476551
 40
0.7473137020911322
 40
0.7591101545580206
 40
0.7708189555575989
 40
0.7824360021972797
 40
0.7939572268258817
 40
0.8053786325807585
 40
0.8166963344476553
 40
0.8279066060555087
 40
0.8390059323108773
 40
0.8499910678257236
 40
0.8608591009073279
 40
0.8716075226621466
 40
0.8822343005217521
 40
0.8927379552371516
 40
0.9031176401212461
 40
0.9133732210644994
 40
0.9235053556259234
 40
0.9335155693317188
 40
0.9434063272167084
 40
0.9531810986359689
 40
0.9628444134640164
 40
0.9724019079851496
 40
0.981860359048329
 40
0.9912277053858243
 40
1.0
 40
1.0
 40
1.0
 40
1.0
 10
402.5122228806313
 20
527.4139336752995
 30
0.0
 10
402.5269416025466
 20
527.3321156745964
 30
0.0
 10
402.6186073745047
 20
526.822566663641
 30
0.0
 10
402.7805853100821
 20
525.8339256314423
 30
0.0
 10
402.9970936803051
 20
524.4430649153837
 30
0.0
 10
403.2050872518085
 20
522.9896698966681
 30
0.0
 10
403.4043157107133
 20
521.4806926598486
 30
0.0
 10
403.5935201522943
 20
519.916096913335
 30
0.0
 10
403.7717921452883
 20
518.2978517721048
 30
0.0
 10
403.9382045667674
 20
516.6274801004566
 30
0.0
 10
404.0919110919617
 20
514.9067138185457
 30
0.0
 10
404.2321182092481
 20
513.137307017785
 30
0.0
 10
404.3580914960133
 20
511.3210779777053
 30
0.0
 10
404.4691523769927
 20
509.4598898037246
 30
0.0
 10
404.5646772780197
 20
507.5556483231782
 30
0.0
 10
404.6440960001605
 20
505.6102959447663
 30
0.0
 10
404.7068902180043
 20
503.6258072241739
 30
0.0
 10
404.7525918971133
 20
501.6041845556152
 30
0.0
 10
404.7807817200709
 20
499.5474543827637
 30
0.0
 10
404.7910875259025
 20
497.4576637851484
 30
0.0
 10
404.7831827857432
 20
495.3368774389751
 30
0.0
 10
404.7567851284086
 20
493.1871749119137
 30
0.0
 10
404.7116549281471
 20
491.0106482622808
 30
0.0
 10
404.6475939638309
 20
488.8093999111932
 30
0.0
 10
404.5644441567474
 20
486.5855407584292
 30
0.0
 10
404.462086392241
 20
484.3411885142149
 30
0.0
 10
404.3404394289206
 20
482.0784662210499
 30
0.0
 10
404.19945889788
 20
479.7995009415804
 30
0.0
 10
404.03913639338
 20
477.5064225904349
 30
0.0
 10
403.8594986556627
 20
475.2013628897607
 30
0.0
 10
403.6606068459889
 20
472.8864544299367
 30
0.0
 10
403.4425559135689
 20
470.5638298185252
 30
0.0
 10
403.205474053779
 20
468.2356209018992
 30
0.0
 10
402.9495222569172
 20
465.9039580454609
 30
0.0
 10
402.6748939465468
 20
463.5709694585369
 30
0.0
 10
402.3818147069646
 20
461.2387805542717
 30
0.0
 10
402.070548301419
 20
458.9095597469436
 30
0.0
 10
401.7413922773493
 20
456.5854730896706
 30
0.0
 10
401.3946776946281
 20
454.2686813099012
 30
0.0
 10
401.0307613800064
 20
451.9612931458827
 30
0.0
 10
400.6500319425706
 20
449.665409161744
 30
0.0
 10
400.2529102916998
 20
447.3831230027836
 30
0.0
 10
399.8398499614546
 20
445.1165206484518
 30
0.0
 10
399.4113375167689
 20
442.8676796019296
 30
0.0
 10
398.9678930402229
 20
440.6386680022812
 30
0.0
 10
398.5100706979013
 20
438.4315436445964
 30
0.0
 10
398.0384593823442
 20
436.2483528919987
 30
0.0
 10
397.5536834299617
 20
434.0911294619351
 30
0.0
 10
397.0564034094474
 20
431.9618930674782
 30
0.0
 10
396.5473169766788
 20
429.8626478925506
 30
0.0
 10
396.027159790282
 20
427.7953808780551
 30
0.0
 10
395.4967064804612
 20
425.7620597938958
 30
0.0
 10
394.9567716617944
 20
423.7646310698616
 30
0.0
 10
394.4082109784686
 20
421.8050173563991
 30
0.0
 10
393.8519221678322
 20
419.8851147845122
 30
0.0
 10
393.2888461251796
 20
418.0067898925279
 30
0.0
 10
392.7199679493357
 20
416.1718761863971
 30
0.0
 10
392.1463179449033
 20
414.3821702997689
 30
0.0
 10
391.5689725530142
 20
412.6394277204934
 30
0.0
 10
390.9890551781424
 20
410.9453580517437
 30
0.0
 10
390.4077368741316
 20
409.3016197789217
 30
0.0
 10
389.8262368482073
 20
407.7098145182437
 30
0.0
 10
389.2458227376213
 20
406.1714807297915
 30
0.0
 10
388.6678106100182
 20
404.6880868872324
 30
0.0
 10
388.0935646359983
 20
403.261024108738
 30
0.0
 10
387.524496381158
 20
401.8915982692226
 30
0.0
 10
386.9620636656631
 20
400.581021633099
 30
0.0
 10
386.4077689428065
 20
399.3304040694503
 30
0.0
 10
385.8631571546808
 20
398.1407439377053
 30
0.0
 10
385.3298130337545
 20
397.0129187611537
 30
0.0
 10
384.8093578344784
 20
395.9476758372249
 30
0.0
 10
384.3034454992639
 20
394.9456229657346
 30
0.0
 10
383.8137582896065
 20
394.0072195087452
 30
0.0
 10
383.3420019416184
 20
393.1327680210511
 30
0.0
 10
382.8899004498253
 20
392.3224067233991
 30
0.0
 10
382.4591905886108
 20
391.5761030627074
 30
0.0
 10
382.0516164428026
 20
390.893648750824
 30
0.0
 10
381.6689238100267
 20
390.2746561133495
 30
0.0
 10
381.3128560118293
 20
389.7185575324785
 30
0.0
 10
380.9851466624953
 20
389.22460241779
 30
0.0
 10
380.6875269974175
 20
388.7918727850483
 30
0.0
 10
380.4216845670927
 20
388.419240454262
 30
0.0
 10
380.1894063113012
 20
388.1055479728258
 30
0.0
 10
379.9920523579638
 20
387.8489775972675
 30
0.0
 10
379.8324951934072
 20
387.6494088426899
 30
0.0
 10
379.7102798795362
 20
387.5025297866747
 30
0.0
 10
379.6627763143783
 20
387.4480603166394
 30
0.0
 10
379.6398036838891
 20
387.42171898828
 30
0.0
  0
LINE
  5
7D
330
1F
100
AcDbEntity
  8
0
  6
Continuous
 62
     7
370
    25
100
AcDbLine
 10
397.721810628
 20
606.0375281004
 30
0.0
 11
384.6260097738
 21
607.6874439224
 31
0.0
  0
LINE
  5
7E
330
1F
100
AcDbEntity
  8
0
  6
Continuous
 62
     7
370
    25
100
AcDbLine
 10
379.9718106367
 20
593.3733004441
 30
0.0
 11
379.9718106367
 21
599.0301546938
 31
0.0
  0
LWPOLYLINE
  5
7F
330
1F
100
AcDbEntity
  8
0
  6
Continuous
 62
     7
370
    25
100
AcDbPolyline
 90
       41
 70
   128
 43
0.0
 10
423.000870586
 20
544.5829325435
 10
421.3115576201
 20
544.8292020654
 10
419.6248494524
 20
545.1419640451
 10
417.9433468645
 20
545.5207362262
 10
416.2696426117
 20
545.9649345694
 10
414.6063174245
 20
546.4738741532
 10
412.9559360298
 20
547.0467702295
 10
411.3210431961
 20
547.6827394342
 10
409.7041598097
 20
548.3808011488
 10
408.1077789876
 20
549.1398790128
 10
406.5343622332
 20
549.9588025831
 10
404.9863356412
 20
550.8363091389
 10
403.4660861563
 20
551.7710456287
 10
401.9759578931
 20
552.7615707567
 10
400.5182485214
 20
553.8063572048
 10
399.0952057234
 20
554.903793988
 10
397.7090237278
 20
556.0521889385
 10
396.3618399269
 20
557.2497713144
 10
395.0557315805
 20
558.4946945305
 10
393.7927126129
 20
559.7850390054
 10
392.5747305078
 20
561.1188151215
 10
391.4036633054
 20
562.4939662927
 10
390.2813167064
 20
563.9083721356
 10
389.2094212879
 20
565.3598517388
 10
388.1896298351
 20
566.846167026
 10
387.2235147922
 20
568.3650262068
 10
386.3125658388
 20
569.9140873104
 10
385.4581875922
 20
571.4909617969
 10
384.6616974415
 20
573.0932182401
 10
383.9243235169
 20
574.7183860766
 10
383.2472027957
 20
576.3639594156
 10
382.6313793487
 20
578.0274009021
 10
382.0778027312
 20
579.7061456301
 10
381.5873265181
 20
581.3976050966
 10
381.1607069883
 20
583.099171194
 10
380.7986019582
 20
584.8082202306
 10
380.5015697673
 20
586.5221169766
 10
380.2700684179
 20
588.2382187275
 10
380.1044548683
 20
589.9538793787
 10
380.0049844825
 20
591.666453506
 10
379.9718106367
 20
593.3733004441
  0
LINE
  5
80
330
1F
100
AcDbEntity
  8
0
  6
Continuous
 62
     7
370
    25
100
AcDbLine
 10
424.8716992795
 20
544.3472302832
 30
0.0
 11
423.000870586
 21
544.5829325435
 31
0.0
  0
ARC
  5
81
330
1F
100
AcDbEntity
  8
0
  6
Continuous
 62
     7
370
    25
100
AcDbCircle
 10
425.5953501968
 20
549.18354152
 30
0.0
 40
4.890151023173174
100
AcDbArc
 50
261.4900418456
 51
1.3292023768
  0
LINE
  5
82
330
1F
100
AcDbEntity
  8
0
  6
Continuous
 62
     7
370
    25
100
AcDbLine
 10
436.0966714402
 20
548.5898709712
 30
0.0
 11
430.4841853598
 21
549.296977752
 31
0.0
  0
LINE
  5
83
330
1F
100
AcDbEntity
  8
0
  6
Continuous
 62
     7
370
    25
100
AcDbLine
 10
436.0966714402
 20
542.9330167215
 30
0.0
 11
436.0966714402
 21
548.5898709712
 31
0.0
  0
LWPOLYLINE
  5
84
330
1F
100
AcDbEntity
  8
0
  6
Continuous
 62
     7
370
    25
100
AcDbPolyline
 90
       13
 70
   128
 43
0.0
 10
439.2147192626
 20
541.1347228831
 10
438.9261771577
 20
540.9573025566
 10
438.6025087194
 20
540.8436370055
 10
438.2555732967
 20
540.7978909839
 10
437.8980827509
 20
540.8217406455
 10
437.5431356875
 20
540.9143121284
 10
437.2037375178
 20
541.0722135743
 10
436.8923239347
 20
541.2896594071
 10
436.6203052643
 20
541.5586823192
 10
436.3976483863
 20
541.8694251966
 10
436.2325115433
 20
542.2105022884
 10
436.1309454192
 20
542.569416385
 10
436.0966714402
 20
542.9330167215
  0
LINE
  5
85
330
1F
100
AcDbEntity
  8
0
  6
Continuous
 62
     7
370
    25
100
AcDbLine
 10
440.7737431738
 20
542.3437610708
 30
0.0
 11
439.2147192626
 21
541.1347228831
 31
0.0
  0
LINE
  5
86
330
1F
100
AcDbEntity
  8
0
  6
Continuous
 62
     7
370
    25
100
AcDbLine
 10
469.7715879222
 20
538.6903760364
 30
0.0
 11
440.7737431738
 21
542.3437610708
 31
0.0
  0
LINE
  5
87
330
1F
100
AcDbEntity
  8
0
  6
Continuous
 62
     7
370
    25
100
AcDbLine
 10
473.7638888279
 20
535.8642161184
 30
0.0
 11
469.7715879222
 21
538.6903760364
 31
0.0
  0
ARC
  5
88
330
1F
100
AcDbEntity
  8
0
  6
Continuous
 62
     7
370
    25
100
AcDbCircle
 10
476.1825247621
 20
539.2387237085
 30
0.0
 40
4.151758814972587
100
AcDbArc
 50
234.3694137342
 51
262.4179514182
  0
LINE
  5
89
330
1F
100
AcDbEntity
  8
0
  6
Continuous
 62
     7
370
    25
100
AcDbLine
 10
705.6123273586
 20
506.1488086613
 30
0.0
 11
475.6347175214
 21
535.1232640155
 31
0.0
  0
ARC
  5
8A
330
1F
100
AcDbEntity
  8
0
  6
Continuous
 62
     7
370
    25
100
AcDbCircle
 10
706.7650050209
 20
514.7163402609
 30
0.0
 40
8.644724605347712
100
AcDbArc
 50
262.3374252437
 51
294.05999746
  0
LINE
  5
8B
330
1F
100
AcDbEntity
  8
0
  6
Continuous
 62
     7
370
    25
100
AcDbLine
 10
712.9793180705
 20
508.0490821993
 30
0.0
 11
710.2893990922
 21
506.8226776172
 31
0.0
  0
LINE
  5
8C
330
1F
100
AcDbEntity
  8
0
  6
Continuous
 62
     7
370
    25
100
AcDbLine
 10
741.0417484722
 20
504.513548295
 30
0.0
 11
712.9793180705
 21
508.0490821993
 31
0.0
  0
LINE
  5
8D
330
1F
100
AcDbEntity
  8
0
  6
Continuous
 62
     7
370
    25
100
AcDbLine
 10
741.0417484722
 20
491.3142217124
 30
0.0
 11
741.0417484722
 21
504.513548295
 31
0.0
  0
LINE
  5
8E
330
1F
100
AcDbEntity
  8
0
  6
Continuous
 62
     7
370
    25
100
AcDbLine
 10
506.5033909633
 20
520.8632772631
 30
0.0
 11
741.0417484722
 21
491.3142217124
 31
0.0
  0
ARC
  5
8F
330
1F
100
AcDbEntity
  8
0
  6
Continuous
 62
     7
370
    25
100
AcDbCircle
 10
505.3561623017
 20
512.0193941086
 30
0.0
 40
8.917981994392715
100
AcDbArc
 50
82.6088637522
 51
102.8230176355
  0
LINE
  5
90
330
1F
100
AcDbEntity
  8
0
  6
Continuous
 62
     7
370
    25
100
AcDbLine
 10
485.3091055843
 20
516.5332475179
 30
0.0
 11
503.3769033275
 21
520.7149640592
 31
0.0
  0
ARC
  5
91
330
1F
100
AcDbEntity
  8
0
  6
Continuous
 62
     7
370
    25
100
AcDbCircle
 10
483.32984661
 20
525.2288174684
 30
0.0
 40
8.917981994394758
100
AcDbArc
 50
262.6088637522
 51
282.8230176355
  0
LINE
  5
92
330
1F
100
AcDbEntity
  8
0
  6
Continuous
 62
     7
370
    25
100
AcDbLine
 10
411.7758984253
 20
525.2553471898
 30
0.0
 11
482.1826179484
 21
516.3849343139
 31
0.0
  0
LWPOLYLINE
  5
93
330
1F
100
AcDbEntity
  8
0
  6
Continuous
 62
     7
370
    25
100
AcDbPolyline
 90
       42
 70
   128
 43
0.0
 10
366.8760097826
 20
576.1670354339
 10
366.9089581717
 20
574.4295004723
 10
367.0077549827
 20
572.6862133692
 10
367.1722552176
 20
570.9397326387
 10
367.4022174498
 20
569.1926214823
 10
367.6973041778
 20
567.4474440264
 10
368.0570823213
 20
565.7067615597
 10
368.4810238561
 20
563.9731287736
 10
368.9685065897
 20
562.2490900134
 10
369.5188150738
 20
560.5371755437
 10
370.131141655
 20
558.839897835
 10
370.8045876594
 20
557.1597478765
 10
371.5381647123
 20
555.4991915199
 10
372.3307961881
 20
553.8606658606
 10
373.1813187909
 20
552.2465756609
 10
374.0884842614
 20
550.6592898209
 10
375.0509612093
 20
549.1011379014
 10
376.0673370668
 20
547.5744067052
 10
377.1361201622
 20
546.0813369208
 10
378.2557419091
 20
544.6241198341
 10
379.424559108
 20
543.2048941121
 10
380.6408563585
 20
541.8257426642
 10
381.9028485767
 20
540.4886895854
 10
383.2086836151
 20
539.1956971854
 10
384.5564449805
 20
537.9486631089
 10
385.9441546474
 20
536.7494175504
 10
387.3697759605
 20
535.5997205681
 10
388.8312166238
 20
534.5012595008
 10
390.3263317717
 20
533.4556464917
 10
391.8529271165
 20
532.464416122
 10
393.4087621691
 20
531.5290231589
 10
394.9915535269
 20
530.6508404208
 10
396.5989782254
 20
529.8311567617
 10
398.2286771472
 20
529.0711751805
 10
399.8782584843
 20
528.3720110551
 10
401.5453012487
 20
527.7346905051
 10
403.2273588253
 20
527.1601488863
 10
404.9219625625
 20
526.6492294178
 10
406.6266253958
 20
526.2026819445
 10
408.3388454973
 20
525.8211618361
 10
410.0561099479
 20
525.5052290263
 10
411.7758984253
 20
525.2553471898
  0
LINE
  5
94
330
1F
100
AcDbEntity
  8
0
  6
Continuous
 62
     7
370
    25
100
AcDbLine
 10
366.8760097826
 20
600.6800705158
 30
0.0
 11
366.8760097826
 21
576.1670354339
 31
0.0
  0
LINE
  5
95
330
1F
100
AcDbEntity
  8
0
  6
Continuous
 62
     7
370
    25
100
AcDbLine
 10
379.9718106367
 20
599.0301546938
 30
0.0
 11
366.8760097826
 21
600.6800705158
 31
0.0
  0
LINE
  5
96
330
1F
100
AcDbEntity
  8
0
  6
Continuous
 62
     7
370
    25
100
AcDbLine
 10
741.0417484722
 20
348.0072473877
 30
0.0
 11
741.0417484722
 21
334.8079208052
 31
0.0
  0
LWPOLYLINE
  5
97
330
1F
100
AcDbEntity
  8
0
  6
Continuous
 62
     7
370
    25
100
AcDbPolyline
 90
      104
 70
   128
 43
0.0
 10
741.0417484722
 20
348.0072473877
 10
741.8611823347
 20
348.7632473367
 10
742.679853933
 20
349.5851984504
 10
743.4970017119
 20
350.4723361231
 10
744.3118655338
 20
351.42383511
 10
745.1236873857
 20
352.4388102959
 10
745.9317120844
 20
353.5163175174
 10
746.7351879787
 20
354.655354442
 10
747.5333676491
 20
355.8548615004
 10
748.3255086028
 20
357.1137228718
 10
749.1108739642
 20
358.430767522
 10
749.8887331608
 20
359.8047702931
 10
750.6583626024
 20
361.2344530426
 10
751.4190463546
 20
362.7184858328
 10
752.1700768045
 20
364.2554881678
 10
752.9107553188
 20
365.8440302777
 10
753.6403928942
 20
367.4826344485
 10
754.358310798
 20
369.1697763971
 10
755.0638411993
 20
370.9038866887
 10
755.7563277906
 20
372.6833521972
 10
756.4351263984
 20
374.5065176054
 10
757.0996055818
 20
376.3716869451
 10
757.7491472205
 20
378.2771251747
 10
758.3831470898
 20
380.2210597933
 10
759.001015422
 20
382.2016824891
 10
759.6021774559
 20
384.217150822
 10
760.1860739709
 20
386.2655899374
 10
760.7521618072
 20
388.3450943102
 10
761.2999143715
 20
390.4537295171
 10
761.8288221263
 20
392.5895340368
 10
762.3383930644
 20
394.7505210739
 10
762.8281531661
 20
396.9346804074
 10
763.2976468406
 20
399.1399802609
 10
763.7464373495
 20
401.3643691921
 10
764.1741072132
 20
403.6057780016
 10
764.5802585991
 20
405.8621216576
 10
764.9645136919
 20
408.1313012352
 10
765.3265150449
 20
410.4112058693
 10
765.6659259127
 20
412.699714718
 10
765.9824305641
 20
414.9946989353
 10
766.2757345761
 20
417.2940236517
 10
766.5455651078
 20
419.5955499602
 10
766.7916711539
 20
421.8971369055
 10
767.0138237785
 20
424.1966434761
 10
767.211816328
 20
426.4919305956
 10
767.3854646232
 20
428.7808631128
 10
767.5346071308
 20
431.0613117877
 10
767.6591051136
 20
433.3311552723
 10
767.7588427594
 20
435.5882820837
 10
767.833727289
 20
437.8305925688
 10
767.8836890424
 20
440.0560008568
 10
767.9086815435
 20
442.2624368001
 10
767.9086815435
 20
444.4478478996
 10
767.8836890424
 20
446.6102012145
 10
767.833727289
 20
448.7474852528
 10
767.7588427594
 20
450.8577118429
 10
767.6591051136
 20
452.9389179829
 10
767.5346071308
 20
454.9891676667
 10
767.3854646232
 20
457.006553685
 10
767.211816328
 20
458.989199399
 10
767.0138237785
 20
460.9352604869
 10
766.7916711539
 20
462.8429266589
 10
766.5455651078
 20
464.7104233415
 10
766.2757345761
 20
466.536013328
 10
765.9824305641
 20
468.3179983949
 10
765.6659259127
 20
470.0547208812
 10
765.3265150449
 20
471.7445652309
 10
764.9645136919
 20
473.3859594954
 10
764.5802585991
 20
474.977376796
 10
764.1741072132
 20
476.5173367442
 10
763.7464373495
 20
478.0044068187
 10
763.2976468406
 20
479.4372036983
 10
762.8281531661
 20
480.8143945485
 10
762.3383930644
 20
482.1346982612
 10
761.8288221263
 20
483.3968866466
 10
761.2999143715
 20
484.5997855757
 10
760.7521618072
 20
485.7422760726
 10
760.1860739709
 20
486.8232953552
 10
759.6021774559
 20
487.8418378239
 10
759.001015422
 20
488.7969559973
 10
758.3831470898
 20
489.687761393
 10
757.7491472205
 20
490.5134253547
 10
757.0996055818
 20
491.2731798227
 10
756.4351263984
 20
491.9663180486
 10
755.7563277906
 20
492.5921952525
 10
755.0638411993
 20
493.1502292229
 10
754.358310798
 20
493.6399008584
 10
753.6403928942
 20
494.0607546503
 10
752.9107553188
 20
494.4123991066
 10
752.1700768045
 20
494.6945071162
 10
751.4190463546
 20
494.906816253
 10
750.6583626024
 20
495.04912902
 10
749.8887331608
 20
495.1213130332
 10
749.1108739642
 20
495.1233011448
 10
748.3255086028
 20
495.0550915053
 10
747.5333676491
 20
494.9167475655
 10
746.7351879787
 20
494.7083980175
 10
745.9317120844
 20
494.4302366749
 10
745.1236873857
 20
494.0825222925
 10
744.3118655338
 20
493.6655783256
 10
743.4970017119
 20
493.179792629
 10
742.679853933
 20
492.6256170967
 10
741.8611823347
 20
492.0035672408
 10
741.0417484722
 20
491.3142217124
  0
LWPOLYLINE
  5
98
330
1F
100
AcDbEntity
  8
0
  6
Continuous
 62
     7
370
    25
100
AcDbPolyline
 90
      113
 70
   128
 43
0.0
 10
741.0417484722
 20
334.8079208052
 10
741.934174882
 20
335.628345778
 10
742.8258991778
 20
336.5148830003
 10
743.7162197979
 20
337.4668349912
 10
744.6044362851
 20
338.4834528053
 10
745.4898498376
 20
339.5639366213
 10
746.3717638585
 20
340.7074363715
 10
747.2494845047
 20
341.9130524106
 10
748.1223212316
 20
343.1798362236
 10
748.9895873376
 20
344.5067911718
 10
749.8506005033
 20
345.8928732771
 10
750.704683329
 20
347.3369920431
 10
751.5511638675
 20
348.8380113136
 10
752.3893761524
 20
350.3947501656
 10
753.2186607227
 20
352.0059838392
 10
754.038365141
 20
353.6704447009
 10
754.847844507
 20
355.3868232405
 10
755.6464619652
 20
357.1537691021
 10
756.4335892054
 20
358.9698921458
 10
757.2086069575
 20
360.833763542
 10
757.9709054784
 20
362.7439168948
 10
758.7198850319
 20
364.6988493965
 10
759.4549563603
 20
366.6970230093
 10
760.1755411484
 20
368.7368656757
 10
760.881072478
 20
370.816772555
 10
761.5709952743
 20
372.9351072863
 10
762.2447667424
 20
375.0902032757
 10
762.9018567946
 20
377.2803650072
 10
763.5417484671
 20
379.5038693772
 10
764.1639383268
 20
381.7589670498
 10
764.7679368675
 20
384.0438838332
 10
765.3532688952
 20
386.3568220754
 10
765.9194739014
 20
388.6959620785
 10
766.466106426
 20
391.0594635308
 10
766.9927364073
 20
393.4454669539
 10
767.4989495206
 20
395.8520951663
 10
767.9843475042
 20
398.2774547599
 10
768.4485484725
 20
400.7196375896
 10
768.8911872167
 20
403.1767222751
 10
769.311915492
 20
405.6467757116
 10
769.7104022916
 20
408.1278545914
 10
770.0863341071
 20
410.6180069327
 10
770.4394151752
 20
413.1152736148
 10
770.7693677104
 20
415.6176899203
 10
771.0759321233
 20
418.12328708
 10
771.3588672253
 20
420.6300938222
 10
771.617950418
 20
423.1361379236
 10
771.8529778684
 20
425.6394477611
 10
772.0637646693
 20
428.1380538625
 10
772.2501449848
 20
430.6299904564
 10
772.4119721807
 20
433.1132970186
 10
772.5491189398
 20
435.5860198144
 10
772.6614773623
 20
438.0462134361
 10
772.7489590506
 20
440.4919423331
 10
772.8114951787
 20
442.9212823351
 10
772.8490365465
 20
445.3323221654
 10
772.8615536183
 20
447.7231649451
 10
772.8490365465
 20
450.0919296854
 10
772.8114951787
 20
452.4367527671
 10
772.7489590506
 20
454.7557894071
 10
772.6614773623
 20
457.0472151098
 10
772.5491189398
 20
459.3092271023
 10
772.4119721807
 20
461.5400457529
 10
772.2501449848
 20
463.7379159714
 10
772.0637646693
 20
465.9011085892
 10
771.8529778684
 20
468.0279217207
 10
771.617950418
 20
470.1166821015
 10
771.3588672253
 20
472.1657464051
 10
771.0759321233
 20
474.1735025358
 10
770.7693677104
 20
476.1383708972
 10
770.4394151752
 20
478.0588056343
 10
770.0863341071
 20
479.9332958506
 10
769.7104022916
 20
481.760366796
 10
769.311915492
 20
483.5385810275
 10
768.8911872167
 20
485.2665395399
 10
768.4485484725
 20
486.9428828668
 10
767.9843475042
 20
488.5662921496
 10
767.4989495206
 20
490.1354901755
 10
766.9927364073
 20
491.6492423824
 10
766.466106426
 20
493.1063578299
 10
765.9194739014
 20
494.5056901365
 10
765.3532688952
 20
495.8461383812
 10
764.7679368675
 20
497.1266479702
 10
764.1639383268
 20
498.3462114662
 10
763.5417484671
 20
499.5038693808
 10
762.9018567946
 20
500.5987109299
 10
762.2447667424
 20
501.62987475
 10
761.5709952743
 20
502.5965495758
 10
760.881072478
 20
503.4979748785
 10
760.1755411484
 20
504.3334414643
 10
759.4549563603
 20
505.1022920322
 10
758.7198850319
 20
505.803921691
 10
757.9709054784
 20
506.4377784356
 10
757.2086069575
 20
507.003363581
 10
756.4335892054
 20
507.5002321546
 10
755.6464619652
 20
507.9279932465
 10
754.847844507
 20
508.2863103167
 10
754.038365141
 20
508.5749014603
 10
753.2186607227
 20
508.7935396291
 10
752.3893761524
 20
508.94205281
 10
751.5511638675
 20
509.0203241607
 10
750.704683329
 20
509.0282921015
 10
749.8506005033
 20
508.9659503636
 10
748.9895873376
 20
508.8333479941
 10
748.1223212316
 20
508.6305893177
 10
747.2494845047
 20
508.3578338542
 10
746.3717638585
 20
508.0152961931
 10
745.4898498376
 20
507.6032458251
 10
744.6044362851
 20
507.1220069296
 10
743.7162197979
 20
506.5719581199
 10
742.8258991778
 20
505.9535321455
 10
741.934174882
 20
505.2672155513
 10
741.0417484722
 20
504.513548295
  0
LINE
  5
99
330
1F
100
AcDbEntity
  8
0
  6
Continuous
 62
     7
370
    25
100
AcDbLine
 10
741.0417484722
 20
334.8079208052
 30
0.0
 11
712.9793180705
 21
338.3434547095
 31
0.0
  0
LWPOLYLINE
  5
9A
330
1F
100
AcDbEntity
  8
0
  6
Continuous
 62
     7
370
    25
100
AcDbPolyline
 90
       14
 70
   128
 43
0.0
 10
724.229318065
 20
512.4903752035
 10
723.4887334658
 20
512.555858065
 10
722.6422529273
 20
512.5638260058
 10
721.7881701016
 20
512.5014842679
 10
720.9271569359
 20
512.3688818984
 10
720.0598908299
 20
512.166123222
 10
719.187054103
 20
511.8933677585
 10
718.3093334568
 20
511.5508300974
 10
717.4274194358
 20
511.1387797294
 10
716.5420058834
 20
510.6575408338
 10
715.6537893962
 20
510.1074920242
 10
714.7634687761
 20
509.4890660498
 10
713.8717444803
 20
508.8027494556
 10
712.9793180705
 20
508.0490821993
  0
LINE
  5
9B
330
1F
100
AcDbEntity
  8
0
  6
Continuous
 62
     7
370
    25
100
AcDbLine
 10
506.5033909633
 20
377.5563029384
 30
0.0
 11
741.0417484722
 21
348.0072473877
 31
0.0
  0
LINE
  5
9C
330
1F
100
AcDbEntity
  8
0
  6
Continuous
 62
     7
370
    25
100
AcDbLine
 10
712.9793180705
 20
338.3434547095
 30
0.0
 11
710.2893990922
 21
340.2476551639
 31
0.0
  0
ARC
  5
9D
330
1F
100
AcDbEntity
  8
0
  6
Continuous
 62
     7
370
    25
100
AcDbCircle
 10
704.2428092567
 20
331.8113861887
 30
0.0
 40
10.37939703743645
100
AcDbArc
 50
54.3694137342
 51
82.4179514182
  0
LINE
  5
9E
330
1F
100
AcDbEntity
  8
0
  6
Continuous
 62
     7
370
    25
100
AcDbLine
 10
705.6123273586
 20
342.1000354212
 30
0.0
 11
475.6347175214
 21
371.0744907754
 31
0.0
  0
LINE
  5
9F
330
1F
100
AcDbEntity
  8
0
  6
Continuous
 62
     7
370
    25
100
AcDbLine
 10
366.8760097826
 20
332.9223026985
 30
0.0
 11
366.8760097826
 21
357.4353377804
 31
0.0
  0
LWPOLYLINE
  5
A0
330
1F
100
AcDbEntity
  8
0
  6
Continuous
 62
     7
370
    25
100
AcDbPolyline
 90
       42
 70
   128
 43
0.0
 10
366.8760097826
 20
357.4353377804
 10
366.9089581717
 20
359.1645705283
 10
367.0077549827
 20
360.8829631751
 10
367.1722552176
 20
362.5879937425
 10
367.4022174498
 20
364.277159863
 10
367.6973041778
 20
365.9479824525
 10
368.0570823213
 20
367.5980093483
 10
368.4810238561
 20
369.2248189086
 10
368.9685065897
 20
370.8260235658
 10
369.5188150738
 20
372.3992733315
 10
370.131141655
 20
373.9422592445
 10
370.8045876594
 20
375.4527167603
 10
371.5381647123
 20
376.9284290743
 10
372.3307961881
 20
378.367230375
 10
373.1813187909
 20
379.7670090232
 10
374.0884842614
 20
381.1257106506
 10
375.0509612093
 20
382.4413411753
 10
376.0673370668
 20
383.7119697281
 10
377.1361201622
 20
384.9357314863
 10
378.2557419091
 20
386.1108304108
 10
379.424559108
 20
387.2355418819
 10
380.6408563585
 20
388.3082152304
 10
381.9028485767
 20
389.3272761602
 10
383.2086836151
 20
390.291229059
 10
384.5564449805
 20
391.1986591928
 10
385.9441546474
 20
392.0482347829
 10
387.3697759605
 20
392.8387089599
 10
388.8312166238
 20
393.5689215939
 10
390.3263317717
 20
394.2378009972
 10
391.8529271165
 20
394.8443654971
 10
393.4087621691
 20
395.3877248765
 10
394.9915535269
 20
395.8670816806
 10
396.5989782254
 20
396.2817323872
 10
398.2286771472
 20
396.6310684391
 10
399.8782584843
 20
396.9145771376
 10
401.5453012487
 20
397.1318423945
 10
403.2273588253
 20
397.2825453432
 10
404.9219625625
 20
397.3664648062
 10
406.6266253958
 20
397.3834776202
 10
408.3388454973
 20
397.3335588165
 10
410.0561099479
 20
397.2167816578
 10
411.7758984253
 20
397.0333175308
  0
LINE
  5
A1
330
1F
100
AcDbEntity
  8
0
  6
Continuous
 62
     7
370
    25
100
AcDbLine
 10
411.7758984253
 20
397.0333175308
 30
0.0
 11
482.1826179484
 21
388.162904655
 31
0.0
  0
ARC
  5
A2
330
1F
100
AcDbEntity
  8
0
  6
Continuous
 62
     7
370
    25
100
AcDbCircle
 10
480.8881828938
 20
378.1506069774
 30
0.0
 40
10.09562612690195
100
AcDbArc
 50
64.0297274715
 51
82.6334045037
  0
LINE
  5
A3
330
1F
100
AcDbEntity
  8
0
  6
Continuous
 62
     7
370
    25
100
AcDbLine
 10
485.3091055843
 20
387.226790617
 30
0.0
 11
503.3769033275
 21
378.4924169763
 31
0.0
  0
ARC
  5
A4
330
1F
100
AcDbEntity
  8
0
  6
Continuous
 62
     7
370
    25
100
AcDbCircle
 10
507.7978260179
 20
387.5686006159
 30
0.0
 40
10.0956261269021
100
AcDbArc
 50
244.0297274715
 51
262.6334045037
  0
ARC
  5
A5
330
1F
100
AcDbEntity
  8
0
  6
Continuous
 62
     7
370
    25
100
AcDbCircle
 10
475.1736464565
 20
367.6474781356
 30
0.0
 40
3.457889842139679
100
AcDbArc
 50
82.3374252437
 51
114.05999746
  0
LINE
  5
A6
330
1F
100
AcDbEntity
  8
0
  6
Continuous
 62
     7
370
    25
100
AcDbLine
 10
473.7638888279
 20
370.804943193
 30
0.0
 11
469.7715879222
 21
368.9847485465
 31
0.0
  0
LINE
  5
A7
330
1F
100
AcDbEntity
  8
0
  6
Continuous
 62
     7
370
    25
100
AcDbLine
 10
469.7715879222
 20
368.9847485465
 30
0.0
 11
440.7737431738
 21
372.638133581
 31
0.0
  0
LINE
  5
A8
330
1F
100
AcDbEntity
  8
0
  6
Continuous
 62
     7
370
    25
100
AcDbLine
 10
440.7737431738
 20
372.638133581
 30
0.0
 11
439.2147192626
 21
374.2400088691
 31
0.0
  0
LWPOLYLINE
  5
A9
330
1F
100
AcDbEntity
  8
0
  6
Continuous
 62
     7
370
    25
100
AcDbPolyline
 90
       13
 70
   128
 43
0.0
 10
439.2147192626
 20
374.2400088691
 10
438.9261771577
 20
374.490134972
 10
438.6025087194
 20
374.6853573035
 10
438.2555732967
 20
374.8185228345
 10
437.8980827509
 20
374.8847523235
 10
437.5431356875
 20
374.8816190936
 10
437.2037375178
 20
374.8092379479
 10
436.8923239347
 20
374.6702609623
 10
436.6203052643
 20
374.4697803125
 10
436.3976483863
 20
374.2151416947
 10
436.2325115433
 20
373.9156751762
 10
436.1309454192
 20
373.5823533372
 10
436.0966714402
 20
373.2273892317
  0
LINE
  5
AA
330
1F
100
AcDbEntity
  8
0
  6
Continuous
 62
     7
370
    25
100
AcDbLine
 10
436.0966714402
 20
373.2273892317
 30
0.0
 11
436.0966714402
 21
367.570534982
 31
0.0
  0
LINE
  5
AB
330
1F
100
AcDbEntity
  8
0
  6
Continuous
 62
     7
370
    25
100
AcDbLine
 10
436.0966714402
 20
367.570534982
 30
0.0
 11
430.4841853598
 21
368.2776417629
 31
0.0
  0
ARC
  5
AC
330
1F
100
AcDbEntity
  8
0
  6
Continuous
 62
     7
370
    25
100
AcDbCircle
 10
423.9412909572
 20
368.1642055309
 30
0.0
 40
6.543877668648698
100
AcDbArc
 50
0.9932555609
 51
81.825988661
  0
LINE
  5
AD
330
1F
100
AcDbEntity
  8
0
  6
Continuous
 62
     7
370
    25
100
AcDbLine
 10
424.8716992795
 20
374.6416027934
 30
0.0
 11
423.000870586
 21
374.8773050537
 31
0.0
  0
LWPOLYLINE
  5
AE
330
1F
100
AcDbEntity
  8
0
  6
Continuous
 62
     7
370
    25
100
AcDbPolyline
 90
       41
 70
   128
 43
0.0
 10
423.000870586
 20
374.8773050537
 10
421.3115576201
 20
375.0567023881
 10
419.6248494524
 20
375.1689509174
 10
417.9433468645
 20
375.2138775625
 10
416.2696426117
 20
375.1914130496
 10
414.6063174245
 20
375.1015920175
 10
412.9559360298
 20
374.9445529637
 10
411.3210431961
 20
374.720538031
 10
409.7041598097
 20
374.4298926342
 10
408.1077789876
 20
374.0730649275
 10
406.5343622332
 20
373.6506051133
 10
404.9863356412
 20
373.163164594
 10
403.4660861563
 20
372.6114949675
 10
401.9759578931
 20
371.9964468685
 10
400.5182485214
 20
371.3189686566
 10
399.0952057234
 20
370.580104954
 10
397.7090237278
 20
369.7809950349
 10
396.3618399269
 20
368.9228710691
 10
395.0557315805
 20
368.0070562214
 10
393.7927126129
 20
367.034962612
 10
392.5747305078
 20
366.0080891387
 10
391.4036633054
 20
364.9280191661
 10
390.2813167064
 20
363.7964180836
 10
389.2094212879
 20
362.6150307383
 10
388.1896298351
 20
361.3856787436
 10
387.2235147922
 20
360.1102576714
 10
386.3125658388
 20
358.7907341284
 10
385.4581875922
 20
357.4291427243
 10
384.6616974415
 20
356.0275829344
 10
383.9243235169
 20
354.5882158623
 10
383.2472027957
 20
353.1132609076
 10
382.6313793487
 20
351.6049923441
 10
382.0778027312
 20
350.0657358124
 10
381.5873265181
 20
348.4978647347
 10
381.1607069883
 20
346.9037966545
 10
380.7986019582
 20
345.2859895091
 10
380.5015697673
 20
343.6469378401
 10
380.2700684179
 20
341.9891689462
 10
380.1044548683
 20
340.3152389869
 10
380.0049844825
 20
338.6277290409
 10
379.9718106367
 20
336.9292411262
  0
LINE
  5
AF
330
1F
100
AcDbEntity
  8
0
  6
Continuous
 62
     7
370
    25
100
AcDbLine
 10
379.9718106367
 20
336.9292411262
 30
0.0
 11
379.9718106367
 21
331.2723868765
 31
0.0
  0
LINE
  5
B0
330
1F
100
AcDbEntity
  8
0
  6
Continuous
 62
     7
370
    25
100
AcDbLine
 10
379.9718106367
 20
331.2723868765
 30
0.0
 11
366.8760097826
 21
332.9223026985
 31
0.0
  0
LWPOLYLINE
  5
B1
330
1F
100
AcDbEntity
  8
0
  6
Continuous
 62
     7
370
    25
100
AcDbPolyline
 90
       22
 70
   128
 43
0.0
 10
486.8604136858
 20
540.4861170061
 10
486.7007449284
 20
540.614606177
 10
485.9384464075
 20
541.1801913224
 10
485.1634286554
 20
541.677059896
 10
484.3763014152
 20
542.1048209879
 10
483.577683957
 20
542.4631380581
 10
482.768204591
 20
542.7517292017
 10
481.9485001727
 20
542.9703673705
 10
481.1192156024
 20
543.1188805514
 10
480.2810033175
 20
543.1971519021
 10
479.434522779
 20
543.2051198429
 10
478.5804399533
 20
543.142778105
 10
477.7194267876
 20
543.0101757355
 10
476.8521606816
 20
542.8074170591
 10
475.9793239547
 20
542.5346615956
 10
475.1016033085
 20
542.1921239345
 10
474.2196892876
 20
541.7800735665
 10
473.3342757351
 20
541.2988346709
 10
472.4460592479
 20
540.7487858613
 10
471.5557386278
 20
540.1303598869
 10
470.664014332
 20
539.4440432927
 10
469.7715879222
 20
538.6903760364
  0
LWPOLYLINE
  5
B2
330
1F
100
AcDbEntity
  8
0
  6
Continuous
 62
     7
370
    25
100
AcDbPolyline
 90
       14
 70
   128
 43
0.0
 10
452.0237431682
 20
546.785054075
 10
451.283158569
 20
546.8505369365
 10
450.4366780306
 20
546.8585048773
 10
449.5825952048
 20
546.7961631394
 10
448.7215820391
 20
546.6635607699
 10
447.8543159332
 20
546.4608020935
 10
446.9814792062
 20
546.18804663
 10
446.1037585601
 20
545.8455089689
 10
445.2218445391
 20
545.4334586009
 10
444.3364309867
 20
544.9522197054
 10
443.4482144995
 20
544.4021708957
 10
442.5578938793
 20
543.7837449213
 10
441.6661695836
 20
543.0974283271
 10
440.7737431738
 20
542.3437610708
  0
ARC
  5
B3
330
1F
100
AcDbEntity
  8
0
  6
Continuous
 62
     7
370
    25
100
AcDbCircle
 10
409.2349128095
 20
397.4477022069
 30
0.0
 40
40.17709793050911
100
AcDbArc
 50
311.9578591838
 51
321.8526926319
  0
LWPOLYLINE
  5
B4
330
1F
100
AcDbEntity
  8
0
  6
Continuous
 62
     7
370
    25
100
AcDbPolyline
 90
       28
 70
   128
 43
0.0
 10
458.3948613295
 20
545.982368636
 10
458.0696905719
 20
546.4416189367
 10
457.3611259648
 20
547.378135562
 10
456.6369654209
 20
548.2491586232
 10
455.8977400594
 20
549.0540492878
 10
455.1439920485
 20
549.7922172269
 10
454.3762742079
 20
550.4631210477
 10
453.595149603
 20
551.066268691
 10
452.8011911321
 20
551.6012177916
 10
451.9949811061
 20
552.0675760031
 10
451.1771108218
 20
552.4650012856
 10
450.3481801278
 20
552.7932021563
 10
449.5087969845
 20
553.0519379038
 10
448.6595770189
 20
553.2410187641
 10
447.8011430721
 20
553.36030606
 10
446.9341247434
 20
553.4097123031
 10
446.0591579278
 20
553.3892012574
 10
445.1768843501
 20
553.2987879663
 10
444.2879510941
 20
553.1385387413
 10
443.3930101278
 20
552.9085711137
 10
442.4927178258
 20
552.6090537481
 10
441.587734487
 20
552.2402063187
 10
440.6787238514
 20
551.8022993484
 10
439.7663526123
 20
551.2956540103
 10
438.8512899278
 20
550.720641892
 10
437.9342069303
 20
550.0776847232
 10
437.0157762336
 20
549.3672540664
 10
436.0966714402
 20
548.5898709712
  0
LWPOLYLINE
  5
B5
330
1F
100
AcDbEntity
  8
0
  6
Continuous
 62
     7
370
    25
100
AcDbPolyline
 90
       15
 70
   128
 43
0.0
 10
442.4841853539
 20
554.0343569565
 10
442.1886569918
 20
554.0674128409
 10
441.321638663
 20
554.116819084
 10
440.4466718474
 20
554.0963080383
 10
439.5643982697
 20
554.0058947471
 10
438.6754650137
 20
553.8456455222
 10
437.7805240475
 20
553.6156778946
 10
436.8802317454
 20
553.3161605289
 10
435.9752484067
 20
552.9473130995
 10
435.0662377711
 20
552.5094061292
 10
434.1538665319
 20
552.0027607911
 10
433.2388038475
 20
551.4277486728
 10
432.32172085
 20
550.784791504
 10
431.4032901533
 20
550.0743608473
 10
430.4841853598
 20
549.296977752
  0
LWPOLYLINE
  5
B6
330
1F
100
AcDbEntity
  8
0
  6
Continuous
 62
     7
370
    25
100
AcDbPolyline
 90
        3
 70
   128
 43
0.0
 10
440.4541067619
 20
542.1622843118
 10
440.1002686049
 20
541.8822839218
 10
439.849672622
 20
541.6775191076
  0
LWPOLYLINE
  5
B7
330
1F
100
AcDbEntity
  8
0
  6
Continuous
 62
     7
370
    25
100
AcDbPolyline
 90
       22
 70
   128
 43
0.0
 10
379.9718106367
 20
331.2723868765
 10
381.2860133702
 20
332.4772816948
 10
382.5993154148
 20
333.7731046379
 10
383.9108166989
 20
335.1589676136
 10
385.219618385
 20
336.6339208207
 10
386.5248234857
 20
338.1969533999
 10
387.8255374788
 20
339.8469941266
 10
389.1208689199
 20
341.5829121456
 10
390.4099300533
 20
343.4035177451
 10
391.6918374212
 20
345.3075631731
 10
392.9657124681
 20
347.2937434921
 10
394.2306821437
 20
349.3606974731
 10
395.4858795011
 20
351.5070085291
 10
396.7304442906
 20
353.7312056859
 10
397.9635235497
 20
356.0317645898
 10
399.1842721875
 20
358.4071085525
 10
400.3918535638
 20
360.8556096321
 10
401.5854400627
 20
363.3755897481
 10
402.7642136597
 20
365.9653218321
 10
403.9273664821
 20
368.623031011
 10
405.0741013631
 20
371.3468958238
 10
405.9387939297
 20
373.4716957915
  0
LWPOLYLINE
  5
B8
330
1F
100
AcDbEntity
  8
0
  6
Continuous
 62
     7
370
    25
100
AcDbPolyline
 90
       49
 70
   128
 43
0.0
 10
427.4255917713
 20
550.7087719201
 10
427.296732157
 20
551.5776182608
 10
426.8418252015
 20
554.4646393947
 10
426.3547958792
 20
557.290449607
 10
425.8359779757
 20
560.0531122285
 10
425.2857270629
 20
562.7507338684
 10
424.7044202552
 20
565.3814657116
 10
424.0924559514
 20
567.9435047857
 10
423.4502535611
 20
570.4350951972
 10
422.7782532179
 20
572.8545293345
 10
422.0769154771
 20
575.2001490383
 10
421.3467210007
 20
577.470346738
 10
420.5881702275
 20
579.6635665535
 10
419.8017830302
 20
581.7783053615
 10
418.9880983593
 20
583.8131138257
 10
418.1476738738
 20
585.7665973899
 10
417.2810855586
 20
587.6374172342
 10
416.3889273299
 20
589.424291192
 10
415.4718106286
 20
591.1259946291
 10
414.5303640005
 20
592.7413612832
 10
413.5652326662
 20
594.2692840625
 10
412.5770780784
 20
595.708715805
 10
411.566577469
 20
597.0586699963
 10
410.5344233847
 20
598.318221445
 10
409.4813232121
 20
599.4865069176
 10
408.4079986937
 20
600.5627257295
 10
407.3151854325
 20
601.5461402942
 10
406.2036323879
 20
602.4360766284
 10
405.0741013631
 20
603.2319248142
 10
403.9273664821
 20
603.933139417
 10
402.7642136597
 20
604.5392398594
 10
401.5854400627
 20
605.0498107503
 10
400.3918535638
 20
605.46450217
 10
399.1842721875
 20
605.7830299098
 10
397.9635235497
 20
606.0051756665
 10
396.7304442906
 20
606.1307871927
 10
395.4858795011
 20
606.1597784004
 10
394.2306821437
 20
606.0921294205
 10
392.9657124681
 20
605.9278866163
 10
391.6918374212
 20
605.6671625515
 10
390.4099300533
 20
605.3101359134
 10
389.1208689199
 20
604.8570513903
 10
387.8255374788
 20
604.3082195035
 10
386.5248234857
 20
603.6640163952
 10
385.219618385
 20
602.9248835699
 10
383.9108166989
 20
602.0913275924
 10
382.5993154148
 20
601.1639197402
 10
381.2860133702
 20
600.1432956124
 10
379.9718106367
 20
599.0301546938
  0
LWPOLYLINE
  5
B9
330
1F
100
AcDbEntity
  8
0
  6
Continuous
 62
     7
370
    25
100
AcDbPolyline
 90
       15
 70
   128
 43
0.0
 10
384.6260097738
 20
607.6874439224
 10
383.6346434365
 20
607.7807030147
 10
382.390078647
 20
607.8096942224
 10
381.1348812896
 20
607.7420452425
 10
379.8699116139
 20
607.5778024383
 10
378.596036567
 20
607.3170783735
 10
377.3141291992
 20
606.9600517354
 10
376.0250680657
 20
606.5069672122
 10
374.7297366247
 20
605.9581353255
 10
373.4290226316
 20
605.3139322172
 10
372.1238175308
 20
604.5747993919
 10
370.8150158448
 20
603.7412434144
 10
369.5035145607
 20
602.8138355622
 10
368.1902125161
 20
601.7932114344
 10
366.8760097826
 20
600.6800705158
  0
LWPOLYLINE
  5
BA
330
1F
100
AcDbEntity
  8
0
  6
Continuous
 62
     8
370
    25
100
AcDbPolyline
 90
       81
 70
   128
 43
0.0
 10
506.5033909633
 20
377.5563029384
 10
507.3228248257
 20
378.3123028874
 10
508.141496424
 20
379.1342540011
 10
508.9586442029
 20
380.0213916737
 10
509.7735080248
 20
380.9728906607
 10
510.5853298767
 20
381.9878658465
 10
511.3933545754
 20
383.065373068
 10
512.1968304697
 20
384.2044099927
 10
512.9950101402
 20
385.4039170511
 10
513.7871510938
 20
386.6627784225
 10
514.5725164552
 20
387.9798230727
 10
515.3503756518
 20
389.3538258437
 10
516.1200050935
 20
390.7835085932
 10
516.8806888457
 20
392.2675413834
 10
517.6317192955
 20
393.8045437184
 10
518.3723978099
 20
395.3930858283
 10
519.1020353853
 20
397.0316899992
 10
519.819953289
 20
398.7188319478
 10
520.5254836903
 20
400.4529422394
 10
521.2179702817
 20
402.2324077478
 10
521.8967688894
 20
404.055573156
 10
522.5612480728
 20
405.9207424957
 10
523.2107897116
 20
407.8261807254
 10
523.8447895808
 20
409.770115344
 10
524.4626579131
 20
411.7507380398
 10
525.063819947
 20
413.7662063727
 10
525.6477164619
 20
415.8146454881
 10
526.2138042983
 20
417.8941498608
 10
526.7615568625
 20
420.0027850678
 10
527.2904646174
 20
422.1385895875
 10
527.8000355554
 20
424.2995766245
 10
528.2897956572
 20
426.4837359581
 10
528.7592893317
 20
428.6890358115
 10
529.2080798406
 20
430.9134247427
 10
529.6357497042
 20
433.1548335523
 10
530.0419010901
 20
435.4111772082
 10
530.4261561829
 20
437.6803567859
 10
530.788157536
 20
439.96026142
 10
531.1275684037
 20
442.2487702686
 10
531.4440730551
 20
444.5437544859
 10
531.7373770672
 20
446.8430792024
 10
532.0072075988
 20
449.1446055109
 10
532.2533136449
 20
451.4461924561
 10
532.4754662695
 20
453.7456990267
 10
532.673458819
 20
456.0409861462
 10
532.8471071142
 20
458.3299186635
 10
532.9962496218
 20
460.6103673384
 10
533.1207476046
 20
462.8802108229
 10
533.2204852504
 20
465.1373376344
 10
533.29536978
 20
467.3796481195
 10
533.3453315334
 20
469.6050564075
 10
533.3703240346
 20
471.8114923507
 10
533.3703240346
 20
473.9969034503
 10
533.3453315334
 20
476.1592567652
 10
533.29536978
 20
478.2965408035
 10
533.2204852504
 20
480.4067673936
 10
533.1207476046
 20
482.4879735336
 10
532.9962496218
 20
484.5382232174
 10
532.8471071142
 20
486.5556092356
 10
532.673458819
 20
488.5382549497
 10
532.4754662695
 20
490.4843160376
 10
532.2533136449
 20
492.3919822096
 10
532.0072075988
 20
494.2594788922
 10
531.7373770672
 20
496.0850688787
 10
531.4440730551
 20
497.8670539455
 10
531.1275684037
 20
499.6037764319
 10
530.788157536
 20
501.2936207816
 10
530.4261561829
 20
502.9350150461
 10
530.0419010901
 20
504.5264323467
 10
529.6357497042
 20
506.0663922948
 10
529.2080798406
 20
507.5534623694
 10
528.7592893317
 20
508.986259249
 10
528.2897956572
 20
510.3634500992
 10
527.8000355554
 20
511.6837538118
 10
527.2904646174
 20
512.9459421972
 10
526.7615568625
 20
514.1488411264
 10
526.2138042983
 20
515.2913316233
 10
525.6477164619
 20
516.3723509059
 10
525.063819947
 20
517.3908933746
 10
524.4626579131
 20
518.3460115479
 10
524.2762635424
 20
518.6241057915
  0
ARC
  5
BB
330
1F
100
AcDbEntity
  8
0
  6
Continuous
 62
     8
370
    25
100
AcDbCircle
 10
723.8967529121
 20
491.8558075962
 30
0.0
 40
20.22788363138525
100
AcDbArc
 50
115.665406598
 51
132.2760119793
  0
LWPOLYLINE
  5
BC
330
1F
100
AcDbEntity
  8
0
  6
Continuous
 62
     8
370
    25
100
AcDbPolyline
 90
       14
 70
   128
 43
0.0
 10
716.0051606524
 20
510.4905698688
 10
715.9489193631
 20
510.4946455432
 10
715.1174258882
 20
510.5169583971
 10
714.2781799185
 20
510.4688082591
 10
713.4318659553
 20
510.3502344012
 10
712.5791742641
 20
510.161333534
 10
711.7208003127
 20
509.9022597277
 10
710.8574442032
 20
509.5732242866
 10
709.9898101011
 20
509.1744955767
 10
709.1186056613
 20
508.706398807
 10
708.2445414506
 20
508.1693157638
 10
707.3683303684
 20
507.5636844997
 10
706.4906870649
 20
506.8899989764
 10
705.6123273586
 20
506.1488086613
  0
LWPOLYLINE
  5
BD
330
1F
100
AcDbEntity
  8
0
  6
Continuous
 62
     8
370
    25
100
AcDbPolyline
 90
       14
 70
   128
 43
0.0
 10
486.509717516
 20
539.4165139196
 10
485.9713095259
 20
539.4691008974
 10
485.139816051
 20
539.4914137513
 10
484.3005700813
 20
539.4432636133
 10
483.454256118
 20
539.3246897554
 10
482.6015644269
 20
539.1357888882
 10
481.7431904755
 20
538.8767150819
 10
480.8798343659
 20
538.5476796408
 10
480.0122002638
 20
538.1489509309
 10
479.140995824
 20
537.6808541612
 10
478.2669316134
 20
537.1437711179
 10
477.3907205311
 20
536.5381398539
 10
476.5130772276
 20
535.8644543306
 10
475.6347175214
 20
535.1232640155
  0
LWPOLYLINE
  5
BE
330
1F
100
AcDbEntity
  8
0
  6
Continuous
 62
     8
370
    25
100
AcDbPolyline
 90
       81
 70
   128
 43
0.0
 10
503.3769033275
 20
378.4924169763
 10
504.1901364003
 20
379.2426961505
 10
505.0026129771
 20
380.0584274261
 10
505.8135772655
 20
380.9388519833
 10
506.62227488
 20
381.8831508223
 10
507.4279535436
 20
382.8904455254
 10
508.2298637876
 20
383.959799074
 10
509.0272596488
 20
385.0902167206
 10
509.8193993635
 20
386.2806469135
 10
510.6055460574
 20
387.5299822756
 10
511.3849684311
 20
388.8370606342
 10
512.1569414403
 20
390.2006661022
 10
512.9207469705
 20
391.6195302092
 10
513.6756745047
 20
393.0923330813
 10
514.4210217847
 20
394.617704669
 10
515.1560954639
 20
396.1942260217
 10
515.8802117528
 20
397.8204306077
 10
516.5926970547
 20
399.494805678
 10
517.2928885924
 20
401.2157936743
 10
517.9801350248
 20
402.9817936771
 10
518.6537970528
 20
404.7911628954
 10
519.3132480139
 20
406.6422181946
 10
519.9578744652
 20
408.5332376625
 10
520.587076754
 20
410.4624622108
 10
521.2002695758
 20
412.4280972117
 10
521.7968825186
 20
414.4283141671
 10
522.3763605934
 20
416.4612524097
 10
522.9381647508
 20
418.5250208338
 10
523.4817723821
 20
420.6176996543
 10
524.0066778057
 20
422.7373421929
 10
524.5123927374
 20
424.8819766887
 10
524.9984467446
 20
427.0496081324
 10
525.4643876839
 20
429.2382201223
 10
525.9097821219
 20
431.4457767398
 10
526.3342157379
 20
433.6702244433
 10
526.73729371
 20
435.909493979
 10
527.1186410819
 20
438.1615023047
 10
527.4779031117
 20
440.4241545287
 10
527.8147456021
 20
442.6953458578
 10
528.1288552112
 20
444.9729635553
 10
528.4199397439
 20
447.2548889067
 10
528.6877284239
 20
449.5389991903
 10
528.9319721455
 20
451.8231696519
 10
529.1524437049
 20
454.1052754813
 10
529.3489380125
 20
456.3831937889
 10
529.5212722828
 20
458.6548055805
 10
529.6692862047
 20
460.9179977285
 10
529.7928420909
 20
463.1706649373
 10
529.8918250057
 20
465.4107117021
 10
529.9661428719
 20
467.6360542581
 10
530.0157265566
 20
469.8446225188
 10
530.0405299353
 20
472.0343620015
 10
530.0405299353
 20
474.2032357389
 10
530.0157265566
 20
476.3492261737
 10
529.9661428719
 20
478.4703370351
 10
529.8918250057
 20
480.5645951965
 10
529.7928420909
 20
482.6300525103
 10
529.6692862047
 20
484.6647876205
 10
529.5212722828
 20
486.6669077498
 10
529.3489380125
 20
488.6345504604
 10
529.1524437049
 20
490.5658853868
 10
528.9319721455
 20
492.4591159378
 10
528.6877284239
 20
494.3124809684
 10
528.4199397439
 20
496.1242564178
 10
528.1288552112
 20
497.8927569132
 10
527.8147456021
 20
499.6163373373
 10
527.4779031117
 20
501.2933943592
 10
527.1186410819
 20
502.9223679257
 10
526.73729371
 20
504.5017427121
 10
526.3342157379
 20
506.0300495322
 10
525.9097821219
 20
507.505866705
 10
525.4643876839
 20
508.927821377
 10
524.9984467446
 20
510.2945907995
 10
524.5123927374
 20
511.6049035587
 10
524.0066778057
 20
512.8575407587
 10
523.4817723821
 20
514.0513371555
 10
522.9381647508
 20
515.1851822406
 10
522.3763605934
 20
516.258021274
 10
521.7968825186
 20
517.2688562658
 10
521.2002695758
 20
518.2167469041
 10
520.5966351626
 20
519.0876953917
  0
LWPOLYLINE
  5
BF
330
1F
100
AcDbEntity
  8
0
  6
Continuous
 62
     8
370
    25
100
AcDbPolyline
 90
       85
 70
   128
 43
0.0
 10
485.3091055843
 20
387.226790617
 10
486.0861948217
 20
387.9453366879
 10
486.8624855473
 20
388.7295799669
 10
487.6371800701
 20
389.5787145909
 10
488.4094823389
 20
390.4918680168
 10
489.1785987611
 20
391.4681019176
 10
489.9437390174
 20
392.506413147
 10
490.7041168746
 20
393.6057347701
 10
491.458950993
 20
394.7649371596
 10
492.2074657296
 20
395.9828291567
 10
492.9488919347
 20
397.2581592949
 10
493.6824677429
 20
398.5896170864
 10
494.4074393555
 20
399.9758343684
 10
495.1230618151
 20
401.4153867087
 10
495.8285997713
 20
402.9067948702
 10
496.5233282361
 20
404.44852633
 10
497.2065333291
 20
406.0389968549
 10
497.8775130107
 20
407.6765721289
 10
498.5355778042
 20
409.3595694328
 10
499.1800515034
 20
411.086259373
 10
499.8102718679
 20
412.8548676588
 10
500.4255913039
 20
414.6635769258
 10
501.0253775289
 20
416.5105286029
 10
501.6090142221
 20
418.3938248223
 10
502.1759016573
 20
420.31153037
 10
502.7254573194
 20
422.2616746737
 10
503.2571165028
 20
424.2422538285
 10
503.7703328916
 20
426.2512326554
 10
504.2645791215
 20
428.2865467928
 10
504.7393473209
 20
430.3461048178
 10
505.1941496335
 20
432.4277903953
 10
505.6285187192
 20
434.5294644528
 10
506.0420082343
 20
436.648967378
 10
506.4341932903
 20
438.7841212384
 10
506.8046708908
 20
440.9327320192
 10
507.1530603448
 20
443.0925918773
 10
507.4790036587
 20
445.261481411
 10
507.7821659036
 20
447.4371719394
 10
508.06223556
 20
449.6174277937
 10
508.3189248372
 20
451.8000086134
 10
508.5519699697
 20
453.9826716492
 10
508.7611314878
 20
456.1631740674
 10
508.946194464
 20
458.3392752543
 10
509.1069687335
 20
460.5087391188
 10
509.24328909
 20
462.6693363902
 10
509.355015455
 20
464.8188469087
 10
509.4420330221
 20
466.955061907
 10
509.5042523749
 20
469.0757862796
 10
509.5416095789
 20
471.1788408391
 10
509.5540662469
 20
473.2620645546
 10
509.5416095789
 20
475.3233167729
 10
509.5042523749
 20
477.3604794182
 10
509.4420330221
 20
479.371459168
 10
509.355015455
 20
481.3541896047
 10
509.24328909
 20
483.3066333387
 10
509.1069687335
 20
485.2267841022
 10
508.946194464
 20
487.1126688105
 10
508.7611314878
 20
488.9623495894
 10
508.5519699697
 20
490.773925767
 10
508.3189248372
 20
492.5455358263
 10
508.06223556
 20
494.2753593182
 10
507.7821659036
 20
495.9616187322
 10
507.4790036587
 20
497.6025813226
 10
507.1530603448
 20
499.1965608895
 10
506.8046708908
 20
500.7419195112
 10
506.4341932903
 20
502.2370692271
 10
506.0420082343
 20
503.68047367
 10
505.6285187192
 20
505.0706496441
 10
505.1941496335
 20
506.4061686497
 10
504.7393473209
 20
507.6856583507
 10
504.2645791215
 20
508.9078039849
 10
503.7703328916
 20
510.0713497152
 10
503.2571165028
 20
511.1750999195
 10
502.7254573194
 20
512.21792042
 10
502.1759016573
 20
513.1987396481
 10
501.6090142221
 20
514.1165497458
 10
501.0253775289
 20
514.9704076011
 10
500.4255913039
 20
515.7594358173
 10
499.8102718679
 20
516.4828236147
 10
499.1800515034
 20
517.1398276633
 10
498.5355778042
 20
517.7297728471
 10
497.8775130107
 20
518.2520529576
 10
497.2065333291
 20
518.7061313165
 10
496.5233282361
 20
519.0915413278
 10
496.4728478871
 20
519.1170491806
  0
LWPOLYLINE
  5
C0
330
1F
100
AcDbEntity
  8
0
  6
Continuous
 62
     8
370
    25
100
AcDbPolyline
 90
       18
 70
   128
 43
0.0
 10
487.8373614611
 20
539.249246505
 10
487.3046194483
 20
539.4876261366
 10
486.5116614282
 20
539.7804143923
 10
485.7084926236
 20
540.0039607651
 10
484.8957563615
 20
540.1580861974
 10
484.074103632
 20
540.2426672372
 10
483.2441925672
 20
540.257636136
 10
482.4066879141
 20
540.2029809041
 10
481.5622605019
 20
540.0787453195
 10
480.7115867051
 20
539.8850288932
 10
479.8553479011
 20
539.6219867892
 10
478.9942299252
 20
539.2898297005
 10
478.1289225205
 20
538.8888236803
 10
477.260118786
 20
538.4192899286
 10
476.3885146211
 20
537.8816045353
 10
475.5148081682
 20
537.2761981788
 10
474.6396992539
 20
536.6035557808
 10
473.7638888279
 20
535.8642161184
  0
LWPOLYLINE
  5
C1
330
1F
100
AcDbEntity
  8
0
  6
Continuous
 62
     8
370
    25
100
AcDbPolyline
 90
       10
 70
   128
 43
0.0
 10
430.4620095007
 20
548.79740227
 10
430.0814433454
 20
548.6999735663
 10
429.2086066185
 20
548.4272181027
 10
428.3308859723
 20
548.0846804416
 10
427.4489719514
 20
547.6726300736
 10
426.5635583989
 20
547.1913911781
 10
425.6753419117
 20
546.6413423684
 10
424.7850212916
 20
546.022916394
 10
423.8932969958
 20
545.3365997998
 10
423.000870586
 20
544.5829325435
  0
LWPOLYLINE
  5
C2
330
1F
100
AcDbEntity
  8
0
  6
Continuous
 62
     8
370
    25
100
AcDbPolyline
 90
       20
 70
   128
 43
0.0
 10
379.9718106367
 20
336.9292411262
 10
381.2304836773
 20
338.0832248958
 10
382.4882940862
 20
339.3242947568
 10
383.744379823
 20
340.651600142
 10
384.9978800294
 20
342.0642313826
 10
386.2479356189
 20
343.5612203316
 10
387.4936898658
 20
345.1415410277
 10
388.7342889924
 20
346.8041103979
 10
389.9688827541
 20
348.5477890003
 10
391.1966250218
 20
350.3713818046
 10
392.4166743625
 20
352.2736390115
 10
393.6281946153
 20
354.2532569088
 10
394.8303554646
 20
356.3088787653
 10
396.0223330094
 20
358.4390957605
 10
397.203310328
 20
360.6424479501
 10
398.3724780375
 20
362.9174252666
 10
399.5290348486
 20
365.262468554
 10
400.6721881152
 20
367.675970637
 10
401.801154377
 20
370.1562774216
 10
402.7538743518
 20
372.3269867119
  0
LWPOLYLINE
  5
C3
330
1F
100
AcDbEntity
  8
0
  6
Continuous
 62
     8
370
    25
100
AcDbPolyline
 90
       47
 70
   128
 43
0.0
 10
424.6580724046
 20
551.8998543185
 10
424.3949514323
 20
553.397244868
 10
423.8980554121
 20
556.0431752661
 10
423.3710545378
 20
558.6268128931
 10
422.8143099897
 20
561.1463870527
 10
422.2282033325
 20
563.6001709547
 10
421.6131362545
 20
565.9864828981
 10
420.9695302919
 20
568.303687424
 10
420.2978265402
 20
570.550196436
 10
419.5984853515
 20
572.7244702893
 10
418.8719860194
 20
574.825018845
 10
418.1188264502
 20
576.8504024921
 10
417.3395228218
 20
578.7992331338
 10
416.53460923
 20
580.670175139
 10
415.7046373224
 20
582.4619462575
 10
414.8501759203
 20
584.1733184987
 10
413.9718106289
 20
585.8031189738
 10
413.0701434358
 20
587.3502306988
 10
412.1457922987
 20
588.8135933606
 10
411.1993907217
 20
590.1922040436
 10
410.2315873212
 20
591.4851179169
 10
409.2430453812
 20
592.6914488819
 10
408.2344423991
 20
593.8103701796
 10
407.2064696209
 20
594.8411149572
 10
406.1598315679
 20
595.7829767938
 10
405.0952455534
 20
596.6353101843
 10
404.0134411915
 20
597.397530982
 10
402.915159897
 20
598.0691167988
 10
401.801154377
 20
598.6496073633
 10
400.6721881152
 20
599.1386048363
 10
399.5290348486
 20
599.5357740834
 10
398.3724780375
 20
599.8408429045
 10
397.203310328
 20
600.0536022209
 10
396.0223330094
 20
600.1739062177
 10
394.8303554646
 20
600.2016724448
 10
393.6281946153
 20
600.1368818725
 10
392.4166743625
 20
599.9795789051
 10
391.1966250218
 20
599.7298713501
 10
389.9688827541
 20
599.3879303446
 10
388.7342889924
 20
598.9539902379
 10
387.4936898658
 20
598.4283484309
 10
386.2479356189
 20
597.8113651723
 10
384.9978800294
 20
597.1034633114
 10
383.744379823
 20
596.305128009
 10
382.4882940862
 20
595.4169064041
 10
381.2304836773
 20
594.4394072394
 10
379.9718106367
 20
593.3733004441
  0
LWPOLYLINE
  5
C4
330
1F
100
AcDbEntity
  8
0
  6
Continuous
 62
     8
370
    25
100
AcDbPolyline
 90
       83
 70
   128
 43
0.0
 10
482.1826179484
 20
388.162904655
 10
482.9611314146
 20
388.883110797
 10
483.7388283277
 20
389.6698051436
 10
484.5148929909
 20
390.522162561
 10
485.2885114198
 20
391.4392890442
 10
486.0588721952
 20
392.4202226539
 10
486.8251673153
 20
393.4639345264
 10
487.5865930421
 20
394.5693299519
 10
488.3423507453
 20
395.7352495234
 10
489.0916477394
 20
396.9604703522
 10
489.8336981154
 20
398.2437073508
 10
490.5677235647
 20
399.5836145809
 10
491.2929541962
 20
400.9787866648
 10
492.0086293431
 20
402.4277602596
 10
492.7139983608
 20
403.9290155921
 10
493.4083214148
 20
405.4809780528
 10
494.0908702561
 20
407.0820198474
 10
494.760928985
 20
408.7304617041
 10
495.4177948027
 20
410.424574635
 10
496.0607787475
 20
412.1625817497
 10
496.6892064181
 20
413.9426601186
 10
497.3024186806
 20
415.7629426855
 10
497.89977236
 20
417.6215202251
 10
498.4806409149
 20
419.5164433464
 10
499.0444150942
 20
421.4457245366
 10
499.5905035769
 20
423.4073402462
 10
500.1183335913
 20
425.3992330113
 10
500.6273515169
 20
427.4193136113
 10
501.1170234639
 20
429.4654632607
 10
501.5868358343
 20
431.5355358309
 10
502.0362958596
 20
433.6273601019
 10
502.4649321185
 20
435.7387420387
 10
502.8722950305
 20
437.8674670934
 10
503.2579573284
 20
440.0113025271
 10
503.6215145056
 20
442.1679997527
 10
503.9625852408
 20
444.3352966926
 10
504.2808117979
 20
446.5109201515
 10
504.5758604013
 20
448.6925882009
 10
504.8474215856
 20
450.8780125723
 10
505.0952105207
 20
453.0649010573
 10
505.3189673102
 20
455.2509599118
 10
505.5184572642
 20
457.433896262
 10
505.6934711452
 20
459.6114205091
 10
505.8438253878
 20
461.7812487309
 10
505.9693622913
 20
463.9411050772
 10
506.0699501846
 20
466.0887241569
 10
506.1454835651
 20
468.2218534142
 10
506.1958832086
 20
470.3382554911
 10
506.2210962528
 20
472.4357105741
 10
506.2210962528
 20
474.5120187223
 10
506.1958832086
 20
476.5650021754
 10
506.1454835651
 20
478.5925076371
 10
506.0699501846
 20
480.5924085342
 10
505.9693622913
 20
482.5626072467
 10
505.8438253878
 20
484.5010373085
 10
505.6934711452
 20
486.4056655739
 10
505.5184572642
 20
488.2744943509
 10
505.3189673102
 20
490.1055634963
 10
505.0952105207
 20
491.8969524713
 10
504.8474215856
 20
493.6467823563
 10
504.5758604013
 20
495.3532178213
 10
504.2808117979
 20
497.0144690513
 10
503.9625852408
 20
498.628793623
 10
503.6215145056
 20
500.194498333
 10
503.2579573284
 20
501.7099409731
 10
502.8722950305
 20
503.1735320534
 10
502.4649321185
 20
504.5837364689
 10
502.0362958596
 20
505.9390751098
 10
501.5868358343
 20
507.2381264132
 10
501.1170234639
 20
508.4795278536
 10
500.6273515169
 20
509.6619773723
 10
500.1183335913
 20
510.7842347431
 10
499.5905035769
 20
511.8451228729
 10
499.0444150942
 20
512.8435290366
 10
498.4806409149
 20
513.778406044
 10
497.89977236
 20
514.6487733382
 10
497.3024186806
 20
515.4537180241
 10
496.6892064181
 20
516.1923958259
 10
496.0607787475
 20
516.8640319727
 10
495.4177948027
 20
517.4679220107
 10
494.760928985
 20
518.0034325428
 10
494.0908702561
 20
518.4700018923
 10
493.9796140969
 20
518.5400006034
  0
LWPOLYLINE
  5
C5
330
1F
100
AcDbEntity
  8
0
  6
Continuous
 62
     1
370
    25
100
AcDbPolyline
 90
       76
 70
   128
 43
0.0
 10
411.7758984253
 20
397.0333175308
 10
412.5544118915
 20
397.7535236728
 10
413.3321088046
 20
398.5402180194
 10
414.1081734678
 20
399.3925754369
 10
414.8817918967
 20
400.30970192
 10
415.6521526721
 20
401.2906355298
 10
416.4184477922
 20
402.3343474022
 10
417.179873519
 20
403.4397428278
 10
417.9356312222
 20
404.6056623993
 10
418.6849282163
 20
405.8308832281
 10
419.4269785922
 20
407.1141202267
 10
420.1610040416
 20
408.4540274568
 10
420.8862346731
 20
409.8491995406
 10
421.60190982
 20
411.2981731354
 10
422.3072788377
 20
412.7994284679
 10
423.0016018917
 20
414.3513909286
 10
423.684150733
 20
415.9524327232
 10
424.3542094619
 20
417.6008745799
 10
425.0110752796
 20
419.2949875109
 10
425.6540592244
 20
421.0329946255
 10
426.282486895
 20
422.8130729945
 10
426.8956991575
 20
424.6333555613
 10
427.4930528369
 20
426.4919331009
 10
428.0739213917
 20
428.3868562222
 10
428.6376955711
 20
430.3161374125
 10
429.1837840538
 20
432.2777531221
 10
429.7116140682
 20
434.2696458871
 10
430.2206319938
 20
436.2897264871
 10
430.7103039408
 20
438.3358761365
 10
431.1801163112
 20
440.4059487068
 10
431.6295763365
 20
442.4977729778
 10
432.0582125954
 20
444.6091549146
 10
432.4655755074
 20
446.7378799692
 10
432.8512378053
 20
448.881715403
 10
433.2147949825
 20
451.0384126286
 10
433.5558657177
 20
453.2057095685
 10
433.8740922748
 20
455.3813330274
 10
434.1691408782
 20
457.5630010768
 10
434.4407020625
 20
459.7484254482
 10
434.6884909976
 20
461.9353139331
 10
434.9122477871
 20
464.1213727876
 10
435.1117377411
 20
466.3043091378
 10
435.2867516221
 20
468.481833385
 10
435.4371058647
 20
470.6516616067
 10
435.5626427682
 20
472.811517953
 10
435.6632306615
 20
474.9591370327
 10
435.738764042
 20
477.0922662901
 10
435.7891636854
 20
479.208668367
 10
435.8143767297
 20
481.3061234499
 10
435.8143767297
 20
483.3824315982
 10
435.7891636854
 20
485.4354150512
 10
435.738764042
 20
487.4629205129
 10
435.6632306615
 20
489.46282141
 10
435.5626427682
 20
491.4330201226
 10
435.4371058647
 20
493.3714501843
 10
435.2867516221
 20
495.2760784497
 10
435.1117377411
 20
497.1449072268
 10
434.9122477871
 20
498.9759763721
 10
434.6884909976
 20
500.7673653471
 10
434.4407020625
 20
502.5171952321
 10
434.1691408782
 20
504.2236306972
 10
433.8740922748
 20
505.8848819271
 10
433.5558657177
 20
507.4992064989
 10
433.2147949825
 20
509.0649112088
 10
432.8512378053
 20
510.580353849
 10
432.4655755074
 20
512.0439449292
 10
432.0582125954
 20
513.4541493447
 10
431.6295763365
 20
514.8094879857
 10
431.1801163112
 20
516.1085392891
 10
430.7103039408
 20
517.3499407295
 10
430.2206319938
 20
518.5323902482
 10
429.7116140682
 20
519.654647619
 10
429.1837840538
 20
520.7155357488
 10
428.6376955711
 20
521.7139419124
 10
428.0739213917
 20
522.6488189198
 10
427.6779423119
 20
523.2518779783
  0
LWPOLYLINE
  5
C6
330
1F
100
AcDbEntity
  8
0
  6
Continuous
 62
     8
370
    25
100
AcDbPolyline
 90
        3
 70
   128
 43
0.0
 10
436.0966714402
 20
373.2273892317
 10
436.9890978499
 20
374.0478142045
 10
437.836936601
 20
374.8891569339
  0
LWPOLYLINE
  5
C7
330
1F
100
AcDbEntity
  8
0
  6
Continuous
 62
     8
370
    25
100
AcDbPolyline
 90
       17
 70
   128
 43
0.0
 10
449.6504313295
 20
546.8036561803
 10
449.0932881089
 20
546.9943698868
 10
448.2735836907
 20
547.2130080556
 10
447.4442991204
 20
547.3615212365
 10
446.6060868354
 20
547.4397925872
 10
445.759606297
 20
547.447760528
 10
444.9055234712
 20
547.3854187901
 10
444.0445103055
 20
547.2528164207
 10
443.1772441996
 20
547.0500577443
 10
442.3044074726
 20
546.7773022807
 10
441.4266868265
 20
546.4347646197
 10
440.5447728055
 20
546.0227142516
 10
439.6593592531
 20
545.5414753561
 10
438.7711427658
 20
544.9914265464
 10
437.8808221457
 20
544.373000572
 10
436.9890978499
 20
543.6866839778
 10
436.0966714402
 20
542.9330167215
  0
LINE
  5
C8
330
1F
100
AcDbEntity
  8
0
  6
Continuous
 62
     8
370
    25
100
AcDbLine
 10
439.849672622
 20
541.6775191076
 30
0.0
 11
439.2147192626
 21
541.1347228831
 31
0.0
  0
ARC
  5
C9
330
1F
100
AcDbEntity
  8
0
  6
Continuous
 62
     8
370
    25
100
AcDbCircle
 10
438.4917676248
 20
529.4117391365
 30
0.0
 40
20.21324213291301
100
AcDbArc
 50
113.9005441837
 51
132.3625124847
  0
LINE
  5
CA
330
1F
100
AcDbEntity
  8
0
  6
CENTERX2
 62
     7
370
    18
100
AcDbLine
 10
743.0260619555
 20
419.4107345502
 30
0.0
 11
364.8916962993
 21
467.051186607
 31
0.0
  0
MTEXT
  5
CC
330
1F
100
AcDbEntity
  8
0
  6
Continuous
 62
     7
100
AcDbMText
 10
0.0
 20
40.5789832663
 30
0.0
 40
14.5493
 41
0.0
 71
     1
 72
     1
  1
SOLIDWORKS Educational Product.
  7
SLDTEXTSTYLE0
 73
     1
 44
1.0
  0
MTEXT
  5
CD
330
1F
100
AcDbEntity
  8
0
  6
Continuous
 62
     7
100
AcDbMText
 10
0.0
 20
18.7550332663
 30
0.0
 40
14.5493
 41
0.0
 71
     1
 72
     1
  1
For Instructional Use Only.
  7
SLDTEXTSTYLE0
 73
     1
 44
1.0
  0
ENDSEC
  0
SECTION
  2
OBJECTS
  0
DICTIONARY
  5
C
330
0
100
AcDbDictionary
281
     1
  3
ACAD_GROUP
350
D
  3
ACAD_LAYOUT
350
1A
  3
ACAD_MLINESTYLE
350
17
  3
ACAD_PLOTSETTINGS
350
19
  3
ACAD_PLOTSTYLENAME
350
E
  3
ACAD_SCALELIST
350
47
  0
DICTIONARY
  5
D
102
{ACAD_REACTORS
330
C
102
}
330
C
100
AcDbDictionary
281
     1
  0
DICTIONARY
  5
1A
102
{ACAD_REACTORS
330
C
102
}
330
C
100
AcDbDictionary
281
     1
  3
Layout1
350
1E
  3
Layout2
350
26
  3
Model
350
22
  0
DICTIONARY
  5
17
102
{ACAD_REACTORS
330
C
102
}
330
C
100
AcDbDictionary
281
     1
  3
Standard
350
18
  0
DICTIONARY
  5
19
102
{ACAD_REACTORS
330
C
102
}
330
C
100
AcDbDictionary
281
     1
  0
ACDBDICTIONARYWDFLT
  5
E
102
{ACAD_REACTORS
330
C
102
}
330
C
100
AcDbDictionary
281
     1
  3
Normal
350
F
100
AcDbDictionaryWithDefault
340
F
  0
DICTIONARY
  5
47
102
{ACAD_REACTORS
330
C
102
}
330
C
100
AcDbDictionary
281
     1
  3
A0
350
48
  3
A1
350
49
  3
A2
350
4A
  3
A3
350
4B
  3
A4
350
4C
  3
A5
350
4D
  3
A6
350
4E
  3
A7
350
4F
  3
A8
350
50
  3
A9
350
51
  3
B0
350
52
  3
B1
350
53
  3
B2
350
54
  3
B3
350
55
  3
B4
350
56
  3
B5
350
57
  3
B6
350
58
  3
B7
350
59
  3
B8
350
5A
  3
B9
350
5B
  3
C0
350
5C
  3
C1
350
5D
  3
C2
350
5E
  3
C3
350
5F
  3
C4
350
60
  3
C5
350
61
  3
C6
350
62
  3
C7
350
63
  3
C8
350
64
  3
C9
350
65
  3
D0
350
66
  3
D1
350
67
  3
D2
350
68
  0
LAYOUT
  5
1E
102
{ACAD_REACTORS
330
1A
102
}
330
1A
100
AcDbPlotSettings
  1

  2
none_device
  4

  6

 40
0.0
 41
0.0
 42
0.0
 43
0.0
 44
0.0
 45
0.0
 46
0.0
 47
0.0
 48
0.0
 49
0.0
140
0.0
141
0.0
142
1.0
143
1.0
 70
   688
 72
     1
 73
     0
 74
     5
  7

 75
    16
147
1.0
148
0.0
149
0.0
100
AcDbLayout
  1
Layout1
 70
     1
 71
     1
 10
0.0
 20
0.0
 11
420.0
 21
297.0
 12
0.0
 22
0.0
 32
0.0
 14
1.0000000000E+20
 24
1.0000000000E+20
 34
1.0000000000E+20
 15
-1.0000000000E+20
 25
-1.0000000000E+20
 35
-1.0000000000E+20
146
0.0
 13
0.0
 23
0.0
 33
0.0
 16
1.0
 26
0.0
 36
0.0
 17
0.0
 27
1.0
 37
0.0
 76
     0
330
1B
  0
LAYOUT
  5
26
102
{ACAD_REACTORS
330
1A
102
}
330
1A
100
AcDbPlotSettings
  1

  2
none_device
  4

  6

 40
0.0
 41
0.0
 42
0.0
 43
0.0
 44
0.0
 45
0.0
 46
0.0
 47
0.0
 48
0.0
 49
0.0
140
0.0
141
0.0
142
1.0
143
1.0
 70
   688
 72
     1
 73
     0
 74
     5
  7

 75
    16
147
1.0
148
0.0
149
0.0
100
AcDbLayout
  1
Layout2
 70
     1
 71
     2
 10
0.0
 20
0.0
 11
0.0
 21
0.0
 12
0.0
 22
0.0
 32
0.0
 14
0.0
 24
0.0
 34
0.0
 15
0.0
 25
0.0
 35
0.0
146
0.0
 13
0.0
 23
0.0
 33
0.0
 16
1.0
 26
0.0
 36
0.0
 17
0.0
 27
1.0
 37
0.0
 76
     0
330
23
  0
LAYOUT
  5
22
102
{ACAD_REACTORS
330
1A
102
}
330
1A
100
AcDbPlotSettings
  1

  2
none_device
  4
Letter_(8.50_x_11.00_Inches)
  6

 40
6.35
 41
6.35
 42
6.35000508
 43
6.35000508
 44
215.9
 45
279.4
 46
0.0
 47
0.0
 48
0.0
 49
0.0
140
0.0
141
0.0
142
1.0
143
1.0
 70
  1712
 72
     1
 73
     0
 74
     0
  7

 75
     0
147
1.0
148
0.0
149
0.0
100
AcDbLayout
  1
Model
 70
     1
 71
     0
 10
0.0
 20
0.0
 11
1189.0
 21
841.0
 12
0.0
 22
0.0
 32
0.0
 14
0.0
 24
0.0
 34
0.0
 15
1189.0
 25
841.0
 35
0.0
146
0.0
 13
0.0
 23
0.0
 33
0.0
 16
1.0
 26
0.0
 36
0.0
 17
0.0
 27
1.0
 37
0.0
 76
     0
330
1F
331
29
  0
MLINESTYLE
  5
18
102
{ACAD_REACTORS
330
17
102
}
330
17
100
AcDbMlineStyle
  2
Standard
 70
     0
  3

 62
   256
 51
90.0
 52
90.0
 71
     2
 49
0.5
 62
   256
  6
BYLAYER
 49
-0.5
 62
   256
  6
BYLAYER
  0
ACDBPLACEHOLDER
  5
F
102
{ACAD_REACTORS
330
E
102
}
330
E
  0
SCALE
  5
48
102
{ACAD_REACTORS
330
47
102
}
330
47
100
AcDbScale
 70
     0
300
1:1
140
1.0
141
1.0
290
     1
  0
SCALE
  5
49
102
{ACAD_REACTORS
330
47
102
}
330
47
100
AcDbScale
 70
     0
300
1:2
140
1.0
141
2.0
290
     0
  0
SCALE
  5
4A
102
{ACAD_REACTORS
330
47
102
}
330
47
100
AcDbScale
 70
     0
300
1:4
140
1.0
141
4.0
290
     0
  0
SCALE
  5
4B
102
{ACAD_REACTORS
330
47
102
}
330
47
100
AcDbScale
 70
     0
300
1:5
140
1.0
141
5.0
290
     0
  0
SCALE
  5
4C
102
{ACAD_REACTORS
330
47
102
}
330
47
100
AcDbScale
 70
     0
300
1:8
140
1.0
141
8.0
290
     0
  0
SCALE
  5
4D
102
{ACAD_REACTORS
330
47
102
}
330
47
100
AcDbScale
 70
     0
300
1:10
140
1.0
141
10.0
290
     0
  0
SCALE
  5
4E
102
{ACAD_REACTORS
330
47
102
}
330
47
100
AcDbScale
 70
     0
300
1:16
140
1.0
141
16.0
290
     0
  0
SCALE
  5
4F
102
{ACAD_REACTORS
330
47
102
}
330
47
100
AcDbScale
 70
     0
300
1:20
140
1.0
141
20.0
290
     0
  0
SCALE
  5
50
102
{ACAD_REACTORS
330
47
102
}
330
47
100
AcDbScale
 70
     0
300
1:30
140
1.0
141
30.0
290
     0
  0
SCALE
  5
51
102
{ACAD_REACTORS
330
47
102
}
330
47
100
AcDbScale
 70
     0
300
1:40
140
1.0
141
40.0
290
     0
  0
SCALE
  5
52
102
{ACAD_REACTORS
330
47
102
}
330
47
100
AcDbScale
 70
     0
300
1:50
140
1.0
141
50.0
290
     0
  0
SCALE
  5
53
102
{ACAD_REACTORS
330
47
102
}
330
47
100
AcDbScale
 70
     0
300
1:100
140
1.0
141
100.0
290
     0
  0
SCALE
  5
54
102
{ACAD_REACTORS
330
47
102
}
330
47
100
AcDbScale
 70
     0
300
2:1
140
2.0
141
1.0
290
     0
  0
SCALE
  5
55
102
{ACAD_REACTORS
330
47
102
}
330
47
100
AcDbScale
 70
     0
300
4:1
140
4.0
141
1.0
290
     0
  0
SCALE
  5
56
102
{ACAD_REACTORS
330
47
102
}
330
47
100
AcDbScale
 70
     0
300
8:1
140
8.0
141
1.0
290
     0
  0
SCALE
  5
57
102
{ACAD_REACTORS
330
47
102
}
330
47
100
AcDbScale
 70
     0
300
10:1
140
10.0
141
1.0
290
     0
  0
SCALE
  5
58
102
{ACAD_REACTORS
330
47
102
}
330
47
100
AcDbScale
 70
     0
300
100:1
140
100.0
141
1.0
290
     0
  0
SCALE
  5
59
102
{ACAD_REACTORS
330
47
102
}
330
47
100
AcDbScale
 70
     0
300
1/128" = 1'-0"
140
0.0078125
141
12.0
290
     0
  0
SCALE
  5
5A
102
{ACAD_REACTORS
330
47
102
}
330
47
100
AcDbScale
 70
     0
300
1/64" = 1'-0"
140
0.015625
141
12.0
290
     0
  0
SCALE
  5
5B
102
{ACAD_REACTORS
330
47
102
}
330
47
100
AcDbScale
 70
     0
300
1/32" = 1'-0"
140
0.03125
141
12.0
290
     0
  0
SCALE
  5
5C
102
{ACAD_REACTORS
330
47
102
}
330
47
100
AcDbScale
 70
     0
300
1/16" = 1'-0"
140
0.0625
141
12.0
290
     0
  0
SCALE
  5
5D
102
{ACAD_REACTORS
330
47
102
}
330
47
100
AcDbScale
 70
     0
300
3/32" = 1'-0"
140
0.09375
141
12.0
290
     0
  0
SCALE
  5
5E
102
{ACAD_REACTORS
330
47
102
}
330
47
100
AcDbScale
 70
     0
300
1/8" = 1'-0"
140
0.125
141
12.0
290
     0
  0
SCALE
  5
5F
102
{ACAD_REACTORS
330
47
102
}
330
47
100
AcDbScale
 70
     0
300
3/16" = 1'-0"
140
0.1875
141
12.0
290
     0
  0
SCALE
  5
60
102
{ACAD_REACTORS
330
47
102
}
330
47
100
AcDbScale
 70
     0
300
1/4" = 1'-0"
140
0.25
141
12.0
290
     0
  0
SCALE
  5
61
102
{ACAD_REACTORS
330
47
102
}
330
47
100
AcDbScale
 70
     0
300
3/8" = 1'-0"
140
0.375
141
12.0
290
     0
  0
SCALE
  5
62
102
{ACAD_REACTORS
330
47
102
}
330
47
100
AcDbScale
 70
     0
300
1/2" = 1'-0"
140
0.5
141
12.0
290
     0
  0
SCALE
  5
63
102
{ACAD_REACTORS
330
47
102
}
330
47
100
AcDbScale
 70
     0
300
3/4" = 1'-0"
140
0.75
141
12.0
290
     0
  0
SCALE
  5
64
102
{ACAD_REACTORS
330
47
102
}
330
47
100
AcDbScale
 70
     0
300
1" = 1'-0"
140
1.0
141
12.0
290
     0
  0
SCALE
  5
65
102
{ACAD_REACTORS
330
47
102
}
330
47
100
AcDbScale
 70
     0
300
1-1/2" = 1'-0"
140
1.5
141
12.0
290
     0
  0
SCALE
  5
66
102
{ACAD_REACTORS
330
47
102
}
330
47
100
AcDbScale
 70
     0
300
3" = 1'-0"
140
3.0
141
12.0
290
     0
  0
SCALE
  5
67
102
{ACAD_REACTORS
330
47
102
}
330
47
100
AcDbScale
 70
     0
300
6" = 1'-0"
140
6.0
141
12.0
290
     0
  0
SCALE
  5
68
102
{ACAD_REACTORS
330
47
102
}
330
47
100
AcDbScale
 70
     0
300
1'-0" = 1'-0"
140
12.0
141
12.0
290
     0
  0
ENDSEC
  0
EOF
